<svg xmlns="http://www.w3.org/2000/svg" viewBox="0 0 64 64" width="48" height="48">
	<style>
		tspan { white-space:pre }
		.shp0 { fill: #f1602e } 
	</style>
	<g id="Layer">
		<path id="Layer" fill-rule="evenodd" class="shp0" d="M61 53L63 53L63 58C63 60.76 60.76 63 58 63L6 63C3.24 63 1 60.76 1 58L1 53L3 53L3 20C3 17.24 5.24 15 8 15L40.59 15L40.86 14.73C39.77 14.24 39 13.15 39 11.88C39 11.04 39.32 10.26 39.91 9.67L45.67 3.91C46.25 3.33 47.06 3 47.88 3C49.15 3 50.24 3.77 50.73 4.86L52.84 2.74C53.97 1.62 55.46 1 57.05 1C60.33 1 63 3.67 63 6.95C63 8.54 62.38 10.03 61.26 11.16L57.24 15.17C59.4 15.73 61 17.67 61 20L61 53ZM41.41 17L47 22.59L59.84 9.74C60.59 9 61 8 61 6.95C61 4.77 59.23 3 57.05 3C55.99 3 55 3.41 54.26 4.16L41.41 17ZM5 53L59 53L59 20C59 18.35 57.65 17 56 17L55.41 17L53.41 19L55 19C56.1 19 57 19.9 57 21L57 49C57 50.1 56.1 51 55 51L9 51C7.9 51 7 50.1 7 49L7 21C7 19.9 7.9 19 9 19L38.59 19L39.59 18L38.59 17L8 17C6.35 17 5 18.35 5 20L5 53ZM36.59 21L9 21L9 49L55 49L55 21L51.41 21L47 25.41L46 24.41L43.41 27L53 27L53 47L33 47L33 36.17C32.75 36.17 32.5 36.13 32.25 36.06L30.2 37.6C29 38.5 27.51 39 26 39L25 39C23.48 39 22.95 38.05 22.63 37.49C22.38 37.05 22.35 37 22 37C21.62 37 21.34 37.35 20.82 38.08C20.24 38.89 19.45 40 18 40C16.37 40 15.86 38.65 15.56 37.85C15.24 37 15.17 37 15 37C14.48 37 14.21 37.24 13.69 37.73C13.12 38.27 12.33 39 11 39L11 37C11.52 37 11.79 36.76 12.31 36.27C12.88 35.73 13.66 35 15 35C16.63 35 17.14 36.35 17.44 37.15C17.75 38 17.83 38 18 38C18.38 38 18.66 37.65 19.18 36.92C19.76 36.11 20.55 35 22 35C23.52 35 24.05 35.95 24.37 36.51C24.62 36.95 24.65 37 25 37L25.08 37C25.25 35.85 25.7 34.73 26.4 33.8L27.93 31.75C27.87 31.51 27.83 31.26 27.83 31C27.83 30.2 28.14 29.45 28.71 28.88L36.59 21ZM51 45L51 29L41.41 29L35.12 35.29C35.08 35.33 35.04 35.36 35 35.39L35 45L51 45ZM41.33 11.09C41.12 11.3 41 11.58 41 11.88C41 12.5 41.5 13 42.12 13C42.42 13 42.7 12.88 42.91 12.67L48.67 6.91C48.88 6.7 49 6.42 49 6.12C49 5.5 48.5 5 47.88 5C47.58 5 47.3 5.12 47.09 5.33L41.33 11.09ZM30.12 30.29C29.93 30.48 29.83 30.73 29.83 31C29.83 31.27 29.93 31.52 30.12 31.71L32.29 33.88C32.68 34.27 33.32 34.27 33.71 33.88L44.59 23L41 19.41L30.12 30.29ZM28 35C27.58 35.55 27.29 36.2 27.13 36.87C27.8 36.71 28.44 36.42 29 36L30.48 34.89L29.11 33.52L28 35ZM61 55L3 55L3 58C3 59.65 4.35 61 6 61L58 61C59.65 61 61 59.65 61 58L61 55Z" />
		<path id="Layer" class="shp0" d="M7 57L9 57L9 59L7 59L7 57Z" />
		<path id="Layer" class="shp0" d="M11 57L13 57L13 59L11 59L11 57Z" />
		<path id="Layer" class="shp0" d="M15 57L17 57L17 59L15 59L15 57Z" />
		<path id="Layer" class="shp0" d="M49.94 10.64L51.29 9.3L52.7 10.71L51.36 12.06L49.94 10.64Z" />
		<path id="Layer" class="shp0" d="M47.11 13.47L48.53 12.05L49.94 13.47L48.53 14.88L47.11 13.47Z" />
		<path id="Layer" class="shp0" d="M44.29 16.3L45.7 14.88L47.11 16.3L45.7 17.71L44.29 16.3Z" />
		<path id="Layer" class="shp0" d="M11 23L13 23L13 25L11 25L11 23Z" />
		<path id="Layer" class="shp0" d="M15 23L17 23L17 25L15 25L15 23Z" />
		<path id="Layer" class="shp0" d="M19 23L21 23L21 25L19 25L19 23Z" />
		<path id="Layer" class="shp0" d="M11 27L25 27L25 29L11 29L11 27Z" />
		<path id="Layer" class="shp0" d="M11 31L25 31L25 33L11 33L11 31Z" />
		<path id="Layer" class="shp0" d="M11 45L13 45L13 47L11 47L11 45Z" />
		<path id="Layer" class="shp0" d="M15 45L17 45L17 47L15 47L15 45Z" />
		<path id="Layer" class="shp0" d="M19 45L21 45L21 47L19 47L19 45Z" />
		<path id="Layer" class="shp0" d="M47 31L49 31L49 33L47 33L47 31Z" />
		<path id="Layer" class="shp0" d="M47 35L49 35L49 37L47 37L47 35Z" />
		<path id="Layer" class="shp0" d="M47 39L49 39L49 41L47 41L47 39Z" />
	</g>
</svg>