<svg xmlns="http://www.w3.org/2000/svg" viewBox="0 0 778 775" width="48" height="48">
	<defs>
		<clipPath clipPathUnits="userSpaceOnUse" id="cp1">
			<path d="M0 0L778 0L778 775L0 775Z" />
		</clipPath>
	</defs>
	<style>
		tspan { white-space:pre }
		.shp0 { fill: #f1602e } 
	</style>
	<g id="Page 1" clip-path="url(#cp1)">
		<path id="Path 1" fill-rule="evenodd" class="shp0" d="M215 650.5L215 675.5L190 675.5L190 650.5C162.43 650.5 140 628.07 140 600.5L165 600.5C165 614.29 176.21 625.5 190 625.5L240 625.5L240 600.5C240 586.71 228.79 575.5 215 575.5L190 575.5C162.43 575.5 140 553.07 140 525.5L140 475.5L190 475.5L190 450.5L215 450.5L215 475.5C242.57 475.5 265 497.93 265 525.5L240 525.5C240 511.71 228.79 500.5 215 500.5L165 500.5L165 525.5C165 539.29 176.21 550.5 190 550.5L215 550.5C242.57 550.5 265 572.93 265 600.5L265 650.5L215 650.5ZM486.34 459.34L468.66 441.66L506.26 404.07C503.93 399.17 502.5 393.78 502.5 388C502.5 367.32 519.32 350.5 540 350.5C560.68 350.5 577.5 367.32 577.5 388C577.5 393.78 576.08 399.17 573.74 404.06L598.84 429.16L581.16 446.84L556.06 421.74C551.17 424.08 545.78 425.5 540 425.5C534.22 425.5 528.83 424.08 523.94 421.75L486.34 459.34ZM527.5 388C527.5 394.9 533.11 400.5 540 400.5C546.89 400.5 552.5 394.9 552.5 388C552.5 381.1 546.89 375.5 540 375.5C533.11 375.5 527.5 381.1 527.5 388ZM340.23 586.1L350.86 655.24L347.61 659.48C340.58 668.65 332.29 677.23 322.96 684.92L307.04 665.66C313.5 660.31 319.36 654.5 324.51 648.34L315.53 589.9L340.23 586.1ZM284.04 681.2L295.95 703.18C287.44 707.78 278.39 711.75 269.05 714.96L260.94 691.3C268.97 688.55 276.75 685.14 284.04 681.2Z" />
		<path id="Path 2" fill-rule="evenodd" class="shp0" d="M388.35 570.09L402.96 665.03L401.19 668.59C399 672.96 346.07 775.5 202.5 775.5C58.93 775.5 6 672.96 3.81 668.59L2.04 665.03L24.87 516.59C26.99 502.86 32.42 489.65 40.59 478.42L119.81 369.5C109.43 362.82 102.5 351.24 102.5 338C102.5 324.12 110.17 312.12 121.39 305.64L82.8 238.1C79.32 232.03 77.5 225.12 77.5 218.13L77.5 215.76C77.5 193.55 95.57 175.5 117.76 175.5L190 175.5L190 150.5L127.5 150.5C79.25 150.5 40 111.23 40 63L40 50.5L127.5 50.5C152.34 50.5 174.74 60.95 190.67 77.63C195.83 34.26 232.77 0.5 277.5 0.5L365 0.5L365 13C365 61.23 325.75 100.5 277.5 100.5L215 100.5L215 175.78C230.58 176.86 243.76 186.67 249.45 200.5L287.24 200.5C309.43 200.5 327.5 218.55 327.5 240.76C327.5 249.86 324.36 258.8 318.68 265.92L285.9 306.89C295.9 313.63 302.5 325.05 302.5 338C302.5 351.24 295.57 362.82 285.19 369.5L302.68 393.55C302.62 391.7 302.5 389.84 302.5 388C302.5 257.04 409.04 150.5 540 150.5C670.96 150.5 777.5 257.04 777.5 388C777.5 518.96 670.96 625.5 540 625.5C484.2 625.5 430.77 605.47 388.35 570.09ZM216.26 75.5L277.5 75.5C307.68 75.5 332.94 53.99 338.74 25.5L277.5 25.5C247.32 25.5 222.06 47.01 216.26 75.5ZM188.74 125.5C182.94 97.01 157.68 75.5 127.5 75.5L66.26 75.5C72.06 103.99 97.32 125.5 127.5 125.5L188.74 125.5ZM333.11 435.4L364.4 478.42C372.56 489.66 378 502.86 380.11 516.59L382.14 529.72C422.53 574.66 479.8 600.5 540 600.5C657.17 600.5 752.5 505.17 752.5 388C752.5 270.83 657.17 175.5 540 175.5C422.83 175.5 327.5 270.83 327.5 388C327.5 403.4 329.43 419.34 333.11 435.4ZM265 350.5C271.89 350.5 277.5 344.9 277.5 338C277.5 331.1 271.89 325.5 265 325.5L140 325.5C133.11 325.5 127.5 331.1 127.5 338C127.5 344.9 133.11 350.5 140 350.5L265 350.5ZM104.5 225.7L147.25 300.5L258.99 300.5L299.15 250.3C301.31 247.6 302.5 244.21 302.5 240.76C302.5 232.35 295.65 225.5 287.24 225.5L252.5 225.5L252.5 250.5L227.5 250.5L227.5 215.76C227.5 207.35 220.65 200.5 212.25 200.5L117.76 200.5C109.35 200.5 102.5 207.35 102.5 215.76L102.5 218.13C102.5 220.77 103.2 223.4 104.5 225.7ZM376.99 660.7L355.4 520.4C353.9 510.57 350.01 501.16 344.17 493.13L258.64 375.5L146.36 375.5L60.81 493.11C54.97 501.15 51.1 510.57 49.59 520.39L28 660.7C37.81 677.49 87.11 750.5 202.5 750.5C317.84 750.5 367.15 677.55 376.99 660.7Z" />
		<path id="Path 3" fill-rule="evenodd" class="shp0" d="M352.5 388C352.5 284.61 436.61 200.5 540 200.5C643.39 200.5 727.5 284.61 727.5 388C727.5 491.39 643.39 575.5 540 575.5C436.61 575.5 352.5 491.39 352.5 388ZM427.5 375.5L427.5 400.5L378.14 400.5C380.85 435.9 394.9 468.14 416.74 493.59L451.62 458.71L469.3 476.39L434.41 511.26C459.86 533.1 492.09 547.15 527.5 549.86L527.5 500.5L552.5 500.5L552.5 549.86C587.9 547.15 620.14 533.1 645.59 511.26L610.7 476.39L628.38 458.71L663.26 493.59C685.1 468.14 699.15 435.91 701.86 400.5L652.5 400.5L652.5 375.5L701.86 375.5C699.15 340.1 685.1 307.86 663.26 282.41L628.38 317.29L610.7 299.61L645.59 264.74C620.14 242.9 587.91 228.85 552.5 226.14L552.5 275.5L527.5 275.5L527.5 226.14C492.1 228.85 459.86 242.9 434.41 264.74L469.3 299.61L451.62 317.29L416.74 282.41C394.9 307.86 380.85 340.09 378.14 375.5L427.5 375.5ZM777.5 625.5C777.5 646.18 760.68 663 740 663C733.05 663 726.62 660.97 721.04 657.66C667.44 693.78 605.28 713 540 713C499.66 713 460.3 705.7 422.99 691.29L432 667.97C466.42 681.26 502.75 688 540 688C599.38 688 655.96 670.81 704.94 638.42C703.44 634.38 702.5 630.06 702.5 625.5C702.5 604.82 719.32 588 740 588C760.68 588 777.5 604.82 777.5 625.5ZM752.5 625.5C752.5 618.6 746.89 613 740 613C733.11 613 727.5 618.6 727.5 625.5C727.5 632.4 733.11 638 740 638C746.89 638 752.5 632.4 752.5 625.5ZM391.51 99.01C437.18 75.52 488.3 63 540 63C629.06 63 712.16 98.33 774 162.46L756.02 179.82C698.93 120.6 622.21 88 540 88C491.95 88 444.46 99.7 402.11 121.66C402.25 122.94 402.5 124.19 402.5 125.5C402.5 146.18 385.68 163 365 163C344.32 163 327.5 146.18 327.5 125.5C327.5 104.82 344.32 88 365 88C375.35 88 384.73 92.21 391.51 99.01ZM377.5 125.5C377.5 118.6 371.89 113 365 113C358.11 113 352.5 118.6 352.5 125.5C352.5 132.4 358.11 138 365 138C371.89 138 377.5 132.4 377.5 125.5Z" />
	</g>
</svg>