<svg xmlns="http://www.w3.org/2000/svg" viewBox="0 0 754 800" width="48" height="51">
	<defs>
		<clipPath clipPathUnits="userSpaceOnUse" id="cp1">
			<path d="M0 0L754 0L754 800L0 800Z" />
		</clipPath>
	</defs>
	<style>
		tspan { white-space:pre }
		.shp0 { fill: #f1602e } 
	</style>
	<g id="Page 1" clip-path="url(#cp1)">
		<path id="Path 1" fill-rule="evenodd" class="shp0" d="M607.8 39.28L607.8 133.58C607.8 140.06 602.55 145.3 596.08 145.3C589.61 145.3 584.36 140.06 584.36 133.58L584.36 39.28C584.36 30.54 577.26 23.44 568.52 23.44L98.86 23.44C90.13 23.44 83.02 30.54 83.01 39.28L83.01 54.23C85.99 54.23 507.84 54.23 514.29 54.23C535.94 54.23 553.57 71.86 553.57 93.51L553.57 722.33L568.52 722.33C577.25 722.33 584.36 715.23 584.36 706.49L584.36 188.26C584.36 181.79 589.61 176.55 596.08 176.55C602.55 176.55 607.8 181.79 607.8 188.26L607.8 706.49C607.8 728.15 590.18 745.77 568.52 745.77L549.23 745.77L549.23 760.73C549.23 782.38 531.61 800 509.95 800L40.29 800C18.63 800 1.01 782.38 1.01 760.73L1.01 650.26C1.01 643.78 6.26 638.54 12.73 638.54C19.2 638.54 24.45 643.78 24.45 650.26L24.45 760.73C24.45 769.46 31.56 776.56 40.29 776.56L509.95 776.56C518.69 776.56 525.8 769.46 525.8 760.73L525.8 93.51C525.8 84.77 518.69 77.67 509.95 77.67L40.29 77.67C31.56 77.67 24.45 84.77 24.45 93.51L24.45 595.56C24.45 602.04 19.2 607.28 12.73 607.28C6.26 607.28 1.01 602.04 1.01 595.56L1.01 93.51C1.01 71.85 18.63 54.23 40.29 54.23L59.59 54.23L59.59 39.28C59.59 17.62 77.2 0 98.86 0L568.52 0C590.18 0 607.8 17.62 607.8 39.28ZM752.99 258.93C752.99 275.53 752.99 579.43 752.99 591.59C752.99 591.79 752.97 591.98 752.96 592.19C752.95 592.34 752.95 592.49 752.94 592.64C752.9 593.1 752.83 593.54 752.74 593.98C752.73 594 752.72 594.04 752.72 594.07C752.63 594.48 752.51 594.9 752.37 595.3C752.34 595.41 752.29 595.52 752.25 595.64C752.13 595.97 751.99 596.3 751.85 596.61C751.81 596.68 751.79 596.75 751.76 596.82L713.3 673.86C709.56 681.36 702.83 685.85 695.3 685.85C687.77 685.85 681.04 681.36 677.29 673.86L638.84 596.82C638.82 596.76 638.8 596.7 638.78 596.65C638.6 596.31 638.46 595.96 638.33 595.6C638.3 595.5 638.26 595.41 638.23 595.32C637.94 594.46 637.74 593.55 637.66 592.62C637.65 592.5 637.64 592.37 637.64 592.25C637.63 592.03 637.6 591.81 637.6 591.59L637.6 258.93C637.6 244.35 649.46 232.5 664.04 232.5L726.56 232.5C741.13 232.5 752.99 244.35 752.99 258.93ZM722.32 603.3L668.28 603.3L695.3 657.45L722.32 603.3ZM729.55 329.27L661.05 329.27L661.05 579.87L729.55 579.87L729.55 329.27ZM729.56 305.84L729.56 258.93C729.56 257.27 728.21 255.93 726.56 255.93L664.04 255.93C662.39 255.93 661.05 257.27 661.05 258.93L661.05 305.84L729.56 305.84Z" />
		<path id="Path 2" fill-rule="evenodd" class="shp0" d="M67.97 648.32C67.97 634.97 78.83 624.1 92.19 624.1L156.77 624.1C161.8 624.1 166.48 625.64 170.35 628.28L190.65 606.7C195.08 601.98 202.5 601.75 207.21 606.19C211.93 610.61 212.16 618.03 207.72 622.75L180.99 651.19L180.99 712.91C180.99 726.26 170.12 737.13 156.77 737.13L92.19 737.13C78.83 737.13 67.97 726.26 67.97 712.91L67.97 648.32ZM123.35 712.5C122.95 712.94 122.5 713.32 122.04 713.69L156.77 713.69C157.2 713.69 157.55 713.33 157.55 712.91L157.55 676.12L123.35 712.5ZM91.4 649.84C92.98 650.73 94.39 651.99 95.46 653.61L116.45 685.62L152.25 647.54L92.19 647.54C91.75 647.54 91.4 647.89 91.4 648.32L91.4 649.84ZM91.4 712.91C91.4 713.33 91.75 713.69 92.19 713.69L107.57 713.69C105.52 712.08 106.24 712.78 91.4 690.17L91.4 712.91ZM481.88 680.61C481.88 687.09 476.63 692.33 470.16 692.33L221.21 692.33C214.74 692.33 209.49 687.09 209.49 680.61C209.49 674.14 214.74 668.89 221.21 668.89L470.16 668.89C476.63 668.89 481.88 674.14 481.88 680.61ZM67.97 352.21L67.97 144.46C67.97 129.38 80.23 117.11 95.31 117.11L303.06 117.11C318.14 117.11 330.4 129.38 330.4 144.46L330.4 352.21C330.4 367.29 318.14 379.55 303.06 379.55L95.31 379.55C80.23 379.55 67.97 367.29 67.97 352.21ZM91.4 352.21C91.4 354.36 93.15 356.11 95.31 356.11L303.06 356.11C305.21 356.11 306.96 354.36 306.96 352.21L306.96 144.46C306.96 142.3 305.21 140.55 303.06 140.55L95.31 140.55C93.15 140.55 91.4 142.3 91.4 144.46L91.4 352.21Z" />
		<path id="Path 3" fill-rule="evenodd" class="shp0" d="M145.28 333.91C143.11 331.72 141.86 328.7 141.86 325.63L141.86 300.32C141.86 284.99 147.81 270.6 158.64 259.77C160.68 257.72 162.86 255.85 165.14 254.17C153.24 244.34 145.64 229.48 145.64 212.88C145.64 183.34 169.66 159.33 199.18 159.33C228.71 159.33 252.73 183.34 252.73 212.88C252.73 229.48 245.13 244.34 233.23 254.17C235.5 255.85 237.68 257.72 239.72 259.77C250.54 270.59 256.52 284.99 256.52 300.31L256.52 325.63C256.52 328.7 255.26 331.72 253.08 333.9C250.91 336.07 247.88 337.33 244.8 337.33L208.28 337.33C208.28 337.35 208.27 337.35 208.25 337.35C201.8 337.35 196.53 332.08 196.53 325.63C196.53 319.16 201.8 313.91 208.25 313.91L233.08 313.91L233.08 300.31C233.05 281.71 217.92 266.52 199.33 266.41C199.28 266.41 199.23 266.41 199.18 266.41C199.14 266.41 199.09 266.41 199.04 266.41C180.45 266.52 165.33 281.71 165.3 300.31L165.3 325.63C165.3 332.08 160.03 337.33 153.56 337.33C150.49 337.33 147.47 336.07 145.28 333.91ZM169.07 212.88C169.07 229.44 182.53 242.92 199.09 242.98C199.12 242.97 199.15 242.97 199.18 242.97C199.22 242.97 199.25 242.97 199.28 242.97C215.84 242.91 229.3 229.44 229.3 212.88C229.3 196.27 215.79 182.76 199.18 182.76C182.58 182.76 169.07 196.26 169.07 212.88ZM354.87 186.04C354.87 179.56 360.11 174.33 366.59 174.33L470.16 174.33C476.63 174.33 481.88 179.56 481.88 186.04C481.88 192.51 476.63 197.76 470.16 197.76L366.59 197.76C360.11 197.76 354.87 192.51 354.87 186.04ZM354.87 252.48C354.87 246 360.11 240.76 366.59 240.76L470.16 240.76C476.63 240.76 481.88 246 481.88 252.48C481.88 258.95 476.63 264.2 470.16 264.2L366.59 264.2C360.11 264.2 354.87 258.95 354.87 252.48ZM354.87 323.35C354.87 316.87 360.11 311.63 366.59 311.63L470.16 311.63C476.63 311.63 481.88 316.87 481.88 323.35C481.88 329.82 476.63 335.07 470.16 335.07L366.59 335.07C360.11 335.07 354.87 329.82 354.87 323.35ZM67.97 436.51C67.97 430.04 73.22 424.79 79.69 424.79L470.16 424.79C476.63 424.79 481.88 430.04 481.88 436.51C481.88 442.99 476.63 448.22 470.16 448.22L79.69 448.22C73.22 448.22 67.97 442.99 67.97 436.51ZM67.97 502.95C67.97 496.47 73.22 491.23 79.69 491.23L470.16 491.23C476.63 491.23 481.88 496.47 481.88 502.95C481.88 509.42 476.63 514.66 470.16 514.66L79.69 514.66C73.22 514.66 67.97 509.42 67.97 502.95ZM67.97 569.39C67.97 562.91 73.22 557.67 79.69 557.67L470.16 557.67C476.63 557.67 481.88 562.91 481.88 569.39C481.88 575.85 476.63 581.1 470.16 581.1L79.69 581.1C73.22 581.1 67.97 575.85 67.97 569.39Z" />
	</g>
</svg>