<svg xmlns="http://www.w3.org/2000/svg" viewBox="0 0 64 64" width="48" height="48">
	<style>
		tspan { white-space:pre }
		.shp0 { fill: #f1602e } 
	</style>
	<g id="Layer">
		<g id="Layer">
			<path id="Layer" class="shp0" d="M15 51C14.45 51 14 50.55 14 50L12 50C12 51.65 13.35 53 15 53L15 55L17 55L17 53L20 53L20 50C20 48.35 18.65 47 17 47L15 47C14.45 47 14 46.55 14 46L14 45L17 45C17.55 45 18 45.45 18 46L20 46C20 44.35 18.65 43 17 43L17 41L15 41L15 43L12 43L12 46C12 47.65 13.35 49 15 49L17 49C17.55 49 18 49.45 18 50L18 51L15 51Z" />
			<path id="Layer" class="shp0" d="M16 57C11.04 57 7 52.96 7 48C7 45.93 7.72 43.9 9.04 42.3L7.49 41.03C5.89 42.99 5 45.47 5 48C5 54.06 9.93 59 16 59C18.54 59 21.01 58.12 22.97 56.51L21.7 54.96C20.1 56.28 18.07 57 16 57L16 57Z" />
			<path id="Layer" class="shp0" d="M9.03 39.49L10.3 41.04C11.9 39.72 13.93 39 16 39C20.96 39 25 43.04 25 48C25 50.07 24.28 52.1 22.96 53.7L24.51 54.97C26.12 53.01 27 50.53 27 48C27 41.94 22.07 37 16 37C13.46 37 10.99 37.88 9.03 39.49L9.03 39.49Z" />
			<path id="Layer" fill-rule="evenodd" class="shp0" d="M60 37L60 39.59L61.53 41.12C62.48 42.06 63 43.32 63 44.66L63 58C63 60.76 60.76 63 58 63L40 63C37.24 63 35 60.76 35 58L35 44.66C35 43.32 35.52 42.06 36.46 41.12L38 39.59L38 37L37 37C35.9 37 35 36.1 35 35L35 31C35 30.82 35.03 30.65 35.07 30.49L32 27.41L24.05 35.36C28.22 38.03 31 42.69 31 48C31 56.27 24.27 63 16 63C7.73 63 1 56.27 1 48C1 40.07 7.19 33.57 15 33.05L15 23L10 23C5.04 23 1 18.96 1 14L1 13L8 13C10.83 13 13.35 14.31 15 16.36L15 11L10 11C5.04 11 1 6.96 1 2L1 1L8 1C12.96 1 17 5.04 17 10L17 10.36C18.65 8.31 21.17 7 24 7L31 7L31 8C31 12.96 26.96 17 22 17L17 17L17 22.36C18.65 20.31 21.17 19 24 19L29.59 19L32 16.59L39 23.59L49.19 13.4L44.97 9.18L62.27 5.72L58.81 23.03L54.6 18.81L44.41 29L61 29C62.1 29 63 29.9 63 31L63 35C63 36.1 62.1 37 61 37L60 37ZM17.07 27L22 27C25.52 27 28.44 24.39 28.93 21L24 21C20.48 21 17.56 23.61 17.07 27ZM17.07 15L22 15C25.52 15 28.44 12.39 28.93 9L24 9C20.48 9 17.56 11.61 17.07 15ZM14.93 9C14.44 5.61 11.52 3 8 3L3.07 3C3.56 6.39 6.48 9 10 9L14.93 9ZM14.93 21C14.44 17.61 11.52 15 8 15L3.07 15C3.56 18.39 6.48 21 10 21L14.93 21ZM17 29L17 31.59L19.59 29L17 29ZM16 35C8.83 35 3 40.83 3 48C3 55.17 8.83 61 16 61C23.17 61 29 55.17 29 48C29 40.83 23.17 35 16 35ZM32 24.59L36.49 29.07C36.65 29.03 36.82 29 37 29L41.59 29L54.6 15.99L57.59 18.97L59.73 8.28L49.03 10.41L52.01 13.4L39 26.41L32 19.41L30.98 20.44C30.76 25.05 27.05 28.76 22.44 28.98L18.23 33.19C19.63 33.4 20.97 33.8 22.22 34.37L32 24.59ZM37 35L61 35L61 31L37 31L37 35ZM58 40.41L58 37L40 37L40 40.41L37.88 42.53C37.31 43.1 37 43.85 37 44.66L37 58C37 59.65 38.35 61 40 61L41.18 61C41.07 60.69 41 60.35 41 60L41 58C41 57.6 41.08 57.23 41.22 56.88C39.94 56.54 39 55.38 39 54L39 52C39 50.62 39.94 49.46 41.22 49.12C41.08 48.77 41 48.4 41 48L41 46C41 44.35 42.35 43 44 43L56 43C57.65 43 59 44.35 59 46L59 48C59 49.38 58.05 50.54 56.78 50.88C56.92 51.23 57 51.6 57 52L57 54C57 54.4 56.92 54.77 56.78 55.12C58.05 55.46 59 56.62 59 58L59 60C59 60.3 58.94 60.59 58.86 60.86C60.09 60.49 61 59.35 61 58L61 44.66C61 43.85 60.69 43.1 60.12 42.53L58 40.41ZM41 52L41 54C41 54.55 41.45 55 42 55L54 55C54.55 55 55 54.55 55 54L55 52C55 51.45 54.55 51 54 51L53 51L53 53L51 53L51 51L49 51L49 53L47 53L47 51L45 51L45 53L43 53L43 51L42 51C41.45 51 41 51.45 41 52ZM56 61C56.55 61 57 60.55 57 60L57 58C57 57.45 56.55 57 56 57L55 57L55 59L53 59L53 57L51 57L51 59L49 59L49 57L47 57L47 59L45 59L45 57L44 57C43.45 57 43 57.45 43 58L43 60C43 60.55 43.45 61 44 61L56 61ZM44 49L56 49C56.55 49 57 48.55 57 48L57 46C57 45.45 56.55 45 56 45L55 45L55 47L53 47L53 45L51 45L51 47L49 47L49 45L47 45L47 47L45 47L45 45L44 45C43.45 45 43 45.45 43 46L43 48C43 48.55 43.45 49 44 49Z" />
		</g>
	</g>
</svg>