<svg xmlns="http://www.w3.org/2000/svg" viewBox="0 0 64 64" width="48" height="48">
	<style>
		tspan { white-space:pre }
		.shp0 { fill: #f1602e } 
	</style>
	<g id="Layer">
		<g id="Outline">
			<g id="Layer">
				<path id="Layer" fill-rule="evenodd" class="shp0" d="M47.7 55.53C47.49 56.02 47.2 56.46 46.83 56.83C46.46 57.2 46.02 57.49 45.53 57.7C45.05 57.9 44.53 58 44 58C42.38 58 40.92 57.03 40.3 55.53C39.69 54.04 40.03 52.32 41.17 51.17C42.32 50.03 44.04 49.69 45.53 50.3C47.03 50.92 48 52.38 48 54C48 54.53 47.9 55.05 47.7 55.53ZM42.15 54.77C42.25 55.01 42.4 55.23 42.59 55.41C42.77 55.6 42.99 55.75 43.23 55.85C43.48 55.95 43.74 56 44 56C44.81 56 45.54 55.51 45.85 54.77C46.16 54.02 45.99 53.16 45.41 52.59C44.84 52.01 43.98 51.84 43.23 52.15C42.49 52.46 42 53.19 42 54C42 54.26 42.05 54.52 42.15 54.77Z" />
				<path id="Layer" class="shp0" d="M56.12 52.82C55.98 52.8 55.85 52.81 55.73 52.84C55.6 52.87 55.48 52.93 55.37 53.01C55.27 53.09 55.18 53.19 55.12 53.3C55.05 53.42 55.01 53.54 54.99 53.67L54.13 60L39 60C38.73 60 38.48 60.11 38.29 60.29C38.11 60.48 38 60.73 38 61C38 61.27 38.11 61.52 38.29 61.71C38.48 61.89 38.73 62 39 62L55 62C55.12 62 55.24 61.98 55.35 61.94C55.46 61.89 55.57 61.83 55.66 61.75C55.75 61.67 55.82 61.58 55.88 61.47C55.94 61.37 55.97 61.25 55.99 61.13L56.97 53.94C56.99 53.81 56.98 53.68 56.95 53.55C56.91 53.43 56.86 53.31 56.78 53.2C56.7 53.1 56.6 53.01 56.48 52.94C56.37 52.88 56.25 52.84 56.12 52.82Z" />
				<path id="Layer" fill-rule="evenodd" class="shp0" d="M58.88 38.52C58.91 38.58 58.94 38.64 58.96 38.71C58.98 38.78 58.99 38.85 59 38.92C59 38.99 59 39.06 58.99 39.13L57.51 49.98C57.5 50.1 57.46 50.21 57.4 50.32C57.35 50.42 57.27 50.52 57.18 50.6C57.09 50.68 56.99 50.74 56.87 50.78C56.76 50.82 56.64 50.84 56.52 50.84C56.51 50.84 56.5 50.84 56.49 50.84C56.48 50.84 56.47 50.84 56.45 50.84C56.44 50.84 56.43 50.84 56.42 50.84C56.41 50.84 56.4 50.83 56.39 50.83C56.26 50.82 56.13 50.77 56.02 50.71C55.9 50.64 55.81 50.55 55.73 50.45C55.65 50.34 55.59 50.22 55.55 50.1C55.52 49.97 55.51 49.84 55.53 49.71L56.85 40L53.92 40C53.3 43.94 49.09 47 44 47C43.28 47.01 42.57 46.96 41.86 46.83C41.15 46.71 40.46 46.52 39.79 46.26C39.12 46 38.48 45.67 37.88 45.29C37.27 44.9 36.7 44.46 36.18 43.96C36.17 43.97 36.15 43.97 36.14 43.98C36.12 43.98 36.11 43.98 36.09 43.99C36.08 43.99 36.06 43.99 36.05 43.99C36.03 44 36.02 44 36 44L35.95 44C35.92 44.19 35.88 44.37 35.82 44.55C35.76 44.73 35.69 44.91 35.59 45.07C35.5 45.24 35.4 45.4 35.28 45.54C35.15 45.69 35.02 45.83 34.88 45.95C34.89 46.03 34.91 46.12 34.93 46.21C34.94 46.29 34.96 46.38 34.97 46.47C34.98 46.56 34.98 46.65 34.99 46.73C35 46.82 35 46.91 35 47C35 47.32 34.97 47.64 34.91 47.95C34.85 48.27 34.75 48.57 34.63 48.87C34.51 49.17 34.36 49.45 34.19 49.72C34.01 49.99 33.81 50.24 33.59 50.47C33.88 50.64 34.14 50.87 34.35 51.13C34.56 51.39 34.73 51.69 34.84 52.01C34.95 52.33 35 52.67 35 53.01C35 53.35 34.93 53.68 34.82 54L36 54C36.13 54 36.26 54.03 36.38 54.08C36.5 54.13 36.61 54.2 36.71 54.29C36.8 54.39 36.87 54.5 36.92 54.62C36.97 54.74 37 54.87 37 55L37 57C37 57.66 36.87 58.31 36.62 58.91C36.37 59.52 36 60.07 35.53 60.53C35.07 61 34.52 61.37 33.91 61.62C33.31 61.87 32.66 62 32 62L17 62C16.73 62 16.48 61.89 16.29 61.71C16.11 61.52 16 61.27 16 61C16 60.73 16.11 60.48 16.29 60.29C16.48 60.11 16.73 60 17 60L32 60C32.39 60 32.78 59.92 33.15 59.77C33.51 59.62 33.84 59.4 34.12 59.12C34.4 58.84 34.62 58.51 34.77 58.15C34.92 57.78 35 57.39 35 57L35 56L29.8 56C29.53 56 29.28 55.89 29.09 55.71C28.91 55.52 28.8 55.27 28.8 55C28.8 54.73 28.91 54.48 29.09 54.29C29.28 54.11 29.53 54 29.8 54L32 54C32.27 54 32.52 53.89 32.71 53.71C32.89 53.52 33 53.27 33 53C33 52.73 32.89 52.48 32.71 52.29C32.52 52.11 32.27 52 32 52L28.48 52L24.78 56.62C24.69 56.74 24.57 56.84 24.43 56.9C24.3 56.97 24.15 57 24 57C23.85 57 23.7 56.97 23.57 56.9C23.43 56.84 23.31 56.74 23.22 56.62L22.72 56L7 56L7 57C7 57.39 7.08 57.78 7.23 58.15C7.38 58.51 7.6 58.84 7.88 59.12C8.16 59.4 8.49 59.62 8.85 59.77C9.22 59.92 9.61 60 10 60L13 60C13.27 60 13.52 60.11 13.71 60.29C13.89 60.48 14 60.73 14 61C14 61.27 13.89 61.52 13.71 61.71C13.52 61.89 13.27 62 13 62L10 62C9.34 62 8.69 61.87 8.09 61.62C7.48 61.37 6.93 61 6.47 60.53C6 60.07 5.63 59.52 5.38 58.91C5.13 58.31 5 57.66 5 57L5 55C5 54.87 5.03 54.74 5.08 54.62C5.13 54.5 5.2 54.39 5.29 54.29C5.39 54.2 5.5 54.13 5.62 54.08C5.74 54.03 5.87 54 6 54L7.18 54C7.07 53.68 7 53.35 7 53.01C7 52.67 7.05 52.33 7.16 52.01C7.27 51.69 7.44 51.39 7.65 51.13C7.86 50.87 8.12 50.64 8.41 50.47C8.19 50.24 7.99 49.99 7.81 49.72C7.64 49.45 7.49 49.17 7.37 48.87C7.25 48.57 7.15 48.27 7.09 47.95C7.03 47.64 7 47.32 7 47C7 46.91 7.01 46.81 7.01 46.72C7.02 46.63 7.03 46.53 7.04 46.44C7.05 46.35 7.07 46.25 7.09 46.16C7.1 46.07 7.12 45.98 7.15 45.89C7.02 45.76 6.91 45.62 6.8 45.47C6.7 45.32 6.6 45.17 6.51 45.01C6.43 44.85 6.35 44.69 6.29 44.52C6.22 44.35 6.17 44.18 6.13 44L6 44C5.87 44 5.74 43.97 5.62 43.92C5.5 43.87 5.39 43.8 5.29 43.71C5.2 43.61 5.13 43.5 5.08 43.38C5.03 43.26 5 43.13 5 43C5 42.46 5.04 41.93 5.12 41.4C5.19 40.87 5.31 40.35 5.47 39.84C5.62 39.32 5.81 38.82 6.04 38.34C6.27 37.85 6.53 37.39 6.83 36.94C6.98 36.73 7.2 36.59 7.46 36.54C7.71 36.5 7.97 36.55 8.19 36.69C8.4 36.83 8.55 37.05 8.61 37.31C8.67 37.56 8.63 37.82 8.49 38.04C8.3 38.34 8.12 38.64 7.96 38.96C7.8 39.28 7.66 39.6 7.54 39.93C7.42 40.27 7.32 40.61 7.24 40.95C7.16 41.3 7.1 41.65 7.06 42L34.94 42C34.82 40.91 34.5 39.85 34 38.88C33.49 37.9 32.81 37.03 32 36.29C31.18 35.56 30.23 34.99 29.21 34.6C28.19 34.2 27.1 34 26 34L16 34C15.56 34 15.12 34.03 14.69 34.1C14.26 34.16 13.83 34.25 13.41 34.38C12.99 34.51 12.58 34.66 12.18 34.85C11.79 35.04 11.41 35.25 11.04 35.49C10.82 35.64 10.55 35.69 10.29 35.64C10.03 35.59 9.8 35.43 9.65 35.21C9.51 34.99 9.46 34.72 9.51 34.46C9.56 34.2 9.71 33.97 9.93 33.83C10.38 33.53 10.85 33.27 11.33 33.04C11.82 32.81 12.32 32.62 12.83 32.46C13.35 32.31 13.87 32.19 14.4 32.12C14.93 32.04 15.46 32 16 32L26 32C26.23 32 26.46 32.02 26.68 32.03L26.06 30.35C26.01 30.19 25.99 30.03 26.01 29.87C26.03 29.71 26.09 29.56 26.18 29.43C26.27 29.3 26.39 29.19 26.54 29.11C26.68 29.04 26.84 29 27 29L31 29C31.1 29 31.2 29.02 31.29 29.05C31.39 29.08 31.48 29.12 31.56 29.18C31.64 29.23 31.72 29.3 31.78 29.38C31.84 29.46 31.89 29.54 31.93 29.64L32.55 31.23L33.09 29.66C33.13 29.53 33.2 29.42 33.28 29.32C33.37 29.22 33.48 29.14 33.59 29.08C33.71 29.03 33.84 28.99 33.97 28.98C34.1 28.98 34.23 28.99 34.36 29.04L37.32 30.05C37.39 30.08 37.46 30.11 37.52 30.15C37.59 30.19 37.65 30.24 37.7 30.29C37.75 30.34 37.8 30.4 37.84 30.46C37.88 30.53 37.91 30.6 37.94 30.67L38.3 31.69L38 28.08C38 28.02 38 27.96 38 27.9C38.01 27.84 38.02 27.78 38.04 27.72C38.05 27.66 38.08 27.61 38.1 27.55C38.13 27.5 38.16 27.45 38.2 27.4L38.5 27L22 27C21.73 27 21.48 26.89 21.29 26.71C21.11 26.52 21 26.27 21 26C21 25.73 21.11 25.48 21.29 25.29C21.48 25.11 21.73 25 22 25L38 25L38 24C38 23.87 37.97 23.74 37.92 23.62C37.87 23.5 37.8 23.39 37.71 23.29C37.61 23.2 37.5 23.13 37.38 23.08C37.26 23.03 37.13 23 37 23L11 23C10.87 23 10.74 23.03 10.62 23.08C10.5 23.13 10.39 23.2 10.29 23.29C10.2 23.39 10.13 23.5 10.08 23.62C10.03 23.74 10 23.87 10 24L10 25L18 25C18.27 25 18.52 25.11 18.71 25.29C18.89 25.48 19 25.73 19 26C19 26.27 18.89 26.52 18.71 26.71C18.52 26.89 18.27 27 18 27L10.12 27L10.59 31.04C10.6 31.17 10.59 31.3 10.55 31.43C10.52 31.56 10.46 31.67 10.37 31.78C10.29 31.88 10.19 31.97 10.08 32.03C9.96 32.09 9.84 32.13 9.71 32.15C9.7 32.15 9.69 32.15 9.68 32.15C9.67 32.15 9.66 32.15 9.65 32.15C9.64 32.15 9.63 32.15 9.62 32.15C9.61 32.15 9.6 32.16 9.59 32.16C9.47 32.15 9.35 32.13 9.24 32.09C9.12 32.05 9.02 31.98 8.93 31.9C8.84 31.82 8.76 31.72 8.71 31.61C8.65 31.51 8.61 31.39 8.6 31.27C8.6 31.27 8 26.02 8 26L8 24C8 23.61 8.08 23.22 8.23 22.85C8.38 22.49 8.6 22.16 8.88 21.88C9.16 21.6 9.49 21.38 9.85 21.23C10.22 21.08 10.61 21 11 21L13 21L13 20C13 19.61 13.08 19.22 13.23 18.85C13.38 18.49 13.6 18.16 13.88 17.88C14.16 17.6 14.49 17.38 14.85 17.23C15.22 17.08 15.61 17 16 17L21 17L21 10.66C21 10.42 21.03 10.17 21.09 9.93C21.15 9.7 21.24 9.46 21.35 9.25C21.47 9.03 21.61 8.83 21.78 8.65C21.94 8.47 22.13 8.3 22.34 8.17L31.34 2.17C31.45 2.1 31.57 2.04 31.7 2.02C31.83 1.99 31.96 1.99 32.09 2.02C32.22 2.04 32.34 2.1 32.45 2.17C32.56 2.24 32.65 2.34 32.72 2.44L34.94 5.77C35.01 5.88 35.06 6 35.09 6.13C35.12 6.26 35.12 6.4 35.09 6.52C35.06 6.65 35.01 6.78 34.94 6.88C34.87 6.99 34.77 7.09 34.66 7.16L27 12.27L27 17L32 17C32.39 17 32.78 17.08 33.15 17.23C33.51 17.38 33.84 17.6 34.12 17.88C34.4 18.16 34.62 18.49 34.77 18.85C34.92 19.22 35 19.61 35 20L35 21L37 21C37.39 21 37.78 21.08 38.15 21.23C38.51 21.38 38.84 21.6 39.12 21.88C39.4 22.16 39.62 22.49 39.77 22.85C39.92 23.22 40 23.61 40 24L40 25L41.2 23.4C41.29 23.29 41.4 23.19 41.52 23.12C41.65 23.05 41.79 23.01 41.93 23C42.07 22.99 42.21 23.01 42.35 23.06C42.48 23.11 42.6 23.19 42.71 23.29L43.88 24.47L44 22.92C44.01 22.82 44.03 22.72 44.07 22.63C44.11 22.54 44.16 22.45 44.22 22.37C44.28 22.29 44.36 22.23 44.44 22.17C44.52 22.11 44.62 22.07 44.71 22.04L46.71 21.44C46.77 21.42 46.84 21.41 46.9 21.4C46.97 21.4 47.03 21.4 47.1 21.4C47.16 21.41 47.23 21.42 47.29 21.44C47.35 21.46 47.41 21.49 47.47 21.52L50.47 23.12C50.71 23.24 50.89 23.45 50.97 23.71C51.05 23.96 51.02 24.24 50.89 24.48C50.77 24.71 50.55 24.89 50.29 24.97C50.04 25.04 49.76 25.01 49.53 24.88L46.89 23.48L45.94 23.76L45.74 26.34C45.78 26.38 45.81 26.42 45.84 26.46C45.87 26.51 45.9 26.56 45.92 26.61C45.94 26.66 45.96 26.71 45.97 26.76C45.99 26.81 45.99 26.87 46 26.92L46.51 33.34L47.17 33.51L48 26.87C48.02 26.72 48.08 26.57 48.16 26.44C48.25 26.32 48.36 26.21 48.49 26.13C48.62 26.06 48.77 26.01 48.92 26C49.07 25.99 49.23 26.01 49.37 26.07L53.2 27.6L54.02 23.78C54.06 23.59 54.17 23.41 54.31 23.27C54.46 23.13 54.64 23.04 54.84 23.01C55.04 22.98 55.24 23.01 55.42 23.09C55.6 23.18 55.75 23.31 55.86 23.48L58.86 28.48C58.89 28.54 58.92 28.6 58.94 28.65C58.96 28.71 58.98 28.77 58.99 28.84C59 28.9 59 28.96 59 29.02C59 29.09 58.99 29.15 58.98 29.21L57.68 35.24C57.66 35.35 57.62 35.46 57.56 35.55C57.5 35.65 57.42 35.74 57.34 35.81C57.25 35.88 57.15 35.93 57.04 35.97C56.93 36.01 56.82 36.03 56.71 36.03C56.69 36.03 56.67 36.03 56.66 36.03C56.64 36.03 56.62 36.03 56.6 36.02C56.59 36.02 56.57 36.02 56.55 36.02C56.53 36.01 56.52 36.01 56.5 36.01C56.37 35.98 56.25 35.93 56.14 35.85C56.03 35.78 55.94 35.68 55.87 35.57C55.8 35.46 55.75 35.34 55.72 35.21C55.7 35.08 55.7 34.95 55.73 34.82L56.93 29.18L55.44 26.69L54.98 28.83C54.98 28.86 54.99 28.89 54.99 28.92C54.99 28.95 54.99 28.98 54.99 29.01C54.99 29.04 54.99 29.07 54.99 29.1C54.99 29.13 54.98 29.16 54.98 29.19L53.3 38L58 38C58.07 38 58.14 38.01 58.21 38.02C58.28 38.04 58.35 38.06 58.41 38.09C58.48 38.12 58.54 38.16 58.6 38.2C58.65 38.24 58.71 38.29 58.75 38.34C58.8 38.4 58.84 38.45 58.88 38.52ZM23 17L25 17L25 11.73C25 11.65 25.01 11.57 25.03 11.49C25.05 11.41 25.08 11.33 25.12 11.26C25.16 11.19 25.2 11.12 25.26 11.06C25.31 11 25.38 10.95 25.45 10.9L32.72 6.05L31.61 4.39L23.45 9.83C23.38 9.88 23.31 9.93 23.26 9.99C23.2 10.05 23.16 10.12 23.12 10.19C23.08 10.26 23.05 10.34 23.03 10.42C23.01 10.5 23 10.58 23 10.66L23 17ZM33 21L33 20C33 19.87 32.97 19.74 32.92 19.62C32.87 19.5 32.8 19.39 32.71 19.29C32.61 19.2 32.5 19.13 32.38 19.08C32.26 19.03 32.13 19 32 19L16 19C15.87 19 15.74 19.03 15.62 19.08C15.5 19.13 15.39 19.2 15.29 19.29C15.2 19.39 15.13 19.5 15.08 19.62C15.03 19.74 15 19.87 15 20L15 21L33 21ZM45.4 44.9C45.57 44.88 45.74 44.85 45.92 44.82C46.09 44.79 46.26 44.75 46.43 44.71C46.6 44.67 46.77 44.62 46.94 44.57C47.11 44.52 47.28 44.46 47.45 44.4L47.95 35.76L45.93 35.26L45.4 44.9ZM40.03 28.3L41.39 44.65C41.56 44.69 41.72 44.73 41.89 44.77C42.05 44.8 42.22 44.83 42.39 44.86C42.55 44.88 42.72 44.91 42.89 44.93C43.06 44.94 43.22 44.96 43.39 44.97L44.01 33.94C44.01 33.87 44.02 33.8 44.04 33.73C44.06 33.66 44.09 33.59 44.12 33.52C44.16 33.46 44.2 33.4 44.25 33.34C44.29 33.29 44.35 33.24 44.41 33.2C44.41 33.19 44.42 33.19 44.43 33.18C44.43 33.18 44.44 33.18 44.45 33.18C44.45 33.17 44.46 33.17 44.47 33.17C44.47 33.16 44.48 33.16 44.49 33.16L44.03 27.45L42.11 25.52L40.03 28.3ZM28.95 32.41C29.15 32.47 29.34 32.53 29.54 32.59C29.73 32.66 29.92 32.73 30.11 32.8C30.3 32.88 30.49 32.96 30.67 33.05C30.85 33.13 31.04 33.22 31.22 33.32L30.32 31L28.43 31L28.95 32.41ZM32.97 46.69C32.84 46.69 32.71 46.69 32.59 46.68C32.46 46.67 32.34 46.65 32.21 46.62C32.09 46.59 31.96 46.56 31.85 46.52C31.73 46.47 31.61 46.42 31.49 46.37C31.42 46.33 31.34 46.3 31.25 46.28C31.17 46.26 31.08 46.25 31 46.25C30.91 46.25 30.83 46.26 30.74 46.28C30.66 46.3 30.58 46.33 30.5 46.37L28.39 47.42C28.17 47.53 27.95 47.61 27.71 47.67C27.48 47.72 27.24 47.75 27 47.75C26.76 47.75 26.52 47.72 26.28 47.67C26.05 47.61 25.82 47.53 25.61 47.42L23.49 46.37C23.42 46.33 23.34 46.3 23.25 46.28C23.17 46.26 23.08 46.25 23 46.25C22.91 46.25 22.83 46.26 22.74 46.28C22.66 46.3 22.58 46.33 22.5 46.37L20.39 47.43C20.18 47.53 19.95 47.62 19.71 47.67C19.48 47.73 19.24 47.75 19 47.75C18.76 47.75 18.52 47.73 18.29 47.67C18.05 47.62 17.82 47.53 17.61 47.43L15.5 46.37C15.42 46.33 15.34 46.3 15.26 46.28C15.17 46.26 15.09 46.25 15 46.25C14.91 46.25 14.83 46.26 14.74 46.28C14.66 46.3 14.58 46.33 14.5 46.37L12.89 47.17C12.6 47.32 12.29 47.43 11.97 47.5C11.65 47.58 11.33 47.62 11 47.62C10.67 47.62 10.35 47.58 10.03 47.5C9.71 47.43 9.4 47.32 9.11 47.17L9.01 47.12C9.03 47.51 9.12 47.88 9.27 48.23C9.43 48.58 9.65 48.9 9.93 49.16C10.21 49.43 10.53 49.64 10.88 49.78C11.24 49.92 11.62 50 12 50L30 50C30.39 50 30.78 49.92 31.15 49.77C31.51 49.62 31.84 49.4 32.12 49.12C32.4 48.84 32.62 48.51 32.77 48.15C32.92 47.78 33 47.39 33 47C33 46.97 33 46.95 33 46.92C32.99 46.9 32.99 46.87 32.99 46.84C32.99 46.82 32.98 46.79 32.98 46.77C32.98 46.74 32.97 46.72 32.97 46.69ZM21.12 54L19.52 52L10 52C9.73 52 9.48 52.11 9.29 52.29C9.11 52.48 9 52.73 9 53C9 53.27 9.11 53.52 9.29 53.71C9.48 53.89 9.73 54 10 54L21.12 54ZM25.92 52L22.08 52L24 54.4L25.92 52ZM33.47 44.53C33.52 44.5 33.57 44.46 33.61 44.43C33.66 44.39 33.7 44.34 33.74 44.3C33.77 44.26 33.81 44.21 33.84 44.16C33.87 44.11 33.89 44.05 33.91 44L8.25 44C8.31 44.11 8.37 44.21 8.44 44.31C8.5 44.4 8.58 44.49 8.66 44.58C8.75 44.66 8.84 44.74 8.93 44.81C9.03 44.88 9.13 44.95 9.24 45L10 45.38C10.16 45.45 10.32 45.51 10.49 45.55C10.66 45.59 10.83 45.61 11 45.61C11.18 45.61 11.35 45.59 11.52 45.55C11.68 45.51 11.85 45.45 12 45.38L13.61 44.58C13.83 44.47 14.05 44.39 14.29 44.33C14.52 44.28 14.76 44.25 15 44.25C15.24 44.25 15.48 44.28 15.72 44.33C15.95 44.39 16.18 44.47 16.39 44.58L18.51 45.63C18.58 45.67 18.66 45.7 18.75 45.72C18.83 45.74 18.92 45.75 19 45.75C19.09 45.75 19.17 45.74 19.26 45.72C19.34 45.7 19.42 45.67 19.5 45.63L21.61 44.58C21.83 44.47 22.05 44.39 22.29 44.33C22.52 44.28 22.76 44.25 23 44.25C23.24 44.25 23.48 44.28 23.72 44.33C23.95 44.39 24.18 44.47 24.39 44.58L26.51 45.63C26.58 45.67 26.66 45.7 26.75 45.72C26.83 45.74 26.92 45.75 27 45.75C27.09 45.75 27.17 45.74 27.26 45.72C27.34 45.7 27.42 45.67 27.5 45.63L29.61 44.57C29.82 44.47 30.05 44.39 30.29 44.33C30.52 44.28 30.76 44.25 31 44.25C31.24 44.25 31.48 44.28 31.71 44.33C31.95 44.39 32.18 44.47 32.39 44.58C32.46 44.61 32.54 44.64 32.61 44.66C32.69 44.68 32.77 44.69 32.84 44.69C32.92 44.69 33 44.69 33.08 44.67C33.16 44.66 33.23 44.63 33.3 44.6C33.32 44.6 33.32 44.59 33.34 44.58C33.34 44.58 33.34 44.58 33.34 44.58C33.34 44.58 33.35 44.58 33.35 44.58C33.35 44.58 33.35 44.58 33.35 44.58C33.36 44.58 33.36 44.58 33.36 44.58C33.37 44.58 33.38 44.58 33.39 44.57C33.4 44.57 33.41 44.56 33.42 44.56C33.43 44.55 33.44 44.55 33.45 44.54C33.45 44.54 33.46 44.53 33.47 44.53L33.47 44.53ZM36.92 41.75C37.08 41.97 37.25 42.17 37.43 42.37C37.61 42.56 37.8 42.75 38 42.92C38.2 43.1 38.41 43.26 38.63 43.41C38.85 43.56 39.08 43.7 39.32 43.82L38.96 39.52L36.22 31.78L34.66 31.25L34.05 33.01L35.39 37.3C35.6 37.64 35.79 37.99 35.96 38.34C36.12 38.7 36.27 39.07 36.4 39.44C36.53 39.82 36.64 40.2 36.73 40.58C36.81 40.97 36.88 41.36 36.92 41.75L36.92 41.75ZM49.51 43.34L49.51 43.34C49.51 43.34 49.51 43.34 49.51 43.34L49.51 43.34ZM49.51 43.34C49.59 43.28 49.67 43.22 49.74 43.16C49.82 43.11 49.89 43.04 49.97 42.98C50.04 42.92 50.11 42.86 50.18 42.79C50.26 42.73 50.33 42.66 50.39 42.59L52.86 29.62L49.83 28.41L49.13 34L49.24 34.03C49.36 34.06 49.46 34.11 49.56 34.17C49.65 34.23 49.74 34.31 49.81 34.41C49.88 34.5 49.93 34.61 49.96 34.72C49.99 34.83 50.01 34.94 50 35.06L49.51 43.34Z" />
				<path id="Layer" class="shp0" d="M23 39C22.45 39 22 38.55 22 38C22 37.45 22.45 37 23 37C23.55 37 24 37.45 24 38C24 38.55 23.55 39 23 39Z" />
				<path id="Layer" class="shp0" d="M19 38C18.45 38 18 37.55 18 37C18 36.45 18.45 36 19 36C19.55 36 20 36.45 20 37C20 37.55 19.55 38 19 38Z" />
				<path id="Layer" class="shp0" d="M16 40C15.45 40 15 39.55 15 39C15 38.45 15.45 38 16 38C16.55 38 17 38.45 17 39C17 39.55 16.55 40 16 40Z" />
				<path id="Layer" class="shp0" d="M31 40C30.45 40 30 39.55 30 39C30 38.45 30.45 38 31 38C31.55 38 32 38.45 32 39C32 39.55 31.55 40 31 40Z" />
				<path id="Layer" class="shp0" d="M12 39C11.45 39 11 38.55 11 38C11 37.45 11.45 37 12 37C12.55 37 13 37.45 13 38C13 38.55 12.55 39 12 39Z" />
				<path id="Layer" class="shp0" d="M27 38C26.45 38 26 37.55 26 37C26 36.45 26.45 36 27 36C27.55 36 28 36.45 28 37C28 37.55 27.55 38 27 38Z" />
			</g>
		</g>
	</g>
</svg>