<svg xmlns="http://www.w3.org/2000/svg" viewBox="0 0 775 700" width="48" height="43">
	<defs>
		<clipPath clipPathUnits="userSpaceOnUse" id="cp1">
			<path d="M0 0L775 0L775 700L0 700Z" />
		</clipPath>
	</defs>
	<style>
		tspan { white-space:pre }
		.shp0 { fill: #f1602e } 
	</style>
	<g id="Page 1" clip-path="url(#cp1)">
		<path id="Path 1" fill-rule="evenodd" class="shp0" d="M774.5 43.75L774.5 556.25C774.48 580.4 754.9 599.98 730.75 600L492.96 600L507.97 637.5L574.5 637.5C581.4 637.5 587 643.1 587 650L587 687.5C587 694.4 581.4 700 574.5 700L199.5 700C192.6 700 187 694.4 187 687.5L187 650C187 643.1 192.6 637.5 199.5 637.5L266.03 637.5L281.04 600L43.25 600C19.1 599.98 -0.47 580.4 -0.5 556.25L-0.5 43.75C-0.47 19.6 19.1 0.02 43.25 0L730.75 0C754.9 0.02 774.48 19.6 774.5 43.75ZM212 662.5L212 675L562 675L562 662.5L212 662.5ZM481.04 637.5L466.03 600L307.97 600L292.96 637.5L481.04 637.5ZM749.5 525L24.5 525L24.5 556.25C24.51 566.6 32.9 574.99 43.25 575L730.75 575C741.1 574.99 749.49 566.6 749.5 556.25L749.5 525ZM749.5 43.75C749.49 33.4 741.1 25.01 730.75 25L43.25 25C32.9 25.01 24.51 33.4 24.5 43.75L24.5 500L749.5 500L749.5 43.75Z" />
		<path id="Path 2" fill-rule="evenodd" class="shp0" d="M399.5 93.75L399.5 431.25C399.48 455.4 379.9 474.98 355.75 475L93.25 475C69.1 474.98 49.52 455.4 49.5 431.25L49.5 93.75C49.52 69.6 69.1 50.03 93.25 50L355.75 50C379.9 50.03 399.48 69.6 399.5 93.75ZM374.5 93.75C374.49 83.4 366.1 75.01 355.75 75L93.25 75C82.9 75.01 74.51 83.4 74.5 93.75L74.5 431.25C74.51 441.6 82.9 449.99 93.25 450L99.5 450L99.5 387.5C99.54 346.09 133.09 312.54 174.5 312.5L187 312.5L187 302.41C163.81 289.01 149.52 264.28 149.5 237.5L149.5 187.5C149.54 146.09 183.09 112.54 224.5 112.5C244.62 112.54 263.84 120.82 277.69 135.41C291.04 149.11 298.81 167.31 299.45 186.43C299.48 186.8 299.5 187.14 299.5 187.5L299.5 237.5C299.48 264.28 285.19 289.01 262 302.41L262 312.5L274.5 312.5C315.91 312.54 349.46 346.09 349.5 387.5L349.5 450L355.75 450C366.1 449.99 374.49 441.6 374.5 431.25L374.5 93.75ZM174.5 212.62L174.5 237.5C174.5 265.11 196.89 287.5 224.5 287.5C252.11 287.5 274.5 265.11 274.5 237.5L274.5 192.95C235.89 209.28 204.64 212.94 184.42 212.94C180.73 212.94 177.44 212.81 174.5 212.62ZM196.85 187.44C213.39 186.11 238.83 181.54 269.83 167.72C261.78 150.06 244.27 137.5 224.5 137.5C196.9 137.53 174.53 159.9 174.5 187.5L174.5 187.56C181.94 188.1 189.41 188.05 196.85 187.44ZM212 311.43L212 325C212 331.9 217.6 337.5 224.5 337.5C231.4 337.5 237 331.9 237 325L237 311.43C228.72 312.86 220.28 312.86 212 311.43ZM324.5 387.5C324.47 359.9 302.1 337.53 274.5 337.5L259.84 337.5C254.55 352.48 240.39 362.5 224.5 362.5C208.61 362.5 194.45 352.48 189.16 337.5L174.5 337.5C146.9 337.53 124.53 359.9 124.5 387.5L124.5 450L149.5 450L149.5 400C149.5 393.1 155.1 387.5 162 387.5C168.9 387.5 174.5 393.1 174.5 400L174.5 450L274.5 450L274.5 400C274.5 393.1 280.1 387.5 287 387.5C293.9 387.5 299.5 393.1 299.5 400L299.5 450L324.5 450L324.5 387.5ZM724.5 93.75L724.5 431.25C724.48 455.4 704.9 474.98 680.75 475L468.25 475C444.1 474.98 424.52 455.4 424.5 431.25L424.5 93.75C424.52 69.6 444.1 50.03 468.25 50L680.75 50C704.9 50.03 724.48 69.6 724.5 93.75ZM699.5 137.5L449.5 137.5L449.5 431.25C449.51 441.6 457.9 449.99 468.25 450L680.75 450C691.1 449.99 699.49 441.6 699.5 431.25L699.5 137.5ZM699.5 112.5L699.5 93.75C699.49 83.4 691.1 75.01 680.75 75L468.25 75C457.9 75.01 449.51 83.4 449.5 93.75L449.5 112.5L699.5 112.5Z" />
		<path id="Path 3" fill-rule="evenodd" class="shp0" d="M462 212.5L462 175C462 168.1 467.6 162.5 474.5 162.5L524.5 162.5C531.4 162.5 537 168.1 537 175L537 212.5C537 219.4 531.4 225 524.5 225L474.5 225C467.6 225 462 219.4 462 212.5ZM487 200L512 200L512 187.5L487 187.5L487 200ZM549.5 175C549.5 168.1 555.1 162.5 562 162.5L674.5 162.5C681.4 162.5 687 168.1 687 175C687 181.9 681.4 187.5 674.5 187.5L562 187.5C555.1 187.5 549.5 181.9 549.5 175ZM549.5 212.5C549.5 205.6 555.1 200 562 200L612 200C618.9 200 624.5 205.6 624.5 212.5C624.5 219.4 618.9 225 612 225L562 225C555.1 225 549.5 219.4 549.5 212.5ZM462 287.5L462 250C462 243.1 467.6 237.5 474.5 237.5L524.5 237.5C531.4 237.5 537 243.1 537 250L537 287.5C537 294.4 531.4 300 524.5 300L474.5 300C467.6 300 462 294.4 462 287.5ZM487 275L512 275L512 262.5L487 262.5L487 275ZM549.5 250C549.5 243.1 555.1 237.5 562 237.5L674.5 237.5C681.4 237.5 687 243.1 687 250C687 256.9 681.4 262.5 674.5 262.5L562 262.5C555.1 262.5 549.5 256.9 549.5 250ZM549.5 287.5C549.5 280.6 555.1 275 562 275L612 275C618.9 275 624.5 280.6 624.5 287.5C624.5 294.4 618.9 300 612 300L562 300C555.1 300 549.5 294.4 549.5 287.5ZM462 362.5L462 325C462 318.1 467.6 312.5 474.5 312.5L524.5 312.5C531.4 312.5 537 318.1 537 325L537 362.5C537 369.4 531.4 375 524.5 375L474.5 375C467.6 375 462 369.4 462 362.5ZM487 350L512 350L512 337.5L487 337.5L487 350ZM549.5 325C549.5 318.1 555.1 312.5 562 312.5L674.5 312.5C681.4 312.5 687 318.1 687 325C687 331.9 681.4 337.5 674.5 337.5L562 337.5C555.1 337.5 549.5 331.9 549.5 325ZM549.5 362.5C549.5 355.6 555.1 350 562 350L612 350C618.9 350 624.5 355.6 624.5 362.5C624.5 369.4 618.9 375 612 375L562 375C555.1 375 549.5 369.4 549.5 362.5Z" />
	</g>
</svg>