<svg xmlns="http://www.w3.org/2000/svg" viewBox="0 0 287 287" width="48" height="48">
	<style>
		tspan { white-space:pre }
		.shp0 { fill: #f1602f } 
	</style>
	<path id="Layer" fill-rule="evenodd" class="shp0" d="M46 186.09C32.56 172.82 19.55 160.01 6.57 147.17C0.3 140.96 -1.49 135 1.29 128.92C4.48 121.92 10.38 119.92 17.6 120.19C23.72 120.39 29.86 120.19 36.69 120.19C36.84 117.35 37.07 115.02 37.07 112.69C37.07 91.33 37.13 69.98 37.07 48.62C36.97 20.11 56.93 -0.01 85.58 -0.02C147.93 -0.02 210.26 -0.02 272.58 -0.02C284.82 -0.02 286.93 2.07 286.96 14.11C286.96 21.11 287.06 28.2 286.96 35.24C286.8 42.99 283.78 45.95 276.04 46.19C272.58 46.3 269.11 46.19 264.1 46.19C274.01 62.28 264.89 73.78 256.82 85C252.1 91.57 251.59 96.89 255.54 104C260.63 113.21 264.67 123 268.65 132.81C274.98 148.39 274.55 164.14 267.94 180.45C277.78 183.53 277.86 191.18 277.81 199.25C277.65 225.89 277.75 252.53 277.75 279.17L277.75 286.17L204 286.17C203.88 283.9 203.66 281.58 203.66 279.25C203.66 259.25 203.43 239.18 203.79 219.15C203.88 213.72 205.69 208.31 206.79 202.55L191 189.33C182.89 198.65 179.41 216.4 160.57 219.61C160.98 220.31 161.38 221.01 161.78 221.71L193.95 221.71L193.95 230.77L120.78 230.77C120.65 228.21 120.53 225.54 120.37 222.22L134.37 222.22C135.22 212.42 135.8 203.07 136.95 193.79C137.05 192.83 137.19 191.87 137.38 190.92C137.58 189.97 137.82 189.04 138.11 188.11C138.4 187.19 138.73 186.28 139.11 185.39C139.49 184.5 139.92 183.64 140.39 182.79C150.03 167.02 160.17 151.56 169.86 135.79C171.28 133.48 171.2 130.24 172.13 125.98C168.78 127.09 167.58 127.44 166.41 127.89C158.25 131 151.47 129.31 147.03 123.03C142.09 116.03 141.78 106.56 148.15 101.28C162.01 89.77 176.35 78.75 191.15 68.52C195.45 65.52 202.05 65.13 207.63 65.03C213.21 64.93 216.73 63.46 219.15 58.44C220.94 54.74 223.43 51.38 226.22 46.9C223.22 46.64 221.15 46.32 219.11 46.32C177.26 46.32 135.4 46.32 93.54 46.32C84.01 46.32 83.39 46.95 83.37 56.41C83.37 77.3 83.37 98.2 83.37 120.3C90.32 120.3 96.82 120.44 103.32 120.3C110.6 120.1 116.56 122.3 119.32 129.46C122 136.46 119.37 142.11 114.1 147.19C100.95 159.87 88.1 172.83 74.23 186.52C92.36 193.52 104.74 205.1 109.58 223.45C110.27 226 110.75 228.61 111.02 231.24C111.28 233.87 111.33 236.52 111.17 239.16C111.01 241.8 110.63 244.42 110.04 247C109.45 249.57 108.66 252.1 107.66 254.55C99.15 275.91 78.21 288.55 55.1 286.55C33.61 284.61 15 267.96 10.35 246.54C5 221.76 16.15 202.41 46 186.09ZM277.35 9.28C216.99 9.28 147.46 9.28 87.09 9.28C61.57 9.28 46.39 24.45 46.34 49.87C46.34 72.55 46.34 95.23 46.34 117.87C46.34 126.41 43.29 129.31 34.72 129.45C28.78 129.55 22.81 129.2 16.89 129.63C14.56 129.79 10.89 131.09 10.43 132.63C9.85 134.74 11.05 138.23 12.72 139.94C26.4 153.94 40.39 167.71 54.22 181.59C58.22 185.64 62.08 185.88 66.22 181.76C80.22 167.76 94.32 153.81 108.16 139.62C109.7 138.05 110.97 134.52 110.22 132.86C109.47 131.2 106.11 129.92 103.8 129.74C98.11 129.27 92.36 129.55 86.63 129.48C77.1 129.38 74.26 126.75 74.2 117.37C74.06 98.66 74.2 79.95 74.08 61.23C73.96 39.47 76.62 36.86 98.26 36.9C155.76 37 213.26 37.03 270.76 36.98C272.88 36.98 275 36.72 277.43 36.57L277.35 9.28ZM224.35 156.11C214.18 150.96 207.35 143.96 202.99 134.31C202.09 132.31 201.16 130.33 200.19 128.36C199.22 126.39 198.21 124.45 197.17 122.52C196.13 120.59 195.05 118.68 193.94 116.79C192.82 114.9 191.67 113.04 190.49 111.19C188.23 107.73 184.08 104.47 179.17 107.64C174.66 110.54 175.87 114.77 177.4 118.85C184.81 138.59 192.34 158.29 199.59 178.09C202.83 186.94 209.69 192.28 217.05 197.19C217.42 197.37 217.81 197.5 218.21 197.6C218.61 197.69 219.02 197.74 219.44 197.76C219.85 197.77 220.26 197.74 220.67 197.66C221.07 197.59 221.47 197.47 221.85 197.32C232.47 193.09 243.03 188.72 253.53 184.2C253.97 184.02 254.4 183.79 254.81 183.54C255.22 183.28 255.6 182.99 255.96 182.67C256.32 182.35 256.65 182 256.95 181.63C257.25 181.25 257.52 180.85 257.75 180.43C262.05 170.91 266.13 160.62 263.3 150.48C258.93 134.82 252.44 119.76 246.85 104.48L244.44 104.81L220.6 142.49L229.08 149.15L224.35 156.11ZM268.45 277.04C268.45 259.21 268.45 214.15 268.45 196.33C268.45 192.4 268.58 188.1 262.35 190.72C247.55 196.92 232.77 203.19 217.88 209.19C213.88 210.81 212.88 213.51 212.88 217.4C212.99 228.4 212.88 239.4 212.88 250.4L212.88 277.04L268.45 277.04ZM98.39 252.05C104.95 236.58 101.55 218.69 89.77 206.71C77.99 194.73 60.15 191.02 44.58 197.32C29 203.62 18.75 218.68 18.61 235.48C18.53 240.94 19.54 246.37 21.58 251.44C23.61 256.51 26.63 261.13 30.46 265.02C34.29 268.92 38.86 272.02 43.89 274.14C48.93 276.26 54.34 277.35 59.8 277.37C76.6 277.51 91.83 267.52 98.39 252.05ZM208 75.54L206.83 72.97C201.52 74.97 195.54 76.09 191.02 79.26C179.52 87.26 168.64 96.26 157.6 104.9C155.93 106.22 153.83 108.01 153.54 109.83C153.14 112.36 153.43 115.91 154.98 117.56C156.53 119.21 160.2 119.71 162.47 119.06C164.25 118.56 166.28 115.63 166.52 113.58C168.07 100.51 176.61 94.73 189.06 98.45C190.56 98.9 193.41 98.2 194.21 97.04C199.07 90.06 203.48 82.77 208 75.54ZM227.57 62.72C227.57 62.72 227.57 62.72 227.57 62.71L227.54 62.69L227.57 62.72ZM250.08 77.69C255.08 70.43 261.66 64.35 258.08 54.88C256.03 49.49 251.7 46.53 245.85 46.39C235.29 46.2 232.5 54.9 227.57 62.71L250.08 77.69ZM214.54 134.48L245.4 85.73L237.33 80.73C229.12 93.73 221.56 106.35 213.33 118.5C209.58 124.06 209.36 128.67 214.56 134.54L214.54 134.48ZM176 143.64L148.27 187.44C151.22 189.35 153.37 190.73 155.93 192.37C163.07 181.01 169.57 169.83 176.93 159.27C180.88 153.71 179.66 149.54 176 143.64ZM205 114.64L229.66 75.45L222.33 70.69C215.79 80.97 209.84 90.98 203.19 100.5C199.52 105.72 199.44 109.81 205 114.62L205 114.64ZM184 165.39L163.89 197.54L171.64 202.26C176.12 195.26 179.9 188.56 184.45 182.44C188.54 176.88 188.86 171.86 184 165.37L184 165.39ZM163.89 208.44L145.89 197.25C145.35 204.64 144.89 210.92 144.34 218.46L163.89 208.44Z" />
	<path id="Layer" class="shp0" d="M194.09 240.9L194.09 249.38L121 249.38L121 240.9L194.09 240.9Z" />
	<path id="Layer" class="shp0" d="M92.07 27.54L83.88 27.54L83.88 18.94L92.07 18.94L92.07 27.54Z" />
	<path id="Layer" class="shp0" d="M119.77 27.54L111.63 27.54L111.63 18.92L119.77 18.92L119.77 27.54Z" />
	<path id="Layer" class="shp0" d="M139.41 18.77L147.6 18.77L147.6 27.35L139.41 27.35L139.41 18.77Z" />
	<path id="Layer" class="shp0" d="M167.16 18.71L175.34 18.71L175.34 27.34L167.16 27.34L167.16 18.71Z" />
	<path id="Layer" class="shp0" d="M203.11 27.54L195 27.54L195 18.94L203.15 18.94L203.11 27.54Z" />
	<path id="Layer" class="shp0" d="M231.19 19.04L231.19 27.24L222.59 27.24L222.59 19.04L231.19 19.04Z" />
	<path id="Layer" class="shp0" d="M259 19.05L259 27.3L250.35 27.3L250.35 19.05L259 19.05Z" />
	<path id="Layer" fill-rule="evenodd" class="shp0" d="M45.42 241.15L54.1 239.72C43.79 232.56 46.62 222.79 46.5 213.21L55.08 212.32C55.38 209.57 55.66 207.03 55.99 204.02L64.69 204.02C63.37 210.39 66.88 214.48 71.23 218.84C73.69 221.3 73.63 226.29 74.8 230.47L66.23 232.02C76.6 239.14 73.84 248.92 73.91 258.55L65.4 259.43C65.06 262.15 64.76 264.68 64.4 267.72L55.79 267.72C56.93 261.49 53.79 257.23 49.28 252.92C46.75 250.54 46.73 245.54 45.42 241.15ZM60.81 249.47C62.1 249.47 64.54 247.26 64.56 246.03C64.67 240.47 60.51 240.31 55.66 240.38C55.61 244.94 55.04 249.31 60.81 249.47ZM64.23 231.07C65 223.19 64.24 222.29 56.38 222.47C55.5 230.19 56.33 231.03 64.23 231.07Z" />
</svg>