<svg xmlns="http://www.w3.org/2000/svg" viewBox="0 0 169 168" width="48" height="48">
	<style>
		tspan { white-space:pre }
		.shp0 { fill: #f1602f } 
	</style>
	<path id="Layer" fill-rule="evenodd" class="shp0" d="M123.24 90C133.24 89 141.99 90.66 149.99 95.82C156.61 100.06 161.8 106.2 164.88 113.43C167.96 120.65 168.8 128.65 167.28 136.36C165.76 144.07 161.96 151.15 156.36 156.67C150.77 162.19 143.64 165.89 135.91 167.31C127.34 168.91 119.31 167.42 111.45 163.96C110.95 163.73 110.44 163.53 109.91 163.35C109.39 163.18 108.86 163.02 108.32 162.9C107.79 162.78 107.24 162.68 106.7 162.61C106.15 162.54 105.6 162.5 105.05 162.48C73.8 162.39 42.56 162.37 11.31 162.42C2.78 162.42 0.06 159.72 0.06 151.26C0.06 109.77 0.04 68.27 0 26.77C-0.04 25.87 0.02 24.98 0.18 24.09C0.34 23.21 0.59 22.35 0.93 21.52C1.28 20.69 1.71 19.91 2.23 19.17C2.74 18.44 3.34 17.76 4 17.16C8.7 12.68 13 7.74 17.91 3.53C18.48 3.04 19.09 2.59 19.74 2.2C20.38 1.8 21.06 1.46 21.76 1.18C22.46 0.89 23.18 0.66 23.91 0.5C24.65 0.33 25.4 0.22 26.15 0.17C55.27 -0.07 84.39 0.01 113.52 0.03C119.99 0.03 123.16 3.15 123.17 9.7C123.21 34.83 123.21 59.95 123.17 85.07L123.24 90ZM25.22 5.61L25.24 5.61L25.24 5.6L25.22 5.61ZM25.24 13.88C25.24 22.65 22.67 25.16 13.78 25.18C13.44 25.2 13.09 25.22 12.75 25.23C12.41 25.24 12.06 25.24 11.72 25.24C11.38 25.24 11.03 25.24 10.69 25.23C10.35 25.22 10 25.2 9.66 25.18C6.6 24.81 5.59 25.93 5.6 29.1C5.7 69.85 5.72 110.6 5.67 151.33C5.67 156.26 6.18 156.77 10.96 156.77L101.25 156.77C94.41 149.28 90.65 141.31 89.8 131.77C88.42 131.7 87.2 131.58 85.97 131.58C69.97 131.58 53.97 131.58 37.97 131.58C37.57 131.61 37.16 131.63 36.76 131.64C36.36 131.64 35.95 131.63 35.55 131.6C35.14 131.58 34.74 131.53 34.34 131.48C33.94 131.42 33.54 131.35 33.15 131.26C32.89 131.15 32.64 131.01 32.4 130.84C32.17 130.67 31.97 130.47 31.78 130.25C31.6 130.03 31.45 129.79 31.32 129.53C31.2 129.27 31.11 129 31.05 128.72C31.05 127.82 32.24 126.72 33.19 126.13C33.96 125.69 35.19 125.96 36.19 125.96L89.8 125.96C90.22 123.02 90.57 120.52 90.98 117.63L83.81 117.63C77.69 117.63 71.56 117.78 65.45 117.49C64.17 117.43 62.97 115.73 61.73 114.78C62.97 113.84 64.18 112.84 65.48 111.98C65.83 111.75 66.48 111.98 66.95 111.98C74.45 111.98 81.95 111.84 89.45 111.98C92.24 112.04 93.94 111.36 95.4 108.75C96.43 106.9 97.63 105.14 98.97 103.49C100.31 101.85 101.79 100.33 103.4 98.95C105.01 97.57 106.74 96.33 108.57 95.25C110.39 94.17 112.31 93.26 114.3 92.52C117 91.52 117.79 90.18 117.78 87.38C117.67 62.01 117.72 36.64 117.71 11.27C117.71 6.07 117.23 5.61 111.83 5.61L25.24 5.61L25.24 13.88ZM129.08 95.29C110.84 95.11 95.57 109.89 95.34 127.94C95.11 147.12 109.71 162.13 128.84 162.36C147.05 162.59 162.32 147.46 162.42 129.11C162.47 124.69 161.64 120.31 159.99 116.21C158.34 112.12 155.89 108.39 152.79 105.25C149.69 102.1 145.99 99.6 141.92 97.89C137.85 96.19 133.48 95.3 129.06 95.29L129.08 95.29ZM10.84 19.11C18.5 20.29 21.03 20.24 18.99 11.11L10.84 19.11Z" />
	<path id="Layer" class="shp0" d="M61.94 64.45L101.3 64.45C102.3 64.45 103.48 64.19 104.24 64.64C105.17 65.2 106.32 66.37 106.31 67.26C106.25 67.54 106.15 67.81 106.02 68.06C105.89 68.32 105.73 68.56 105.55 68.78C105.36 68.99 105.15 69.18 104.91 69.35C104.68 69.51 104.43 69.65 104.16 69.75C103.73 69.83 103.3 69.9 102.87 69.95C102.44 70.01 102 70.05 101.57 70.07C101.14 70.09 100.7 70.1 100.26 70.1C99.83 70.09 99.39 70.07 98.96 70.04C73.5 70.04 48.04 70.04 22.57 70.04C21.7 70.04 20.63 70.32 19.99 69.93C19.72 69.73 19.46 69.52 19.21 69.31C18.95 69.1 18.7 68.88 18.46 68.65C18.22 68.42 17.98 68.19 17.75 67.95C17.52 67.71 17.3 67.46 17.08 67.21C18.08 66.32 18.96 64.81 20.08 64.64C20.73 64.58 21.38 64.53 22.04 64.5C22.69 64.46 23.34 64.44 24 64.42C24.65 64.41 25.31 64.41 25.96 64.43C26.61 64.44 27.27 64.46 27.92 64.5L61.94 64.45Z" />
	<path id="Layer" class="shp0" d="M54.77 84L86.59 84C87.59 84 88.8 83.68 89.53 84.13C89.82 84.29 90.1 84.47 90.36 84.67C90.62 84.88 90.86 85.11 91.08 85.36C91.3 85.61 91.5 85.87 91.67 86.16C91.84 86.44 91.99 86.74 92.11 87.05C92.25 87.64 90.53 89.3 89.54 89.41C88.73 89.47 87.92 89.52 87.11 89.56C86.3 89.6 85.49 89.63 84.68 89.65C83.87 89.67 83.06 89.68 82.25 89.68C81.44 89.68 80.63 89.66 79.82 89.64L21.82 89.64C21.45 89.64 20.97 89.78 20.72 89.64C19.46 88.76 18.3 87.76 17.07 86.76C18.28 85.83 19.48 84.12 20.71 84.1C31.81 83.88 42.92 83.96 54.02 83.96L54.77 84Z" />
	<path id="Layer" fill-rule="evenodd" class="shp0" d="M58.73 47.81C54.04 46.38 51.73 48.58 50.51 53.06C50.2 54.2 47.96 55.73 46.87 55.55C44.37 55.13 44.73 52.95 45.44 51.05C47.67 45.09 49.91 39.13 52.16 33.18C53.32 30.07 55.44 28.09 58.84 28.11C62.4 28.11 64.5 30.2 65.68 33.5C67.74 39.26 69.94 44.96 72.08 50.69C72.81 52.64 73.59 54.69 70.85 55.69C68.46 56.5 67.24 54.75 66.91 52.81C66.09 47.94 63.09 46.89 58.73 47.81ZM62.73 41.81L59.63 33.61L58.19 33.61L54.87 41.81L62.73 41.81Z" />
	<path id="Layer" class="shp0" d="M89.66 37.25C91.66 34.67 93.35 32.4 95.06 30.12C96.3 28.45 98.06 27.12 99.66 28.91C100.4 29.7 100.15 32.13 99.51 33.38C99.21 33.92 98.89 34.46 98.55 34.98C98.21 35.51 97.86 36.02 97.49 36.52C97.12 37.02 96.74 37.51 96.34 37.99C95.94 38.47 95.52 38.93 95.09 39.38C93.48 41.16 93.21 42.54 94.98 44.44C95.44 44.91 95.87 45.4 96.3 45.9C96.72 46.4 97.12 46.91 97.51 47.44C97.89 47.97 98.26 48.51 98.61 49.06C98.96 49.62 99.29 50.18 99.6 50.76C100.22 51.97 99.68 53.76 99.66 55.33C98.16 54.89 96.25 54.89 95.26 53.93C93.26 51.93 91.72 49.46 89.7 46.8C87.7 49.41 86.13 51.95 84.05 53.99C83.05 54.99 81.15 54.92 79.66 55.34C79.66 53.79 79.08 51.93 79.73 50.75C81.44 47.62 85.21 44.81 85.27 41.82C85.33 39.03 81.46 36.28 79.76 33.27C79.08 32.08 78.93 29.59 79.69 28.8C81.38 27.07 83.05 28.45 84.28 30.11C85.98 32.42 87.72 34.68 89.66 37.25Z" />
	<path id="Layer" class="shp0" d="M61.54 98.03C70.27 98.03 78.99 98.03 87.72 98.03C89.72 98.03 92.14 97.77 92.24 100.62C92.35 103.72 89.85 103.56 87.69 103.56C70.23 103.56 52.78 103.56 35.33 103.56C33.21 103.56 30.96 103.42 30.95 100.75C30.94 98.08 33.31 97.99 35.36 97.99L61.54 98.03Z" />
	<path id="Layer" class="shp0" d="M36.46 33.67L36.46 49.5C36.46 50.62 36.76 51.9 36.32 52.82C36.14 53.1 35.94 53.37 35.74 53.64C35.54 53.9 35.33 54.16 35.11 54.41C34.89 54.66 34.66 54.91 34.42 55.14C34.19 55.38 33.94 55.6 33.69 55.82C32.69 54.75 31.01 53.73 30.93 52.61C30.63 47.77 30.8 42.9 30.8 38.04L30.8 33.62C28.8 33.62 27.08 33.96 25.63 33.51C24.45 33.14 23.56 31.82 22.54 30.92C23.6 29.92 24.61 28.17 25.71 28.11C27.02 28.04 28.32 27.98 29.63 27.94C30.94 27.9 32.25 27.89 33.56 27.89C34.86 27.89 36.17 27.9 37.48 27.94C38.79 27.98 40.09 28.04 41.4 28.11C42.56 28.17 43.64 29.84 44.76 30.77C43.55 31.77 42.48 33 41.11 33.54C39.94 34.04 38.44 33.67 36.46 33.67Z" />
	<path id="Layer" class="shp0" d="M36.69 112C41.8 112 46.91 112 52.02 112C54.02 112 56.2 112.48 55.75 114.91C55.54 116.03 53.42 117.55 52.13 117.58C41.67 117.79 31.21 117.79 20.75 117.58C19.5 117.58 18.29 115.84 17.06 114.91C18.25 113.91 19.39 112.22 20.63 112.14C25.97 111.82 31.3 112 36.69 112Z" />
	<path id="Layer" class="shp0" d="M37.55 145.58C32.07 145.58 26.55 145.58 21.11 145.58C19.11 145.58 17.11 145.36 17.11 142.81C17.11 140.26 19.11 140.02 21.11 140.01L54.74 140.01C56.69 140.01 58.74 140.11 58.74 142.73C58.74 145.35 56.8 145.58 54.74 145.57L37.55 145.58Z" />
	<path id="Layer" class="shp0" d="M102.15 82.59C104.08 84.42 106.08 85.42 106.25 86.67C106.62 89.38 104.25 89.57 102.15 89.58C100.05 89.59 97.95 89.31 98.34 86.79C98.55 85.5 100.38 84.46 102.15 82.59Z" />
	<path id="Layer" class="shp0" d="M20.97 105.11C19.16 103.11 17.38 102.02 17.21 100.74C16.88 98.19 19.14 98.05 21.09 98.04C23.04 98.03 25.28 98.31 24.89 100.82C24.69 102.1 22.85 103.13 20.97 105.11Z" />
	<path id="Layer" class="shp0" d="M21.09 133.08C19.25 131.13 17.42 130.08 17.23 128.79C16.87 126.35 18.99 126 21.03 126C23.07 126 25.19 126.31 24.87 128.75C24.71 130.04 22.89 131.11 21.09 133.08Z" />
	<path id="Layer" class="shp0" d="M122.3 144.46L138.78 116.23C139.22 115.47 139.48 114.42 140.14 114.03C140.46 113.87 140.78 113.72 141.11 113.57C141.44 113.42 141.77 113.29 142.1 113.15C142.44 113.02 142.77 112.9 143.11 112.78C143.45 112.67 143.8 112.56 144.14 112.46C144.41 113.86 145.39 115.65 144.86 116.6C138.69 127.6 132.32 138.42 125.94 149.28C124.66 151.46 122.76 151.66 120.94 149.98C120.26 149.38 119.59 148.78 118.94 148.16C118.28 147.54 117.63 146.9 117 146.26C116.36 145.62 115.74 144.97 115.12 144.3C114.51 143.64 113.91 142.96 113.32 142.28C112.6 141.4 113.15 139.47 113.11 138.03C114.46 138.13 116.21 137.75 117.11 138.45C118.87 139.92 120.19 141.97 122.3 144.46Z" />
</svg>