<svg xmlns="http://www.w3.org/2000/svg" viewBox="0 0 513 513" width="48" height="48">
	<style>
		tspan { white-space:pre }
		.shp0 { fill: #f1602e } 
	</style>
	<g id="Layer">
		<g id="Layer">
			<path id="Layer" fill-rule="evenodd" class="shp0" d="M0 256C0 114.5 114.51 0 256 0C397.5 0 512 114.51 512 256C512 397.5 397.49 512 256 512C114.5 512 0 397.49 0 256ZM256 15C123.11 15 15 123.11 15 256C15 388.89 123.11 497 256 497C388.89 497 497 388.89 497 256C497 123.11 388.89 15 256 15Z" />
			<path id="Layer" fill-rule="evenodd" class="shp0" d="M64.5 159.01C60.87 157.01 59.56 152.44 61.56 148.82C100.68 78 175.19 34 256 34C336.82 34 411.32 78 450.44 148.82C452.44 152.44 451.13 157.01 447.5 159.01C443.88 161.01 439.32 159.7 437.31 156.07C430.08 142.98 421.55 130.87 411.93 119.87L385.76 119.87C391.09 129.17 395.92 139.11 400.17 149.64C401.72 153.48 399.86 157.85 396.02 159.4C392.18 160.95 387.81 159.09 386.26 155.25C381.11 142.47 375.05 130.64 368.26 119.87L316.26 119.87C318.76 129.67 320.99 140.12 322.92 151.15C323.64 155.23 320.91 159.12 316.83 159.83C312.75 160.55 308.86 157.82 308.15 153.74C305.97 141.27 303.49 130 300.8 119.87L211.21 119.87C208.51 130 206.03 141.27 203.85 153.74C203.14 157.82 199.25 160.55 195.17 159.83C191.09 159.12 188.36 155.23 189.08 151.15C191.01 140.12 193.24 129.67 195.74 119.87L143.74 119.87C136.95 130.64 130.9 142.47 125.74 155.25C124.19 159.09 119.82 160.95 115.98 159.4C112.14 157.85 110.28 153.48 111.83 149.64C116.08 139.11 120.91 129.17 126.25 119.87L100.07 119.87C90.46 130.87 81.92 142.98 74.69 156.07C72.69 159.7 68.12 161.01 64.5 159.01ZM397.43 104.87C381.68 90.15 363.77 78.01 344.38 68.84C356.07 78.92 366.81 91.01 376.34 104.87L397.43 104.87ZM357.79 104.87C338.41 79.75 314.49 62.12 288.54 54.02C299.23 68.28 306.87 87.84 312.08 104.87L357.79 104.87ZM256 49C243.59 49 228.01 66.61 215.61 104.87L296.39 104.87C283.99 66.61 268.41 49 256 49ZM154.21 104.87L199.92 104.87C205.14 87.83 212.77 68.28 223.46 54.02C197.51 62.12 173.59 79.75 154.21 104.87ZM114.58 104.87L135.67 104.87C145.19 91.01 155.93 78.92 167.62 68.84C148.23 78.01 130.32 90.15 114.58 104.87Z" />
			<path id="Layer" fill-rule="evenodd" class="shp0" d="M256 478C175.19 478 100.68 434.01 61.56 363.18C59.56 359.56 60.87 355 64.5 352.99C68.12 350.99 72.69 352.31 74.69 355.93C81.92 369.03 90.46 381.13 100.07 392.13L126.24 392.13C120.91 382.83 116.08 372.9 111.83 362.36C110.28 358.52 112.14 354.15 115.98 352.6C119.82 351.05 124.19 352.91 125.74 356.75C130.9 369.53 136.95 381.36 143.74 392.13L195.74 392.13C193.24 382.33 191.01 371.88 189.08 360.85C188.36 356.77 191.09 352.88 195.17 352.17C199.26 351.45 203.14 354.19 203.85 358.26C206.03 370.73 208.51 382 211.21 392.13L300.79 392.13C303.49 382 305.97 370.73 308.15 358.27C308.86 354.18 312.75 351.46 316.83 352.17C320.91 352.88 323.64 356.77 322.92 360.85C320.99 371.88 318.76 382.34 316.26 392.13L368.26 392.13C375.05 381.36 381.11 369.53 386.26 356.75C387.81 352.91 392.18 351.05 396.02 352.6C399.86 354.15 401.72 358.52 400.17 362.36C395.92 372.9 391.09 382.84 385.76 392.13L411.93 392.13C421.55 381.13 430.08 369.02 437.31 355.93C439.32 352.31 443.88 350.99 447.5 352.99C451.13 355 452.44 359.56 450.44 363.18C411.32 434.01 336.82 478 256 478ZM376.34 407.13C366.81 420.99 356.07 433.08 344.38 443.16C363.77 433.99 381.69 421.85 397.43 407.13L376.34 407.13ZM288.54 457.98C314.49 449.88 338.41 432.25 357.79 407.13L312.08 407.13C306.86 424.17 299.23 443.73 288.54 457.98ZM215.61 407.13C228.01 445.39 243.59 463 256 463C268.41 463 283.99 445.39 296.39 407.13L215.61 407.13ZM154.21 407.13C173.59 432.25 197.51 449.88 223.46 457.98C212.77 443.72 205.13 424.16 199.92 407.13L154.21 407.13ZM114.57 407.13C130.32 421.85 148.23 433.99 167.62 443.16C155.93 433.08 145.19 420.99 135.67 407.13L114.57 407.13Z" />
			<path id="Layer" fill-rule="evenodd" class="shp0" d="M94.29 193.92C94.29 181.52 104.39 171.42 116.79 171.42C129.2 171.42 139.29 181.52 139.29 193.92L139.29 318.08C139.29 330.48 129.2 340.58 116.79 340.58C104.39 340.58 94.29 330.48 94.29 318.08L94.29 193.92ZM124.29 193.92C124.29 189.79 120.93 186.42 116.79 186.42C112.66 186.42 109.29 189.79 109.29 193.92L109.29 318.08C109.29 322.21 112.66 325.58 116.79 325.58C120.93 325.58 124.29 322.21 124.29 318.08L124.29 193.92Z" />
			<path id="Layer" fill-rule="evenodd" class="shp0" d="M226.39 323.32C244.61 317.77 256.85 302.94 256.85 286.43C256.85 270.44 245.61 256.58 229.52 252.72L196.13 244.7C186.67 242.43 180.3 234.74 180.3 225.57C180.3 212.26 194.07 201.43 210.99 201.43C227.91 201.43 241.68 212.26 241.68 225.57C241.68 229.71 245.05 233.07 249.18 233.07C253.32 233.07 256.68 229.71 256.68 225.57C256.68 203.99 236.19 186.43 210.99 186.43C185.8 186.43 165.3 203.99 165.3 225.57C165.3 241.56 176.54 255.43 192.63 259.29L226.02 267.3C235.49 269.57 241.85 277.26 241.85 286.43C241.85 299.75 228.08 310.58 211.16 310.58C194.24 310.58 180.47 299.75 180.47 286.43C180.47 282.3 177.11 278.93 172.97 278.93C168.84 278.93 165.47 282.3 165.47 286.43C165.47 302.88 177.65 317.69 195.79 323.28C199.74 324.5 201.96 328.7 200.74 332.66C199.52 336.62 195.32 338.83 191.37 337.62C166.91 330.08 150.47 309.51 150.47 286.43C150.47 275.31 158.58 266.05 169.2 264.25C157.52 255.04 150.31 241 150.31 225.57C150.31 195.72 177.53 171.42 210.99 171.42C244.46 171.42 271.68 195.71 271.68 225.57C271.68 236.69 263.57 245.96 252.95 247.76C264.63 256.96 271.85 271 271.85 286.43C271.85 309.59 255.34 330.18 230.76 337.67C226.79 338.88 222.61 336.64 221.4 332.68C220.19 328.72 222.43 324.53 226.39 323.32ZM192.09 274.58C194.23 278.03 195.47 282.09 195.47 286.43C195.47 290.66 202.32 295.58 211.16 295.58C219.99 295.58 226.85 290.66 226.85 286.43C226.85 283.18 223.53 282.13 222.52 281.89L192.09 274.58ZM230.06 237.42C227.92 233.98 226.68 229.92 226.68 225.57C226.68 221.34 219.83 216.42 210.99 216.42C202.16 216.42 195.3 221.34 195.3 225.57C195.3 228.82 198.62 229.87 199.63 230.12L230.06 237.42Z" />
			<path id="Layer" fill-rule="evenodd" class="shp0" d="M347.82 201.42C370.07 201.42 388.18 225.91 388.18 256C388.18 286.09 370.07 310.58 347.82 310.58C325.57 310.58 307.47 286.09 307.47 256C307.47 225.91 325.57 201.42 347.82 201.42ZM373.18 256C373.18 234.92 361.33 216.42 347.82 216.42C334.32 216.42 322.47 234.92 322.47 256C322.47 277.08 334.32 295.58 347.82 295.58C361.33 295.58 373.18 277.08 373.18 256Z" />
			<path id="Layer" class="shp0" d="M410.42 245.87C414.49 245.1 417.17 241.18 416.4 237.11C409.1 198.44 380.9 171.42 347.82 171.42C307.35 171.42 277.47 210.68 277.47 256C277.47 301.34 307.38 340.58 347.82 340.58C380.9 340.58 409.1 313.57 416.4 274.89C417.17 270.82 414.5 266.9 410.42 266.13C406.35 265.36 402.43 268.04 401.66 272.11C395.72 303.59 373.58 325.58 347.82 325.58C317.3 325.58 292.47 294.37 292.47 256C292.47 217.64 317.3 186.42 347.82 186.42C373.58 186.42 395.72 208.41 401.66 239.89C402.43 243.96 406.36 246.64 410.42 245.87L410.42 245.87Z" />
		</g>
	</g>
</svg>