<svg xmlns="http://www.w3.org/2000/svg" viewBox="0 0 512 512" width="48" height="48">
	<style>
		tspan { white-space:pre }
		.shp0 { fill: #f1602e } 
	</style>
	<g id="Layer">
		<g id="Layer">
			<g id="Layer">
				<path id="Layer" class="shp0" d="M431 472.5C426.86 472.5 423.5 475.86 423.5 480L423.5 497L88.5 497L88.5 127.5C88.5 123.36 85.14 120 81 120C76.86 120 73.5 123.36 73.5 127.5L73.5 504.5C73.5 508.64 76.86 512 81 512L431 512C435.14 512 438.5 508.64 438.5 504.5L438.5 480C438.5 475.86 435.14 472.5 431 472.5Z" />
			</g>
		</g>
		<g id="Layer">
			<g id="Layer">
				<path id="Layer" fill-rule="evenodd" class="shp0" d="M438.5 7.5L438.5 447.83C438.5 451.98 435.14 455.33 431 455.33C426.86 455.33 423.5 451.98 423.5 447.83L423.5 65L384 65C379.86 65 376.5 61.64 376.5 57.5C376.5 53.36 379.86 50 384 50L423.5 50L423.5 15L200.5 15L200.5 50L352.25 50C356.39 50 359.75 53.36 359.75 57.5C359.75 61.64 356.39 65 352.25 65L88.5 65L88.5 96.5C88.5 100.64 85.14 104 81 104C76.86 104 73.5 100.64 73.5 96.5L73.5 7.5C73.5 3.36 76.86 0 81 0L431 0C435.14 0 438.5 3.36 438.5 7.5ZM185.5 15L88.5 15L88.5 50L185.5 50L185.5 15Z" />
			</g>
		</g>
		<g id="Layer">
			<g id="Layer">
				<path id="Layer" class="shp0" d="M110 40C105.85 40 102.5 36.65 102.5 32.5C102.5 28.35 105.85 25 110 25C114.15 25 117.5 28.35 117.5 32.5C117.5 36.65 114.15 40 110 40Z" />
			</g>
		</g>
		<g id="Layer">
			<g id="Layer">
				<path id="Layer" class="shp0" d="M138 40C133.85 40 130.5 36.65 130.5 32.5C130.5 28.35 133.85 25 138 25C142.15 25 145.5 28.35 145.5 32.5C145.5 36.65 142.15 40 138 40Z" />
			</g>
		</g>
		<g id="Layer">
			<g id="Layer">
				<path id="Layer" class="shp0" d="M166 40C161.85 40 158.5 36.65 158.5 32.5C158.5 28.35 161.85 25 166 25C170.15 25 173.5 28.35 173.5 32.5C173.5 36.65 170.15 40 166 40Z" />
			</g>
		</g>
		<g id="Layer">
			<g id="Layer">
				<path id="Layer" fill-rule="evenodd" class="shp0" d="M366.94 432C362.75 436.19 357.17 438.5 351.24 438.5C345.31 438.5 339.73 436.19 335.54 432L293.46 389.92L277.96 405.42C275.77 407.62 272.86 408.78 269.89 408.78C268.42 408.78 266.93 408.49 265.5 407.9C261.22 406.13 258.45 401.98 258.45 397.34L258.45 334.93C258.45 328.63 263.58 323.5 269.88 323.5L332.29 323.5C336.93 323.5 341.08 326.27 342.85 330.56C344.63 334.84 343.65 339.73 340.37 343.01L324.87 358.51L366.94 400.59C375.6 409.25 375.6 423.34 366.94 432ZM308.96 353.21C308.96 353.21 308.96 353.21 308.97 353.21L323.67 338.5L273.45 338.5L273.45 388.72L288.16 374.01L308.96 353.21ZM356.34 411.19L314.26 369.12L304.07 379.31L346.14 421.39C347.51 422.75 349.32 423.5 351.24 423.5C353.17 423.5 354.98 422.75 356.34 421.39C359.15 418.58 359.15 414.01 356.34 411.19Z" />
			</g>
		</g>
		<g id="Layer">
			<g id="Layer">
				<path id="Layer" fill-rule="evenodd" class="shp0" d="M392.5 104L392.5 162C392.5 166.14 389.14 169.5 385 169.5L127 169.5C122.86 169.5 119.5 166.14 119.5 162L119.5 104C119.5 99.86 122.86 96.5 127 96.5L385 96.5C389.14 96.5 392.5 99.86 392.5 104ZM377.5 111.5L134.5 111.5L134.5 154.5L377.5 154.5L377.5 111.5Z" />
			</g>
		</g>
		<g id="Layer">
			<g id="Layer">
				<path id="Layer" fill-rule="evenodd" class="shp0" d="M392.5 207L392.5 265C392.5 269.14 389.14 272.5 385 272.5L127 272.5C122.86 272.5 119.5 269.14 119.5 265L119.5 207C119.5 202.86 122.86 199.5 127 199.5L385 199.5C389.14 199.5 392.5 202.86 392.5 207ZM377.5 214.5L134.5 214.5L134.5 257.5L377.5 257.5L377.5 214.5Z" />
			</g>
		</g>
		<g id="Layer">
			<g id="Layer">
				<path id="Layer" fill-rule="evenodd" class="shp0" d="M192.5 302L192.5 360C192.5 364.14 189.14 367.5 185 367.5L127 367.5C122.86 367.5 119.5 364.14 119.5 360L119.5 302C119.5 297.86 122.86 294.5 127 294.5L185 294.5C189.14 294.5 192.5 297.86 192.5 302ZM177.5 309.5L134.5 309.5L134.5 352.5L177.5 352.5L177.5 309.5Z" />
			</g>
		</g>
		<g id="Layer">
			<g id="Layer">
				<path id="Layer" fill-rule="evenodd" class="shp0" d="M192.5 394L192.5 452C192.5 456.14 189.14 459.5 185 459.5L127 459.5C122.86 459.5 119.5 456.14 119.5 452L119.5 394C119.5 389.86 122.86 386.5 127 386.5L185 386.5C189.14 386.5 192.5 389.86 192.5 394ZM177.5 401.5L134.5 401.5L134.5 444.5L177.5 444.5L177.5 401.5Z" />
			</g>
		</g>
		<g id="Layer">
			<g id="Layer">
				<path id="Layer" class="shp0" d="M172.88 319.31C169.74 316.61 165 316.97 162.31 320.12L154.57 329.14L149.07 325.59C145.59 323.34 140.95 324.34 138.7 327.82C136.45 331.3 137.45 335.94 140.93 338.19L151.93 345.3C153.18 346.11 154.6 346.5 156 346.5C158.12 346.5 160.22 345.6 161.7 343.88L173.7 329.88C176.39 326.74 176.03 322 172.88 319.31Z" />
			</g>
		</g>
		<g id="Layer">
		</g>
		<g id="Layer">
		</g>
		<g id="Layer">
		</g>
		<g id="Layer">
		</g>
		<g id="Layer">
		</g>
		<g id="Layer">
		</g>
		<g id="Layer">
		</g>
		<g id="Layer">
		</g>
		<g id="Layer">
		</g>
		<g id="Layer">
		</g>
		<g id="Layer">
		</g>
		<g id="Layer">
		</g>
		<g id="Layer">
		</g>
		<g id="Layer">
		</g>
		<g id="Layer">
		</g>
	</g>
</svg>