<svg xmlns="http://www.w3.org/2000/svg" viewBox="0 0 800 762" width="48" height="46">
	<defs>
		<clipPath clipPathUnits="userSpaceOnUse" id="cp1">
			<path d="M0 0L800 0L800 762L0 762Z" />
		</clipPath>
	</defs>
	<style>
		tspan { white-space:pre }
		.shp0 { fill: #f1602e } 
	</style>
	<g id="Page 1" clip-path="url(#cp1)">
		<path id="Path 1" fill-rule="evenodd" class="shp0" d="M800 430.45L800 462.81C800 473.92 792.21 483.22 781.81 485.61L781.81 607C781.81 613.47 776.57 618.72 770.09 618.72C763.62 618.72 758.37 613.47 758.37 607L758.37 486.22L584.36 486.22L584.36 737.57L758.38 737.57L758.38 658.55C758.38 652.08 763.62 646.83 770.1 646.83C776.57 646.83 781.82 652.08 781.82 658.55L781.82 749.29C781.82 755.76 776.57 761 770.1 761L29.9 761C23.43 761 18.18 755.76 18.18 749.29L18.18 485.61C7.79 483.23 0 473.92 0 462.81L0 430.45C0 417.55 10.5 407.05 23.4 407.05L215.63 407.05L215.63 169.69C205.24 167.3 197.45 157.99 197.45 146.89L197.45 114.54C197.45 101.63 207.95 91.12 220.86 91.12L253.69 91.12L253.69 12.71C253.69 7.55 257.06 3 262 1.5C266.93 -0.01 272.27 1.91 275.14 6.19L314.07 64.3L314.07 12.71C314.07 6.24 319.32 1 325.79 1C332.27 1 337.51 6.24 337.51 12.71L337.51 91.13L364.05 91.13C361.3 85.55 359.74 79.28 359.74 72.65L359.74 42.91C359.74 19.8 378.54 1 401.65 1C416.34 1 430.14 8.84 437.67 21.47C440.98 27.03 439.17 34.22 433.61 37.54C428.04 40.85 420.86 39.03 417.54 33.47C414.17 27.81 408.23 24.43 401.65 24.43C391.46 24.43 383.18 32.72 383.18 42.91L383.18 72.65C383.18 82.84 391.46 91.12 401.65 91.12C410.37 91.12 417.69 85.06 419.63 76.93L412.91 76.93C406.45 76.93 401.2 71.69 401.2 65.21C401.2 58.74 406.45 53.49 412.91 53.49L431.84 53.49C438.32 53.49 443.56 58.74 443.56 65.21L443.56 72.65C443.56 79.28 442.02 85.55 439.27 91.12L466.8 91.12C464.05 85.55 462.49 79.28 462.49 72.65L462.49 42.91C462.49 19.79 481.29 1 504.4 1C527.51 1 546.31 19.79 546.31 42.91L546.31 72.65C546.31 79.28 544.76 85.55 542.01 91.12L579.13 91.12C592.04 91.12 602.55 101.63 602.55 114.54L602.55 146.89C602.55 157.99 594.76 167.3 584.36 169.69L584.36 280.07C584.36 286.54 579.12 291.79 572.64 291.79C566.17 291.79 560.92 286.54 560.92 280.07L560.92 170.3L239.07 170.3L239.07 737.58L293.21 737.58L293.21 588.22C293.21 572.92 305.66 560.48 320.96 560.48L479.04 560.48C494.34 560.48 506.79 572.92 506.79 588.22L506.79 737.58L560.92 737.58L560.92 331.62C560.92 325.15 566.17 319.9 572.64 319.9C579.12 319.9 584.36 325.15 584.36 331.62L584.36 407.05L776.58 407.05C789.49 407.05 800 417.55 800 430.45ZM504.4 91.12C514.59 91.12 522.87 82.84 522.87 72.65L522.87 42.91C522.87 32.72 514.59 24.43 504.4 24.43C494.21 24.43 485.93 32.72 485.93 42.91L485.93 72.65C485.93 82.84 494.21 91.12 504.4 91.12ZM277.13 91.12L303.83 91.12L277.13 51.26L277.13 91.12ZM220.86 114.56L220.89 146.89L579.14 146.86L579.11 114.54L220.86 114.56ZM41.62 737.57L215.63 737.57L215.63 486.22L153.41 486.22C146.93 486.22 141.69 480.98 141.69 474.5C141.69 468.03 146.93 462.78 153.41 462.78L215.63 462.78L215.63 430.49L23.4 430.49L23.44 462.81L101.85 462.78C108.32 462.78 113.57 468.03 113.57 474.5C113.57 480.98 108.32 486.22 101.85 486.22L41.62 486.22L41.62 737.57ZM316.65 737.57L388.28 737.57L388.28 583.91L320.96 583.91C318.58 583.91 316.65 585.84 316.65 588.21L316.65 737.57ZM483.35 588.21C483.35 585.84 481.42 583.91 479.04 583.91L411.72 583.91L411.72 737.57L483.35 737.57L483.35 588.21ZM584.36 462.78L776.58 462.78L776.56 430.45L584.36 430.49L584.36 462.78Z" />
		<path id="Path 2" fill-rule="evenodd" class="shp0" d="M700.54 658.71L642.17 658.71C626.87 658.71 614.43 646.27 614.43 630.97L614.43 572.6C614.43 557.31 626.87 544.87 642.17 544.87L700.54 544.87C715.84 544.87 728.28 557.31 728.28 572.6L728.28 630.97C728.28 646.27 715.84 658.71 700.54 658.71ZM700.54 568.3L683.07 568.3L683.07 635.27L700.54 635.27C702.91 635.27 704.84 633.34 704.84 630.97L704.84 572.6C704.84 570.23 702.91 568.3 700.54 568.3ZM642.17 635.27L659.64 635.27L659.64 568.3L642.17 568.3C639.8 568.3 637.87 570.23 637.87 572.6L637.87 630.97C637.87 633.34 639.8 635.27 642.17 635.27ZM185.57 572.6L185.57 630.97C185.57 646.27 173.13 658.71 157.83 658.71L99.46 658.71C84.16 658.71 71.72 646.27 71.72 630.97L71.72 572.6C71.72 557.31 84.16 544.86 99.46 544.86L157.83 544.86C173.13 544.86 185.57 557.31 185.57 572.6ZM99.46 635.27L116.93 635.27L116.93 568.3L99.46 568.3C97.09 568.3 95.16 570.23 95.16 572.6L95.16 630.97C95.16 633.34 97.09 635.27 99.46 635.27ZM162.13 572.6C162.13 570.23 160.2 568.3 157.83 568.3L140.36 568.3L140.36 635.27L157.83 635.27C160.2 635.27 162.13 633.34 162.13 630.97L162.13 572.6ZM456.93 304.24C456.93 319.53 444.48 331.98 429.18 331.98L370.82 331.98C355.52 331.98 343.07 319.53 343.07 304.24L343.07 245.87C343.07 230.58 355.52 218.13 370.82 218.13L429.18 218.13C444.48 218.13 456.93 230.58 456.93 245.87L456.93 304.24ZM370.82 308.54L388.28 308.54L388.28 241.57L370.82 241.57C368.44 241.57 366.51 243.5 366.51 245.87L366.51 304.24C366.51 306.61 368.44 308.54 370.82 308.54ZM433.49 245.87C433.49 243.5 431.56 241.57 429.18 241.57L411.72 241.57L411.72 308.54L429.18 308.54C431.56 308.54 433.49 306.61 433.49 304.24L433.49 245.87Z" />
		<path id="Path 3" fill-rule="evenodd" class="shp0" d="M456.93 413.06L456.93 471.43C456.93 486.72 444.48 499.16 429.18 499.16L370.82 499.16C355.52 499.16 343.07 486.72 343.07 471.43L343.07 413.06C343.07 397.76 355.52 385.32 370.82 385.32L429.18 385.32C444.48 385.32 456.93 397.76 456.93 413.06ZM370.82 475.74L388.28 475.74L388.28 408.76L370.82 408.76C368.44 408.76 366.51 410.69 366.51 413.06L366.51 471.43C366.51 473.8 368.44 475.73 370.82 475.74ZM433.49 413.06C433.49 410.69 431.56 408.76 429.18 408.76L411.72 408.76L411.72 475.73L429.18 475.73C431.56 475.73 433.49 473.8 433.49 471.43L433.49 413.06ZM286.18 245.05L270.33 245.05C263.85 245.05 258.61 239.81 258.61 233.34C258.61 226.87 263.85 221.62 270.33 221.62L286.18 221.62C292.65 221.62 297.9 226.87 297.9 233.34C297.9 239.81 292.65 245.05 286.18 245.05ZM303.52 281.33L287.67 281.33C281.2 281.33 275.95 276.08 275.95 269.61C275.95 263.13 281.2 257.89 287.67 257.89L303.52 257.89C310 257.89 315.24 263.13 315.24 269.61C315.24 276.08 310 281.33 303.52 281.33ZM484.76 391.16C484.76 384.69 490 379.45 496.48 379.45L512.33 379.45C518.8 379.45 524.05 384.69 524.05 391.16C524.05 397.63 518.8 402.88 512.33 402.88L496.48 402.88C490 402.88 484.76 397.63 484.76 391.16ZM679.28 686.75C685.76 686.75 691 691.99 691 698.46C691 704.93 685.76 710.18 679.28 710.18L663.43 710.18C656.95 710.18 651.71 704.93 651.71 698.46C651.71 691.99 656.95 686.75 663.43 686.75L679.28 686.75ZM484.76 499.89C484.76 493.42 490 488.17 496.48 488.17L512.33 488.17C518.8 488.17 524.05 493.42 524.05 499.89C524.05 506.36 518.8 511.61 512.33 511.61L496.48 511.61C490 511.61 484.76 506.36 484.76 499.89ZM534.98 470.08L519.12 470.08C512.65 470.08 507.41 464.83 507.41 458.36C507.41 451.89 512.65 446.64 519.12 446.64L534.98 446.64C541.45 446.64 546.7 451.89 546.7 458.36C546.7 464.83 541.45 470.08 534.98 470.08ZM268.02 519.92C268.02 513.45 273.27 508.21 279.74 508.21L295.6 508.21C302.07 508.21 307.32 513.45 307.32 519.92C307.32 526.39 302.07 531.64 295.6 531.64L279.74 531.64C273.27 531.64 268.02 526.39 268.02 519.92ZM106.12 698.46C106.12 704.93 100.88 710.18 94.4 710.18L78.55 710.18C72.08 710.18 66.83 704.93 66.83 698.46C66.83 691.99 72.08 686.75 78.55 686.75L94.4 686.75C100.88 686.75 106.12 691.99 106.12 698.46ZM614.57 531.64C608.1 531.64 602.85 526.39 602.85 519.92C602.85 513.45 608.1 508.21 614.57 508.21L630.42 508.21C636.9 508.21 642.14 513.45 642.14 519.92C642.14 526.39 636.9 531.64 630.42 531.64L614.57 531.64Z" />
	</g>
</svg>