<svg xmlns="http://www.w3.org/2000/svg" viewBox="0 0 62 62" width="48" height="48">
	<style>
		tspan { white-space:pre }
		.shp0 { fill: #f1602e } 
	</style>
	<g id="Layer">
		<g id="Layer">
			<path id="Layer" fill-rule="evenodd" class="shp0" d="M7.18 34L7 34C6.12 34 5.29 33.62 4.72 32.95C4.2 32.34 3.95 31.57 4.01 30.77C4.07 29.97 4.44 29.24 5.05 28.72L13.61 22.75C15.02 21.77 16.98 21.77 18.39 22.75L26.87 28.66C27.56 29.24 27.93 29.97 27.99 30.77C28.05 31.57 27.8 32.35 27.28 32.95C26.71 33.62 25.86 33.95 25 33.95L25 34L24.82 34L22.78 44L9.22 44L7.18 34ZM22.78 34L9.22 34L10.85 42L13 42L13 36L19 36L19 42L21.15 42L22.78 34ZM17 38L15 38L15 42L17 42L17 38ZM6.24 31.65C6.59 32.06 7.25 32.1 7.65 31.76L16 25.77L24.28 31.71C24.84 32.17 25.41 32.05 25.76 31.65C25.93 31.45 26.02 31.19 26 30.92C25.98 30.66 25.85 30.41 25.65 30.24L17.25 24.39C16.88 24.14 16.45 24 16 24C15.55 24 15.12 24.14 14.75 24.39L6.27 30.3C6.15 30.41 6.02 30.66 6 30.92C5.98 31.19 6.07 31.45 6.24 31.65ZM21.26 32L16 28.23L10.74 32L21.26 32Z" />
			<path id="Layer" fill-rule="evenodd" class="shp0" d="M34.72 14.95C34.2 14.35 33.95 13.57 34.01 12.77C34.07 11.97 34.44 11.24 35.05 10.72L43.61 4.75C45.02 3.77 46.98 3.77 48.39 4.75L56.87 10.66C57.56 11.24 57.93 11.97 57.99 12.77C58.05 13.57 57.8 14.35 57.28 14.96C56.71 15.62 55.86 15.95 55 15.96L55 16L54.82 16L52.78 26L39.22 26L37.18 16L37 16C36.12 16 35.29 15.62 34.72 14.95ZM52.78 16L39.23 16L40.85 24L43 24L43 18L49 18L49 24L51.15 24L52.78 16ZM47 20L45 20L45 24L47 24L47 20ZM36.24 13.65C36.59 14.06 37.25 14.1 37.65 13.76L46 7.77L54.28 13.71C54.84 14.17 55.41 14.05 55.76 13.65C55.93 13.45 56.02 13.19 56 12.92C55.98 12.66 55.85 12.42 55.65 12.24L47.25 6.39C46.88 6.14 46.45 6 46 6C45.55 6 45.12 6.14 44.75 6.39L36.27 12.3C36.15 12.41 36.02 12.66 36 12.92C35.98 13.19 36.07 13.45 36.24 13.65ZM51.26 14L46 10.23L40.74 14L51.26 14Z" />
			<path id="Layer" class="shp0" d="M28 0L26 0L26 6L0 6L0 8L28 8L28 0Z" />
			<path id="Layer" fill-rule="evenodd" class="shp0" d="M36 46L62 46L62 48L34 48L34 26.49L33.35 25.65C31.19 22.87 30 19.41 30 15.89C30 13.1 30.73 10.48 32 8.19L32 0L34 0L34 5.39C36.91 2.09 41.16 0 45.89 0L46.11 0C54.87 0 62 7.13 62 15.89C62 19.41 60.81 22.87 58.65 25.65L51.4 34.97C53.67 35.89 55 37.33 55 39C55 41.85 51.13 44 46 44C40.87 44 37 41.85 37 39C37 37.33 38.33 35.89 40.6 34.97L36 29.06L36 46ZM50.12 36.62L48.4 38.82C47.82 39.57 46.95 40 46 40C45.05 40 44.18 39.57 43.6 38.82L41.88 36.62C40.14 37.2 39 38.12 39 39C39 40.42 41.99 42 46 42C50.01 42 53 40.42 53 39C53 38.12 51.86 37.2 50.12 36.62ZM32 15.89C32 18.96 33.04 21.99 34.93 24.42L45.18 37.6C45.57 38.1 46.43 38.1 46.82 37.6L57.07 24.42C58.96 21.99 60 18.96 60 15.89C60 8.23 53.77 2 46.11 2L45.89 2C38.23 2 32 8.23 32 15.89Z" />
			<path id="Layer" fill-rule="evenodd" class="shp0" d="M36 52L62 52L62 54L38 54L38 60L23.29 60C21.68 61.23 19.07 62 16 62C10.87 62 7 59.85 7 57C7 55.33 8.33 53.89 10.6 52.97L3.35 43.65C1.19 40.87 0 37.41 0 33.89C0 25.13 7.13 18 15.89 18L16.11 18C19.85 18 23.28 19.31 26 21.48L26 14L0 14L0 12L28 12L28 23.38C30.48 26.19 32 29.86 32 33.89C32 36.58 31.3 39.25 30 41.59L30 54L23.27 54C24.37 54.84 25 55.86 25 57C25 57.34 24.94 57.68 24.83 58L36 58L36 52ZM2 33.89C2 36.96 3.04 39.99 4.93 42.42L15.18 55.6C15.57 56.1 16.43 56.1 16.82 55.6L27.07 42.42C28.96 39.99 30 36.96 30 33.89C30 26.23 23.77 20 16.11 20L15.89 20C8.23 20 2 26.23 2 33.89ZM28 52L28 44.49L22.16 52L28 52ZM23 57C23 56.12 21.86 55.21 20.11 54.62L18.4 56.82C17.82 57.57 16.95 58 16 58C15.05 58 14.18 57.57 13.6 56.82L11.88 54.62C10.14 55.2 9 56.12 9 57C9 58.42 11.99 60 16 60C20.01 60 23 58.42 23 57Z" />
			<path id="Layer" class="shp0" d="M19 46L21 46L21 48L19 48L19 46Z" />
			<path id="Layer" class="shp0" d="M11 46L13 46L13 48L11 48L11 46Z" />
			<path id="Layer" class="shp0" d="M15 46L17 46L17 48L15 48L15 46Z" />
			<path id="Layer" class="shp0" d="M49 28L51 28L51 30L49 30L49 28Z" />
			<path id="Layer" class="shp0" d="M41 28L43 28L43 30L41 30L41 28Z" />
			<path id="Layer" class="shp0" d="M45 28L47 28L47 30L45 30L45 28Z" />
		</g>
	</g>
</svg>