<svg xmlns="http://www.w3.org/2000/svg" viewBox="0 0 512 512" width="48" height="48">
	<style>
		tspan { white-space:pre }
		.shp0 { fill: #f1602e } 
	</style>
	<g id="Layer">
		<g id="Layer">
			<path id="Layer" class="shp0" d="M378.57 0L77.99 0C64.13 0 52.85 11.28 52.85 25.14L52.85 34.71L40.51 34.71C26.64 34.71 15.37 45.99 15.37 59.85L15.37 381.16C15.37 385.31 18.73 388.66 22.87 388.66C27.01 388.66 30.37 385.31 30.37 381.16L30.37 59.85C30.37 54.26 34.92 49.71 40.51 49.71L341.09 49.71C346.68 49.71 351.23 54.26 351.23 59.85L351.23 486.86C351.23 492.45 346.68 497 341.09 497L40.51 497C34.92 497 30.37 492.45 30.37 486.86L30.37 416.17C30.37 412.02 27.01 408.67 22.87 408.67C18.73 408.67 15.37 412.02 15.37 416.17L15.37 486.86C15.37 500.72 26.65 512 40.51 512L341.09 512C354.95 512 366.23 500.72 366.23 486.86L366.23 477.29L378.57 477.29C392.44 477.29 403.71 466.01 403.71 452.15L403.71 120.49C403.71 116.35 400.35 112.99 396.21 112.99C392.07 112.99 388.71 116.35 388.71 120.49L388.71 452.15C388.71 457.74 384.16 462.29 378.57 462.29L369 462.29L369 59.85C369 45.99 357.73 34.71 343.87 34.71C339.74 34.71 69.75 34.71 67.85 34.71L67.85 25.14C67.85 19.55 72.4 15 77.99 15L378.57 15C384.16 15 388.71 19.55 388.71 25.14L388.71 85.49C388.71 89.63 392.07 92.99 396.21 92.99C400.35 92.99 403.71 89.63 403.71 85.49L403.71 25.14C403.71 11.28 392.44 0 378.57 0L378.57 0Z" />
			<path id="Layer" fill-rule="evenodd" class="shp0" d="M479.72 148.8C489.04 148.8 496.63 156.38 496.63 165.71C496.63 176.34 496.63 370.83 496.63 378.61C496.63 378.74 496.62 378.87 496.61 379C496.61 379.1 496.61 379.19 496.6 379.29C496.57 379.58 496.53 379.87 496.47 380.14C496.47 380.16 496.46 380.18 496.46 380.2C496.4 380.47 496.33 380.73 496.24 380.99C496.22 381.06 496.19 381.13 496.16 381.21C496.08 381.42 496 381.63 495.9 381.83C495.88 381.87 495.87 381.92 495.84 381.96L471.23 431.27C468.84 436.07 464.53 438.94 459.71 438.94C454.89 438.94 450.59 436.07 448.19 431.27L423.58 381.96C423.56 381.93 423.55 381.89 423.53 381.85C423.43 381.63 423.33 381.41 423.25 381.18C423.23 381.12 423.21 381.06 423.19 381.01C423 380.45 422.88 379.88 422.82 379.28C422.82 379.2 422.81 379.12 422.81 379.04C422.8 378.9 422.79 378.76 422.79 378.61L422.79 165.71C422.79 156.38 430.38 148.8 439.7 148.8L479.72 148.8ZM477.01 386.12L442.42 386.12L459.71 420.77L477.01 386.12ZM481.63 210.73L437.79 210.73L437.79 371.11L481.63 371.11L481.63 210.73ZM481.63 195.73L481.63 165.71C481.63 164.66 480.77 163.8 479.72 163.8L439.71 163.8C438.65 163.8 437.79 164.66 437.79 165.71L437.79 195.73L481.63 195.73Z" />
			<path id="Layer" fill-rule="evenodd" class="shp0" d="M58.22 414.93C58.22 406.38 65.17 399.43 73.72 399.43L115.05 399.43C118.27 399.43 121.26 400.41 123.74 402.1L136.73 388.29C139.57 385.27 144.32 385.12 147.33 387.96C150.35 390.79 150.5 395.54 147.66 398.56L130.55 416.76L130.55 456.26C130.55 464.81 123.6 471.76 115.05 471.76L73.72 471.76C65.17 471.76 58.22 464.81 58.22 456.26L58.22 414.93ZM93.66 456C93.4 456.28 93.12 456.53 92.82 456.76L115.05 456.76C115.33 456.76 115.55 456.53 115.55 456.26L115.55 432.72L93.66 456ZM73.22 414.93L73.22 415.9C74.23 416.47 75.13 417.28 75.81 418.31L89.25 438.8L112.16 414.43L73.72 414.43C73.44 414.43 73.22 414.65 73.22 414.93L73.22 414.93ZM73.22 456.26C73.22 456.53 73.44 456.76 73.72 456.76L83.57 456.76C82.26 455.73 82.72 456.18 73.22 441.71L73.22 456.26Z" />
			<path id="Layer" class="shp0" d="M315.63 428.09L156.29 428.09C152.15 428.09 148.79 431.45 148.79 435.59C148.79 439.73 152.15 443.09 156.29 443.09L315.63 443.09C319.77 443.09 323.13 439.73 323.13 435.59C323.13 431.45 319.77 428.09 315.63 428.09Z" />
			<path id="Layer" fill-rule="evenodd" class="shp0" d="M75.72 242.91C66.07 242.91 58.22 235.06 58.22 225.41L58.22 92.45C58.22 82.8 66.07 74.95 75.72 74.95L208.68 74.95C218.33 74.95 226.18 82.8 226.18 92.45L226.18 225.41C226.18 235.06 218.33 242.91 208.68 242.91L75.72 242.91ZM73.22 225.41C73.22 226.79 74.34 227.91 75.72 227.91L208.68 227.91C210.06 227.91 211.18 226.79 211.18 225.41L211.18 92.45C211.18 91.07 210.06 89.95 208.68 89.95L75.72 89.95C74.34 89.95 73.22 91.07 73.22 92.45L73.22 225.41Z" />
			<path id="Layer" fill-rule="evenodd" class="shp0" d="M113 215.89C111.03 215.89 109.1 215.09 107.7 213.7C106.31 212.3 105.51 210.37 105.51 208.4L105.51 192.2C105.51 182.39 109.32 173.18 116.25 166.25C117.56 164.94 118.95 163.75 120.41 162.67C112.79 156.38 107.93 146.86 107.93 136.24C107.93 117.34 123.3 101.97 142.2 101.97C161.09 101.97 176.47 117.34 176.47 136.24C176.47 146.86 171.6 156.38 163.99 162.67C165.45 163.75 166.83 164.94 168.14 166.25C175.07 173.18 178.89 182.39 178.89 192.2L178.89 208.4C178.89 210.37 178.09 212.3 176.69 213.7C175.3 215.09 173.36 215.89 171.39 215.89L148.02 215.89C148.02 215.9 148.01 215.9 148 215.9C143.87 215.9 140.5 212.53 140.5 208.4C140.5 204.26 143.87 200.9 148 200.9L163.89 200.9L163.89 192.2C163.87 180.29 154.19 170.57 142.29 170.5C142.26 170.5 142.23 170.5 142.2 170.5C142.17 170.5 142.14 170.5 142.11 170.5C130.21 170.57 120.53 180.29 120.51 192.2L120.51 208.4C120.51 212.53 117.14 215.89 113 215.89ZM142.2 116.97C131.57 116.97 122.93 125.61 122.93 136.24C122.93 146.84 131.54 155.47 142.13 155.5C142.16 155.5 142.18 155.5 142.2 155.5C142.22 155.5 142.24 155.5 142.26 155.5C152.86 155.47 161.47 146.84 161.47 136.24C161.47 125.61 152.82 116.97 142.2 116.97Z" />
			<path id="Layer" class="shp0" d="M249.34 126.57L315.63 126.57C319.77 126.57 323.13 123.21 323.13 119.07C323.13 114.92 319.77 111.57 315.63 111.57L249.34 111.57C245.19 111.57 241.84 114.92 241.84 119.07C241.84 123.21 245.19 126.57 249.34 126.57Z" />
			<path id="Layer" class="shp0" d="M249.34 169.09L315.63 169.09C319.77 169.09 323.13 165.73 323.13 161.59C323.13 157.44 319.77 154.09 315.63 154.09L249.34 154.09C245.19 154.09 241.84 157.44 241.84 161.59C241.84 165.73 245.19 169.09 249.34 169.09Z" />
			<path id="Layer" class="shp0" d="M249.34 214.44L315.63 214.44C319.77 214.44 323.13 211.08 323.13 206.94C323.13 202.8 319.77 199.44 315.63 199.44L249.34 199.44C245.19 199.44 241.84 202.8 241.84 206.94C241.84 211.08 245.19 214.44 249.34 214.44Z" />
			<path id="Layer" class="shp0" d="M65.72 286.87L315.63 286.87C319.77 286.87 323.13 283.51 323.13 279.37C323.13 275.22 319.77 271.87 315.63 271.87L65.72 271.87C61.58 271.87 58.22 275.22 58.22 279.37C58.22 283.51 61.58 286.87 65.72 286.87L65.72 286.87Z" />
			<path id="Layer" class="shp0" d="M65.72 329.38L315.63 329.38C319.77 329.38 323.13 326.03 323.13 321.88C323.13 317.74 319.77 314.38 315.63 314.38L65.72 314.38C61.58 314.38 58.22 317.74 58.22 321.88C58.22 326.03 61.58 329.38 65.72 329.38L65.72 329.38Z" />
			<path id="Layer" class="shp0" d="M65.72 371.9L315.63 371.9C319.77 371.9 323.13 368.55 323.13 364.4C323.13 360.26 319.77 356.9 315.63 356.9L65.72 356.9C61.58 356.9 58.22 360.26 58.22 364.4C58.22 368.55 61.58 371.9 65.72 371.9L65.72 371.9Z" />
		</g>
	</g>
</svg>