<svg xmlns="http://www.w3.org/2000/svg" viewBox="0 0 480 480" width="48" height="48">
	<style>
		tspan { white-space:pre }
		.shp0 { fill: #f1602e } 
	</style>
	<g id="Layer">
		<g id="Layer">
			<g id="Layer">
				<path id="Layer" class="shp0" d="M168 160L184 160L184 176L168 176L168 160Z" />
			</g>
		</g>
		<g id="Layer">
			<g id="Layer">
				<path id="Layer" class="shp0" d="M168 192L184 192L184 208L168 208L168 192Z" />
			</g>
		</g>
		<g id="Layer">
			<g id="Layer">
				<path id="Layer" class="shp0" d="M168 224L184 224L184 240L168 240L168 224Z" />
			</g>
		</g>
		<g id="Layer">
			<g id="Layer">
				<path id="Layer" class="shp0" d="M168 256L184 256L184 272L168 272L168 256Z" />
			</g>
		</g>
		<g id="Layer">
			<g id="Layer">
				<path id="Layer" class="shp0" d="M200 160L216 160L216 176L200 176L200 160Z" />
			</g>
		</g>
		<g id="Layer">
			<g id="Layer">
				<path id="Layer" class="shp0" d="M200 192L216 192L216 208L200 208L200 192Z" />
			</g>
		</g>
		<g id="Layer">
			<g id="Layer">
				<path id="Layer" class="shp0" d="M200 224L216 224L216 240L200 240L200 224Z" />
			</g>
		</g>
		<g id="Layer">
			<g id="Layer">
				<path id="Layer" class="shp0" d="M200 256L216 256L216 272L200 272L200 256Z" />
			</g>
		</g>
		<g id="Layer">
			<g id="Layer">
				<path id="Layer" class="shp0" d="M232 160L248 160L248 176L232 176L232 160Z" />
			</g>
		</g>
		<g id="Layer">
			<g id="Layer">
				<path id="Layer" class="shp0" d="M232 192L248 192L248 208L232 208L232 192Z" />
			</g>
		</g>
		<g id="Layer">
			<g id="Layer">
				<path id="Layer" class="shp0" d="M232 224L248 224L248 240L232 240L232 224Z" />
			</g>
		</g>
		<g id="Layer">
			<g id="Layer">
				<path id="Layer" class="shp0" d="M232 256L248 256L248 272L232 272L232 256Z" />
			</g>
		</g>
		<g id="Layer">
			<g id="Layer">
				<path id="Layer" class="shp0" d="M264 160L280 160L280 176L264 176L264 160Z" />
			</g>
		</g>
		<g id="Layer">
			<g id="Layer">
				<path id="Layer" class="shp0" d="M200 128L216 128L216 144L200 144L200 128Z" />
			</g>
		</g>
		<g id="Layer">
			<g id="Layer">
				<path id="Layer" class="shp0" d="M232 128L248 128L248 144L232 144L232 128Z" />
			</g>
		</g>
		<g id="Layer">
			<g id="Layer">
				<path id="Layer" class="shp0" d="M264 128L280 128L280 144L264 144L264 128Z" />
			</g>
		</g>
		<g id="Layer">
			<g id="Layer">
				<path id="Layer" class="shp0" d="M264 192L280 192L280 208L264 208L264 192Z" />
			</g>
		</g>
		<g id="Layer">
			<g id="Layer">
				<path id="Layer" class="shp0" d="M264 224L280 224L280 240L264 240L264 224Z" />
			</g>
		</g>
		<g id="Layer">
			<g id="Layer">
				<path id="Layer" class="shp0" d="M264 256L280 256L280 272L264 272L264 256Z" />
			</g>
		</g>
		<g id="Layer">
			<g id="Layer">
				<path id="Layer" class="shp0" d="M296 160L312 160L312 176L296 176L296 160Z" />
			</g>
		</g>
		<g id="Layer">
			<g id="Layer">
				<path id="Layer" class="shp0" d="M296 192L312 192L312 208L296 208L296 192Z" />
			</g>
		</g>
		<g id="Layer">
			<g id="Layer">
				<path id="Layer" class="shp0" d="M296 224L312 224L312 240L296 240L296 224Z" />
			</g>
		</g>
		<g id="Layer">
			<g id="Layer">
				<path id="Layer" class="shp0" d="M296 256L312 256L312 272L296 272L296 256Z" />
			</g>
		</g>
		<g id="Layer">
			<g id="Layer">
				<path id="Layer" fill-rule="evenodd" class="shp0" d="M480 128C480 128 480 416.01 480 416.01C480 420.43 476.42 424 472 424L455.28 424C455.74 426.64 455.98 429.32 456 432C456 432 456 472.01 456 472.01C456 476.43 452.42 480 448 480C448 480 31.99 480 31.99 480C27.57 480 24 476.42 24 472L24 432C24.02 429.32 24.26 426.64 24.72 424C24.72 424 7.99 424 7.99 424C3.58 424 0 420.42 0 416C0 416 0 127.99 0 127.99C0 123.58 3.58 120 8 120L128 120C128 120 128 7.99 128 7.99C128 3.58 131.58 0 136 0C136 0 344.01 0 344.01 0C348.43 0 352 3.58 352 8L352 120C352 120 472.01 120 472.01 120C476.43 120 480 123.58 480 128ZM328 328C319.16 328 312 335.16 312 344C312 352.84 319.16 360 328 360C336.84 360 344 352.84 344 344C343.99 335.17 336.83 328.01 328 328ZM136 344C136 352.84 143.16 360 152 360C160.84 360 168 352.84 168 344C168 335.16 160.84 328 152 328C143.17 328.01 136.01 335.17 136 344ZM104 432C104 414.33 89.67 400 72 400C54.33 400 40 414.33 40 432L40 464L104 464L104 432ZM128.85 365.98C117.39 354.1 117.01 335.38 128 323.06L128 136L16 136L16 408L30.49 408C34.87 400.44 41.22 394.21 48.85 389.98C37.05 377.61 37.05 358.15 48.85 345.79C61.05 333 81.31 332.53 94.09 344.73C106.88 356.94 107.35 377.19 95.15 389.98C98.81 392.01 102.2 394.51 105.21 397.43C108.25 384.05 116.85 372.61 128.85 365.98ZM72 384C80.84 384 88 376.84 88 368C88 359.16 80.84 352 72 352C63.16 352 56 359.16 56 368C56.01 376.83 63.17 383.99 72 384ZM184 408C184 390.33 169.67 376 152 376C134.33 376 120 390.33 120 408L120 464L184 464L184 408ZM280 408C280 385.91 262.09 368 240 368C217.91 368 200 385.91 200 408L200 464L280 464L280 408ZM304.85 365.98C299.15 360.02 295.98 352.08 296 343.83C296.05 326.2 310.37 311.95 328 312C330.7 312.04 333.39 312.42 336 313.14L336 16L144 16L144 313.14C154.89 310.14 166.56 313.15 174.64 321.05C187.19 333.31 187.41 353.43 175.15 365.98C181.56 369.53 187.07 374.5 191.28 380.5C196.64 371.05 204.61 363.36 214.23 358.33C212.49 356.87 210.87 355.25 209.41 353.51C195.17 336.61 197.33 311.38 214.23 297.14C231.13 282.91 256.36 285.07 270.6 301.97C284.83 318.87 282.67 344.1 265.77 358.33C275.39 363.36 283.36 371.05 288.72 380.5C292.93 374.5 298.44 369.53 304.85 365.98ZM240 352C253.25 352 264 341.25 264 328C264 314.75 253.25 304 240 304C226.75 304 216 314.75 216 328C216.01 341.25 226.75 351.99 240 352ZM360 408C360 390.33 345.67 376 328 376C310.33 376 296 390.33 296 408L296 464L360 464L360 408ZM440 432C440 414.33 425.67 400 408 400C390.33 400 376 414.33 376 432L376 464L440 464L440 432ZM464 408L464 136L352 136L352 323.06C362.99 335.38 362.61 354.09 351.15 365.98C363.15 372.61 371.75 384.05 374.79 397.42C377.8 394.51 381.19 392.01 384.85 389.98C373.05 377.61 373.05 358.15 384.85 345.79C397.05 333 417.31 332.53 430.09 344.73C442.88 356.94 443.35 377.19 431.15 389.98C438.78 394.21 445.13 400.44 449.51 408L464 408ZM408 384C416.84 384 424 376.84 424 368C424 359.16 416.84 352 408 352C399.16 352 392 359.16 392 368C392.01 376.83 399.17 383.99 408 384Z" />
			</g>
		</g>
		<g id="Layer">
			<g id="Layer">
				<path id="Layer" class="shp0" d="M376 184L392 184L392 312L376 312L376 184Z" />
			</g>
		</g>
		<g id="Layer">
			<g id="Layer">
				<path id="Layer" class="shp0" d="M424 184L440 184L440 312L424 312L424 184Z" />
			</g>
		</g>
		<g id="Layer">
			<g id="Layer">
				<path id="Layer" class="shp0" d="M40 184L56 184L56 312L40 312L40 184Z" />
			</g>
		</g>
		<g id="Layer">
			<g id="Layer">
				<path id="Layer" class="shp0" d="M88 184L104 184L104 312L88 312L88 184Z" />
			</g>
		</g>
		<g id="Layer">
			<g id="Layer">
				<path id="Layer" fill-rule="evenodd" class="shp0" d="M296 40C296 40 296 104.01 296 104.01C296 108.42 292.42 112 288 112C288 112 191.99 112 191.99 112C187.57 112 184 108.42 184 104C184 104 184 39.99 184 39.99C184 35.58 187.58 32 192 32C192 32 288.01 32 288.01 32C292.43 32 296 35.58 296 40ZM280 48L200 48L200 96L280 96L280 48Z" />
			</g>
		</g>
		<g id="Layer">
		</g>
		<g id="Layer">
		</g>
		<g id="Layer">
		</g>
		<g id="Layer">
		</g>
		<g id="Layer">
		</g>
		<g id="Layer">
		</g>
		<g id="Layer">
		</g>
		<g id="Layer">
		</g>
		<g id="Layer">
		</g>
		<g id="Layer">
		</g>
		<g id="Layer">
		</g>
		<g id="Layer">
		</g>
		<g id="Layer">
		</g>
		<g id="Layer">
		</g>
		<g id="Layer">
		</g>
	</g>
</svg>