<svg xmlns="http://www.w3.org/2000/svg" viewBox="0 0 775 775" width="48" height="48">
	<defs>
		<clipPath clipPathUnits="userSpaceOnUse" id="cp1">
			<path d="M0 0L775 0L775 775L0 775Z" />
		</clipPath>
	</defs>
	<style>
		tspan { white-space:pre }
		.shp0 { fill: #f1602e } 
	</style>
	<g id="Page 1" clip-path="url(#cp1)">
		<path id="Path 1" fill-rule="evenodd" class="shp0" d="M774.5 538L774.5 763C774.5 769.9 768.9 775.5 762 775.5L12 775.5C5.1 775.5 -0.5 769.9 -0.5 763L-0.5 13C-0.5 6.1 5.1 0.5 12 0.5L462 0.5L462 0.61C465.25 0.61 468.45 1.76 470.84 4.16L570.84 104.16C573.24 106.55 574.39 109.75 574.39 113L574.5 113L574.5 525.5L762 525.5C768.9 525.5 774.5 531.1 774.5 538ZM287 525.5L549.5 525.5L549.5 125.5L462 125.5C455.1 125.5 449.5 119.9 449.5 113L449.5 25.5L24.5 25.5L24.5 750.5L274.5 750.5L274.5 538C274.5 531.1 280.1 525.5 287 525.5ZM474.5 100.5L531.82 100.5L474.5 43.17L474.5 100.5ZM749.5 550.5L299.5 550.5L299.5 750.5L749.5 750.5L749.5 550.5Z" />
		<path id="Path 2" fill-rule="evenodd" class="shp0" d="M437 650.5C437 602.25 476.25 563 524.5 563C572.75 563 612 602.25 612 650.5C612 698.75 572.75 738 524.5 738C476.25 738 437 698.75 437 650.5ZM462 650.5C462 684.96 490.04 713 524.5 713C558.96 713 587 684.96 587 650.5C587 616.04 558.96 588 524.5 588C490.04 588 462 616.04 462 650.5ZM699.5 600.5L662 600.5L662 575.5L712 575.5C718.9 575.5 724.5 581.1 724.5 588L724.5 638L699.5 638L699.5 600.5ZM324.5 713L324.5 663L349.5 663L349.5 700.5L387 700.5L387 725.5L337 725.5C330.1 725.5 324.5 719.9 324.5 713ZM49.5 113C49.5 78.54 77.54 50.5 112 50.5C146.46 50.5 174.5 78.54 174.5 113C174.5 147.46 146.46 175.5 112 175.5C77.54 175.5 49.5 147.46 49.5 113ZM74.5 113C74.5 133.68 91.32 150.5 112 150.5C132.68 150.5 149.5 133.68 149.5 113C149.5 92.32 132.68 75.5 112 75.5C91.32 75.5 74.5 92.32 74.5 113ZM49.5 200.5L174.5 200.5L174.5 225.5L49.5 225.5L49.5 200.5ZM124.5 275.5L499.5 275.5L499.5 300.5L124.5 300.5L124.5 275.5ZM74.5 325.5L499.5 325.5L499.5 350.5L74.5 350.5L74.5 325.5ZM74.5 375.5L499.5 375.5L499.5 400.5L74.5 400.5L74.5 375.5ZM74.5 425.5L499.5 425.5L499.5 450.5L74.5 450.5L74.5 425.5ZM74.5 538L224.5 538L224.5 563L74.5 563L74.5 538ZM74.5 588L224.5 588L224.5 613L74.5 613L74.5 588ZM74.5 638L224.5 638L224.5 663L74.5 663L74.5 638Z" />
	</g>
</svg>