<svg xmlns="http://www.w3.org/2000/svg" viewBox="0 0 800 800" width="48" height="48">
	<defs>
		<clipPath clipPathUnits="userSpaceOnUse" id="cp1">
			<path d="M0 0L800 0L800 800L0 800Z" />
		</clipPath>
	</defs>
	<style>
		tspan { white-space:pre }
		.shp0 { fill: #f1602e } 
	</style>
	<g id="Page 1" clip-path="url(#cp1)">
		<path id="Path 1" fill-rule="evenodd" class="shp0" d="M240 697.33L240 786.66C240 794.03 234.03 800 226.67 800L13.33 800C5.97 800 0 794.03 0 786.66L0 697.33C-0.05 661.72 26.48 631.67 61.83 627.32C41.02 610.94 28.21 586.43 26.67 559.99C26.67 471.83 77.43 453.33 120 453.33C162.57 453.33 213.33 471.83 213.33 559.99C211.79 586.43 198.99 610.94 178.19 627.32C189.03 628.65 199.42 632.5 208.52 638.54C228.2 651.63 240.01 673.7 240 697.33ZM120.7 515.77C121 514.85 121.4 513.96 121.91 513.14C125.69 506.82 133.89 504.77 140.2 508.55L184.63 535.22C178.67 497.89 157.84 480 120 480C78.67 480 57.64 501.2 54.03 545.89C77.52 543.66 113.95 536.01 120.7 515.77ZM120 626.66C140.47 626.66 180.7 599.82 186.04 567.17L138.39 538.57C119.19 563.85 78.01 570.76 55.18 572.64C65.53 600.98 90.26 621.6 120 626.66ZM213.33 697.33C213.33 673.03 193.64 653.33 169.34 653.33L139.7 653.33L159.05 701.72C161.03 706.66 159.86 712.32 156.1 716.09L129.43 742.76C124.22 747.96 115.78 747.96 110.57 742.76L83.9 716.09C80.14 712.32 78.97 706.66 80.95 701.72L100.27 653.33L70.67 653.33C46.37 653.33 26.67 673.03 26.67 697.33L26.67 773.33L213.33 773.33L213.33 697.33ZM120 675.89L108.98 703.45L120 714.48L131.01 703.43L120 675.89ZM520 697.33L520 786.66C520 794.03 514.03 800 506.66 800L293.34 800C285.97 800 280 794.03 280 786.66L280 697.33C279.95 661.72 306.49 631.67 341.83 627.32C321.01 610.94 308.21 586.43 306.66 559.99C306.66 471.83 357.43 453.33 400 453.33C442.57 453.33 493.34 471.83 493.34 559.99C491.79 586.43 479 610.94 458.19 627.32C469.04 628.65 479.42 632.5 488.52 638.54C508.2 651.63 520.01 673.7 520 697.33ZM400.69 515.77C401 514.85 401.41 513.96 401.9 513.14C405.7 506.82 413.88 504.77 420.2 508.55L464.63 535.22C458.67 497.89 437.84 480 400 480C358.67 480 337.64 501.2 334.03 545.89C357.52 543.66 393.95 536.01 400.69 515.77ZM400 626.66C420.47 626.66 460.69 599.82 466.04 567.17L418.38 538.57C399.19 563.85 358.02 570.76 335.19 572.64C345.53 600.98 370.26 621.6 400 626.66ZM493.34 697.33C493.34 673.03 473.63 653.33 449.33 653.33L419.69 653.33L439.01 701.72C440.99 706.66 439.83 712.32 436.05 716.09L409.38 742.76C404.18 747.96 395.74 747.96 390.54 742.76L363.87 716.09C360.09 712.32 358.94 706.66 360.9 701.72L380.26 653.33L350.67 653.33C326.37 653.33 306.66 673.03 306.66 697.33L306.66 773.33L493.34 773.33L493.34 697.33ZM400 675.89L388.99 703.45L400 714.48L411.01 703.43L400 675.89ZM800 697.33L800 786.66C800 794.03 794.03 800 786.67 800L573.33 800C565.97 800 560 794.03 560 786.66L560 697.33C559.94 661.72 586.48 631.67 621.83 627.32C601.02 610.94 588.22 586.43 586.67 559.99C586.67 471.83 637.43 453.33 680 453.33C722.57 453.33 773.33 471.83 773.33 559.99C771.79 586.43 758.99 610.94 738.18 627.32C749.03 628.65 759.42 632.5 768.52 638.54C788.2 651.63 800.02 673.7 800 697.33ZM680.7 515.77C681 514.85 681.4 513.96 681.91 513.14C685.69 506.82 693.89 504.77 700.2 508.55L744.63 535.22C738.66 497.89 717.84 480 680 480C638.66 480 617.64 501.2 614.03 545.89C637.52 543.66 673.95 536.01 680.7 515.77ZM680 626.66C700.46 626.66 740.69 599.82 746.04 567.17L698.39 538.57C679.18 563.85 638.01 570.76 615.19 572.64C625.52 600.98 650.26 621.6 680 626.66ZM773.33 697.33C773.33 673.03 753.63 653.33 729.33 653.33L699.69 653.33L719.01 701.72C720.99 706.66 719.82 712.32 716.06 716.09L689.39 742.76C684.18 747.96 675.74 747.96 670.53 742.76L643.86 716.09C640.1 712.32 638.93 706.66 640.91 701.72L660.27 653.33L630.66 653.33C606.36 653.33 586.67 673.03 586.67 697.33L586.67 773.33L773.33 773.33L773.33 697.33ZM680 675.89L668.99 703.45L680 714.48L691.02 703.43L680 675.89ZM626.67 400L626.67 426.66L253.34 426.66L253.34 400L269.04 400L215.28 315.52C196.57 286.16 186.65 252.07 186.67 217.25C186.01 158.67 231.57 109.94 290.06 106.66C329.34 105.44 366.09 125.94 385.67 159.99L466.67 159.99C474.03 159.99 480 165.97 480 173.33L480 213.33L600 213.33C607.36 213.33 613.33 219.3 613.33 226.66L613.33 400L626.67 400ZM333.33 375.32L317.63 400L333.33 400L333.33 375.32ZM348.88 301.25C364.88 276.16 373.36 247.01 373.33 217.25L373.33 213.33C373.33 169.15 337.52 133.33 293.34 133.33L290.87 133.33C246.74 136.07 212.58 173.05 213.33 217.25C213.31 246.99 221.8 276.11 237.79 301.2L293.34 388.5L348.88 301.25ZM453.34 186.66L396.53 186.66C398.8 195.37 399.97 204.33 400 213.33L400 217.25C400.02 252.07 390.1 286.16 371.39 315.52L360 333.4L360 400L453.34 400L453.34 186.66ZM586.67 240L480 240L480 253.33L506.66 253.33L506.66 280L480 280L480 293.33L506.66 293.33L506.66 320L480 320L480 400L493.34 400L493.34 346.66C493.34 339.3 499.3 333.33 506.66 333.33L560 333.33C567.37 333.33 573.33 339.3 573.33 346.66L573.33 400L586.67 400L586.67 320L560 320L560 293.33L586.67 293.33L586.67 280L560 280L560 253.33L586.67 253.33L586.67 240ZM546.66 359.99L520 359.99L520 400L546.66 400L546.66 359.99ZM413.33 200L440 200L440 226.66L413.33 226.66L413.33 200ZM520 253.33L546.66 253.33L546.66 280L520 280L520 253.33ZM520 293.33L546.66 293.33L546.66 320L520 320L520 293.33ZM413.33 240L440 240L440 266.67L413.33 266.67L413.33 240ZM413.33 280L440 280L440 306.66L413.33 306.66L413.33 280ZM373.33 320L400 320L400 346.66L373.33 346.66L373.33 320ZM413.33 320L440 320L440 346.66L413.33 346.66L413.33 320ZM373.33 359.99L400 359.99L400 386.66L373.33 386.66L373.33 359.99ZM413.33 359.99L440 359.99L440 386.66L413.33 386.66L413.33 359.99ZM744.2 305.08L717.76 308.22C716.73 299.94 715.4 291.61 713.76 283.46L739.91 278.2C741.68 287.05 743.12 296.09 744.2 305.08ZM86.13 284C84.5 292.24 83.17 300.59 82.21 308.8L55.74 305.68C56.79 296.77 58.2 287.74 60 278.83L86.13 284ZM714.6 200.82L690.43 212.08C686.96 204.49 683.06 196.98 678.96 189.75L702.19 176.65C706.6 184.49 710.78 192.63 714.6 200.82ZM687.89 153.5L665.79 168.4C661.11 161.45 656.12 154.61 650.96 148.12L671.89 131.56C677.44 138.6 682.83 145.98 687.89 153.5ZM148.73 148.5C143.56 155.05 138.59 161.87 133.96 168.8L111.8 153.95C116.83 146.46 122.22 139.06 127.82 132L148.73 148.5ZM654.18 110.95L634.63 129.06C629.01 123.01 623.03 117.05 616.85 111.34L634.94 91.74C641.63 97.92 648.1 104.39 654.18 110.95ZM120.79 190.19C116.75 197.37 112.89 204.91 109.36 212.53L85.17 201.33C88.99 193.08 93.16 184.92 97.56 177.09L120.79 190.19ZM99.77 235.72C96.85 243.61 94.24 251.61 91.98 259.61L66.33 252.37C68.76 243.73 71.59 235.02 74.75 226.49L99.77 235.72ZM182.8 111.65C176.69 117.33 170.67 123.28 165.06 129.39L145.48 111.29C151.61 104.65 158.04 98.19 164.71 92.06L182.8 111.65ZM733.55 251.78L707.89 259.07C705.62 251.09 703 243.07 700.08 235.21L725.08 225.94C728.21 234.45 731.08 243.13 733.55 251.78ZM312.96 38.65C304.88 40.94 296.84 43.55 289.1 46.41L279.85 21.41C288.24 18.33 296.95 15.48 305.7 13L312.96 38.65ZM362.15 28.89C353.92 29.85 345.57 31.19 337.34 32.81L332.17 6.64C341.08 4.89 350.12 3.47 359.03 2.41L362.15 28.89ZM413.33 0.26L412.26 26.93C403.95 26.61 395.47 26.64 387.15 26.93L386.13 0.26C395.16 -0.07 404.3 -0.1 413.33 0.26ZM265.93 56.01C258.37 59.44 250.86 63.35 243.59 67.44L230.52 44.18C238.4 39.81 246.56 35.58 254.74 31.81L265.93 56.01ZM467.25 6.5L462.15 32.68C453.88 31.06 445.53 29.75 437.34 28.81L440.39 2.33C449.33 3.35 458.31 4.75 467.25 6.5ZM614.22 74.08L597.73 95.04C591.12 89.84 584.29 84.88 577.42 80.29L592.2 58.11C599.65 63.06 607.06 68.45 614.22 74.08ZM519.6 21.18L510.42 46.21C502.55 43.33 494.55 40.75 486.55 38.5L493.71 12.83C502.42 15.25 511.12 18.05 519.6 21.18ZM222.22 80.56C215.23 85.26 208.37 90.23 201.9 95.35L185.38 74.42C192.4 68.88 199.8 63.5 207.35 58.42L222.22 80.56ZM569 43.89L556 67.17C548.68 63.1 541.13 59.26 533.6 55.79L544.74 31.57C552.93 35.33 561.08 39.49 569 43.89Z" />
		<path id="Path 2" fill-rule="evenodd" class="shp0" d="M346.66 213.33C346.66 242.78 322.79 266.67 293.34 266.67C263.88 266.67 240 242.78 240 213.33C240 183.88 263.88 159.99 293.34 159.99C322.79 159.99 346.66 183.88 346.66 213.33ZM320 213.33C320 198.6 308.06 186.66 293.34 186.66C278.6 186.66 266.67 198.6 266.67 213.33C266.67 228.06 278.6 240 293.34 240C308.06 240 320 228.06 320 213.33Z" />
	</g>
</svg>