<svg xmlns="http://www.w3.org/2000/svg" viewBox="0 0 480 480" width="48" height="48">
	<style>
		tspan { white-space:pre }
		.shp0 { fill: #f1602e } 
	</style>
	<g id="Layer">
		<g id="Layer">
			<g id="Layer">
				<path id="Layer" fill-rule="evenodd" class="shp0" d="M480 240C480 372.55 372.55 480 240 480C107.45 480 0 372.55 0 240C0 107.45 107.45 0 240 0C372.49 0.15 479.85 107.51 480 240ZM464 240C464 116.29 363.71 16 240 16C116.29 16 16 116.29 16 240C16 363.71 116.29 464 240 464C363.65 463.86 463.86 363.65 464 240Z" />
			</g>
		</g>
		<g id="Layer">
			<g id="Layer">
				<path id="Layer" fill-rule="evenodd" class="shp0" d="M320 112C320 156.18 284.18 192 240 192C195.84 191.95 160.05 156.16 160 112C160 67.82 195.82 32 240 32C284.18 32 320 67.82 320 112ZM264 144.82C263.99 135.53 256.47 128.01 247.19 128L232.81 128C223.53 128.01 216.01 135.53 216 144.82L216 171.29C231.38 177.57 248.62 177.57 264 171.29L264 144.82ZM304 111.89C303.97 76.58 275.32 47.97 240 48C220.56 47.98 202.16 56.82 190.01 72C167.95 99.58 172.42 139.82 200 161.88L200 144.82C200.03 133.34 206.07 122.73 215.91 116.83C205.36 104.77 205.36 86.77 215.91 74.7C227.54 61.4 247.76 60.05 261.06 71.68C274.37 83.31 275.72 103.53 264.09 116.83C273.93 122.73 279.97 133.34 280 144.82L280 161.88C295.18 149.73 304.02 131.34 304 111.89ZM240 112C248.84 112 256 104.84 256 96C256 87.16 248.84 80 240 80C231.16 80 224 87.16 224 96C224.01 104.83 231.17 111.99 240 112Z" />
			</g>
		</g>
		<g id="Layer">
			<g id="Layer">
				<path id="Layer" fill-rule="evenodd" class="shp0" d="M320 368C320 412.18 284.18 448 240 448C195.82 448 160 412.18 160 368C160 323.82 195.82 288 240 288C284.16 288.05 319.95 323.84 320 368ZM264 400.82C263.99 391.53 256.47 384.01 247.19 384L232.81 384C223.53 384.01 216.01 391.53 216 400.82L216 427.29C231.38 433.57 248.62 433.57 264 427.29L264 400.82ZM280 317.96C252.41 295.87 212.13 300.33 190.04 327.92C167.95 355.51 172.41 395.79 200 417.88L200 400.82C200.03 389.34 206.07 378.73 215.91 372.83C205.36 360.77 205.36 342.77 215.91 330.7C227.54 317.4 247.76 316.04 261.06 327.68C274.37 339.31 275.72 359.53 264.09 372.83C273.93 378.73 279.97 389.34 280 400.82L280 417.88C283.68 414.94 287.02 411.6 289.96 407.92C312.05 380.33 307.59 340.05 280 317.96ZM240 368C248.84 368 256 360.84 256 352C256 343.16 248.84 336 240 336C231.16 336 224 343.16 224 352C224.01 360.83 231.17 367.99 240 368Z" />
			</g>
		</g>
		<g id="Layer">
			<g id="Layer">
				<path id="Layer" fill-rule="evenodd" class="shp0" d="M448 240C448 284.18 412.18 320 368 320C323.82 320 288 284.18 288 240C288.05 195.84 323.84 160.05 368 160C412.18 160 448 195.82 448 240ZM392 299.29L392 272.82C391.99 263.53 384.47 256.01 375.19 256L360.81 256C351.53 256.01 344.01 263.53 344 272.82L344 299.29C359.38 305.57 376.62 305.57 392 299.29L392 299.29ZM432 240C432.01 220.58 423.2 202.22 408.05 190.07C380.49 167.96 340.22 172.39 318.12 199.95C296.01 227.51 300.44 267.77 328 289.88L328 272.82C328.03 261.34 334.07 250.73 343.91 244.83C333.36 232.77 333.36 214.77 343.91 202.7C355.54 189.4 375.76 188.04 389.06 199.68C402.37 211.31 403.72 231.53 392.09 244.83C401.93 250.73 407.97 261.34 408 272.82L408 289.88C423.16 277.76 431.99 259.41 432 240ZM368 240C376.84 240 384 232.84 384 224C384 215.16 376.84 208 368 208C359.16 208 352 215.16 352 224C352.01 232.83 359.17 239.99 368 240Z" />
			</g>
		</g>
		<g id="Layer">
			<g id="Layer">
				<path id="Layer" fill-rule="evenodd" class="shp0" d="M192 240C191.95 284.16 156.16 319.95 112 320C67.82 320 32 284.18 32 240C32 195.82 67.82 160 112 160C156.18 160 192 195.82 192 240ZM136 299.29L136 272.82C135.99 263.53 128.47 256.01 119.19 256L104.81 256C95.53 256.01 88.01 263.53 88 272.82L88 299.29C103.38 305.57 120.62 305.57 136 299.29L136 299.29ZM152 189.96C124.41 167.87 84.13 172.33 62.04 199.92C39.95 227.51 44.41 267.79 72 289.88L72 272.82C72.03 261.34 78.07 250.73 87.91 244.83C77.36 232.77 77.36 214.77 87.91 202.7C99.54 189.4 119.76 188.04 133.06 199.68C146.37 211.31 147.72 231.53 136.09 244.83C145.93 250.73 151.97 261.34 152 272.82L152 289.88C155.68 286.94 159.02 283.6 161.96 279.92C184.05 252.33 179.59 212.05 152 189.96ZM112 240C120.84 240 128 232.84 128 224C128 215.16 120.84 208 112 208C103.16 208 96 215.16 96 224C96.01 232.83 103.17 239.99 112 240Z" />
			</g>
		</g>
		<g id="Layer">
		</g>
		<g id="Layer">
		</g>
		<g id="Layer">
		</g>
		<g id="Layer">
		</g>
		<g id="Layer">
		</g>
		<g id="Layer">
		</g>
		<g id="Layer">
		</g>
		<g id="Layer">
		</g>
		<g id="Layer">
		</g>
		<g id="Layer">
		</g>
		<g id="Layer">
		</g>
		<g id="Layer">
		</g>
		<g id="Layer">
		</g>
		<g id="Layer">
		</g>
		<g id="Layer">
		</g>
	</g>
</svg>