<svg xmlns="http://www.w3.org/2000/svg" viewBox="0 0 53 53" width="48" height="48">
	<style>
		tspan { white-space:pre }
		.shp0 { fill: #f1602e } 
	</style>
	<g id="Layer">
		<g id="Layer">
			<g id="Layer">
				<path id="Layer" fill-rule="evenodd" class="shp0" d="M46 10.78L46 52C46 52.55 45.55 53 45 53L8 53C7.45 53 7 52.55 7 52L7 1C7 0.45 7.45 0 8 0L35.21 0C35.47 0 35.73 0.1 35.91 0.29L45.71 10.07C45.9 10.26 46 10.52 46 10.78ZM44 51L44 12L35 12C34.45 12 34 11.55 34 11L34 2L9 2L9 51L44 51ZM36 3.41L36 10L42.59 10L36 3.41Z" />
				<path id="Layer" fill-rule="evenodd" class="shp0" d="M40 29.5C40 36.94 33.94 43 26.5 43C19.06 43 13 36.94 13 29.5C13 22.06 19.06 16 26.5 16C33.94 16 40 22.06 40 29.5ZM38 29.5C38 23.16 32.84 18 26.5 18C20.16 18 15 23.16 15 29.5C15 35.84 20.16 41 26.5 41C32.84 41 38 35.84 38 29.5Z" />
				<path id="Layer" class="shp0" d="M18.26 26.86L20.81 26.86L20.81 34L22.54 34L22.54 26.86L25.08 26.86L25.08 25.41L18.26 25.41L18.26 26.86Z" />
				<path id="Layer" class="shp0" d="M30.33 31.27L28.77 25.41L26.18 25.41L26.18 34L27.79 34L27.79 27.24L29.49 34L31.16 34L32.87 27.24L32.87 34L34.48 34L34.48 25.41L31.88 25.41L30.33 31.27Z" />
			</g>
		</g>
		<g id="Layer">
		</g>
		<g id="Layer">
		</g>
		<g id="Layer">
		</g>
		<g id="Layer">
		</g>
		<g id="Layer">
		</g>
		<g id="Layer">
		</g>
		<g id="Layer">
		</g>
		<g id="Layer">
		</g>
		<g id="Layer">
		</g>
		<g id="Layer">
		</g>
		<g id="Layer">
		</g>
		<g id="Layer">
		</g>
		<g id="Layer">
		</g>
		<g id="Layer">
		</g>
		<g id="Layer">
		</g>
	</g>
</svg>