<svg xmlns="http://www.w3.org/2000/svg" viewBox="0 0 1216 837" width="1216" height="837">
	<style>
		tspan { white-space:pre }
		.shp0 { fill: #f2f1d9 } 
		.shp1 { fill: #f2f2f2 } 
		.shp2 { fill: #42b7a1 } 
		.shp3 { fill: #008264 } 
		.shp4 { fill: #007344 } 
		.shp5 { fill: #ecc93e } 
		.shp6 { fill: #e6a800 } 
		.shp7 { fill: #f15a24 } 
		.shp8 { fill: #ef3d00 } 
		.txt9 { font-size: 9px;fill: #ffffff;font-weight: 500;font-family: "Poppins-Medium", "Poppins";text-anchor: middle } 
		.shp10 { fill: #ffffff } 
		.shp11 { fill: #542b2b } 
		.shp12 { fill: #fe6120 } 
		.shp13 { fill: #edb49b } 
		.shp14 { fill: #f2c9b7 } 
		.shp15 { fill: #009779 } 
		.shp16 { fill: #1d262d } 
	</style>
	<g id="BACKGROUND">
		<g id="&lt;Group&gt;">
			<g id="&lt;Group&gt;">
				<path id="&lt;Path&gt;" class="shp0" d="M1068.29 562.81C1063.56 547.77 1055.53 533.97 1043.98 522.88C1024.34 504.02 996.12 493.38 982.86 469.6C966.31 439.92 979.69 403.5 984.94 369.93C992.51 321.57 976.26 264.05 931.37 244.54C892.26 227.54 843.45 244.1 806.47 222.87C763.36 198.13 759.3 137.03 727.13 99.14C701.56 69.02 660.25 56.77 622.07 54.03C571.41 50.4 515.42 63.51 484.84 104.06C456.43 141.75 452.05 199.32 410.64 221.96C381.75 237.75 345.96 229.52 313.67 235.91C248.23 248.87 217.75 312.8 232.99 373.7C239.53 399.83 248.17 427.53 239.5 453.03C227.12 489.43 185.26 506.16 162.04 536.8C134 573.79 137.72 628.63 163.29 667.36C188.85 706.1 232.38 730.11 277.37 741.51C322.35 752.91 369.32 753.07 415.73 753.15C542.01 753.38 668.28 753.61 794.56 753.85C843.56 753.93 893.24 753.94 940.56 741.23C987.89 728.52 1033.39 701.35 1057.55 658.72C1073.82 630.02 1078.05 593.78 1068.29 562.81Z" />
			</g>
			<g id="&lt;Group&gt;">
				<g id="&lt;Group&gt;">
					<path id="&lt;Path&gt;" class="shp0" d="M202.1 369.81C202.1 379.13 194.54 386.68 185.23 386.68C175.91 386.68 168.35 379.13 168.35 369.81C168.35 360.49 175.91 352.94 185.23 352.94C194.54 352.94 202.1 360.49 202.1 369.81Z" />
					<path id="&lt;Path&gt;" class="shp0" d="M209.21 325.1C209.21 329.52 205.63 333.1 201.21 333.1C196.79 333.1 193.21 329.52 193.21 325.1C193.21 320.68 196.79 317.1 201.21 317.1C205.63 317.1 209.21 320.68 209.21 325.1Z" />
					<path id="&lt;Path&gt;" class="shp0" d="M224.32 399.92C224.32 404.34 220.74 407.92 216.32 407.92C211.9 407.92 208.32 404.34 208.32 399.92C208.32 395.5 211.9 391.92 216.32 391.92C220.74 391.92 224.32 395.5 224.32 399.92Z" />
				</g>
				<g id="&lt;Group&gt;">
					<path id="&lt;Path&gt;" class="shp0" d="M1008.8 369.81C1008.8 379.13 1016.35 386.68 1025.67 386.68C1034.99 386.68 1042.54 379.13 1042.54 369.81C1042.54 360.49 1034.99 352.94 1025.67 352.94C1016.35 352.94 1008.8 360.49 1008.8 369.81Z" />
					<path id="&lt;Path&gt;" class="shp0" d="M1001.68 325.1C1001.68 329.52 1005.26 333.1 1009.68 333.1C1014.1 333.1 1017.68 329.52 1017.68 325.1C1017.68 320.68 1014.1 317.1 1009.68 317.1C1005.26 317.1 1001.68 320.68 1001.68 325.1Z" />
					<path id="&lt;Path&gt;" class="shp0" d="M997.01 391.92C997.01 396.34 1000.6 399.92 1005.01 399.92C1009.43 399.92 1013.01 396.34 1013.01 391.92C1013.01 387.5 1009.43 383.92 1005.01 383.92C1000.6 383.92 997.01 387.5 997.01 391.92Z" />
				</g>
				<g id="&lt;Group&gt;">
					<path id="&lt;Path&gt;" class="shp0" d="M750.63 84C757.53 90.27 768.2 89.75 774.46 82.85C780.72 75.95 780.21 65.28 773.31 59.02C766.41 52.76 755.74 53.27 749.48 60.17C743.21 67.07 743.73 77.74 750.63 84Z" />
					<path id="&lt;Path&gt;" class="shp0" d="M712.74 59.22C716.01 62.19 721.07 61.94 724.04 58.67C727.01 55.4 726.76 50.34 723.49 47.37C720.22 44.4 715.16 44.65 712.19 47.92C709.22 51.19 709.47 56.25 712.74 59.22Z" />
					<path id="&lt;Path&gt;" class="shp0" d="M771.32 132.8C774.59 135.77 779.65 135.52 782.62 132.25C785.59 128.98 785.35 123.92 782.08 120.95C778.81 117.98 773.75 118.23 770.78 121.5C767.81 124.77 768.05 129.83 771.32 132.8Z" />
				</g>
				<g id="&lt;Group&gt;">
					<path id="&lt;Path&gt;" class="shp0" d="M460.68 84C453.78 90.27 443.11 89.75 436.85 82.85C430.58 75.95 431.1 65.28 438 59.02C444.9 52.76 455.57 53.27 461.83 60.17C468.09 67.07 467.58 77.74 460.68 84Z" />
					<path id="&lt;Path&gt;" class="shp0" d="M400.91 98.01C397.47 103.09 390.07 102.73 387.13 97.35C385.76 94.82 385.91 91.58 387.53 89.2C390.98 84.14 398.36 84.49 401.3 89.86C402.69 92.39 402.53 95.63 400.91 98.01Z" />
					<path id="&lt;Path&gt;" class="shp0" d="M439.98 132.8C436.71 135.77 431.65 135.52 428.68 132.25C425.71 128.98 425.96 123.92 429.23 120.95C432.5 117.98 437.56 118.23 440.53 121.5C443.5 124.77 443.26 129.83 439.98 132.8Z" />
				</g>
			</g>
		</g>
	</g>
	<g id="OBJECTS">
		<g id="&lt;Group&gt;">
			<g id="&lt;Group&gt;">
				<path id="&lt;Path&gt;" class="shp1" d="M1073.48 766.45C1073.48 773.4 867.27 779.04 612.9 779.04C358.53 779.04 152.32 773.4 152.32 766.45C152.32 759.49 358.53 753.86 612.9 753.86C867.27 753.86 1073.48 759.49 1073.48 766.45Z" />
				<g id="&lt;Group&gt;">
					<g id="&lt;Group&gt;">
						<g id="&lt;Group&gt;">
							<path id="&lt;Path&gt;" class="shp2" d="M375.13 593.77C372.72 591.15 370.13 588.33 367.38 585.35L337.12 603.93C344.3 592.27 350.66 582.08 356.2 573.34C351.23 568.05 345.91 562.42 340.29 556.58L313.82 580.08C318.86 566.28 323.44 554.09 327.56 543.52C306.95 522.56 283.49 499.96 259.89 480L240.68 514.81L246.29 468.79C244.52 467.37 242.76 465.99 240.99 464.62C237.69 481.51 233.31 503.56 233.16 504.25L233.74 459.08L233.73 459.07C231.34 457.29 228.96 455.55 226.6 453.85C225.49 471.5 223.88 496.24 223.73 495.06C223.59 493.9 221.1 467.6 219.34 448.79C207.37 440.68 195.81 433.97 185.04 429.29C187.23 438.4 189.69 451.71 187.35 458.68C186.75 460.48 184.22 460.5 183.62 458.7L172.34 424.63C170.27 424.03 168.23 423.51 166.24 423.11C160.94 422.02 155.88 422.74 151.52 424.73C140.74 429.64 134.25 442.34 138.95 454.83C144.98 470.85 158.09 495.78 185.7 533.78C195.44 534.69 207.83 536.1 222.87 538.01L199.59 552.37C208.77 564.35 219.21 577.45 231.09 591.75L233.6 594.92L279.18 580.15L250.17 615.79L287.51 662.82C296.49 674.13 311.73 678.51 325.31 673.53C333.29 670.6 342.82 665.79 353.47 657.96C351.44 655.41 349.37 652.83 347.25 650.22C346.89 649.78 346.53 649.34 346.17 648.9C344.68 647.06 343.16 645.22 341.62 643.36C341.53 643.25 341.44 643.15 341.34 643.04C340.58 642.11 339.8 641.18 339.02 640.24C338.96 640.16 338.89 640.08 338.82 640.01C338.01 639.04 337.2 638.07 336.38 637.1C335.06 635.53 333.73 633.96 332.39 632.39C331.32 631.13 330.25 629.87 329.17 628.61L328.86 628.26C328 627.25 327.13 626.25 326.26 625.25L326.22 625.2C325.23 624.04 324.22 622.9 323.21 621.74C322.54 620.96 321.86 620.19 321.18 619.41C320.05 618.12 318.92 616.83 317.78 615.53C317.18 614.86 316.59 614.19 315.99 613.51C315.13 612.54 314.27 611.57 313.41 610.6C311.99 609.02 310.57 607.42 309.14 605.83C306.84 603.26 304.53 600.69 302.2 598.13C302.1 598.02 302 597.91 301.89 597.79C301.14 596.95 300.38 596.12 299.61 595.28C298.72 594.3 297.83 593.32 296.94 592.34C295.1 590.34 293.26 588.34 291.42 586.34C290.05 584.86 288.68 583.38 287.31 581.9C285.84 580.32 284.36 578.72 282.88 577.15C281.41 575.56 279.93 573.98 278.45 572.4C276.92 570.78 275.4 569.17 273.88 567.56C273.88 567.56 273.88 567.55 273.88 567.55L273.88 567.55C272.1 565.66 270.32 563.78 268.54 561.92C266.06 559.3 263.58 556.7 261.11 554.12L261.07 554.07C260.7 553.68 260.33 553.3 259.95 552.92C258.66 551.56 257.37 550.21 256.08 548.88C256.07 548.87 256.07 548.87 256.07 548.87C255.62 548.4 255.16 547.93 254.71 547.46C253.39 546.08 252.07 544.72 250.75 543.36L250.72 543.33C249.65 542.21 248.57 541.11 247.51 540.01C247.02 539.51 246.53 539.01 246.05 538.51C244.92 537.35 243.8 536.2 242.68 535.06C241.47 533.81 240.26 532.58 239.06 531.35C237.89 530.15 236.73 528.97 235.57 527.79C234.42 526.61 233.26 525.44 232.12 524.27C230.39 522.52 228.68 520.79 226.99 519.08L226.99 519.07C225.74 517.81 224.5 516.56 223.26 515.32C219.31 511.34 215.46 507.48 211.71 503.74C210.3 502.33 208.91 500.95 207.54 499.58C205.45 497.5 203.4 495.47 201.39 493.48C199.69 491.79 198 490.12 196.35 488.5C195.15 487.31 193.96 486.14 192.79 484.99C191.17 483.4 189.59 481.85 188.04 480.33C186.95 479.26 185.88 478.21 184.83 477.19C184.34 476.71 183.85 476.23 183.37 475.76C182.82 475.23 182.27 474.69 181.73 474.17C181.65 474.08 181.55 473.99 181.47 473.91C180.57 473.04 179.7 472.19 178.84 471.35C176.55 469.12 174.38 467.02 172.34 465.04C171.15 463.89 170.01 462.79 168.91 461.73C168.24 461.08 167.58 460.45 166.95 459.84C166.05 458.97 165.18 458.14 164.35 457.34C164.05 457.05 163.76 456.77 163.47 456.5C161.7 454.79 160.12 453.28 158.74 451.97C158.65 451.88 158.55 451.78 158.45 451.69C158.34 451.59 158.23 451.48 158.12 451.37C157.96 451.22 157.81 451.08 157.66 450.94C156.06 449.1 154.71 447.36 153.58 445.69C153.96 445.75 154.39 445.87 154.88 446.07C155 446.12 155.13 446.17 155.26 446.23C155.91 446.52 156.64 446.91 157.45 447.4C157.55 447.46 157.65 447.52 157.76 447.59C157.86 447.65 157.97 447.72 158.07 447.79C158.76 448.22 159.51 448.73 160.3 449.3C160.44 449.4 160.59 449.5 160.73 449.61C160.9 449.73 161.07 449.85 161.24 449.98C161.48 450.16 161.73 450.35 161.98 450.54C162.32 450.8 162.68 451.06 163.04 451.35C163.8 451.94 164.59 452.57 165.42 453.25C167.36 454.84 169.49 456.65 171.78 458.67C172.2 459.03 172.61 459.4 173.03 459.78C173.53 460.23 174.04 460.68 174.56 461.15C174.56 461.16 174.56 461.16 174.57 461.16C174.99 461.55 175.43 461.94 175.87 462.34C176.45 462.87 177.03 463.4 177.62 463.95C182.46 468.46 183.68 469.61 184.92 470.8C186.64 472.43 188.39 474.12 190.2 475.87C191.3 476.95 192.42 478.04 193.55 479.16C194.05 479.64 194.54 480.13 195.04 480.61C196.87 482.43 198.75 484.29 200.66 486.2L200.67 486.2C202.89 488.41 205.16 490.7 207.48 493.04C208.56 494.14 209.66 495.25 210.77 496.37L212.71 498.36C213.36 499.02 214.02 499.69 214.68 500.36L214.68 500.37C214.69 500.37 214.69 500.37 214.69 500.37C215.1 500.8 215.52 501.22 215.94 501.65L215.95 501.67C218.38 504.16 220.86 506.7 223.36 509.29C224.56 510.52 225.76 511.77 226.97 513.03C227.03 513.09 227.08 513.14 227.14 513.2C228.39 514.5 229.65 515.81 230.91 517.12C231.57 517.81 232.23 518.49 232.89 519.19C234.18 520.53 235.48 521.89 236.77 523.25C240.03 526.66 243.31 530.12 246.62 533.61C247.61 534.66 248.6 535.71 249.59 536.76C250.6 537.83 251.62 538.91 252.63 539.98L255.68 543.22C255.9 543.46 256.13 543.7 256.36 543.94C256.39 543.97 256.42 544 256.44 544.03C257.35 545.01 258.27 545.98 259.18 546.96C263.04 551.06 266.9 555.2 270.76 559.34C271.66 560.31 272.57 561.28 273.48 562.26C273.86 562.67 274.24 563.08 274.62 563.49C275.63 564.58 276.65 565.67 277.66 566.76C277.78 566.9 277.9 567.03 278.03 567.16C279.41 568.64 280.78 570.13 282.15 571.61C285.28 574.99 288.39 578.36 291.48 581.7L291.5 581.72C292.46 582.77 293.42 583.8 294.38 584.84L294.43 584.9C295.78 586.37 297.12 587.83 298.46 589.29L305.52 596.97C305.84 597.33 306.17 597.68 306.49 598.03L306.55 598.1C307.44 599.07 308.32 600.03 309.19 600.98C310.15 602.03 311.1 603.07 312.05 604.11C312.92 605.06 313.78 606.01 314.65 606.95C314.65 606.95 314.66 606.95 314.66 606.95L314.66 606.96C314.8 607.11 314.94 607.27 315.08 607.43C315.78 608.18 316.47 608.94 317.15 609.7C317.15 609.7 317.15 609.7 317.16 609.7C317.17 609.71 317.17 609.71 317.18 609.72C317.4 609.97 317.63 610.22 317.86 610.48L317.86 610.48C317.87 610.48 317.87 610.48 317.87 610.48L317.87 610.49C319.5 612.26 321.1 614.02 322.68 615.76C323.59 616.75 324.48 617.74 325.37 618.72C326.2 619.63 327.02 620.52 327.84 621.43C328.62 622.29 329.4 623.15 330.17 624C330.21 624.03 330.23 624.06 330.27 624.1L330.27 624.1C330.8 624.69 331.32 625.26 331.85 625.84C334.16 628.4 336.43 630.9 338.65 633.34C339.5 634.28 340.34 635.21 341.17 636.14L341.78 636.81L341.86 636.89C342.69 637.82 343.52 638.73 344.34 639.63L347.04 642.62C347.74 643.4 348.44 644.17 349.13 644.94L349.78 645.65C350.51 646.46 351.23 647.26 351.95 648.06C353.15 649.39 354.33 650.71 355.49 651.99C356.03 652.59 356.56 653.17 357.08 653.76C357.34 654.04 357.6 654.33 357.86 654.62C363.11 650.48 368.6 645.61 374.29 639.89C386.88 627.25 387.19 606.92 375.13 593.77Z" />
							<path id="&lt;Path&gt;" class="shp3" d="M298.41 648.73C306.02 648.68 331.5 643.11 339.02 640.24C338.96 640.16 338.89 640.08 338.82 640.01C338.01 639.04 337.2 638.07 336.38 637.1C335.06 635.53 333.73 633.96 332.39 632.39C331.32 631.13 330.25 629.88 329.17 628.61C329.07 628.49 328.96 628.37 328.86 628.25L328.86 628.26C318.31 631.38 307.44 632.8 296.45 633.18C294.12 633.26 294.39 629.65 296.7 629.57C306.71 629.23 316.62 627.91 326.26 625.25L326.22 625.2C325.23 624.04 324.22 622.9 323.21 621.74C322.54 620.96 321.86 620.19 321.18 619.41C320.05 618.12 318.92 616.83 317.78 615.53C317.18 614.86 316.59 614.19 315.99 613.51C313.67 614.49 311.15 614.81 308.65 615.12C305.26 615.54 301.88 615.99 298.48 616.32C291.61 616.98 284.72 617.23 277.83 616.77C275.5 616.62 275.75 613.01 278.07 613.17C284.66 613.6 291.24 613.4 297.81 612.77C300.77 612.48 303.72 612.1 306.67 611.72C308.91 611.44 311.25 611.28 313.41 610.6C312 609.01 310.58 607.42 309.14 605.83C306.85 603.26 304.53 600.69 302.2 598.13C302.1 598.02 302 597.91 301.89 597.79C301.14 596.95 300.38 596.12 299.61 595.28C298.72 594.3 297.83 593.32 296.94 592.34C295.1 590.34 293.26 588.34 291.42 586.34C290.05 584.85 288.68 583.38 287.31 581.9C285.84 580.31 284.36 578.72 282.88 577.15C281.41 575.56 279.93 573.98 278.45 572.4C278.32 572.41 278.18 572.4 278.03 572.37C265.39 570.14 253.08 576.36 240.46 576.34C238.13 576.34 238.39 572.73 240.71 572.73C251.85 572.75 262.65 567.91 273.77 568.31C273.81 568.06 273.84 567.8 273.88 567.56C273.88 567.56 273.88 567.55 273.88 567.55L273.88 567.55C272.1 565.66 270.32 563.78 268.54 561.92C267.18 560.48 265.82 559.06 264.46 557.63C264.33 557.64 264.2 557.65 264.06 557.64C261.56 557.44 259.22 558.28 256.85 558.96C254.47 559.63 252.05 560.17 249.66 560.8C243.88 562.35 238.15 564.11 232.49 566.05C230.32 566.8 228.72 563.55 230.93 562.79C236.88 560.75 242.9 558.88 248.99 557.25C252.76 556.25 257.03 554.58 261.11 554.12L261.07 554.07C260.7 553.68 260.33 553.3 259.95 552.92C258.66 551.56 257.36 550.22 256.08 548.88C256.07 548.87 256.07 548.87 256.07 548.87C255.62 548.4 255.16 547.93 254.71 547.46C253.39 546.08 252.07 544.72 250.75 543.36L250.72 543.33C237.52 543.67 226.55 553.44 213.5 554.93C211.2 555.2 210.5 551.64 212.82 551.38C225.07 549.98 235.4 541.68 247.51 540.01C247.02 539.51 246.53 539.01 246.05 538.51C244.92 537.35 243.8 536.2 242.68 535.06C241.47 533.81 240.26 532.58 239.06 531.35C237.89 530.15 236.73 528.96 235.57 527.79C234.42 526.61 233.27 525.44 232.12 524.27C230.39 522.52 228.68 520.79 226.99 519.08L226.99 519.07C220.58 519.35 214.17 516.99 208.03 515.51C200.34 513.65 192.76 511.47 185.09 509.56C182.82 508.99 184 505.57 186.24 506.13C193.64 507.97 200.91 510.16 208.35 511.88C213.23 513.01 218.21 514.77 223.26 515.32C219.31 511.34 215.46 507.48 211.71 503.74C201.68 502.78 192 499.78 182.05 498.3C179.76 497.97 179.99 494.36 182.3 494.7C190.78 495.96 199.07 498.32 207.54 499.58C205.45 497.5 203.4 495.47 201.39 493.48C199.68 491.78 198 490.13 196.35 488.5C195.15 487.31 193.96 486.14 192.79 484.99C183.34 482.95 173.81 481.35 164.4 479.1C162.14 478.56 163.31 475.13 165.56 475.67C173 477.46 180.54 478.83 188.04 480.33C186.95 479.27 185.88 478.22 184.83 477.19C184.34 476.71 183.85 476.23 183.37 475.76C182.82 475.23 182.27 474.69 181.73 474.17C181.65 474.08 181.55 473.99 181.47 473.91C180.57 473.04 179.7 472.19 178.84 471.35C176.55 469.12 174.38 467.02 172.34 465.04C169.66 465.38 166.86 465.49 164.1 465.33C161.34 465.17 158.6 464.74 156.04 464.01C153.8 463.36 154.97 459.94 157.2 460.58C160.85 461.63 164.95 461.95 168.91 461.73C168.24 461.08 167.58 460.45 166.95 459.84C166.05 458.97 165.18 458.14 164.35 457.34C164.05 457.05 163.76 456.77 163.47 456.5C161.69 454.8 160.12 453.29 158.74 451.97C158.65 451.88 158.55 451.78 158.45 451.69C158.34 451.58 158.23 451.48 158.12 451.37C157.88 451.14 157.64 450.91 157.41 450.69C157.29 450.59 157.19 450.49 157.08 450.39C156.65 449.97 156.24 449.59 155.87 449.23C155.76 449.12 155.64 449.01 155.53 448.91C155.27 448.66 155.02 448.42 154.79 448.2C154.68 448.09 154.57 448 154.47 447.9C154.38 447.82 154.3 447.74 154.22 447.67C154.12 447.57 154.02 447.47 153.92 447.38C153.22 446.72 152.69 446.22 152.32 445.87C152.36 445.85 152.39 445.83 152.43 445.81C152.47 445.78 152.5 445.77 152.54 445.76C152.62 445.72 152.71 445.7 152.8 445.69C152.84 445.68 152.89 445.67 152.94 445.67C152.99 445.66 153.03 445.66 153.09 445.66C153.14 445.66 153.19 445.66 153.24 445.66C153.69 445.68 154.24 445.81 154.88 446.07C155.01 446.12 155.13 446.17 155.26 446.23C155.91 446.52 156.64 446.91 157.45 447.4C157.55 447.46 157.65 447.52 157.76 447.59C157.86 447.65 157.97 447.72 158.07 447.79C158.76 448.22 159.51 448.73 160.3 449.3C160.44 449.4 160.59 449.5 160.73 449.61C160.9 449.73 161.07 449.85 161.24 449.98C161.48 450.16 161.73 450.35 161.98 450.54C162.32 450.8 162.68 451.06 163.04 451.35C163.8 451.94 164.59 452.58 165.42 453.25C167.36 454.84 169.49 456.65 171.78 458.67C172.2 459.03 172.61 459.4 173.03 459.78C173.53 460.23 174.04 460.68 174.56 461.15C174.56 461.16 174.56 461.16 174.57 461.16C175.22 461.29 175.67 461.77 175.87 462.34C176.45 462.87 177.03 463.4 177.62 463.95C182.46 468.46 183.68 469.61 184.92 470.8C186.64 472.43 188.39 474.12 190.2 475.87C191.3 476.95 192.42 478.04 193.55 479.16C194.05 479.64 194.54 480.13 195.04 480.61C195 479.26 195.11 477.88 195.25 476.53C195.4 475.17 195.58 473.85 195.69 472.63C196.38 465.29 198.01 457.81 196.97 450.43C196.64 448.14 200.19 447.44 200.51 449.76C201.43 456.2 200.43 462.59 199.68 469C199.39 471.55 199.14 474.11 198.89 476.67C198.64 479.37 198.14 482.94 200.18 485.07C200.52 485.43 200.66 485.82 200.66 486.2L200.67 486.2C202.89 488.41 205.16 490.7 207.48 493.04C208.61 481.26 208.43 469.41 208.37 457.59C208.36 455.26 211.96 455.52 211.98 457.84C212.04 470.69 212.27 483.58 210.77 496.37L212.71 498.36C213.36 499.02 214.02 499.69 214.68 500.36L214.68 500.37C214.69 500.37 214.69 500.37 214.69 500.37C215.4 500.53 215.81 501.05 215.94 501.65L215.95 501.67C218.38 504.16 220.86 506.7 223.36 509.29C224.56 510.52 225.76 511.77 226.97 513.03C227.03 513.09 227.08 513.14 227.14 513.2C228.39 514.5 229.65 515.81 230.91 517.12C231.57 517.81 232.23 518.49 232.89 519.19C234.18 520.54 235.48 521.89 236.77 523.25C240.03 526.66 243.31 530.12 246.62 533.61C248.76 524.36 251.65 515.36 256.18 506.95C257.28 504.9 260.29 506.92 259.19 508.95C254.51 517.66 251.71 527.14 249.59 536.76C250.61 537.83 251.62 538.91 252.63 539.98L255.68 543.22C255.9 543.46 256.13 543.7 256.36 543.94C259.45 535.77 270.36 512.89 271.09 510.18C271.7 507.93 275.13 509.1 274.52 511.34C273.77 514.12 260.77 541.93 260.18 543.48C259.99 543.95 259.51 545.09 259.26 545.68C259.39 546.08 259.35 546.54 259.18 546.96C263.04 551.06 266.9 555.2 270.76 559.34C271.67 560.31 272.57 561.28 273.48 562.26C273.86 562.67 274.24 563.08 274.62 563.49C277.32 550.09 282.38 537.26 284.68 523.76C285.07 521.48 288.68 521.71 288.29 524.01C285.82 538.51 280.15 552.27 277.66 566.76C277.78 566.9 277.9 567.03 278.03 567.16C279.41 568.64 280.78 570.13 282.15 571.61C285.28 574.99 288.39 578.36 291.48 581.7L291.5 581.72C294.27 572.13 302.25 548.87 305.49 543.37C306.68 541.36 309.69 543.37 308.5 545.36C304.99 551.31 296.35 577.32 294.38 584.84L294.43 584.9C295.78 586.37 297.12 587.83 298.46 589.29L305.52 596.97C306.75 598.32 307.97 599.65 309.19 600.98C310.15 602.03 311.1 603.07 312.05 604.11C315.47 597.47 325.67 580.95 329.12 576.59C330.55 574.77 333.57 576.76 332.14 578.59C328.59 583.07 316.91 601.86 314.71 606.85C314.69 606.89 314.67 606.92 314.65 606.95C314.65 606.95 314.66 606.95 314.66 606.95L314.66 606.96C314.8 607.11 314.94 607.27 315.08 607.43C315.78 608.19 316.47 608.94 317.15 609.7C317.15 609.7 317.15 609.7 317.16 609.71C317.16 609.71 317.16 609.71 317.16 609.71C317.17 609.72 317.17 609.72 317.18 609.72C317.46 609.89 317.71 610.16 317.86 610.48L317.86 610.48C317.87 610.48 317.87 610.48 317.87 610.48L317.87 610.49C319.5 612.26 321.1 614.02 322.68 615.76C325.24 609.59 338.46 584.19 338.79 581.57C339.08 579.26 342.69 579.5 342.39 581.81C342.1 584.17 328.31 611.59 325.37 618.72C326.2 619.63 327.02 620.52 327.84 621.43C328.62 622.29 329.4 623.14 330.17 624C330.21 624.03 330.23 624.06 330.27 624.1L330.27 624.1C330.8 624.69 331.32 625.26 331.85 625.84C334.16 628.4 336.43 630.9 338.65 633.34C345.21 622.65 352.52 612.44 358.99 601.71C360.2 599.71 363.21 601.72 362.01 603.7C355.37 614.71 347.86 625.16 341.17 636.14L341.78 636.81L341.86 636.89C347.28 630.84 363.77 613.99 368.4 609.94C370.15 608.4 372.53 611.13 370.78 612.66C366.21 616.66 348.99 634.11 344.29 639.53C344.31 639.57 344.33 639.6 344.34 639.63L347.04 642.62C347.74 643.4 348.44 644.17 349.13 644.94L349.78 645.65C350.31 646.24 350.85 646.83 351.37 647.41C351.56 647.63 351.76 647.84 351.95 648.06C353.15 649.39 354.33 650.71 355.49 651.99C356.03 652.59 356.56 653.17 357.08 653.76C357.34 654.04 357.6 654.33 357.86 654.62C356.38 655.8 354.91 656.91 353.47 657.96C351.44 655.41 349.37 652.83 347.25 650.22C346.89 649.78 346.54 649.34 346.17 648.9C344.68 647.06 343.16 645.22 341.62 643.36C341.53 643.25 341.44 643.14 341.35 643.03L341.34 643.04C332.32 647.46 306.43 652.28 298.16 652.33C295.83 652.35 296.09 648.74 298.41 648.73Z" />
							<path id="&lt;Path&gt;" class="shp4" d="M306.49 598.03C289.74 579.25 273.05 561.2 256.44 544.03C257.35 545.01 258.27 545.98 259.18 546.96C263.04 551.06 266.9 555.2 270.76 559.34C271.66 560.31 272.57 561.28 273.48 562.26C273.86 562.67 274.24 563.08 274.62 563.49C275.63 564.58 276.65 565.67 277.66 566.76C277.78 566.9 277.9 567.03 278.03 567.16C279.41 568.64 280.78 570.13 282.15 571.61C285.28 574.99 288.39 578.36 291.48 581.7L291.5 581.72C292.46 582.77 293.42 583.8 294.38 584.84L294.43 584.9C295.78 586.37 297.12 587.83 298.46 589.29L305.52 596.97C305.84 597.33 306.17 597.68 306.49 598.03Z" />
						</g>
						<g id="&lt;Group&gt;">
							<path id="&lt;Path&gt;" class="shp5" d="M284.6 679.17C277.29 677.59 271.81 670.98 272.06 663.13C272.25 656.98 275.98 651.48 281.63 649.01C295.19 643.1 320.69 631.92 337.35 624.18C335.16 604.24 324.91 585.13 303.44 571.66C297.77 568.11 291.77 564.93 285.53 562.1C276.06 588.27 259.04 600.22 248.82 605.24C245.94 606.66 242.72 607.01 239.7 606.35C237.76 605.93 235.88 605.1 234.23 603.87C228.41 599.55 226.88 591.51 230.65 585.31C239.49 570.85 243.71 558.18 245.67 548.69C228.71 544.6 211.37 542.14 195.04 540.75C195.54 553.2 195.16 566.21 193.14 575.95C191.45 584.05 182.66 588.48 175.03 585.28C172.93 584.41 171.12 583.01 169.73 581.28C168.37 579.54 167.45 577.47 167.07 575.2C165.78 567.03 163.01 553 157.81 539.04C140.83 538.92 127.05 539.69 119.01 540.29C115.71 540.54 113.13 540.76 111.28 540.97L112.52 596.77C123.32 601.57 139.44 608.79 153.37 615.03C165.7 620.57 163.21 638.66 149.83 640.81C140.36 642.34 128.43 642.9 113.51 641.47L114.35 679.49C131.04 690.99 165.61 698.3 185.68 692.42C198.67 688.63 198.02 712.19 178.25 718.96C168.78 722.23 136.5 731.02 116.25 721.88C120.45 744.54 135.26 764.31 156.82 773.63C207.09 795.35 251.32 746.01 267.42 724.77C263.8 715.82 258.8 705.23 251.86 692.97C244.53 680 235.05 665.18 222.77 648.45C220.76 645.73 253.5 677.51 273.59 716.07C273.72 715.89 273.82 715.75 273.89 715.64C294.88 713.39 313.92 697.84 325.63 677.17L289.04 679.49C287.5 679.58 286 679.48 284.6 679.17Z" />
							<g id="&lt;Group&gt;">
								<path id="&lt;Path&gt;" class="shp6" d="M220.16 749.64C232.23 743.09 245.28 731.95 254.13 721.44C256.78 718.29 259.13 714.82 261.48 711.37C259.42 707.06 257.09 702.48 254.44 697.61C252.91 700.05 249.15 705.89 245.47 710.2C240.99 715.44 236.08 720.09 230.74 724.5C218.75 734.43 204.28 740.03 189.39 744.09C181.76 746.18 171.69 748.61 164.41 748.52C171.44 745.79 192.35 739.44 207.54 731.19C219.61 724.64 232.66 713.5 241.51 702.99C244.77 699.12 247.58 694.77 250.48 690.55C250.48 690.55 250.48 690.55 250.48 690.55C249.05 688.06 247.54 685.5 245.94 682.88C244.55 684.16 243.11 685.4 241.63 686.62C233.4 693.33 223.52 697.08 213.35 699.78C208.13 701.16 201.26 702.79 196.3 702.68C201.11 700.86 215.38 696.62 225.78 691.08C231.62 687.94 237.8 683.26 243.08 678.26C242.66 677.58 242.23 676.9 241.8 676.22C239.57 676.92 236.03 677.93 232.97 678.45C228.34 679.23 223.74 679.51 219.02 679.49C208.41 679.43 198.4 676.02 188.83 671.64C183.94 669.39 177.6 666.26 173.84 663.03C178.71 664.67 192.41 670.49 203.96 672.83C213.14 674.69 224.84 674.56 234.07 672.95C235.71 672.66 237.34 672.26 238.98 671.83C237.07 669.43 233.4 664.81 228.83 659.06C228.81 659.07 228.8 659.08 228.79 659.09C228.38 659.17 227.85 659.26 227.21 659.37C225.66 659.64 223.2 660 221.1 660.08C217.93 660.19 214.83 659.97 211.67 659.53C204.57 658.55 198.17 655.37 192.16 651.59C189.08 649.64 185.12 646.98 182.89 644.48C186 646.02 194.66 651.14 202.18 653.73C208.16 655.79 216 656.75 222.33 656.49C223.45 656.44 224.58 656.33 225.71 656.18C225.96 656.15 226.21 656.11 226.45 656.08C221.13 649.38 214.9 641.56 208.9 634.02C208.72 634.15 208.54 634.27 208.37 634.38C207.96 634.46 207.43 634.56 206.8 634.66C205.24 634.93 202.78 635.29 200.69 635.37C197.52 635.48 194.41 635.26 191.26 634.82C184.16 633.84 177.76 630.67 171.74 626.88C168.66 624.93 164.7 622.28 162.47 619.78C165.59 621.31 174.24 626.43 181.77 629.02C187.74 631.08 195.59 632.04 201.91 631.78C203.04 631.74 204.16 631.62 205.3 631.47C205.77 631.41 206.24 631.34 206.71 631.27C198.93 621.5 191.64 612.34 184.83 603.79C194.39 614 204.38 625.01 214.79 636.82C214.8 636.75 214.81 636.68 214.81 636.6C214.88 635.72 214.93 634.84 214.92 633.96C214.89 629.04 213.84 622.98 212.01 618.41C209.71 612.66 205.41 606.13 204.1 603.76C206.12 605.4 208.34 608.38 209.97 610.7C213.14 615.23 215.85 620.08 216.88 625.56C217.34 628 217.63 630.4 217.66 632.87C217.68 634.51 217.5 636.43 217.35 637.65C217.29 638.15 217.23 638.56 217.19 638.88C217.11 639.01 217.03 639.14 216.95 639.27C218.67 641.24 220.39 643.22 222.11 645.21C222.3 644.84 222.49 644.48 222.66 644.11C223.18 643.03 223.67 641.95 224.09 640.86C226.44 634.67 228.08 626.57 228.01 619.96C227.93 611.64 225.72 601.36 225.23 597.76C226.97 600.8 228.29 605.61 229.2 609.3C230.97 616.52 232 623.92 230.63 631.29C230.02 634.57 229.21 637.72 228.05 640.83C227.28 642.88 226.11 645.2 225.33 646.65C224.94 647.38 224.66 647.88 224.57 648.05C229.42 653.71 234.13 659.34 238.31 664.55C238.47 664.24 238.63 663.93 238.78 663.61C239.3 662.54 239.78 661.45 240.2 660.36C242.55 654.17 244.2 646.07 244.13 639.46C244.05 631.14 241.83 620.86 241.34 617.26C243.08 620.3 244.41 625.11 245.32 628.81C247.09 636.02 248.12 643.42 246.74 650.79C246.13 654.07 245.32 657.22 244.17 660.33C243.4 662.38 242.23 664.7 241.44 666.16C241.07 666.86 240.79 667.37 240.69 667.55C240.95 667.88 241.21 668.21 241.47 668.54C242.33 667.96 243.2 667.37 244.07 666.75C249.98 662.51 255.74 657.31 259.92 652.17C267.32 643 274.17 629.78 276.87 625.41C276.04 630.3 273.15 636.74 270.81 641.6C266.24 651.08 260.7 660.08 252.55 666.89C251.08 668.13 249.58 669.31 248.07 670.43C246.99 671.22 245.89 671.98 244.77 672.72C245.08 673.11 245.4 673.5 245.71 673.89C245.96 674.21 246.22 674.54 246.47 674.87C247.56 676.24 248.66 677.65 249.76 679.1C253.86 684.48 258.08 690.38 262.16 696.65C262.71 696.72 263.27 696.78 263.83 696.84C269.74 697.41 276.07 697.17 281.39 695.94C290.85 693.72 302.11 688.05 306.1 686.46C303 689.65 297.78 692.71 293.75 694.91C285.89 699.19 277.67 702.48 269.01 702.42C267.91 702.42 266.83 702.37 265.75 702.31C268.49 706.77 271.14 711.36 273.59 716.07C273.59 716.08 273.59 716.08 273.59 716.08C272.87 717.23 270.74 720.42 267.42 724.77C266.69 722.97 265.9 721.1 265.06 719.17C263.2 721.99 260.63 725.68 258.09 728.65C253.61 733.89 248.7 738.54 243.36 742.95C231.37 752.88 216.9 758.48 202.01 762.54C194.38 764.63 184.31 767.06 177.03 766.97C184.06 764.24 204.97 757.89 220.16 749.64Z" />
							</g>
						</g>
					</g>
					<g id="&lt;Group&gt;">
						<g id="&lt;Group&gt;">
							<path id="&lt;Path&gt;" class="shp2" d="M840.87 593.77C843.28 591.15 845.87 588.33 848.62 585.35L878.88 603.93C871.7 592.27 865.34 582.08 859.8 573.34C864.77 568.05 870.09 562.42 875.71 556.58L902.18 580.08C897.14 566.28 892.56 554.09 888.44 543.52C909.05 522.56 932.51 499.96 956.11 480L975.32 514.81L969.71 468.79C971.48 467.37 973.24 465.99 975.01 464.62C978.31 481.51 982.69 503.56 982.84 504.25L982.26 459.08L982.27 459.07C984.66 457.29 987.04 455.55 989.4 453.85C990.51 471.5 992.12 496.24 992.27 495.06C992.41 493.9 994.9 467.6 996.66 448.79C1008.63 440.68 1020.19 433.97 1030.96 429.29C1028.77 438.4 1026.31 451.71 1028.65 458.68C1029.25 460.48 1031.78 460.5 1032.38 458.7L1043.66 424.63C1045.73 424.03 1047.77 423.51 1049.76 423.11C1055.06 422.02 1060.12 422.74 1064.48 424.73C1075.26 429.64 1081.75 442.34 1077.05 454.83C1071.02 470.85 1057.91 495.78 1030.3 533.78C1020.56 534.69 1008.17 536.1 993.13 538.01L1016.41 552.37C1007.23 564.35 996.79 577.45 984.91 591.75L982.4 594.92L936.82 580.15L965.83 615.79L928.49 662.82C919.51 674.13 904.27 678.51 890.69 673.53C882.71 670.6 873.18 665.79 862.53 657.96C864.56 655.41 866.63 652.83 868.75 650.22C869.11 649.78 869.47 649.34 869.83 648.9C871.32 647.06 872.84 645.22 874.38 643.36C874.47 643.25 874.56 643.15 874.66 643.04C875.42 642.11 876.2 641.18 876.98 640.24C877.04 640.16 877.11 640.08 877.18 640.01C877.99 639.04 878.8 638.07 879.62 637.1C880.94 635.53 882.27 633.96 883.61 632.39C884.68 631.13 885.75 629.87 886.83 628.61L887.14 628.26C888 627.25 888.87 626.25 889.74 625.25L889.78 625.2C890.77 624.04 891.78 622.9 892.79 621.74C893.46 620.96 894.14 620.19 894.82 619.41C895.94 618.12 897.08 616.83 898.22 615.53C898.82 614.86 899.41 614.19 900.01 613.51C900.87 612.54 901.73 611.57 902.59 610.6C904.01 609.02 905.43 607.42 906.86 605.83C909.16 603.26 911.47 600.69 913.8 598.13C913.9 598.02 914 597.91 914.11 597.79C914.86 596.95 915.62 596.12 916.39 595.28C917.28 594.3 918.17 593.32 919.06 592.34C920.9 590.34 922.74 588.34 924.58 586.34C925.95 584.86 927.32 583.38 928.69 581.9C930.16 580.32 931.64 578.72 933.12 577.15C934.59 575.56 936.07 573.98 937.55 572.4C939.08 570.78 940.6 569.17 942.12 567.56C942.12 567.56 942.12 567.55 942.12 567.55L942.13 567.55C943.9 565.66 945.68 563.78 947.46 561.92C949.94 559.3 952.42 556.7 954.89 554.12L954.93 554.07C955.3 553.68 955.67 553.3 956.05 552.92C957.34 551.56 958.63 550.21 959.92 548.88C959.93 548.87 959.93 548.87 959.93 548.87C960.38 548.4 960.84 547.93 961.29 547.46C962.61 546.08 963.93 544.72 965.25 543.36L965.28 543.33C966.35 542.21 967.43 541.11 968.49 540.01C968.98 539.51 969.47 539.01 969.95 538.51C971.08 537.35 972.2 536.2 973.32 535.06C974.53 533.81 975.74 532.58 976.94 531.35C978.11 530.15 979.27 528.97 980.43 527.79C981.58 526.61 982.74 525.44 983.88 524.27C985.61 522.52 987.32 520.79 989.01 519.08L989.01 519.07C990.26 517.81 991.5 516.56 992.74 515.32C996.69 511.34 1000.54 507.48 1004.29 503.74C1005.7 502.33 1007.09 500.95 1008.46 499.58C1010.55 497.5 1012.6 495.47 1014.61 493.48C1016.31 491.79 1018 490.12 1019.65 488.5C1020.85 487.31 1022.04 486.14 1023.21 484.99C1024.83 483.4 1026.41 481.85 1027.96 480.33C1029.05 479.26 1030.12 478.21 1031.17 477.19C1031.66 476.71 1032.15 476.23 1032.63 475.76C1033.18 475.23 1033.73 474.69 1034.27 474.17C1034.35 474.08 1034.45 473.99 1034.53 473.91C1035.43 473.04 1036.3 472.19 1037.16 471.35C1039.45 469.12 1041.62 467.02 1043.66 465.04C1044.85 463.89 1045.99 462.79 1047.09 461.73C1047.76 461.08 1048.42 460.45 1049.05 459.84C1049.95 458.97 1050.82 458.14 1051.65 457.34C1051.95 457.05 1052.24 456.77 1052.53 456.5C1054.3 454.79 1055.88 453.28 1057.26 451.97C1057.35 451.88 1057.45 451.78 1057.55 451.69C1057.66 451.59 1057.77 451.48 1057.88 451.37C1058.04 451.22 1058.19 451.08 1058.34 450.94C1059.94 449.1 1061.29 447.36 1062.42 445.69C1062.04 445.75 1061.61 445.87 1061.12 446.07C1061 446.12 1060.87 446.17 1060.74 446.23C1060.09 446.52 1059.36 446.91 1058.55 447.4C1058.45 447.46 1058.35 447.52 1058.24 447.59C1058.14 447.65 1058.03 447.72 1057.93 447.79C1057.24 448.22 1056.49 448.73 1055.7 449.3C1055.56 449.4 1055.41 449.5 1055.27 449.61C1055.1 449.73 1054.93 449.85 1054.76 449.98C1054.52 450.16 1054.27 450.35 1054.02 450.54C1053.68 450.8 1053.32 451.06 1052.96 451.35C1052.2 451.94 1051.41 452.57 1050.58 453.25C1048.64 454.84 1046.51 456.65 1044.22 458.67C1043.8 459.03 1043.39 459.4 1042.97 459.78C1042.47 460.23 1041.96 460.68 1041.44 461.15C1041.44 461.16 1041.44 461.16 1041.43 461.16C1041.01 461.55 1040.57 461.94 1040.13 462.34C1039.55 462.87 1038.97 463.4 1038.38 463.95C1033.54 468.46 1032.32 469.61 1031.08 470.8C1029.36 472.43 1027.61 474.12 1025.8 475.87C1024.7 476.95 1023.58 478.04 1022.45 479.16C1021.95 479.64 1021.46 480.13 1020.96 480.61C1019.13 482.43 1017.25 484.29 1015.34 486.2L1015.33 486.2C1013.11 488.41 1010.84 490.7 1008.52 493.04C1007.44 494.14 1006.34 495.25 1005.23 496.37L1003.29 498.36C1002.64 499.02 1001.98 499.69 1001.32 500.36L1001.32 500.37C1001.31 500.37 1001.31 500.37 1001.31 500.37C1000.9 500.8 1000.48 501.22 1000.06 501.65L1000.05 501.67C997.62 504.16 995.14 506.7 992.64 509.29C991.44 510.52 990.24 511.77 989.03 513.03C988.97 513.09 988.92 513.14 988.86 513.2C987.61 514.5 986.35 515.81 985.09 517.12C984.43 517.81 983.77 518.49 983.11 519.19C981.82 520.53 980.52 521.89 979.23 523.25C975.97 526.66 972.69 530.12 969.38 533.61C968.39 534.66 967.4 535.71 966.41 536.76C965.4 537.83 964.38 538.91 963.37 539.98L960.32 543.22C960.1 543.46 959.87 543.7 959.64 543.94C959.61 543.97 959.58 544 959.56 544.03C958.64 545.01 957.73 545.98 956.82 546.96C952.96 551.06 949.1 555.2 945.24 559.34C944.34 560.31 943.43 561.28 942.52 562.26C942.14 562.67 941.76 563.08 941.38 563.49C940.37 564.58 939.35 565.67 938.34 566.76C938.22 566.9 938.1 567.03 937.97 567.16C936.59 568.64 935.22 570.13 933.85 571.61C930.72 574.99 927.61 578.36 924.52 581.7L924.5 581.72C923.54 582.77 922.58 583.8 921.62 584.84L921.57 584.9C920.22 586.37 918.88 587.83 917.54 589.29L910.48 596.97C910.16 597.33 909.83 597.68 909.51 598.03L909.45 598.1C908.56 599.07 907.68 600.03 906.81 600.98C905.85 602.03 904.9 603.07 903.95 604.11C903.08 605.06 902.22 606.01 901.35 606.95C901.35 606.95 901.34 606.95 901.34 606.95L901.34 606.96C901.2 607.11 901.06 607.27 900.92 607.43C900.22 608.18 899.53 608.94 898.85 609.7C898.85 609.7 898.85 609.7 898.84 609.7C898.83 609.71 898.83 609.71 898.82 609.72C898.6 609.97 898.37 610.22 898.14 610.48L898.14 610.48C898.13 610.48 898.13 610.48 898.13 610.48L898.13 610.49C896.5 612.26 894.9 614.02 893.32 615.76C892.41 616.75 891.52 617.74 890.63 618.72C889.8 619.63 888.98 620.52 888.16 621.43C887.38 622.29 886.6 623.15 885.83 624C885.79 624.03 885.77 624.06 885.73 624.1L885.73 624.1C885.2 624.69 884.68 625.26 884.15 625.84C881.84 628.4 879.57 630.9 877.35 633.34C876.5 634.28 875.66 635.21 874.83 636.14L874.22 636.81L874.14 636.89C873.31 637.82 872.48 638.73 871.66 639.63L868.96 642.62C868.26 643.4 867.56 644.17 866.87 644.94L866.22 645.65C865.49 646.46 864.77 647.26 864.05 648.06C862.85 649.39 861.67 650.71 860.51 651.99C859.97 652.59 859.44 653.17 858.92 653.76C858.66 654.04 858.4 654.33 858.14 654.62C852.89 650.48 847.4 645.61 841.71 639.89C829.12 627.25 828.81 606.92 840.87 593.77Z" />
							<path id="&lt;Path&gt;" class="shp3" d="M917.59 648.73C909.98 648.68 884.5 643.11 876.98 640.24C877.04 640.16 877.11 640.08 877.18 640.01C877.99 639.04 878.8 638.07 879.62 637.1C880.94 635.53 882.27 633.96 883.61 632.39C884.68 631.13 885.75 629.88 886.83 628.61C886.93 628.49 887.04 628.37 887.14 628.25L887.14 628.26C897.69 631.38 908.56 632.8 919.55 633.18C921.88 633.26 921.61 629.65 919.3 629.57C909.29 629.23 899.39 627.91 889.74 625.25L889.78 625.2C890.77 624.04 891.78 622.9 892.79 621.74C893.46 620.96 894.14 620.19 894.82 619.41C895.95 618.12 897.08 616.83 898.22 615.53C898.82 614.86 899.41 614.19 900.01 613.51C902.33 614.49 904.85 614.81 907.35 615.12C910.74 615.54 914.12 615.99 917.52 616.32C924.39 616.98 931.28 617.23 938.17 616.77C940.5 616.62 940.25 613.01 937.93 613.17C931.34 613.6 924.76 613.4 918.19 612.77C915.23 612.48 912.28 612.1 909.33 611.72C907.09 611.44 904.75 611.28 902.59 610.6C904 609.01 905.42 607.42 906.86 605.83C909.15 603.26 911.47 600.69 913.8 598.13C913.9 598.02 914 597.91 914.11 597.79C914.86 596.95 915.62 596.12 916.39 595.28C917.28 594.3 918.17 593.32 919.06 592.34C920.9 590.34 922.74 588.34 924.58 586.34C925.95 584.85 927.32 583.38 928.69 581.9C930.16 580.31 931.64 578.72 933.12 577.15C934.59 575.56 936.07 573.98 937.55 572.4C937.68 572.41 937.82 572.4 937.97 572.37C950.61 570.14 962.92 576.36 975.54 576.34C977.87 576.34 977.61 572.73 975.29 572.73C964.15 572.75 953.35 567.91 942.23 568.31C942.19 568.06 942.16 567.8 942.12 567.56C942.12 567.56 942.12 567.55 942.12 567.55L942.13 567.55C943.9 565.66 945.68 563.78 947.46 561.92C948.82 560.48 950.18 559.06 951.54 557.63C951.67 557.64 951.8 557.65 951.94 557.64C954.44 557.44 956.78 558.28 959.16 558.96C961.53 559.63 963.95 560.17 966.34 560.8C972.12 562.35 977.85 564.11 983.51 566.05C985.68 566.8 987.28 563.55 985.07 562.79C979.12 560.75 973.1 558.88 967.01 557.25C963.24 556.25 958.97 554.58 954.89 554.12L954.93 554.07C955.3 553.68 955.67 553.3 956.05 552.92C957.34 551.56 958.64 550.22 959.92 548.88C959.93 548.87 959.93 548.87 959.93 548.87C960.38 548.4 960.84 547.93 961.29 547.46C962.61 546.08 963.93 544.72 965.25 543.36L965.28 543.33C978.48 543.67 989.45 553.44 1002.5 554.93C1004.8 555.2 1005.5 551.64 1003.18 551.38C990.93 549.98 980.6 541.68 968.49 540.01C968.98 539.51 969.47 539.01 969.95 538.51C971.08 537.35 972.2 536.2 973.32 535.06C974.53 533.81 975.74 532.58 976.94 531.35C978.11 530.15 979.27 528.96 980.43 527.79C981.58 526.61 982.73 525.44 983.88 524.27C985.61 522.52 987.32 520.79 989.01 519.08L989.01 519.07C995.42 519.35 1001.83 516.99 1007.97 515.51C1015.66 513.65 1023.24 511.47 1030.91 509.56C1033.18 508.99 1032 505.57 1029.76 506.13C1022.36 507.97 1015.09 510.16 1007.65 511.88C1002.77 513.01 997.79 514.77 992.74 515.32C996.69 511.34 1000.54 507.48 1004.29 503.74C1014.32 502.78 1024 499.78 1033.95 498.3C1036.24 497.97 1036.01 494.36 1033.7 494.7C1025.22 495.96 1016.93 498.32 1008.46 499.58C1010.55 497.5 1012.6 495.47 1014.61 493.48C1016.32 491.78 1018 490.13 1019.65 488.5C1020.85 487.31 1022.04 486.14 1023.21 484.99C1032.66 482.95 1042.19 481.35 1051.6 479.1C1053.86 478.56 1052.69 475.13 1050.44 475.67C1043 477.46 1035.46 478.83 1027.96 480.33C1029.05 479.27 1030.12 478.22 1031.17 477.19C1031.66 476.71 1032.15 476.23 1032.63 475.76C1033.18 475.23 1033.73 474.69 1034.27 474.17C1034.35 474.08 1034.45 473.99 1034.53 473.91C1035.43 473.04 1036.3 472.19 1037.16 471.35C1039.45 469.12 1041.62 467.02 1043.66 465.04C1046.34 465.38 1049.14 465.49 1051.9 465.33C1054.66 465.17 1057.4 464.74 1059.96 464.01C1062.2 463.36 1061.03 459.94 1058.8 460.58C1055.15 461.63 1051.05 461.95 1047.09 461.73C1047.76 461.08 1048.42 460.45 1049.05 459.84C1049.95 458.97 1050.82 458.14 1051.65 457.34C1051.95 457.05 1052.24 456.77 1052.53 456.5C1054.31 454.8 1055.88 453.29 1057.26 451.97C1057.35 451.88 1057.45 451.78 1057.55 451.69C1057.66 451.58 1057.77 451.48 1057.88 451.37C1058.12 451.14 1058.36 450.91 1058.59 450.69C1058.71 450.59 1058.81 450.49 1058.92 450.39C1059.35 449.97 1059.76 449.59 1060.13 449.23C1060.24 449.12 1060.36 449.01 1060.47 448.91C1060.73 448.66 1060.98 448.42 1061.21 448.2C1061.32 448.09 1061.43 448 1061.53 447.9C1061.62 447.82 1061.7 447.74 1061.78 447.67C1061.88 447.57 1061.98 447.47 1062.08 447.38C1062.78 446.72 1063.31 446.22 1063.68 445.87C1063.64 445.85 1063.61 445.83 1063.57 445.81C1063.53 445.78 1063.5 445.77 1063.46 445.76C1063.38 445.72 1063.29 445.7 1063.2 445.69C1063.16 445.68 1063.11 445.67 1063.06 445.67C1063.01 445.66 1062.97 445.66 1062.91 445.66C1062.86 445.66 1062.81 445.66 1062.76 445.66C1062.31 445.68 1061.76 445.81 1061.12 446.07C1060.99 446.12 1060.87 446.17 1060.74 446.23C1060.09 446.52 1059.36 446.91 1058.55 447.4C1058.45 447.46 1058.35 447.52 1058.24 447.59C1058.14 447.65 1058.03 447.72 1057.93 447.79C1057.24 448.22 1056.49 448.73 1055.7 449.3C1055.56 449.4 1055.41 449.5 1055.27 449.61C1055.1 449.73 1054.93 449.85 1054.76 449.98C1054.52 450.16 1054.27 450.35 1054.02 450.54C1053.68 450.8 1053.32 451.06 1052.96 451.35C1052.2 451.94 1051.41 452.58 1050.58 453.25C1048.64 454.84 1046.51 456.65 1044.22 458.67C1043.8 459.03 1043.39 459.4 1042.97 459.78C1042.47 460.23 1041.96 460.68 1041.44 461.15C1041.44 461.16 1041.44 461.16 1041.43 461.16C1040.78 461.29 1040.33 461.77 1040.13 462.34C1039.55 462.87 1038.97 463.4 1038.38 463.95C1033.54 468.46 1032.32 469.61 1031.08 470.8C1029.36 472.43 1027.61 474.12 1025.8 475.87C1024.7 476.95 1023.58 478.04 1022.45 479.16C1021.95 479.64 1021.46 480.13 1020.96 480.61C1021 479.26 1020.89 477.88 1020.75 476.53C1020.6 475.17 1020.42 473.85 1020.31 472.63C1019.62 465.29 1017.99 457.81 1019.03 450.43C1019.36 448.14 1015.81 447.44 1015.49 449.76C1014.57 456.2 1015.57 462.59 1016.32 469C1016.61 471.55 1016.86 474.11 1017.11 476.67C1017.36 479.37 1017.86 482.94 1015.82 485.07C1015.48 485.43 1015.34 485.82 1015.34 486.2L1015.33 486.2C1013.11 488.41 1010.84 490.7 1008.52 493.04C1007.39 481.26 1007.57 469.41 1007.63 457.59C1007.64 455.26 1004.04 455.52 1004.02 457.84C1003.96 470.69 1003.73 483.58 1005.23 496.37L1003.29 498.36C1002.64 499.02 1001.98 499.69 1001.32 500.36L1001.32 500.37C1001.31 500.37 1001.31 500.37 1001.31 500.37C1000.6 500.53 1000.19 501.05 1000.06 501.65L1000.05 501.67C997.62 504.16 995.14 506.7 992.64 509.29C991.44 510.52 990.24 511.77 989.03 513.03C988.97 513.09 988.92 513.14 988.86 513.2C987.61 514.5 986.35 515.81 985.09 517.12C984.43 517.81 983.77 518.49 983.11 519.19C981.82 520.54 980.52 521.89 979.23 523.25C975.97 526.66 972.69 530.12 969.38 533.61C967.24 524.36 964.35 515.36 959.82 506.95C958.72 504.9 955.71 506.92 956.81 508.95C961.49 517.66 964.29 527.14 966.41 536.76C965.39 537.83 964.38 538.91 963.37 539.98L960.32 543.22C960.1 543.46 959.87 543.7 959.64 543.94C956.55 535.77 945.64 512.89 944.91 510.18C944.3 507.93 940.87 509.1 941.48 511.34C942.23 514.12 955.23 541.93 955.82 543.48C956.01 543.95 956.49 545.09 956.74 545.68C956.61 546.08 956.65 546.54 956.82 546.96C952.96 551.06 949.1 555.2 945.24 559.34C944.33 560.31 943.43 561.28 942.52 562.26C942.14 562.67 941.76 563.08 941.38 563.49C938.68 550.09 933.62 537.26 931.32 523.76C930.93 521.48 927.32 521.71 927.71 524.01C930.18 538.51 935.85 552.27 938.34 566.76C938.22 566.9 938.1 567.03 937.97 567.16C936.59 568.64 935.22 570.13 933.85 571.61C930.72 574.99 927.61 578.36 924.52 581.7L924.5 581.72C921.73 572.13 913.75 548.87 910.51 543.37C909.32 541.36 906.31 543.37 907.5 545.36C911.01 551.31 919.65 577.32 921.62 584.84L921.57 584.9C920.22 586.37 918.88 587.83 917.54 589.29L910.48 596.97C909.25 598.32 908.03 599.65 906.81 600.98C905.85 602.03 904.9 603.07 903.95 604.11C900.53 597.47 890.33 580.95 886.88 576.59C885.45 574.77 882.43 576.76 883.86 578.59C887.41 583.07 899.09 601.86 901.29 606.85C901.31 606.89 901.33 606.92 901.35 606.95C901.35 606.95 901.34 606.95 901.34 606.95L901.34 606.96C901.2 607.11 901.06 607.27 900.92 607.43C900.22 608.19 899.53 608.94 898.85 609.7C898.85 609.7 898.85 609.7 898.84 609.71C898.84 609.71 898.84 609.71 898.84 609.71C898.83 609.72 898.83 609.72 898.82 609.72C898.54 609.89 898.29 610.16 898.14 610.48L898.14 610.48C898.13 610.48 898.13 610.48 898.13 610.48L898.13 610.49C896.5 612.26 894.9 614.02 893.32 615.76C890.76 609.59 877.54 584.19 877.21 581.57C876.92 579.26 873.31 579.5 873.61 581.81C873.9 584.17 887.69 611.59 890.63 618.72C889.8 619.63 888.98 620.52 888.16 621.43C887.38 622.29 886.6 623.14 885.83 624C885.79 624.03 885.77 624.06 885.73 624.1L885.73 624.1C885.2 624.69 884.68 625.26 884.15 625.84C881.84 628.4 879.57 630.9 877.35 633.34C870.79 622.65 863.48 612.44 857.01 601.71C855.8 599.71 852.79 601.72 853.99 603.7C860.63 614.71 868.14 625.16 874.83 636.14L874.22 636.81L874.14 636.89C868.72 630.84 852.23 613.99 847.6 609.94C845.85 608.4 843.47 611.13 845.22 612.66C849.79 616.66 867.01 634.11 871.71 639.53C871.69 639.57 871.67 639.6 871.66 639.63L868.96 642.62C868.26 643.4 867.56 644.17 866.87 644.94L866.22 645.65C865.69 646.24 865.15 646.83 864.63 647.41C864.44 647.63 864.24 647.84 864.05 648.06C862.85 649.39 861.67 650.71 860.51 651.99C859.97 652.59 859.44 653.17 858.92 653.76C858.66 654.04 858.4 654.33 858.14 654.62C859.62 655.8 861.09 656.91 862.53 657.96C864.56 655.41 866.63 652.83 868.75 650.22C869.11 649.78 869.46 649.34 869.83 648.9C871.32 647.06 872.84 645.22 874.38 643.36C874.47 643.25 874.56 643.14 874.65 643.03L874.66 643.04C883.68 647.46 909.57 652.28 917.84 652.33C920.17 652.35 919.91 648.74 917.59 648.73Z" />
							<path id="&lt;Path&gt;" class="shp4" d="M909.51 598.03C926.26 579.25 942.95 561.2 959.56 544.03C958.64 545.01 957.73 545.98 956.82 546.96C952.96 551.06 949.1 555.2 945.24 559.34C944.34 560.31 943.43 561.28 942.52 562.26C942.14 562.67 941.76 563.08 941.38 563.49C940.37 564.58 939.35 565.67 938.34 566.76C938.22 566.9 938.1 567.03 937.97 567.16C936.59 568.64 935.22 570.13 933.85 571.61C930.72 574.99 927.61 578.36 924.52 581.7L924.5 581.72C923.54 582.77 922.58 583.8 921.62 584.84L921.57 584.9C920.22 586.37 918.88 587.83 917.54 589.29L910.48 596.97C910.16 597.33 909.83 597.68 909.51 598.03Z" />
						</g>
						<g id="&lt;Group&gt;">
							<path id="&lt;Path&gt;" class="shp5" d="M931.4 679.17C938.71 677.59 944.19 670.98 943.94 663.13C943.75 656.98 940.02 651.48 934.37 649.01C920.81 643.1 895.31 631.92 878.65 624.18C880.84 604.24 891.09 585.13 912.56 571.66C918.23 568.11 924.23 564.93 930.47 562.1C939.94 588.27 956.96 600.22 967.18 605.24C970.06 606.66 973.28 607.01 976.3 606.35C978.24 605.93 980.12 605.1 981.77 603.87C987.59 599.55 989.12 591.51 985.35 585.31C976.51 570.85 972.29 558.18 970.33 548.69C987.29 544.6 1004.63 542.14 1020.96 540.75C1020.46 553.2 1020.84 566.21 1022.86 575.95C1024.55 584.05 1033.34 588.48 1040.97 585.28C1043.07 584.41 1044.88 583.01 1046.27 581.28C1047.63 579.54 1048.55 577.47 1048.93 575.2C1050.22 567.03 1052.99 553 1058.19 539.04C1075.17 538.92 1088.95 539.69 1096.99 540.29C1100.29 540.54 1102.87 540.76 1104.72 540.97L1103.48 596.77C1092.68 601.57 1076.56 608.79 1062.63 615.03C1050.3 620.57 1052.79 638.66 1066.17 640.81C1075.64 642.34 1087.57 642.9 1102.49 641.47L1101.65 679.49C1084.96 690.99 1050.39 698.3 1030.32 692.42C1017.33 688.63 1017.98 712.19 1037.75 718.96C1047.22 722.23 1079.5 731.02 1099.75 721.88C1095.55 744.54 1080.74 764.31 1059.18 773.63C1008.91 795.35 964.68 746.01 948.58 724.77C952.2 715.82 957.2 705.23 964.14 692.97C971.47 680 980.95 665.18 993.23 648.45C995.24 645.73 962.5 677.51 942.41 716.07C942.28 715.89 942.18 715.75 942.11 715.64C921.12 713.39 902.08 697.84 890.37 677.17L926.96 679.49C928.5 679.58 930 679.48 931.4 679.17Z" />
							<g id="&lt;Group&gt;">
								<path id="&lt;Path&gt;" class="shp6" d="M995.84 749.64C983.77 743.09 970.72 731.95 961.87 721.44C959.22 718.29 956.87 714.82 954.52 711.37C956.58 707.06 958.91 702.48 961.56 697.61C963.09 700.05 966.85 705.89 970.53 710.2C975.01 715.44 979.92 720.09 985.26 724.5C997.25 734.43 1011.72 740.03 1026.61 744.09C1034.24 746.18 1044.31 748.61 1051.59 748.52C1044.56 745.79 1023.65 739.44 1008.46 731.19C996.39 724.64 983.34 713.5 974.49 702.99C971.23 699.12 968.42 694.77 965.52 690.55C965.52 690.55 965.52 690.55 965.52 690.55C966.95 688.06 968.46 685.5 970.06 682.88C971.45 684.16 972.89 685.4 974.37 686.62C982.6 693.33 992.48 697.08 1002.65 699.78C1007.87 701.16 1014.74 702.79 1019.7 702.68C1014.89 700.86 1000.62 696.62 990.22 691.08C984.38 687.94 978.2 683.26 972.92 678.26C973.34 677.58 973.77 676.9 974.2 676.22C976.43 676.92 979.97 677.93 983.03 678.45C987.66 679.23 992.26 679.51 996.98 679.49C1007.59 679.43 1017.6 676.02 1027.17 671.64C1032.06 669.39 1038.4 666.26 1042.16 663.03C1037.29 664.67 1023.59 670.49 1012.04 672.83C1002.86 674.69 991.16 674.56 981.93 672.95C980.29 672.66 978.66 672.26 977.02 671.83C978.93 669.43 982.6 664.81 987.17 659.06C987.19 659.07 987.2 659.08 987.21 659.09C987.62 659.17 988.15 659.26 988.79 659.37C990.34 659.64 992.8 660 994.9 660.08C998.07 660.19 1001.17 659.97 1004.33 659.53C1011.43 658.55 1017.83 655.37 1023.84 651.59C1026.92 649.64 1030.88 646.98 1033.11 644.48C1030 646.02 1021.34 651.14 1013.82 653.73C1007.84 655.79 1000 656.75 993.67 656.49C992.55 656.44 991.42 656.33 990.29 656.18C990.04 656.15 989.79 656.11 989.55 656.08C994.87 649.38 1001.1 641.56 1007.1 634.02C1007.28 634.15 1007.46 634.27 1007.63 634.38C1008.04 634.46 1008.56 634.56 1009.2 634.66C1010.76 634.93 1013.22 635.29 1015.31 635.37C1018.48 635.48 1021.59 635.26 1024.74 634.82C1031.84 633.84 1038.24 630.67 1044.26 626.88C1047.34 624.93 1051.3 622.28 1053.53 619.78C1050.41 621.31 1041.76 626.43 1034.23 629.02C1028.26 631.08 1020.41 632.04 1014.09 631.78C1012.96 631.74 1011.84 631.62 1010.7 631.47C1010.23 631.41 1009.76 631.34 1009.29 631.27C1017.07 621.5 1024.36 612.34 1031.17 603.79C1021.61 614 1011.62 625.01 1001.21 636.82C1001.2 636.75 1001.19 636.68 1001.19 636.6C1001.12 635.72 1001.07 634.84 1001.08 633.96C1001.11 629.04 1002.16 622.98 1003.99 618.41C1006.29 612.66 1010.59 606.13 1011.9 603.76C1009.88 605.4 1007.66 608.38 1006.03 610.7C1002.86 615.23 1000.15 620.08 999.12 625.56C998.66 628 998.37 630.4 998.34 632.87C998.32 634.51 998.5 636.43 998.65 637.65C998.71 638.15 998.77 638.56 998.81 638.88C998.89 639.01 998.97 639.14 999.05 639.27C997.33 641.24 995.61 643.22 993.89 645.21C993.7 644.84 993.51 644.48 993.34 644.11C992.82 643.03 992.33 641.95 991.91 640.86C989.56 634.67 987.92 626.57 987.99 619.96C988.07 611.64 990.28 601.36 990.77 597.76C989.03 600.8 987.71 605.61 986.8 609.3C985.03 616.52 984 623.92 985.37 631.29C985.98 634.57 986.79 637.72 987.95 640.83C988.72 642.88 989.89 645.2 990.67 646.65C991.06 647.38 991.34 647.88 991.43 648.05C986.58 653.71 981.87 659.34 977.69 664.55C977.53 664.24 977.37 663.93 977.22 663.61C976.7 662.54 976.22 661.45 975.8 660.36C973.45 654.17 971.8 646.07 971.87 639.46C971.95 631.14 974.17 620.86 974.66 617.26C972.92 620.3 971.59 625.11 970.68 628.81C968.91 636.02 967.88 643.42 969.26 650.79C969.87 654.07 970.68 657.22 971.83 660.33C972.6 662.38 973.77 664.7 974.56 666.16C974.93 666.86 975.21 667.37 975.31 667.55C975.05 667.88 974.79 668.21 974.53 668.54C973.67 667.96 972.8 667.37 971.93 666.75C966.02 662.51 960.26 657.31 956.08 652.17C948.68 643 941.83 629.78 939.13 625.41C939.96 630.3 942.85 636.74 945.19 641.6C949.76 651.08 955.3 660.08 963.45 666.89C964.92 668.13 966.42 669.31 967.93 670.43C969.01 671.22 970.11 671.98 971.23 672.72C970.92 673.11 970.6 673.5 970.29 673.89C970.04 674.21 969.78 674.54 969.53 674.87C968.44 676.24 967.34 677.65 966.24 679.1C962.14 684.48 957.92 690.38 953.84 696.65C953.29 696.72 952.73 696.78 952.17 696.84C946.26 697.41 939.93 697.17 934.61 695.94C925.15 693.72 913.89 688.05 909.9 686.46C913 689.65 918.22 692.71 922.25 694.91C930.11 699.19 938.33 702.48 946.99 702.42C948.09 702.42 949.17 702.37 950.25 702.31C947.51 706.77 944.86 711.36 942.41 716.07C942.41 716.08 942.41 716.08 942.41 716.08C943.13 717.23 945.26 720.42 948.58 724.77C949.31 722.97 950.1 721.1 950.94 719.17C952.8 721.99 955.37 725.68 957.91 728.65C962.39 733.89 967.3 738.54 972.64 742.95C984.63 752.88 999.1 758.48 1013.99 762.54C1021.62 764.63 1031.69 767.06 1038.97 766.97C1031.94 764.24 1011.03 757.89 995.84 749.64Z" />
							</g>
						</g>
					</g>
				</g>
				<g id="&lt;Group&gt;">
					<g id="&lt;Group&gt;">
						<path id="&lt;Compound Path&gt;" fill-rule="evenodd" class="shp7" d="M388.7 491.33L240.39 491.33L240.39 456.09L378.04 258.63L434.58 258.63L434.58 450.77L472.68 450.77L472.68 491.33L434.58 491.33L434.58 553.6L388.7 553.6L388.7 491.33ZM390.75 450.77L390.75 306.15L294.07 450.77L390.75 450.77Z" />
						<path id="&lt;Compound Path&gt;" fill-rule="evenodd" class="shp5" d="M619.49 157.71C703.07 157.71 726.01 223.26 726.01 308.47C726.01 395.32 703.07 460.88 619.49 460.88C535.92 460.88 512.98 395.32 512.98 308.47C512.98 223.26 535.92 157.71 619.49 157.71ZM619.49 200.32C565.01 200.32 558.86 252.76 558.86 308.47C558.86 367.05 565.01 418.27 619.49 418.27C673.98 418.27 680.13 367.05 680.13 308.47C680.13 252.76 673.98 200.32 619.49 200.32Z" />
						<path id="&lt;Compound Path&gt;" fill-rule="evenodd" class="shp7" d="M868.17 493.25L719.86 493.25L719.86 458.01L857.52 260.55L914.06 260.55L914.06 452.69L952.16 452.69L952.16 493.25L914.06 493.25L914.06 555.52L868.17 555.52L868.17 493.25ZM870.22 452.69L870.22 308.07L773.54 452.69L870.22 452.69Z" />
					</g>
					<g id="&lt;Group&gt;">
						<g id="&lt;Group&gt;">
							<path id="&lt;Path&gt;" class="shp8" d="M388.39 748.26L255.5 748.26L255.5 600.82L388.39 600.82L388.39 748.26Z" />
							<path id="&lt;Path&gt;" class="shp7" d="M388.39 737.28L255.5 737.28L255.5 600.82L388.39 600.82L388.39 737.28Z" />
							<g id="&lt;Group&gt;">
								<text id="3
" style="transform: matrix(2,0,0,2,968.567,620.22)" >
									<tspan x="0" y="0" class="txt9">3</tspan>
								</text>
							</g>
							<g id="&lt;Group&gt;">
								<path id="&lt;Compound Path&gt;" fill-rule="evenodd" class="shp10" d="M323.7 722.36C295.54 722.36 272.7 701.24 272.7 671.22C272.7 641.34 295.54 620.22 323.7 620.22C352.14 620.22 374.7 641.34 374.7 671.22C374.7 701.24 352.14 722.36 323.7 722.36ZM323.7 708.14C343.52 708.14 357.89 693.77 357.89 671.22C357.89 648.66 343.52 634.59 323.7 634.59C303.87 634.59 289.51 648.66 289.51 671.22C289.51 693.77 303.87 708.14 323.7 708.14Z" />
							</g>
						</g>
						<g id="&lt;Group&gt;">
							<path id="&lt;Path&gt;" class="shp11" d="M985.68 760.87L229.04 760.87C225.56 760.87 222.73 758.04 222.73 754.56C222.73 751.08 225.56 748.26 229.04 748.26L985.68 748.26C989.16 748.26 991.99 751.08 991.99 754.56C991.99 758.04 989.16 760.87 985.68 760.87Z" />
						</g>
						<g id="&lt;Group&gt;">
							<path id="&lt;Path&gt;" class="shp6" d="M568.23 748.26L435.34 748.26L435.34 600.82L568.23 600.82L568.23 748.26Z" />
							<path id="&lt;Path&gt;" class="shp5" d="M568.23 737.28L435.34 737.28L435.34 600.82L568.23 600.82L568.23 737.28Z" />
							<g id="&lt;Group&gt;">
								<text id="1
" style="transform: matrix(2,0,0,2,675.338,324.68)" >
									<tspan x="0" y="0" class="txt9">1</tspan>
								</text>
							</g>
							<path id="&lt;Compound Path&gt;" fill-rule="evenodd" class="shp10" d="M501.79 722.36C473.63 722.36 450.79 701.24 450.79 671.22C450.79 641.34 473.63 620.22 501.79 620.22C530.23 620.22 552.79 641.34 552.79 671.22C552.79 701.24 530.23 722.36 501.79 722.36ZM501.79 708.14C521.61 708.14 535.98 693.77 535.98 671.22C535.98 648.66 521.61 634.59 501.79 634.59C481.96 634.59 467.6 648.66 467.6 671.22C467.6 693.77 481.96 708.14 501.79 708.14Z" />
						</g>
						<g id="&lt;Group&gt;">
							<path id="&lt;Path&gt;" class="shp8" d="M980.27 748.26L847.38 748.26L847.38 600.82L980.27 600.82L980.27 748.26Z" />
							<path id="&lt;Path&gt;" class="shp7" d="M980.27 737.28L847.38 737.28L847.38 600.82L980.27 600.82L980.27 737.28Z" />
							<g id="&lt;Group&gt;">
								<text id="1
" style="transform: matrix(2,0,0,2,559.137,620.221)" >
									<tspan x="0" y="0" class="txt9">1</tspan>
								</text>
							</g>
							<path id="&lt;Compound Path&gt;" class="shp10" d="M914.26 720.12C894.29 720.12 878.91 709.2 878.91 691.53L896.44 691.53C897.16 699.72 902.91 706.33 914.26 706.33C925.75 706.33 932.21 700.15 932.21 691.67C932.21 667.54 879.2 683.2 879.2 646.42C879.2 628.89 893.14 617.98 913.54 617.98C932.64 617.98 946.15 628.03 947.58 645.13L929.48 645.13C928.91 638.38 923.02 632.2 912.68 631.91C903.19 631.62 895.87 636.22 895.87 645.85C895.87 668.4 948.73 654.32 948.73 690.81C948.73 705.75 936.52 720.12 914.26 720.12Z" />
						</g>
					</g>
					<g id="&lt;Group&gt;">
						<g id="&lt;Group&gt;">
							<path id="&lt;Path&gt;" class="shp11" d="M580.22 419.85L586.51 420.88L603.04 424.98L645.97 423.69L661.27 398.99L654.63 383.46L585.06 386.43C581.3 396.03 579.69 407.17 580.22 419.85Z" />
							<g id="&lt;Group&gt;">
								<path id="&lt;Path&gt;" class="shp11" d="M642.14 499.38L635.47 520.29L635.43 522.32L623.91 520.98L624.51 519.01L637.63 406.06C637.69 405.52 637.78 405.01 637.93 404.5C638.25 403.23 639 400.76 640.35 398.18C644.91 389.44 657.25 389.98 661.27 398.99C664.06 405.24 664.98 412.52 664.6 420.59L664.59 420.62C663.51 443.22 652.06 471.73 642.14 499.38Z" />
								<path id="&lt;Path&gt;" class="shp5" d="M633.26 554.29C631.21 556.9 628.16 557.94 625.32 557.61C621.96 557.22 618.88 554.98 617.81 551.25L616.9 548.06C616.42 546.41 616.45 544.64 616.96 542.98L623.91 520.98L635.43 522.32L635.13 548.93C635.11 550.88 634.45 552.78 633.26 554.29Z" />
							</g>
							<g id="&lt;Group&gt;">
								<path id="&lt;Path&gt;" class="shp11" d="M585.89 499.71L588.48 521.5L588.13 523.5L599.7 524.37L599.48 522.33L607.97 408.93C608.01 408.39 608.02 407.87 607.97 407.34C607.89 406.03 607.62 403.47 606.79 400.68C603.96 391.24 591.74 389.43 586.1 397.51C582.17 403.13 579.88 410.1 578.74 418.1L578.73 418.12C575.52 440.52 581.37 470.69 585.89 499.71Z" />
								<path id="&lt;Path&gt;" class="shp5" d="M584.22 555.32C585.73 558.27 588.54 559.86 591.39 560.08C594.75 560.33 598.2 558.71 599.97 555.25L601.46 552.29C602.24 550.76 602.55 549.02 602.36 547.29L599.7 524.37L588.13 523.5L583.39 549.7C583.05 551.61 583.33 553.6 584.22 555.32Z" />
							</g>
							<path id="&lt;Path&gt;" class="shp12" d="M646.49 346.82C643.28 358.95 649.78 373.55 655.29 384.84C634.51 399.62 611.1 400.15 585.06 386.43L588.28 377.92C592.12 368.68 593.26 358.54 591.51 348.69L584.97 311.89C583.45 303.3 588.54 294.92 596.85 292.28L605.71 289.49L608.48 288.62C611.77 287.59 615.21 287.06 618.66 287.07L622.27 287.08C627.67 287.09 632.99 288.4 637.78 290.9L646.14 295.27C653.34 299.02 656.97 307.26 654.88 315.1L646.49 346.82Z" />
							<path id="&lt;Path&gt;" class="shp13" d="M620.47 296.09C616.69 296.09 613.64 293.02 613.65 289.24L613.68 275.43C613.68 274.39 614.52 273.55 615.56 273.56L625.48 273.58C626.52 273.58 627.36 274.42 627.36 275.46L627.32 289.27C627.31 293.05 624.25 296.1 620.47 296.09Z" />
							<path id="&lt;Path&gt;" class="shp14" d="M598.39 257.52C599.26 257.45 600.25 257.77 601.22 258.35C602.51 252.5 605.61 246.28 609.42 242C611.02 239.88 612.85 238.5 614.85 237.67C615.92 237.15 617.02 236.79 618.11 236.7C618.86 236.64 619.6 236.61 620.33 236.63C621.06 236.62 621.8 236.65 622.55 236.71C623.64 236.81 624.74 237.17 625.81 237.69C627.8 238.53 629.63 239.92 631.22 242.05C635.01 246.35 638.07 252.58 639.34 258.44C640.31 257.86 641.3 257.55 642.17 257.62C645.09 257.88 646.03 262.5 645.22 266C644.19 270.44 640.83 271.82 637.72 272.7C636.3 275.63 634.27 278.5 631.94 280.9C629.5 283.76 626.36 285.88 622.78 286.74C622.67 286.77 622.57 286.79 622.46 286.82C622.25 286.86 622.05 286.93 621.84 286.96C621.7 286.99 621.55 286.99 621.41 287C621.29 287.02 621.17 287.03 621.05 287.04C620.77 287.06 620.49 287.08 620.21 287.08C619.93 287.08 619.66 287.06 619.38 287.03C619.26 287.02 619.14 287.01 619.02 287C618.88 286.98 618.73 286.98 618.59 286.96C618.38 286.92 618.18 286.85 617.97 286.81C617.86 286.78 617.76 286.76 617.65 286.73C614.07 285.85 610.94 283.72 608.51 280.85C606.19 278.44 604.19 275.56 602.77 272.62C599.66 271.73 596.32 270.33 595.31 265.89C594.52 262.38 595.48 257.77 598.39 257.52Z" />
							<g id="&lt;Group&gt;">
								<path id="&lt;Path&gt;" class="shp11" d="M609.41 260.73C609.63 260.74 609.86 260.63 609.97 260.42C611.74 257.07 614.82 258.45 614.95 258.51C615.25 258.65 615.6 258.52 615.74 258.22C615.88 257.92 615.75 257.57 615.45 257.43C613.99 256.75 610.75 256.39 608.92 259.86C608.76 260.15 608.87 260.51 609.17 260.66C609.24 260.71 609.33 260.73 609.41 260.73Z" />
							</g>
							<g id="&lt;Group&gt;">
								<path id="&lt;Path&gt;" class="shp11" d="M626.8 259.27C626.93 259.4 627.14 259.45 627.33 259.37C630.29 258.22 631.49 260.79 631.54 260.9C631.65 261.15 631.94 261.26 632.2 261.15C632.45 261.03 632.56 260.74 632.45 260.49C631.89 259.26 630.03 257.25 626.96 258.44C626.71 258.54 626.58 258.83 626.68 259.09C626.7 259.16 626.74 259.22 626.8 259.27Z" />
							</g>
							<g id="&lt;Group&gt;">
								<path id="&lt;Path&gt;" class="shp11" d="M619.56 276.93C619.5 276.71 619.31 276.54 619.07 276.51C615.33 276.03 615.54 272.67 615.55 272.53C615.58 272.2 615.33 271.92 615.01 271.89C614.68 271.87 614.39 272.11 614.37 272.44C614.25 274.04 615.05 277.19 618.92 277.69C619.25 277.73 619.54 277.51 619.59 277.18C619.6 277.09 619.59 277.01 619.56 276.93Z" />
							</g>
							<g id="&lt;Group&gt;">
								<path id="&lt;Path&gt;" class="shp11" d="M622.54 274C622.95 274 623.34 273.89 623.68 273.67C624.76 272.97 625.04 271.35 624.42 269.36L623.03 262.7C622.97 262.45 622.73 262.28 622.46 262.33C622.2 262.39 622.04 262.64 622.1 262.9L623.5 269.59C624.09 271.48 623.71 272.52 623.16 272.87C622.61 273.23 621.76 273.02 620.99 272.35C620.79 272.18 620.47 272.17 620.3 272.36C620.12 272.56 620.11 272.83 620.3 273.01C621.04 273.66 621.83 274 622.54 274Z" />
							</g>
							<path id="&lt;Path&gt;" class="shp11" d="M626.64 264.5C626.63 265.5 627.44 266.31 628.45 266.32C629.45 266.32 630.26 265.51 630.27 264.5C630.27 263.5 629.46 262.69 628.46 262.68C627.45 262.68 626.64 263.49 626.64 264.5Z" />
							<path id="&lt;Path&gt;" class="shp11" d="M611.97 264.46C611.97 265.47 612.78 266.28 613.78 266.28C614.79 266.29 615.6 265.47 615.6 264.47C615.6 263.47 614.79 262.65 613.79 262.65C612.79 262.65 611.97 263.46 611.97 264.46Z" />
							<g id="&lt;Group&gt;">
								<path id="&lt;Path&gt;" class="shp11" d="M640.92 243.81C636.31 227.14 609.8 222.19 599.8 241.5C592.71 255.19 602.94 272.3 604.99 272.55C606.32 267.35 606.63 261.77 606.85 256.3C609.62 255.58 612.34 254.63 615.05 253.71C617.06 253.03 619.08 252.37 621.09 251.71C621.93 251.62 622.75 251.35 623.47 250.93C623.71 250.85 623.95 250.77 624.19 250.69C623.77 251.27 623.33 252.03 622.89 252.66C622.16 253.71 620.97 254.56 620.38 255.66C621.14 255.14 622.21 254.87 623.07 254.49C624.79 253.73 626.36 252.71 628.08 251.95C628.55 251.74 629.02 251.55 629.49 251.35C630.21 252.18 630.86 252.9 631.24 253.26C633.84 255.73 635.66 255.68 635.83 259.56C636.03 264.43 637.3 269.24 637.03 274.03C638.8 270.59 641.12 260.14 641.48 257.05C641.82 254.12 641.72 246.68 640.92 243.81Z" />
							</g>
						</g>
						<path id="&lt;Path&gt;" class="shp12" d="M671.1 340.85L672.14 341.6L669.39 344.73C675.11 338.23 687.15 343.08 693.03 340.98C692.45 340.09 677.76 325.57 648.95 297.42C646.75 295.65 644.05 294.89 641.43 295.11C638.78 295.32 636.22 296.53 634.32 298.69C630.28 303.32 630.98 310.4 635.88 314.13L671.1 340.85Z" />
						<path id="&lt;Path&gt;" class="shp12" d="M578.43 345.79L577.65 346.8L581.17 349.02C573.84 344.41 563.41 343.08 557.17 342.74C557.62 341.2 558.33 339.69 559.33 338.29L587.35 297.85C588.95 295.53 591.33 294.04 593.9 293.5C596.5 292.96 599.3 293.39 601.74 294.92C606.93 298.22 608.26 305.2 604.62 310.17L578.43 345.79Z" />
						<g id="&lt;Group&gt;">
							<path id="&lt;Path&gt;" class="shp15" d="M684.14 452.59L551.25 452.59L551.25 305.15L684.14 305.15L684.14 452.59Z" />
							<path id="&lt;Path&gt;" class="shp2" d="M684.14 443.83L551.25 443.83L551.25 305.15L684.14 305.15L684.14 443.83Z" />
							<g id="&lt;Group&gt;">
								<text id="2
" style="transform: matrix(2,0,0,2,809.914,495.397)" >
									<tspan x="0" y="0" class="txt9">2</tspan>
								</text>
							</g>
							<path id="&lt;Compound Path&gt;" fill-rule="evenodd" class="shp10" d="M617.69 425.33C589.54 425.33 566.69 404.22 566.69 374.19C566.69 344.31 589.54 323.19 617.69 323.19C646.14 323.19 668.69 344.31 668.69 374.19C668.69 404.22 646.14 425.33 617.69 425.33ZM617.69 411.11C637.52 411.11 651.88 396.75 651.88 374.19C651.88 351.64 637.52 337.56 617.69 337.56C597.87 337.56 583.5 351.64 583.5 374.19C583.5 396.75 597.87 411.11 617.69 411.11Z" />
						</g>
						<path id="&lt;Path&gt;" class="shp14" d="M684.19 333.68C684.17 333.67 684.15 333.69 684.14 333.72L684.04 338.37L682.08 338.19C675.55 336.89 670.58 338.55 667.18 343.15C667.2 343.17 667.2 343.19 667.18 343.21C667.12 343.54 666.99 345.35 668.68 344.44C668.81 344.42 668.93 344.34 669.06 344.24C669.08 344.24 669.11 344.23 669.16 344.2C669.63 343.91 670.15 343.68 670.73 343.5C670.85 343.46 670.95 343.43 671.06 343.39C673.41 342.48 677.41 341.29 681.21 341.8C680.86 341.84 679.19 342.05 677.08 342.53C676.92 342.57 676.73 342.61 676.55 342.65C673.1 343.48 668.75 345.09 667.24 347.95C667.23 347.97 667.22 348 667.22 348.04C667.22 348.16 667.18 348.39 667.22 348.63C667.24 348.72 667.26 348.82 667.32 348.94C667.45 349.27 667.76 349.48 668.5 349.23C669.39 348.24 673.6 346.78 681.11 344.84C678.92 345.58 668.39 349.19 668.72 350.84C668.69 351.1 668.7 351.35 668.75 351.61C668.85 352.04 669.1 352.51 669.84 352.51C670.05 352.51 670.27 352.47 670.54 352.41C673.66 350.69 677.07 349.18 680.78 347.87C678.1 348.9 672.38 351.36 672.69 353.4C672.7 354.68 674.88 354.23 679.23 352.04C679.38 351.96 679.54 351.87 679.72 351.79C680.8 351.24 681.98 350.99 683.17 351.11C683.25 351.07 683.3 351.09 683.36 351.09C683.89 351.15 684.39 351.23 684.86 351.38C684.9 351.39 684.96 351.41 685.05 351.42C689.35 352.01 693.12 348.47 693.07 344.12C693.06 342.81 693.04 341.65 693.03 340.98C693.02 340.03 692.69 339.11 692.07 338.38C690.41 336.44 687.26 334.15 684.19 333.68Z" />
						<path id="&lt;Path&gt;" class="shp14" d="M551.19 333.68C551.22 333.67 551.24 333.69 551.24 333.72L551.35 338.37L553.3 338.19C559.84 336.89 564.8 338.55 568.2 343.15C568.19 343.17 568.19 343.19 568.2 343.21C568.26 343.54 568.4 345.35 566.71 344.44C566.57 344.42 566.46 344.34 566.32 344.24C566.31 344.24 566.28 344.23 566.23 344.2C565.76 343.91 565.24 343.68 564.65 343.5C564.54 343.46 564.44 343.43 564.32 343.39C561.98 342.48 557.98 341.29 554.18 341.8C554.53 341.84 556.2 342.05 558.31 342.53C558.47 342.57 558.66 342.61 558.83 342.65C562.29 343.48 566.63 345.09 568.15 347.95C568.16 347.97 568.17 348 568.17 348.04C568.17 348.16 568.2 348.39 568.17 348.63C568.15 348.72 568.13 348.82 568.07 348.94C567.93 349.27 567.62 349.48 566.88 349.23C565.99 348.24 561.79 346.78 554.27 344.84C556.47 345.58 567 349.19 566.67 350.84C566.7 351.1 566.68 351.35 566.63 351.61C566.54 352.04 566.28 352.51 565.55 352.51C565.33 352.51 565.12 352.47 564.85 352.41C561.73 350.69 558.32 349.18 554.6 347.87C557.28 348.9 563 351.36 562.69 353.4C562.68 354.68 560.5 354.23 556.16 352.04C556 351.96 555.85 351.87 555.67 351.79C554.59 351.24 553.4 350.99 552.22 351.11C552.14 351.07 552.08 351.09 552.02 351.09C551.5 351.15 551 351.23 550.53 351.38C550.49 351.39 550.42 351.41 550.34 351.42C546.04 352.01 542.27 348.47 542.31 344.12C542.33 342.81 542.34 341.65 542.35 340.98C542.37 340.03 542.7 339.11 543.32 338.38C544.98 336.44 548.13 334.15 551.19 333.68Z" />
					</g>
					<g id="&lt;Group&gt;">
						<g id="&lt;Group&gt;">
							<g id="&lt;Group&gt;">
								<path id="&lt;Path&gt;" class="shp11" d="M770.01 388.73C771.39 405.33 778.85 418.86 787.29 429.56C794.18 438.29 800.24 445.55 804.6 457.73C808.49 468.63 806.58 479.88 805.56 491.29C804.37 483.22 799.31 473.83 794.54 469.74C792.34 476.72 792.21 484.54 789.06 491.39C784.68 500.93 778.52 508.46 772.19 514.89C766.15 521.04 759.77 526.35 753.82 532.75C751.24 535.52 748.85 537.96 745.85 539.67C742.04 541.85 740.77 539.78 737.48 536.4C734.83 533.69 732 531.12 729.18 528.66C722.51 522.81 715.76 519.36 711.38 509.03C707.87 500.74 705.88 490.65 705.55 481.11C698.88 485.09 695.65 496.4 691.55 504.36C691.08 492.3 692.72 479.5 695.15 468.05C696.74 460.56 698.93 452.21 702.29 446.11C705.66 440.01 710.66 436.53 714.97 432.12C724.82 422.02 731.05 403.24 734.38 386.12" />
							</g>
							<path id="&lt;Path&gt;" class="shp7" d="M792.07 496.34L792.85 497.35L789.33 499.57C796.66 494.96 807.09 493.63 813.33 493.29C812.88 491.76 812.17 490.24 811.17 488.84L783.15 448.41C781.54 446.08 779.17 444.59 776.6 444.05C774 443.51 771.19 443.94 768.76 445.48C763.57 448.77 762.23 455.75 765.87 460.72L792.07 496.34Z" />
							<path id="&lt;Path&gt;" class="shp7" d="M713.06 493.01L712.27 494.02L715.8 496.24C708.47 491.63 698.04 490.3 691.8 489.96C692.25 488.42 692.95 486.91 693.95 485.51L721.98 445.08C723.58 442.75 725.96 441.26 728.53 440.72C731.13 440.18 733.93 440.61 736.37 442.14C741.56 445.44 742.89 452.42 739.25 457.39L713.06 493.01Z" />
							<path id="&lt;Path&gt;" class="shp14" d="M768.02 442.96C766.73 452.33 759.97 459.48 751.82 459.48C742.96 459.48 735.77 451.05 735.43 440.5C737.33 440.5 739.54 440.48 741.44 440.46C741.68 440.46 741.93 440.43 742.17 440.33C743.47 440.07 744.54 439.06 744.89 437.72L745.14 436.67L758.39 437.16L758.15 439.68C758.04 440.67 758.75 441.55 759.73 441.7L765.64 442.59C766.35 442.7 767.16 442.83 768.02 442.96Z" />
							<path id="&lt;Path&gt;" class="shp7" d="M776.83 770.55L777.44 770.55C779.26 770.57 781.01 771.36 782.21 772.74C784.94 775.89 792.18 775.86 796.19 774.96C796.41 774.93 796.61 774.86 796.82 774.8C798.53 774.32 798.95 772.08 797.53 771.01L783.38 759.59C783.37 759.53 783.4 759.28 783.46 758.88L775.19 759.06C775 759.7 774.84 760.24 774.71 760.68C773.64 765.26 772.13 770.52 776.83 770.55Z" />
							<path id="&lt;Path&gt;" class="shp7" d="M729.96 770.55L729.35 770.55C727.53 770.57 725.78 771.36 724.58 772.74C721.85 775.89 714.61 775.86 710.6 774.96C710.38 774.93 710.18 774.86 709.97 774.8C708.26 774.32 707.84 772.08 709.26 771.01L723.41 759.59C723.42 759.53 723.39 759.28 723.33 758.88L731.6 759.06C731.79 759.7 731.95 760.24 732.08 760.68C733.15 765.26 734.66 770.52 729.96 770.55Z" />
							<path id="&lt;Path&gt;" class="shp15" d="M718.87 650.8L717.9 657.28C715.27 674.91 715.02 692.81 717.18 710.5C719.35 728.3 722.05 750.07 723.41 759.59L731.86 759.93L746.53 593.1L775.2 759.7L783.84 760.42C784.24 752.88 785.27 737.77 786.28 723.42C787.87 700.77 786.02 678.01 780.79 655.91L780.79 655.91L785.08 600.44C789.61 582.56 786.41 564.75 781.9 551.18L716 551.18C712.32 561.89 709.68 575.65 710.68 592.17L718.87 650.8Z" />
							<path id="&lt;Path&gt;" class="shp13" d="M758.4 437.14C758.27 438.42 758.21 439.07 758.21 439.08L744.64 438.38C744.66 437.8 745.22 435.5 745.29 434.93C745.37 433.93 745.5 432.91 745.63 431.93L746.35 426.53L759.48 430.29L758.4 437.14Z" />
							<path id="&lt;Path&gt;" class="shp7" d="M785.07 562.65C767.16 568.71 747.3 572.6 730.46 568.58C724.24 567.12 718.42 564.58 713.26 560.64C717.77 544.45 722.35 530.26 727.02 518.08C728.15 515.13 729.01 510.14 728.86 506.98C728.32 496.73 723.75 489.22 722.44 479.33C721.31 470.88 729.16 446.19 730.74 441.35C730.87 440.98 730.96 440.7 731.02 440.52C731.03 440.52 731.06 440.52 731.11 440.52C731.51 440.52 733.27 440.52 735.43 440.5C735.77 451.05 742.96 459.48 751.82 459.48C759.97 459.48 766.73 452.33 768.02 442.96C770.57 443.31 773.44 443.7 776.62 444.11C776.02 450.1 774.56 456.57 775.42 462.6C775.93 466.19 776.85 469.75 777.26 473.34C777.79 478.2 776.89 482.73 774.86 487.12C772.36 492.56 770.13 498.74 769.56 504.79C768.27 517.74 773.92 529.31 778.5 541.1C781.21 547.98 783.4 555.16 785.07 562.65Z" />
							<path id="&lt;Path&gt;" class="shp14" d="M730.12 401.34C731.02 401.3 732.03 401.67 733 402.31C734.58 396.34 738.03 390.05 742.13 385.81C743.87 383.69 745.82 382.34 747.91 381.57C749.04 381.08 750.18 380.76 751.31 380.71C752.09 380.68 752.85 380.68 753.61 380.72C754.36 380.75 755.12 380.81 755.89 380.91C757.01 381.05 758.12 381.47 759.21 382.06C761.23 383 763.05 384.51 764.6 386.77C768.32 391.36 771.22 397.91 772.28 404C773.31 403.45 774.34 403.16 775.23 403.28C778.22 403.67 779 408.47 778.02 412.04C776.77 416.57 773.26 417.86 770.02 418.63C768.42 421.59 766.22 424.47 763.72 426.84C761.08 429.69 757.75 431.74 754.02 432.48C753.91 432.5 753.8 432.52 753.69 432.54C753.48 432.58 753.27 432.63 753.05 432.66C752.9 432.68 752.75 432.68 752.6 432.69C752.48 432.7 752.35 432.7 752.23 432.71C751.94 432.72 751.66 432.73 751.37 432.71C751.08 432.7 750.8 432.67 750.51 432.63C750.39 432.62 750.26 432.6 750.14 432.58C749.99 432.56 749.84 432.55 749.7 432.52C749.48 432.47 749.28 432.4 749.06 432.34C748.96 432.31 748.85 432.28 748.74 432.25C745.09 431.2 741.95 428.86 739.57 425.8C737.28 423.22 735.33 420.17 734 417.08C730.83 416.03 727.44 414.45 726.59 409.83C725.92 406.19 727.11 401.47 730.12 401.34Z" />
							<g id="&lt;Group&gt;">
								<g id="&lt;Group&gt;">
									<g id="&lt;Group&gt;">
										<path id="&lt;Path&gt;" class="shp11" d="M753.64 422.81C755.78 422.24 758.15 420.8 759.27 417.34C759.36 417.05 759.21 416.75 758.92 416.66C758.64 416.56 758.34 416.72 758.24 417C756.23 423.18 749.84 422.01 749.57 421.96C749.27 421.9 748.99 422.1 748.93 422.39C748.87 422.69 749.07 422.97 749.36 423.03C749.4 423.04 751.39 423.4 753.64 422.81Z" />
									</g>
								</g>
								<g id="&lt;Group&gt;">
									<g id="&lt;Group&gt;">
										<path id="&lt;Path&gt;" class="shp11" d="M761.19 410.08C761.08 411.1 760.17 411.83 759.17 411.71C758.16 411.6 757.43 410.69 757.55 409.68C757.66 408.66 758.57 407.93 759.57 408.04C760.58 408.15 761.31 409.07 761.19 410.08Z" />
									</g>
								</g>
								<g id="&lt;Group&gt;">
									<g id="&lt;Group&gt;">
										<path id="&lt;Path&gt;" class="shp11" d="M746.32 409.44C746.21 410.46 745.3 411.19 744.29 411.07C743.28 410.96 742.56 410.05 742.67 409.04C742.78 408.02 743.69 407.29 744.7 407.4C745.71 407.51 746.43 408.43 746.32 409.44Z" />
									</g>
								</g>
								<g id="&lt;Group&gt;">
									<g id="&lt;Group&gt;">
										<path id="&lt;Path&gt;" class="shp11" d="M763.63 405.55C763.65 405.55 763.67 405.54 763.69 405.53C763.97 405.42 764.11 405.11 764 404.83C762.71 401.5 759.75 401.49 758.36 401.93C758.07 402.03 757.92 402.33 758.01 402.61C758.1 402.9 758.37 403.06 758.69 402.96C758.79 402.93 761.75 402.03 762.99 405.22C763.09 405.48 763.37 405.62 763.63 405.55Z" />
									</g>
								</g>
								<g id="&lt;Group&gt;">
									<g id="&lt;Group&gt;">
										<path id="&lt;Path&gt;" class="shp11" d="M747.39 402.75C747.4 402.73 747.41 402.72 747.42 402.7C747.57 402.44 747.48 402.11 747.22 401.96C744.11 400.2 741.82 402.07 741.02 403.3C740.86 403.56 740.93 403.89 741.18 404.05C741.43 404.21 741.75 404.16 741.93 403.89C741.99 403.8 743.7 401.22 746.68 402.91C746.93 403.04 747.23 402.97 747.39 402.75Z" />
									</g>
								</g>
								<g id="&lt;Group&gt;">
									<path id="&lt;Path&gt;" class="shp11" d="M750.08 417.18C750.37 417.2 750.61 416.97 750.63 416.68C750.64 416.39 750.42 416.15 750.13 416.13C750.12 416.13 749.12 416.06 748.89 415.51C748.78 415.26 748.7 414.48 750.23 412.73C750.42 412.51 750.4 412.18 750.18 411.99C749.96 411.8 749.63 411.82 749.44 412.03C748 413.68 747.5 414.95 747.92 415.93C748.42 417.09 750.01 417.18 750.08 417.18L750.08 417.18Z" />
								</g>
							</g>
							<g id="&lt;Group&gt;">
								<g id="&lt;Group&gt;">
									<path id="&lt;Compound Path&gt;" class="shp11" d="M767.43 377.51C766.1 376.36 764.59 375.36 762.88 374.56C758.82 372.65 754.21 372.02 749.73 372.41C740.03 373.25 732.34 379.1 729.62 388.52C726.55 399.18 727.55 413.04 736.75 420.45C737.48 421.03 738.2 421.64 738.9 422.22C739.19 421.51 738.57 420.87 738.32 420.23C737.94 419.27 737.74 418.25 737.49 417.25C736.88 414.77 736.78 412.19 737.08 409.66C737.43 406.68 738.48 403.48 738.99 400.35C741.28 399.82 743.46 398.84 745.14 397.43C746.85 395.99 748.37 394.16 749.73 392.39C750.69 391.14 751.49 389.64 752.57 388.4C752.65 389.81 752.85 391.18 752.93 392.57C753.04 394.33 752.51 396.41 752.7 398.07C752.78 398.7 752.38 398.56 753.13 398.74C753.5 398.83 754.58 398.24 754.88 398.05C755.7 397.54 756.3 396.77 757.01 396.13C758.31 394.97 759.65 393.4 760.24 391.73C760.22 393.51 761.67 395.26 762.66 396.62C763.64 397.96 764.47 399.34 765.4 400.73C767.52 403.91 768.25 407.72 767.83 411.55C767.62 413.38 766.88 415.17 766.64 416.96C766.69 416.63 768.05 415.68 768.33 415.39C768.94 414.73 769.51 414.04 770.03 413.31C771.04 411.9 771.86 410.37 772.52 408.77C773.87 405.55 774.58 402.07 774.89 398.6C775.6 390.73 773.28 382.59 767.43 377.51Z" />
								</g>
							</g>
						</g>
						<g id="&lt;Group&gt;">
							<path id="&lt;Path&gt;" class="shp6" d="M820.68 629.61L687.8 629.61L687.8 482.18L820.68 482.18L820.68 629.61Z" />
							<path id="&lt;Path&gt;" class="shp5" d="M820.68 623.29L687.8 623.29L687.8 475.85L820.68 475.85L820.68 623.29Z" />
							<path id="&lt;Compound Path&gt;" fill-rule="evenodd" class="shp10" d="M760.78 555.88L742.67 555.88L742.67 596.39L726.3 596.39L726.3 496.55L760.78 496.55C784.48 496.55 796.12 510.05 796.12 526.28C796.12 540.51 786.78 555.88 760.78 555.88ZM760.78 542.52C773.56 542.52 779.31 536.34 779.31 526.28C779.31 515.94 773.56 509.91 760.78 509.91L742.67 509.91L742.67 542.52L760.78 542.52Z" />
							<g id="&lt;Group&gt;">
								<text id="1
" style="transform: matrix(2,0,0,2,380.262,620.221)" >
									<tspan x="0" y="0" class="txt9">1</tspan>
								</text>
							</g>
						</g>
						<path id="&lt;Path&gt;" class="shp14" d="M820.72 528.19C820.69 528.18 820.67 528.2 820.67 528.23L820.56 532.88L818.61 532.7C812.08 531.4 807.11 533.06 803.71 537.66C803.72 537.68 803.72 537.7 803.71 537.72C803.65 538.05 803.51 539.86 805.2 538.94C805.34 538.92 805.45 538.85 805.59 538.75C805.6 538.75 805.63 538.74 805.69 538.71C806.15 538.42 806.68 538.19 807.26 538.01C807.37 537.97 807.47 537.93 807.59 537.9C809.93 536.98 813.93 535.8 817.73 536.3C817.38 536.34 815.72 536.56 813.6 537.04C813.45 537.08 813.25 537.12 813.08 537.16C809.62 537.99 805.28 539.6 803.77 542.45C803.75 542.48 803.75 542.51 803.75 542.55C803.75 542.67 803.71 542.9 803.75 543.13C803.77 543.23 803.78 543.33 803.84 543.44C803.98 543.77 804.29 543.99 805.03 543.73C805.92 542.75 810.12 541.29 817.64 539.35C815.44 540.09 804.91 543.7 805.24 545.35C805.21 545.6 805.23 545.86 805.28 546.12C805.38 546.55 805.63 547.01 806.37 547.01C806.58 547.01 806.79 546.97 807.06 546.92C810.18 545.2 813.59 543.68 817.31 542.38C814.63 543.41 808.91 545.87 809.22 547.91C809.23 549.19 811.41 548.73 815.75 546.55C815.91 546.47 816.07 546.37 816.24 546.3C817.33 545.75 818.51 545.5 819.69 545.62C819.77 545.58 819.83 545.6 819.89 545.6C820.41 545.66 820.91 545.73 821.38 545.89C821.42 545.9 821.49 545.91 821.57 545.92C825.87 546.52 829.65 542.97 829.6 538.63C829.58 537.32 829.57 536.16 829.56 535.49C829.54 534.54 829.21 533.62 828.59 532.89C826.94 530.95 823.78 528.66 820.72 528.19Z" />
						<path id="&lt;Path&gt;" class="shp14" d="M687.72 528.19C687.74 528.18 687.77 528.2 687.77 528.23L687.87 532.88L689.83 532.7C696.36 531.4 701.33 533.06 704.73 537.66C704.72 537.68 704.72 537.7 704.73 537.72C704.79 538.05 704.92 539.86 703.24 538.94C703.1 538.92 702.98 538.85 702.85 538.75C702.83 538.75 702.8 538.74 702.75 538.71C702.28 538.42 701.76 538.19 701.18 538.01C701.06 537.97 700.97 537.93 700.85 537.9C698.5 536.98 694.51 535.8 690.7 536.3C691.05 536.34 692.72 536.56 694.83 537.04C694.99 537.08 695.18 537.12 695.36 537.16C698.81 537.99 703.16 539.6 704.67 542.45C704.68 542.48 704.69 542.51 704.69 542.55C704.69 542.67 704.73 542.9 704.69 543.13C704.67 543.23 704.65 543.33 704.59 543.44C704.46 543.77 704.15 543.99 703.41 543.73C702.52 542.75 698.31 541.29 690.8 539.35C692.99 540.09 703.53 543.7 703.2 545.35C703.22 545.6 703.21 545.86 703.16 546.12C703.06 546.55 702.81 547.01 702.07 547.01C701.86 547.01 701.64 546.97 701.37 546.92C698.26 545.2 694.84 543.68 691.13 542.38C693.81 543.41 699.53 545.87 699.22 547.91C699.21 549.19 697.03 548.73 692.68 546.55C692.53 546.47 692.37 546.37 692.2 546.3C691.11 545.75 689.93 545.5 688.74 545.62C688.67 545.58 688.61 545.6 688.55 545.6C688.03 545.66 687.52 545.73 687.06 545.89C687.01 545.9 686.95 545.91 686.86 545.92C682.56 546.52 678.79 542.97 678.84 538.63C678.85 537.32 678.87 536.16 678.88 535.49C678.89 534.54 679.22 533.62 679.85 532.89C681.5 530.95 684.66 528.66 687.72 528.19Z" />
					</g>
				</g>
			</g>
		</g>
	</g>
	<g id="DESIGNED BY FREEPIK">
		<g id="&lt;Group&gt;">
			<g id="&lt;Group&gt;">
				<g id="&lt;Group&gt;">
					<g id="&lt;Group&gt;">
						<path id="&lt;Path&gt;" class="shp16" d="M628.21 862.93C627.34 863.82 626.6 864.79 625.99 865.84L625.06 865.35C624.93 864.76 624.36 864.35 623.74 864.42C623.08 864.5 622.61 865.1 622.68 865.76C622.76 866.42 623.36 866.9 624.02 866.82C624.16 866.8 624.28 866.77 624.39 866.71L625.29 867.18C624.79 868.29 624.43 869.46 624.22 870.67L625.71 870.93C626.17 868.32 627.41 865.92 629.29 863.99L628.21 862.93Z" />
						<path id="&lt;Path&gt;" class="shp16" d="M639.18 858.33C638.84 858.33 638.5 858.34 638.17 858.36L638.02 857.11C638.39 856.81 638.61 856.33 638.55 855.82C638.46 855.03 637.74 854.47 636.96 854.56C636.17 854.65 635.61 855.37 635.7 856.15C635.76 856.66 636.08 857.08 636.51 857.28L636.66 858.53C635.23 858.76 633.85 859.19 632.54 859.82L633.19 861.19C635.06 860.3 637.08 859.84 639.18 859.84C640.18 859.84 641.17 859.95 642.13 860.16L642.46 858.68C641.38 858.44 640.28 858.33 639.18 858.33Z" />
						<path id="&lt;Path&gt;" class="shp16" d="M652.39 863.42C653.05 863.34 653.52 862.74 653.44 862.08C653.36 861.41 652.76 860.94 652.1 861.02C651.48 861.1 651.02 861.63 651.03 862.24L650.2 862.97C649.37 862.11 648.42 861.34 647.39 860.69L646.58 861.97C648.85 863.4 650.62 865.42 651.71 867.82L653.09 867.2C652.59 866.09 651.95 865.05 651.2 864.11L652.01 863.41C652.13 863.43 652.26 863.44 652.39 863.42Z" />
						<path id="&lt;Path&gt;" class="shp16" d="M638.09 878.74C637.32 878.79 636.54 878.81 635.77 878.81C634.02 878.81 632.31 878.69 630.82 878.45C630.04 878.33 629.13 878.14 628.28 877.87C630.37 881.59 634.42 884.12 639.05 884.12C644.77 884.12 649.58 880.29 650.95 875.11C649.59 876.01 647.94 876.76 646.04 877.36C643.68 878.09 640.93 878.57 638.09 878.74Z" />
						<path id="&lt;Compound Path&gt;" fill-rule="evenodd" class="shp16" d="M651.25 871.75C651.3 872.13 651.33 872.52 651.34 872.91C648.59 875.31 643.75 876.88 637.99 877.23C632.71 877.55 628.65 876.73 627.3 875.77C627.12 874.94 627.02 874.1 627.02 873.24C627.02 866.69 632.48 861.36 639.18 861.36C645.3 861.36 650.49 865.82 651.25 871.75ZM638.57 870.69C638.57 868.65 636.9 866.99 634.87 866.99C632.83 866.99 631.17 868.65 631.17 870.69C631.17 872.73 632.83 874.39 634.87 874.39C636.9 874.39 638.57 872.73 638.57 870.69ZM647.06 869.85C647.06 868.35 645.84 867.13 644.34 867.13C642.84 867.13 641.62 868.35 641.62 869.85C641.62 871.35 642.84 872.57 644.34 872.57C645.84 872.57 647.06 871.35 647.06 869.85Z" />
					</g>
					<path id="&lt;Compound Path&gt;" class="shp16" d="M671.19 865.09C670.6 864.86 669.58 864.47 668.42 864.62C667.32 864.75 666.74 865.3 666.74 866.63L666.74 868.36L671.19 868.36L671.19 871.8L666.74 871.8L666.74 882.71L662.87 882.71L662.87 871.8L660.2 871.8L660.2 868.36L662.87 868.36L662.87 866.59C662.87 863.23 664.67 861.02 668.01 861.02C669.3 861.02 670.33 861.26 671.19 861.64L671.19 865.09Z" />
					<path id="&lt;Compound Path&gt;" class="shp16" d="M680.6 871.76C680.24 871.7 679.88 871.66 679.54 871.66C677.75 871.66 676.52 872.76 676.52 874.89L676.52 882.71L672.66 882.71L672.66 868.36L676.41 868.36L676.41 869.93C677.31 868.59 678.68 867.98 680.45 867.98C681.27 867.98 682.14 868.23 682.64 868.65L680.6 871.76Z" />
					<path id="&lt;Compound Path&gt;" fill-rule="evenodd" class="shp16" d="M695.93 875.51C695.93 875.96 695.9 876.49 695.86 876.82L685.69 876.82C686.1 878.89 687.55 879.79 689.37 879.79C690.62 879.79 691.96 879.29 693 878.41L695.27 880.9C693.64 882.4 691.57 883.08 689.15 883.08C684.76 883.08 681.71 880.09 681.71 875.57C681.71 871.06 684.67 867.98 688.96 867.98C693.09 867.98 695.92 871.04 695.93 875.51ZM685.7 874.18L692.05 874.18C691.7 872.34 690.59 871.31 688.93 871.31C687.11 871.31 686.04 872.4 685.7 874.18Z" />
					<path id="&lt;Compound Path&gt;" fill-rule="evenodd" class="shp16" d="M711.24 875.51C711.24 875.96 711.21 876.49 711.16 876.82L700.99 876.82C701.41 878.89 702.86 879.79 704.68 879.79C705.92 879.79 707.27 879.29 708.31 878.41L710.57 880.9C708.94 882.4 706.87 883.08 704.46 883.08C700.06 883.08 697.01 880.09 697.01 875.57C697.01 871.06 699.97 867.98 704.27 867.98C708.39 867.98 711.22 871.04 711.24 875.51ZM701.01 874.18L707.36 874.18C707 872.34 705.89 871.31 704.24 871.31C702.42 871.31 701.35 872.4 701.01 874.18Z" />
					<path id="&lt;Compound Path&gt;" fill-rule="evenodd" class="shp16" d="M727.93 875.53C727.93 879.84 724.94 883.08 720.99 883.08C719.06 883.08 717.7 882.32 716.77 881.21L716.77 888.63L712.92 888.63L712.92 868.36L716.69 868.36L716.69 869.95C717.63 868.78 719 867.98 720.97 867.98C724.94 867.98 727.93 871.22 727.93 875.53ZM716.57 875.53C716.57 877.79 718.07 879.48 720.26 879.48C722.54 879.48 723.96 877.72 723.96 875.53C723.96 873.34 722.54 871.57 720.26 871.57C718.07 871.57 716.57 873.26 716.57 875.53Z" />
					<path id="&lt;Compound Path&gt;" class="shp16" d="M734.14 863.67C734.14 865.06 733.05 866.13 731.66 866.13C730.27 866.13 729.21 865.06 729.21 863.67C729.21 862.28 730.27 861.18 731.66 861.18C733.05 861.18 734.14 862.28 734.14 863.67ZM733.62 882.71L729.75 882.71L729.75 868.36L733.62 868.36L733.62 882.71Z" />
					<path id="&lt;Compound Path&gt;" class="shp16" d="M740.07 873.47L745.47 868.36L750.21 868.36L743.25 875.11L750.25 882.71L745.5 882.71L740.07 876.9L740.07 882.71L736.2 882.71L736.2 861.39L740.07 861.39L740.07 873.47Z" />
				</g>
				<g id="&lt;Group&gt;">
					<path id="&lt;Compound Path&gt;" fill-rule="evenodd" class="shp16" d="M476.83 882.58L476.83 880.47C475.77 881.9 474.04 882.93 472.05 882.93C468.36 882.93 465.75 880.12 465.75 875.52C465.75 871 468.33 868.08 472.05 868.08C473.96 868.08 475.68 869.01 476.83 870.57L476.83 863.04L479.02 863.04L479.02 882.58L476.83 882.58ZM476.83 878.74L476.83 872.32C476.03 871.09 474.34 870.04 472.58 870.04C469.74 870.04 468.04 872.38 468.04 875.52C468.04 878.65 469.74 880.96 472.58 880.96C474.34 880.96 476.03 879.97 476.83 878.74Z" />
					<path id="&lt;Compound Path&gt;" fill-rule="evenodd" class="shp16" d="M481.87 875.49C481.87 871.39 484.79 868.08 488.84 868.08C493.11 868.08 495.63 871.42 495.63 875.66L495.63 876.22L484.18 876.22C484.35 878.89 486.23 881.11 489.28 881.11C490.89 881.11 492.53 880.47 493.64 879.32L494.69 880.76C493.29 882.17 491.39 882.93 489.07 882.93C484.88 882.93 481.87 879.91 481.87 875.49ZM488.81 869.89C485.79 869.89 484.3 872.44 484.18 874.61L493.47 874.61C493.43 872.5 492.03 869.89 488.81 869.89Z" />
					<path id="&lt;Compound Path&gt;" class="shp16" d="M497.21 880.7L498.36 879.12C499.29 880.21 501.08 881.14 503.02 881.14C505.18 881.14 506.35 880.12 506.35 878.71C506.35 875.28 497.6 877.39 497.6 872.15C497.6 869.95 499.5 868.08 502.87 868.08C505.27 868.08 506.97 868.98 508.11 870.13L507.09 871.65C506.24 870.63 504.68 869.86 502.87 869.86C500.93 869.86 499.73 870.83 499.73 872.09C499.73 875.19 508.49 873.14 508.49 878.65C508.49 881.03 506.59 882.93 502.93 882.93C500.61 882.93 498.65 882.22 497.21 880.7Z" />
					<path id="&lt;Compound Path&gt;" class="shp16" d="M510.96 864.94C510.96 864.12 511.63 863.45 512.42 863.45C513.24 863.45 513.91 864.12 513.91 864.94C513.91 865.76 513.24 866.41 512.42 866.41C511.63 866.41 510.96 865.76 510.96 864.94ZM511.34 882.58L511.34 868.43L513.53 868.43L513.53 882.58L511.34 882.58Z" />
					<path id="&lt;Compound Path&gt;" fill-rule="evenodd" class="shp16" d="M517.17 886.21L518.28 884.57C519.45 885.97 520.85 886.5 522.88 886.5C525.22 886.5 527.42 885.36 527.42 882.25L527.42 880.23C526.39 881.67 524.66 882.75 522.67 882.75C518.98 882.75 516.37 880 516.37 875.43C516.37 870.89 518.95 868.08 522.67 868.08C524.58 868.08 526.27 869.01 527.42 870.57L527.42 868.43L529.62 868.43L529.62 882.17C529.62 886.85 526.33 888.32 522.88 888.32C520.48 888.32 518.83 887.85 517.17 886.21ZM527.42 878.5L527.42 872.32C526.66 871.09 524.96 870.04 523.2 870.04C520.36 870.04 518.66 872.3 518.66 875.43C518.66 878.54 520.36 880.82 523.2 880.82C524.96 880.82 526.66 879.74 527.42 878.5Z" />
					<path id="&lt;Compound Path&gt;" class="shp16" d="M542.83 882.58L542.83 873.32C542.83 870.83 541.57 870.04 539.66 870.04C537.93 870.04 536.29 871.09 535.48 872.24L535.48 882.58L533.28 882.58L533.28 868.43L535.48 868.43L535.48 870.48C536.47 869.31 538.41 868.08 540.51 868.08C543.47 868.08 545.02 869.57 545.02 872.64L545.02 882.58L542.83 882.58Z" />
					<path id="&lt;Compound Path&gt;" fill-rule="evenodd" class="shp16" d="M547.87 875.49C547.87 871.39 550.79 868.08 554.84 868.08C559.12 868.08 561.63 871.42 561.63 875.66L561.63 876.22L550.18 876.22C550.35 878.89 552.23 881.11 555.28 881.11C556.89 881.11 558.53 880.47 559.64 879.32L560.7 880.76C559.29 882.17 557.39 882.93 555.07 882.93C550.88 882.93 547.87 879.91 547.87 875.49ZM554.81 869.89C551.79 869.89 550.3 872.44 550.18 874.61L559.47 874.61C559.44 872.5 558.03 869.89 554.81 869.89Z" />
					<path id="&lt;Compound Path&gt;" fill-rule="evenodd" class="shp16" d="M574.7 882.58L574.7 880.47C573.65 881.9 571.92 882.93 569.92 882.93C566.23 882.93 563.63 880.12 563.63 875.52C563.63 871 566.21 868.08 569.92 868.08C571.83 868.08 573.56 869.01 574.7 870.57L574.7 863.04L576.9 863.04L576.9 882.58L574.7 882.58ZM574.7 878.74L574.7 872.32C573.91 871.09 572.21 870.04 570.45 870.04C567.61 870.04 565.91 872.38 565.91 875.52C565.91 878.65 567.61 880.96 570.45 880.96C572.21 880.96 573.91 879.97 574.7 878.74Z" />
					<path id="&lt;Compound Path&gt;" fill-rule="evenodd" class="shp16" d="M587.38 882.58L587.38 863.04L589.58 863.04L589.58 870.57C590.73 869.01 592.42 868.08 594.36 868.08C598.05 868.08 600.66 871 600.66 875.52C600.66 880.12 598.05 882.93 594.36 882.93C592.37 882.93 590.64 881.9 589.58 880.47L589.58 882.58L587.38 882.58ZM593.8 880.96C596.67 880.96 598.37 878.65 598.37 875.52C598.37 872.38 596.67 870.04 593.8 870.04C592.07 870.04 590.34 871.09 589.58 872.32L589.58 878.74C590.34 879.97 592.07 880.96 593.8 880.96Z" />
					<path id="&lt;Compound Path&gt;" class="shp16" d="M603.06 886.12C603.38 886.27 603.91 886.36 604.26 886.36C605.23 886.36 605.87 886.03 606.37 884.86L607.31 882.72L601.39 868.43L603.76 868.43L608.48 880.03L613.17 868.43L615.57 868.43L608.48 885.45C607.63 887.5 606.19 888.29 604.32 888.32C603.85 888.32 603.12 888.23 602.71 888.11L603.06 886.12Z" />
				</g>
			</g>
		</g>
	</g>
</svg>