<svg xmlns="http://www.w3.org/2000/svg" viewBox="0 0 1000 1000" width="48" height="48">
	<defs>
		<clipPath clipPathUnits="userSpaceOnUse" id="cp1">
			<path d="M0 0L1000 0L1000 1000L0 1000L0 0Z" />
		</clipPath>
	</defs>
	<style>
		tspan { white-space:pre }
		.shp0 { fill: #f1602e } 
	</style>
	<g id="Clip-Path: Page 1" clip-path="url(#cp1)">
		<g id="Page 1">
			<path id="Path 1" class="shp0" d="M883.33 250.02L883.33 83.37C883.33 74.16 875.87 66.7 866.67 66.7L800.01 66.7L800.01 100.03L850.01 100.03L850.01 250.02L883.33 250.02ZM116.7 500.02L116.7 916.67C116.7 925.87 124.15 933.33 133.36 933.33L800.01 933.33C809.21 933.33 816.67 925.87 816.67 916.67L816.67 800.01L783.34 800.01L783.34 900L150.03 900L150.03 500.02L116.7 500.02Z" />
			<path id="Path 2" fill-rule="evenodd" class="shp0" d="M661.73 4.91L811.73 154.91C813.12 156.32 814.25 157.98 815.06 159.79C815.29 160.31 815.42 160.81 815.61 161.34C816.09 162.74 816.38 164.19 816.47 165.66C816.5 166.02 816.67 166.34 816.67 166.69L816.67 266.69L783.34 266.69L783.34 183.36L650.01 183.36C640.8 183.36 633.34 175.9 633.34 166.69L633.34 33.37L150.03 33.37L150.03 50.03L116.7 50.03L116.7 16.7C116.7 7.5 124.15 0.03 133.36 0.03L650.01 0.03C650.36 0.03 650.68 0.22 651.04 0.29C652.51 0.38 653.96 0.67 655.35 1.15C655.89 1.34 656.39 1.46 656.91 1.7C658.69 2.48 660.32 3.57 661.73 4.91ZM666.67 56.93L666.67 150.02L759.77 150.02L666.67 56.93ZM400.02 683.34L500.02 683.34L500.02 716.67L416.68 716.67L416.68 816.67L616.68 816.67L616.68 850.01L400.02 850.01C390.81 850.01 383.35 842.55 383.35 833.34L383.35 700.01C383.35 690.8 390.81 683.34 400.02 683.34ZM450.02 750.01L550.02 750.01L550.02 783.34L450.02 783.34L450.02 750.01Z" />
			<path id="Path 3" fill-rule="evenodd" class="shp0" d="M1000 400.02C1000 464.45 947.77 516.68 883.33 516.68L881.66 516.68L791.91 601.69L850.01 659.77L850.01 583.35L883.33 583.35L883.33 983.33C883.33 992.54 875.87 1000 866.67 1000L200.03 1000L200.03 966.67L850.01 966.67L850.01 706.91L761.79 795.09L711.79 845.09C705.28 851.6 694.74 851.6 688.22 845.09L454.9 611.77C448.4 605.26 448.4 594.71 454.9 588.2L604.9 438.2C611.41 431.69 621.95 431.69 628.46 438.2L681.67 491.41L766.67 401.69L766.67 400.02C766.76 335.63 818.95 283.44 883.33 283.36C947.77 283.36 1000 335.59 1000 400.02ZM726.44 783.34L516.68 573.58L490.25 600.02L700.01 809.77L726.44 783.34ZM767.71 624.69L728.13 662.19C721.57 668.39 711.27 668.25 704.89 661.87L621.56 578.55C615.13 572.15 614.98 561.78 621.24 555.22L658.74 515.65L616.68 473.58L540.25 550.02L750.01 759.77L826.44 683.34L767.71 624.69ZM966.67 400.02C966.67 354 929.35 316.69 883.33 316.69C837.32 316.69 800.01 354 800.01 400.02L800.01 408.35C800.02 412.61 798.42 416.71 795.51 419.82L656.67 566.36L716.99 626.68L863.54 487.91C866.64 484.99 870.74 483.35 875 483.35L883.33 483.35C929.35 483.35 966.67 446.04 966.67 400.02ZM316.69 483.35L483.35 483.35L483.35 516.68L316.69 516.68L316.69 483.35ZM216.69 550.02L416.68 550.02L416.68 583.35L216.69 583.35L216.69 550.02ZM366.69 416.68L566.68 416.68L566.68 450.02L366.69 450.02L366.69 416.68ZM216.69 616.68L316.69 616.68L316.69 650.01L216.69 650.01L216.69 616.68ZM216.69 683.34L350.03 683.34L350.03 716.67L216.69 716.67L216.69 683.34ZM216.69 750.01L350.03 750.01L350.03 783.34L216.69 783.34L216.69 750.01ZM216.69 816.67L350.03 816.67L350.03 850.01L216.69 850.01L216.69 816.67ZM216.69 483.35L283.36 483.35L283.36 516.68L216.69 516.68L216.69 483.35ZM350.02 616.68L416.68 616.68L416.68 650.01L350.02 650.01L350.02 616.68ZM416.68 333.36L583.35 333.36L583.35 366.69L416.68 366.69L416.68 333.36Z" />
			<path id="Path 4" fill-rule="evenodd" class="shp0" d="M2.69 299.37C-13.31 202.83 42.91 108.91 135.54 77.37C228.17 45.83 330.02 85.95 376.25 172.19C378.21 169.66 380.45 167.36 382.92 165.32C381.72 151.98 386.51 138.79 395.98 129.32C405.45 119.86 418.64 115.07 431.98 116.27C440.57 105.98 453.28 100.03 466.68 100.03C480.09 100.03 492.8 105.98 501.38 116.27C514.73 115.07 527.91 119.86 537.39 129.32C546.86 138.79 551.64 151.98 550.45 165.32C560.74 173.91 566.68 186.62 566.68 200.02C566.68 213.43 560.74 226.14 550.45 234.72C551.64 248.07 546.86 261.25 537.39 270.73C527.91 280.2 514.73 284.99 501.38 283.79C492.8 294.08 480.09 300.02 466.68 300.02C453.28 300.02 440.57 294.08 431.98 283.79C420.3 284.86 408.67 281.23 399.67 273.69C395.9 381.26 307.67 466.56 200.03 466.68C102.18 466.7 18.68 395.91 2.69 299.37ZM407.73 189.13C403.07 190.77 399.95 195.18 399.95 200.12C399.95 205.07 403.07 209.48 407.73 211.12C412.17 212.7 415.74 216.09 417.55 220.45C419.34 224.8 419.22 229.72 417.2 233.98C415.04 238.44 415.94 243.79 419.45 247.31C422.96 250.81 428.31 251.72 432.78 249.56C435 248.47 437.44 247.9 439.92 247.89C442.11 247.9 444.27 248.33 446.3 249.16C450.66 250.96 454.05 254.52 455.63 258.98C457.28 263.64 461.69 266.76 466.63 266.76C471.57 266.76 475.99 263.64 477.64 258.98C479.21 254.53 482.6 250.97 486.95 249.17C491.31 247.36 496.23 247.49 500.48 249.51C504.95 251.77 510.37 250.84 513.82 247.21C517.48 243.77 518.42 238.33 516.11 233.88C514.1 229.61 513.97 224.7 515.77 220.35C517.58 215.99 521.14 212.61 525.59 211.03C530.25 209.38 533.37 204.97 533.37 200.02C533.37 195.08 530.25 190.67 525.59 189.02C521.14 187.44 517.58 184.06 515.77 179.7C513.97 175.35 514.1 170.44 516.11 166.18C518.28 161.7 517.37 156.36 513.87 152.84C510.35 149.33 505 148.43 500.54 150.59C496.27 152.61 491.36 152.73 487 150.94C482.65 149.13 479.26 145.56 477.69 141.12C476.03 136.46 471.63 133.34 466.68 133.34C461.74 133.34 457.33 136.46 455.68 141.12C454.1 145.56 450.72 149.13 446.36 150.94C442.01 152.73 437.09 152.61 432.84 150.59C428.36 148.43 423.01 149.33 419.5 152.84C415.99 156.36 415.09 161.7 417.25 166.18C419.27 170.44 419.39 175.35 417.59 179.7C415.79 184.06 412.22 187.44 407.78 189.02L407.73 189.13ZM33.37 266.69C33.37 358.74 107.98 433.35 200.03 433.35C292.07 433.35 366.69 358.74 366.69 266.69C366.69 174.64 292.07 100.03 200.03 100.03C108.03 100.13 33.46 174.68 33.37 266.69ZM71.58 311.81L95.15 288.24L133.36 326.46L288.24 171.57L311.81 195.14L145.14 361.81C138.63 368.31 128.08 368.31 121.58 361.81L71.58 311.81Z" />
		</g>
	</g>
</svg>