<svg xmlns="http://www.w3.org/2000/svg" viewBox="0 0 720 758" width="48" height="51">
	<defs>
		<clipPath clipPathUnits="userSpaceOnUse" id="cp1">
			<path d="M0 0L720 0L720 758L0 758Z" />
		</clipPath>
	</defs>
	<style>
		tspan { white-space:pre }
		.shp0 { fill: #f1602e } 
	</style>
	<g id="Page 1" clip-path="url(#cp1)">
		<path id="Path 1" class="shp0" d="M607.67 125.6C604.78 125.59 602.01 124.42 599.98 122.35C592.91 115.17 585.5 108.36 577.36 101.52C566.31 92.23 580.24 75.66 591.28 84.95C599.83 92.13 607.93 99.6 615.37 107.15C622.07 113.99 617.24 125.51 607.67 125.53L607.67 125.6ZM708.43 382.25L11.57 382.25C5.6 382.25 0.75 377.4 0.75 371.43L0.75 359.87C0.76 161.46 161.6 0.63 360 0.62C361.52 0.62 362.9 0.62 364.41 0.77C420.93 1.33 476.5 15.3 526.57 41.53C539.09 48.29 529.25 67.12 516.55 60.69C469.25 35.95 416.75 22.81 363.37 22.35C361.64 22.25 360.88 22.25 360 22.25C173.53 22.25 22.38 173.4 22.38 359.87L22.38 360.62L697.62 360.62L697.62 359.87C697.62 340.37 695.98 320.91 692.69 301.69C690.5 287.67 711.39 284.08 714 298.04C717.5 318.46 719.25 339.15 719.25 359.87L719.25 371.43C719.25 377.4 714.4 382.25 708.43 382.25ZM674.06 219.54C669.92 219.54 666.14 217.17 664.34 213.46C659.29 202.98 653.68 192.78 647.52 182.91C643.98 177.84 645.41 170.86 650.63 167.57C655.87 164.29 662.78 166.05 665.8 171.43C672.39 181.96 678.38 192.84 683.77 204.03C686.38 209.4 684.14 215.86 678.77 218.47C677.3 219.19 675.69 219.55 674.06 219.54Z" />
		<path id="Path 2" fill-rule="evenodd" class="shp0" d="M493.57 382.3L370.81 382.3L370.81 746.57C370.81 752.54 365.97 757.38 360 757.38C354.03 757.38 349.19 752.54 349.19 746.57L349.19 382.3L226.45 382.3C220.47 382.3 215.63 377.45 215.63 371.49L215.63 359.87C215.63 158.46 279.05 0.62 360 0.62C440.95 0.62 504.38 158.46 504.38 359.87L504.38 371.49C504.38 377.45 499.54 382.3 493.57 382.3ZM237.25 360.67L482.75 360.67L482.75 359.87C482.75 157.91 419.29 22.25 360 22.25C300.71 22.25 237.25 157.91 237.25 359.87L237.25 360.67Z" />
		<path id="Path 3" fill-rule="evenodd" class="shp0" d="M689.27 752.34L467.18 752.34C461.2 752.34 456.37 747.5 456.37 741.53L456.37 683.48C456.41 643.83 488.54 611.7 528.18 611.66C530.39 611.67 532.55 612.22 534.49 613.27C561.77 628.18 594.77 628.18 622.05 613.27C623.75 612.24 625.7 611.69 627.68 611.69C646.81 611.6 665.18 619.12 678.76 632.59C692.33 646.06 699.99 664.38 700.05 683.51L700.05 741.56C700.02 747.51 695.21 752.31 689.27 752.34ZM477.99 730.72L678.46 730.72L678.46 683.48C678.43 656.66 657.35 634.59 630.56 633.34C597.76 650.27 558.79 650.27 525.99 633.34C499.19 634.58 478.07 656.63 477.99 683.45L477.99 730.72ZM579.34 605.5C554.77 605.51 531.82 593.24 518.19 572.79C504.56 552.35 502.06 526.44 511.54 503.76C513.74 498.12 520.15 495.39 525.75 497.71C531.35 500.03 533.94 506.5 531.5 512.05C525.43 526.4 526.14 542.72 533.42 556.5C540.7 570.28 553.78 580.06 569.07 583.13C584.34 586.2 600.19 582.25 612.24 572.36C624.27 562.46 631.23 547.69 631.19 532.1C631.19 530.25 631.19 528.45 631.26 526.7C631.32 524.09 631.37 521.49 631.26 518.77C631.06 512.81 635.73 507.81 641.7 507.6C647.7 507.32 652.74 512.05 652.86 518.05C652.98 521.15 652.86 524.13 652.86 527.13L652.8 532.13C652.72 572.65 619.86 605.46 579.34 605.5Z" />
		<path id="Path 4" fill-rule="evenodd" class="shp0" d="M642.09 529.19C637.67 529.19 633.7 526.5 632.05 522.41C628.53 514 623.61 506.25 617.53 499.48C615.7 497.67 612.84 497.39 610.7 498.83C593.27 510.46 559.06 528.77 525.86 520.6C504.88 514.83 487.45 500.23 478.08 480.6C473.41 472.03 481.57 462.15 490.87 465.12C503.7 467.53 516.81 462.61 524.91 452.36C526.54 450.75 555.18 423.66 586.6 426.52C600.64 427.91 613.52 434.93 622.28 445.98C634.1 445.64 645.44 450.59 653.22 459.49C663.82 472.9 663.45 494.08 652.14 522.35C650.5 526.44 646.53 529.12 642.12 529.13L642.09 529.19ZM508.49 486.3C514.56 492.82 522.38 497.45 531.01 499.61C557.08 506 587.04 488.62 598.7 480.85C609.44 473.68 623.75 475.09 632.87 484.24C634.98 486.4 636.96 488.68 638.79 491.09C640.35 484.94 639.45 478.43 636.27 472.95C631.14 466.46 618.98 467.82 618.85 467.84C614.85 468.44 610.85 466.75 608.49 463.46C603.29 455.01 594.55 449.36 584.7 448.1C563.03 446.08 540.53 467.35 540.31 467.57C531.95 477.01 520.81 483.57 508.49 486.3ZM637.6 752.34L518.85 752.34C512.88 752.34 508.05 747.5 508.05 741.53L508.05 700.08C508.05 685.66 529.66 685.66 529.66 700.08L529.66 730.73L626.79 730.73L626.79 700.08C626.79 685.66 648.41 685.66 648.41 700.08L648.41 741.54C648.4 747.51 643.57 752.34 637.6 752.34ZM252.82 752.34L30.73 752.34C24.75 752.34 19.91 747.5 19.91 741.53L19.91 683.48C19.95 643.83 52.08 611.7 91.73 611.66C93.94 611.67 96.1 612.22 98.03 613.27C125.32 628.19 158.31 628.19 185.6 613.27C187.3 612.24 189.25 611.69 191.23 611.69C210.36 611.6 228.73 619.12 242.31 632.59C255.88 646.06 263.54 664.38 263.59 683.51L263.59 741.56C263.57 747.51 258.76 752.31 252.82 752.34ZM41.54 730.72L242.01 730.72L242.01 683.48C241.98 656.65 220.9 634.59 194.11 633.34C161.31 650.27 122.34 650.27 89.53 633.34C62.73 634.58 41.63 656.63 41.54 683.45L41.54 730.72ZM142.89 605.5C118.32 605.51 95.38 593.23 81.75 572.78C68.12 552.34 65.62 526.44 75.08 503.76C77.29 498.12 83.7 495.39 89.3 497.71C94.9 500.03 97.49 506.5 95.05 512.05C88.98 526.4 89.68 542.72 96.96 556.5C104.25 570.28 117.33 580.06 132.61 583.13C147.89 586.2 163.74 582.25 175.78 572.36C187.82 562.46 194.78 547.69 194.73 532.1C194.73 530.25 194.73 528.45 194.81 526.7C194.86 524.09 194.91 521.49 194.81 518.77C194.61 512.81 199.29 507.8 205.26 507.6C211.23 507.4 216.23 512.08 216.43 518.05C216.53 521.15 216.49 524.13 216.43 527.13L216.36 532.13C216.28 572.66 183.41 605.48 142.89 605.5Z" />
		<path id="Path 5" fill-rule="evenodd" class="shp0" d="M205.63 529.19C201.22 529.19 197.25 526.5 195.6 522.41C192.09 514 187.17 506.25 181.08 499.48C179.25 497.66 176.39 497.38 174.25 498.83C156.82 510.46 122.68 528.74 89.42 520.6C68.44 514.83 51 500.23 41.63 480.6C37.02 472.05 45.15 462.23 54.41 465.16C67.25 467.57 80.36 462.65 88.45 452.4C90.09 450.8 118.53 423.67 150.15 426.57C164.19 427.95 177.06 434.97 185.83 446.02C197.63 445.68 208.98 450.63 216.75 459.52C227.35 472.94 226.98 494.11 215.67 522.39C214.03 526.49 210.07 529.16 205.66 529.17L205.63 529.19ZM72.04 486.3C78.11 492.82 85.94 497.45 94.57 499.61C120.74 506.03 150.59 488.62 162.24 480.85C172.98 473.67 187.3 475.09 196.41 484.24C198.53 486.39 200.51 488.68 202.33 491.08C203.88 484.96 202.99 478.48 199.87 473C194.69 466.39 182.44 467.85 182.35 467.85C178.36 468.42 174.4 466.73 172.04 463.46C166.84 454.99 158.06 449.35 148.19 448.1C126.88 446.11 104.1 467.32 103.87 467.57C95.51 477.01 84.36 483.56 72.04 486.3ZM201.15 752.34L82.41 752.34C76.44 752.34 71.6 747.5 71.6 741.53L71.6 700.08C71.6 685.66 93.22 685.66 93.22 700.08L93.22 730.73L190.34 730.73L190.34 700.08C190.34 685.66 211.95 685.66 211.95 700.08L211.95 741.54C211.95 747.51 207.11 752.34 201.15 752.34Z" />
	</g>
</svg>