<svg xmlns="http://www.w3.org/2000/svg" viewBox="0 0 74 74" width="48" height="48">
	<style>
		tspan { white-space:pre }
		.shp0 { fill: #f1602e } 
	</style>
	<g id="Layer">
		<path id="Layer" class="shp0" d="M19 25.86C18.73 25.86 18.48 25.76 18.29 25.58C18.1 25.4 17.99 25.14 17.98 24.88C17.98 24.61 18.08 24.36 18.26 24.17C18.45 23.97 18.7 23.86 18.97 23.86C20.19 23.85 21.42 23.81 22.64 23.75C23.87 23.69 25.09 23.61 26.31 23.51C27.53 23.41 28.75 23.28 29.97 23.13C31.19 22.98 32.4 22.81 33.61 22.62C33.64 22.62 33.66 22.61 33.68 22.61C33.7 22.61 33.72 22.6 33.74 22.6C33.77 22.6 33.79 22.6 33.81 22.6C33.83 22.6 33.85 22.6 33.88 22.6C34.18 22.62 34.48 22.65 34.78 22.71C35.07 22.76 35.37 22.83 35.66 22.92C35.95 23.02 36.23 23.12 36.5 23.25C36.78 23.38 37.04 23.52 37.3 23.68C37.47 23.81 37.6 23.98 37.66 24.18C37.73 24.38 37.73 24.6 37.67 24.8C37.6 25 37.47 25.17 37.31 25.3C37.14 25.42 36.93 25.49 36.72 25.49C36.66 25.49 36.6 25.49 36.55 25.48C36.49 25.47 36.43 25.45 36.38 25.43C36.32 25.41 36.27 25.39 36.22 25.36C36.17 25.33 36.12 25.3 36.07 25.26C35.91 25.17 35.73 25.08 35.55 25C35.38 24.93 35.19 24.86 35.01 24.81C34.82 24.75 34.63 24.71 34.44 24.67C34.25 24.64 34.06 24.62 33.87 24.61C32.64 24.8 31.41 24.97 30.18 25.12C28.94 25.27 27.71 25.4 26.47 25.5C25.23 25.61 23.99 25.69 22.75 25.75C21.51 25.81 20.27 25.84 19.03 25.86L19 25.86Z" />
		<path id="Layer" class="shp0" d="M55.58 49.65C55.37 49.65 55.16 49.63 54.95 49.6C54.74 49.57 54.53 49.52 54.33 49.45C54.13 49.39 53.93 49.31 53.75 49.21C53.56 49.12 53.38 49 53.2 48.88L52.99 48.73C52.96 48.71 52.91 48.67 52.87 48.63L41.1 40.15C40.88 40 40.73 39.77 40.68 39.5C40.63 39.24 40.69 38.97 40.85 38.75C41.01 38.53 41.24 38.38 41.51 38.34C41.77 38.3 42.05 38.37 42.26 38.53L43.06 39.1L54.08 47.04C54.08 47.04 54.09 47.05 54.1 47.06C54.11 47.06 54.12 47.07 54.12 47.08C54.13 47.08 54.14 47.09 54.15 47.1C54.16 47.1 54.16 47.11 54.17 47.12L54.36 47.25C54.58 47.4 54.82 47.51 55.07 47.58C55.33 47.64 55.6 47.66 55.86 47.62C56.12 47.58 56.37 47.5 56.6 47.37C56.83 47.24 57.04 47.06 57.2 46.86C57.3 46.73 57.39 46.59 57.46 46.44C57.53 46.29 57.58 46.13 57.61 45.97C57.64 45.81 57.65 45.65 57.64 45.48C57.64 45.32 57.61 45.16 57.56 45C57.53 44.9 57.5 44.81 57.46 44.71C57.41 44.62 57.36 44.53 57.31 44.44C57.25 44.36 57.19 44.28 57.12 44.2C57.05 44.12 56.98 44.05 56.9 43.99L41.15 31.16C35.12 34.36 30.85 32.72 28.81 31.41C28.48 31.19 28.2 30.89 28.02 30.53C27.84 30.17 27.75 29.77 27.77 29.37C27.79 28.97 27.91 28.58 28.13 28.24C28.35 27.9 28.65 27.63 29.01 27.44L38.02 22.66C38.31 22.51 38.61 22.39 38.92 22.3C39.23 22.2 39.55 22.14 39.87 22.12C40.19 22.09 40.52 22.09 40.84 22.13C41.16 22.16 41.48 22.23 41.79 22.33L47.12 24.06C47.51 24.19 47.91 24.28 48.31 24.34C48.72 24.39 49.13 24.42 49.53 24.4C49.94 24.39 50.35 24.33 50.75 24.25C51.15 24.16 51.54 24.04 51.92 23.89L54.24 22.93C54.49 22.83 54.76 22.83 55.01 22.94C55.25 23.04 55.45 23.23 55.55 23.48C55.65 23.73 55.65 24 55.54 24.25C55.44 24.49 55.25 24.68 55 24.78L52.68 25.73C52.19 25.94 51.69 26.09 51.17 26.2C50.66 26.32 50.14 26.38 49.61 26.4C49.08 26.42 48.56 26.39 48.03 26.32C47.51 26.24 47 26.12 46.5 25.96L41.17 24.23C40.99 24.17 40.8 24.13 40.61 24.11C40.42 24.09 40.23 24.09 40.04 24.11C39.85 24.13 39.66 24.16 39.48 24.22C39.3 24.27 39.12 24.34 38.95 24.43L29.94 29.22C29.91 29.23 29.89 29.24 29.87 29.26C29.85 29.28 29.83 29.3 29.82 29.32C29.8 29.35 29.79 29.37 29.78 29.4C29.77 29.43 29.77 29.45 29.77 29.48C29.76 29.5 29.77 29.53 29.77 29.55C29.78 29.58 29.78 29.6 29.8 29.63C29.81 29.65 29.82 29.67 29.84 29.69C29.85 29.71 29.87 29.72 29.9 29.73C32 31.08 35.6 32.06 40.76 29.1C40.85 29.05 40.94 29.01 41.04 28.99C41.14 28.97 41.24 28.96 41.34 28.97C41.44 28.97 41.54 29 41.63 29.04C41.73 29.07 41.81 29.12 41.89 29.19L58.15 42.44C58.31 42.57 58.46 42.71 58.59 42.86C58.73 43.01 58.86 43.17 58.97 43.34C59.08 43.51 59.18 43.68 59.27 43.87C59.35 44.05 59.42 44.24 59.48 44.44C59.57 44.75 59.62 45.06 59.64 45.39C59.65 45.71 59.63 46.03 59.57 46.34C59.51 46.66 59.41 46.97 59.28 47.26C59.14 47.55 58.98 47.83 58.78 48.08C58.59 48.33 58.38 48.55 58.14 48.74C57.9 48.94 57.64 49.1 57.36 49.24C57.09 49.37 56.79 49.48 56.49 49.55C56.19 49.62 55.89 49.65 55.58 49.65L55.58 49.65Z" />
		<path id="Layer" class="shp0" d="M51.44 54.28C51.23 54.29 51.02 54.27 50.81 54.24C50.61 54.2 50.4 54.16 50.2 54.09C50 54.03 49.81 53.95 49.62 53.86C49.43 53.76 49.25 53.65 49.08 53.53L38.27 45.86C38.06 45.71 37.91 45.47 37.87 45.22C37.83 44.96 37.89 44.69 38.04 44.48C38.2 44.26 38.43 44.12 38.68 44.07C38.94 44.03 39.21 44.08 39.42 44.23L50.23 51.9C50.69 52.2 51.24 52.31 51.77 52.21C52.3 52.11 52.78 51.8 53.09 51.36C53.41 50.92 53.54 50.38 53.46 49.84C53.38 49.3 53.1 48.82 52.67 48.49L41.9 40.72C41.7 40.56 41.57 40.33 41.54 40.08C41.5 39.82 41.57 39.57 41.72 39.36C41.87 39.15 42.09 39.01 42.34 38.96C42.59 38.91 42.85 38.96 43.07 39.1L53.84 46.87C54.54 47.37 55.07 48.09 55.34 48.91C55.6 49.74 55.61 50.62 55.34 51.45C55.07 52.27 54.55 52.99 53.85 53.5C53.15 54.01 52.31 54.29 51.44 54.29L51.44 54.28Z" />
		<path id="Layer" class="shp0" d="M46.77 58.29C46.58 58.29 46.38 58.28 46.18 58.25C45.98 58.22 45.79 58.17 45.6 58.11C45.4 58.05 45.22 57.98 45.04 57.89C44.86 57.8 44.69 57.7 44.52 57.59L34.84 50.88C34.62 50.72 34.47 50.49 34.42 50.23C34.38 49.97 34.43 49.7 34.58 49.48C34.74 49.27 34.97 49.12 35.23 49.07C35.49 49.02 35.76 49.08 35.98 49.23L45.66 55.94C45.88 56.09 46.12 56.19 46.37 56.25C46.62 56.3 46.88 56.3 47.14 56.26C47.39 56.21 47.63 56.12 47.85 55.97C48.07 55.83 48.26 55.65 48.4 55.44C48.55 55.23 48.65 54.99 48.7 54.74C48.76 54.49 48.76 54.23 48.72 53.98C48.68 53.73 48.58 53.49 48.45 53.27C48.31 53.05 48.13 52.86 47.92 52.72L38.28 45.88C38.06 45.73 37.91 45.49 37.86 45.23C37.82 44.96 37.88 44.69 38.03 44.47C38.19 44.25 38.42 44.11 38.69 44.06C38.95 44.02 39.22 44.09 39.44 44.25L49.08 51.08C49.5 51.38 49.86 51.76 50.13 52.2C50.41 52.64 50.6 53.12 50.69 53.63C50.78 54.14 50.77 54.66 50.66 55.17C50.55 55.67 50.34 56.15 50.05 56.58C49.9 56.79 49.73 56.99 49.55 57.17C49.36 57.35 49.16 57.52 48.94 57.66C48.72 57.8 48.49 57.92 48.25 58.01C48.01 58.11 47.76 58.18 47.5 58.23C47.44 58.24 47.38 58.25 47.32 58.26C47.26 58.26 47.2 58.27 47.14 58.28C47.08 58.28 47.02 58.29 46.96 58.29C46.9 58.29 46.84 58.29 46.78 58.29L46.77 58.29Z" />
		<path id="Layer" class="shp0" d="M41.06 61.58C40.89 61.58 40.71 61.57 40.54 61.54C40.37 61.52 40.2 61.49 40.03 61.44C39.86 61.39 39.7 61.34 39.54 61.27C39.38 61.2 39.22 61.13 39.07 61.04L33.69 57.94C33.47 57.8 33.3 57.59 33.23 57.33C33.16 57.08 33.2 56.8 33.33 56.58C33.46 56.35 33.68 56.18 33.94 56.11C34.19 56.04 34.46 56.08 34.69 56.21L40.07 59.31C40.29 59.43 40.54 59.52 40.8 59.55C41.05 59.58 41.31 59.56 41.56 59.5C41.81 59.43 42.05 59.32 42.26 59.16C42.46 59.01 42.64 58.81 42.77 58.59C42.89 58.38 42.98 58.14 43.02 57.9C43.06 57.65 43.05 57.4 43 57.16C42.94 56.92 42.84 56.69 42.7 56.49C42.56 56.28 42.39 56.11 42.18 55.97L35.31 51.21C35.09 51.06 34.94 50.83 34.9 50.57C34.85 50.31 34.91 50.04 35.06 49.82C35.21 49.6 35.44 49.45 35.7 49.4C35.96 49.36 36.23 49.41 36.45 49.57L43.32 54.32C44.02 54.81 44.54 55.5 44.82 56.3C45.09 57.1 45.11 57.97 44.86 58.78C44.6 59.59 44.1 60.3 43.42 60.8C42.73 61.31 41.91 61.58 41.06 61.58L41.06 61.58Z" />
		<path id="Layer" fill-rule="evenodd" class="shp0" d="M27.45 60.27C26.77 59.81 26.26 59.15 25.97 58.38C25.68 57.62 25.63 56.78 25.83 55.99C26.03 55.19 26.47 54.48 27.08 53.94L29.75 51.6C30.15 51.25 30.61 50.98 31.11 50.81C31.61 50.64 32.14 50.57 32.67 50.61C33.19 50.64 33.71 50.78 34.18 51.01C34.66 51.25 35.08 51.57 35.43 51.97C35.78 52.37 36.04 52.83 36.21 53.33C36.38 53.83 36.45 54.36 36.42 54.88C36.39 55.41 36.25 55.93 36.01 56.4C35.78 56.87 35.46 57.3 35.06 57.64L32.39 59.99C32.21 60.15 32.01 60.29 31.8 60.42C31.6 60.54 31.38 60.64 31.15 60.73C30.93 60.81 30.69 60.88 30.46 60.92C30.22 60.96 29.98 60.98 29.74 60.98C28.92 60.98 28.12 60.74 27.45 60.27ZM32.04 52.63C31.92 52.65 31.81 52.69 31.69 52.73C31.58 52.77 31.47 52.82 31.37 52.89C31.26 52.95 31.16 53.02 31.07 53.1L28.4 55.44C28 55.8 27.75 56.3 27.72 56.83C27.68 57.37 27.86 57.89 28.21 58.3C28.57 58.7 29.07 58.95 29.6 58.98C30.14 59.02 30.66 58.84 31.07 58.48L33.74 56.14C34.05 55.87 34.26 55.51 34.36 55.11C34.46 54.71 34.44 54.29 34.29 53.91C34.15 53.52 33.89 53.19 33.55 52.96C33.22 52.73 32.82 52.6 32.41 52.6C32.28 52.6 32.16 52.61 32.04 52.63Z" />
		<path id="Layer" fill-rule="evenodd" class="shp0" d="M23.42 58.25C23.15 58.23 22.89 58.19 22.64 58.12C22.38 58.06 22.14 57.96 21.9 57.85C21.66 57.73 21.44 57.59 21.23 57.43C21.02 57.27 20.83 57.09 20.66 56.89C20.3 56.49 20.03 56.03 19.86 55.53C19.68 55.03 19.61 54.5 19.64 53.96C19.67 53.43 19.81 52.92 20.04 52.44C20.28 51.96 20.6 51.53 21 51.18L25.46 47.27C25.86 46.92 26.32 46.65 26.82 46.48C27.32 46.31 27.85 46.24 28.38 46.27C28.9 46.31 29.42 46.45 29.89 46.68C30.37 46.91 30.79 47.24 31.14 47.63L30.41 48.33L31.17 47.67C31.51 48.06 31.78 48.53 31.95 49.03C32.12 49.53 32.19 50.05 32.16 50.58C32.12 51.11 31.99 51.62 31.75 52.1C31.52 52.57 31.19 52.99 30.8 53.34L26.33 57.26C26.15 57.42 25.96 57.56 25.75 57.69C25.54 57.81 25.32 57.92 25.1 58C24.87 58.09 24.64 58.15 24.4 58.19C24.17 58.24 23.93 58.26 23.68 58.26C23.6 58.26 23.51 58.26 23.42 58.25ZM28.11 48.27C27.99 48.26 27.87 48.28 27.75 48.3C27.63 48.32 27.51 48.35 27.4 48.39C27.28 48.44 27.17 48.49 27.07 48.55C26.97 48.61 26.87 48.68 26.78 48.77L22.32 52.68C22.02 52.95 21.8 53.3 21.7 53.69C21.6 54.08 21.62 54.49 21.75 54.87C21.88 55.25 22.12 55.59 22.44 55.83C22.76 56.08 23.15 56.22 23.55 56.25C23.68 56.26 23.81 56.26 23.94 56.24C24.07 56.22 24.2 56.19 24.33 56.15C24.46 56.11 24.58 56.05 24.69 55.98C24.81 55.92 24.91 55.84 25.01 55.75L29.47 51.84C29.67 51.66 29.84 51.45 29.95 51.21C30.07 50.97 30.14 50.71 30.16 50.45C30.18 50.18 30.14 49.92 30.05 49.66C29.97 49.41 29.84 49.18 29.66 48.98L29.63 48.95C29.54 48.85 29.45 48.76 29.34 48.68C29.24 48.6 29.13 48.53 29.01 48.47C28.89 48.41 28.76 48.37 28.64 48.33C28.51 48.3 28.38 48.28 28.25 48.27C28.2 48.27 28.15 48.27 28.11 48.27L28.11 48.27Z" />
		<path id="Layer" fill-rule="evenodd" class="shp0" d="M18.37 54.58C18.11 54.56 17.85 54.52 17.59 54.45C17.34 54.39 17.09 54.29 16.85 54.18C16.62 54.06 16.39 53.92 16.18 53.76C15.98 53.6 15.78 53.42 15.61 53.22L15.5 53.09C15.15 52.69 14.89 52.23 14.72 51.73C14.55 51.23 14.48 50.7 14.51 50.18C14.55 49.65 14.68 49.13 14.92 48.66C15.15 48.19 15.47 47.76 15.87 47.42L21.04 42.88C21.44 42.53 21.9 42.26 22.4 42.09C22.9 41.92 23.43 41.85 23.96 41.88C24.49 41.92 25 42.06 25.47 42.29C25.95 42.52 26.37 42.85 26.72 43.24L26.83 43.37C27.18 43.77 27.45 44.23 27.62 44.73C27.79 45.23 27.86 45.76 27.82 46.29C27.79 46.81 27.65 47.33 27.42 47.8C27.18 48.28 26.86 48.7 26.46 49.05L21.29 53.59C21.11 53.75 20.91 53.89 20.71 54.02C20.5 54.14 20.28 54.25 20.06 54.33C19.83 54.42 19.6 54.48 19.36 54.52C19.12 54.57 18.88 54.59 18.64 54.59C18.55 54.59 18.46 54.59 18.37 54.58ZM23.33 43.91C23.21 43.93 23.09 43.96 22.98 44C22.87 44.05 22.76 44.1 22.65 44.16C22.55 44.22 22.45 44.3 22.36 44.38L17.19 48.92C16.99 49.09 16.82 49.31 16.71 49.54C16.59 49.78 16.52 50.04 16.5 50.31C16.48 50.57 16.52 50.84 16.61 51.09C16.69 51.34 16.82 51.57 17 51.77L17.11 51.9C17.29 52.1 17.5 52.26 17.74 52.38C17.98 52.5 18.24 52.57 18.5 52.58C18.77 52.6 19.03 52.57 19.28 52.48C19.53 52.4 19.77 52.26 19.97 52.09L25.14 47.55C25.34 47.37 25.5 47.16 25.62 46.92C25.74 46.68 25.81 46.42 25.82 46.16C25.84 45.89 25.81 45.63 25.72 45.37C25.63 45.12 25.5 44.89 25.33 44.69L25.21 44.56C25.13 44.46 25.03 44.37 24.93 44.29C24.82 44.21 24.71 44.14 24.59 44.08C24.47 44.03 24.35 43.98 24.22 43.95C24.09 43.91 23.96 43.89 23.83 43.88C23.78 43.88 23.74 43.88 23.69 43.88C23.57 43.88 23.45 43.89 23.33 43.91Z" />
		<path id="Layer" fill-rule="evenodd" class="shp0" d="M14.02 50.13C13.23 50.08 12.46 49.79 11.82 49.31C11.19 48.82 10.71 48.16 10.45 47.4C10.19 46.64 10.16 45.83 10.37 45.05C10.57 44.28 11 43.58 11.6 43.05L14.84 40.21C15.24 39.86 15.7 39.59 16.2 39.42C16.7 39.25 17.23 39.18 17.75 39.22C18.28 39.25 18.8 39.39 19.27 39.62C19.74 39.86 20.17 40.18 20.52 40.58L20.55 40.62C20.9 41.02 21.17 41.48 21.34 41.98C21.51 42.48 21.58 43.01 21.54 43.53C21.51 44.06 21.37 44.58 21.14 45.05C20.9 45.52 20.58 45.95 20.18 46.29L16.94 49.14C16.76 49.3 16.57 49.44 16.36 49.57C16.15 49.69 15.93 49.8 15.71 49.88C15.48 49.97 15.25 50.03 15.01 50.07C14.77 50.12 14.53 50.14 14.29 50.14C14.2 50.14 14.11 50.14 14.02 50.13ZM17.49 41.21C17.37 41.21 17.25 41.22 17.13 41.24C17.01 41.26 16.89 41.3 16.78 41.34C16.67 41.38 16.56 41.43 16.45 41.5C16.35 41.56 16.25 41.63 16.16 41.71L12.92 44.55C12.72 44.73 12.56 44.94 12.44 45.18C12.32 45.42 12.25 45.68 12.24 45.94C12.22 46.21 12.25 46.47 12.34 46.72C12.43 46.98 12.56 47.21 12.74 47.41C12.91 47.61 13.12 47.78 13.36 47.91C13.6 48.03 13.86 48.1 14.13 48.12C14.4 48.14 14.67 48.11 14.93 48.03C15.18 47.94 15.42 47.81 15.62 47.63L18.86 44.79C19.06 44.61 19.22 44.4 19.34 44.16C19.46 43.93 19.53 43.67 19.55 43.4C19.56 43.14 19.53 42.87 19.44 42.62C19.36 42.37 19.22 42.14 19.05 41.94L19.01 41.9C18.93 41.8 18.83 41.71 18.72 41.62C18.62 41.54 18.51 41.47 18.39 41.42C18.27 41.36 18.14 41.31 18.02 41.28C17.89 41.24 17.76 41.22 17.63 41.21C17.58 41.21 17.53 41.21 17.49 41.21L17.49 41.21Z" />
		<path id="Layer" class="shp0" d="M12.48 44.61C12.42 44.61 12.37 44.61 12.32 44.6C12.26 44.59 12.21 44.58 12.16 44.56C12.11 44.54 12.06 44.52 12.01 44.5C11.97 44.47 11.92 44.44 11.88 44.41L8.46 41.81C8.25 41.65 8.11 41.41 8.07 41.15C8.04 40.89 8.11 40.62 8.27 40.41C8.43 40.2 8.67 40.06 8.93 40.03C9.19 39.99 9.46 40.06 9.67 40.22L13.09 42.82C13.26 42.95 13.38 43.12 13.44 43.32C13.51 43.52 13.5 43.74 13.44 43.94C13.37 44.14 13.24 44.31 13.07 44.43C12.9 44.56 12.69 44.62 12.48 44.62L12.48 44.61Z" />
		<path id="Layer" class="shp0" d="M58.52 45.72C58.32 45.72 58.13 45.66 57.96 45.55C57.8 45.44 57.67 45.29 57.6 45.1C57.52 44.92 57.5 44.72 57.54 44.52C57.58 44.33 57.67 44.15 57.81 44.01L63.42 38.4C63.61 38.22 63.86 38.12 64.13 38.12C64.39 38.12 64.64 38.23 64.82 38.41C65.01 38.6 65.12 38.85 65.12 39.11C65.12 39.37 65.02 39.63 64.84 39.81L59.23 45.42C59.18 45.47 59.13 45.51 59.07 45.55C59.02 45.59 58.96 45.62 58.9 45.64C58.84 45.67 58.78 45.69 58.71 45.7C58.65 45.71 58.58 45.72 58.52 45.72L58.52 45.72Z" />
		<path id="Layer" fill-rule="evenodd" class="shp0" d="M65.92 43.61C65.84 43.59 65.76 43.56 65.68 43.52C65.61 43.48 65.54 43.43 65.48 43.37C65.42 43.31 65.36 43.24 65.32 43.17L53.11 23.31C53.04 23.2 53 23.09 52.98 22.97C52.95 22.85 52.95 22.73 52.98 22.61C53 22.49 53.04 22.37 53.1 22.27C53.17 22.16 53.25 22.07 53.35 22L65.44 12.63C65.57 12.53 65.73 12.46 65.9 12.43C66.06 12.41 66.23 12.42 66.39 12.48C66.55 12.53 66.69 12.63 66.8 12.76C66.91 12.88 66.99 13.03 67.03 13.2L72.97 39.14C73 39.25 73.01 39.36 73 39.46C72.99 39.57 72.96 39.68 72.92 39.77C72.87 39.87 72.81 39.96 72.74 40.04C72.67 40.12 72.58 40.19 72.49 40.24L66.66 43.52C66.62 43.54 66.58 43.56 66.54 43.57C66.5 43.59 66.46 43.6 66.42 43.61C66.38 43.62 66.34 43.63 66.3 43.64C66.25 43.64 66.21 43.65 66.17 43.65C66.08 43.65 66 43.63 65.92 43.61ZM55.28 23.03L66.52 41.3L70.86 38.86L65.43 15.17L55.28 23.03Z" />
		<path id="Layer" fill-rule="evenodd" class="shp0" d="M7.7 43.99C7.66 43.99 7.62 43.98 7.58 43.97C7.54 43.96 7.5 43.94 7.46 43.93C7.42 43.91 7.38 43.89 7.34 43.87L1.51 40.6C1.42 40.55 1.33 40.48 1.26 40.4C1.19 40.32 1.13 40.23 1.08 40.13C1.04 40.03 1.01 39.93 1 39.82C0.99 39.71 1 39.6 1.02 39.5L6.97 13.56C7.01 13.39 7.09 13.24 7.2 13.12C7.31 12.99 7.45 12.89 7.61 12.84C7.77 12.78 7.94 12.77 8.1 12.79C8.27 12.82 8.43 12.89 8.56 12.99L20.65 22.35C20.75 22.43 20.83 22.52 20.9 22.63C20.96 22.73 21 22.84 21.03 22.97C21.05 23.09 21.05 23.21 21.02 23.33C21 23.45 20.96 23.56 20.89 23.67L8.68 43.53C8.64 43.6 8.58 43.67 8.52 43.72C8.46 43.78 8.39 43.83 8.32 43.87C8.24 43.92 8.16 43.95 8.08 43.97C8 43.99 7.91 44 7.83 44C7.79 44 7.74 44 7.7 43.99ZM3.14 39.22L7.48 41.66L18.72 23.39L8.57 15.53L3.14 39.22Z" />
	</g>
</svg>