<svg xmlns="http://www.w3.org/2000/svg" viewBox="0 0 775 775" width="48" height="48">
	<defs>
		<clipPath clipPathUnits="userSpaceOnUse" id="cp1">
			<path d="M0 0L775 0L775 775L0 775Z" />
		</clipPath>
	</defs>
	<style>
		tspan { white-space:pre }
		.shp0 { fill: #f1602e } 
	</style>
	<g id="Page 1" clip-path="url(#cp1)">
		<path id="Path 1" class="shp0" d="M434.36 383.73L435.67 381.09L413.31 369.9L412 372.55C407.24 382.08 397.66 388 387 388L349.5 388L349.5 413L387 413C407.19 413 425.34 401.79 434.36 383.73ZM349.95 265.82L374.2 259.75L386.72 309.74L362.47 315.81L349.95 265.82ZM399.94 265.79L424.18 259.72L436.71 309.71L412.46 315.78L399.94 265.79ZM49.5 513L74.5 513L74.5 538L49.5 538L49.5 513ZM99.5 513L124.5 513L124.5 538L99.5 538L99.5 513ZM149.5 513L174.5 513L174.5 538L149.5 538L149.5 513ZM49.5 438L74.5 438L74.5 463L49.5 463L49.5 438ZM99.5 438L124.5 438L124.5 463L99.5 463L99.5 438ZM149.5 438L174.5 438L174.5 463L149.5 463L149.5 438ZM49.5 363L74.5 363L74.5 388L49.5 388L49.5 363ZM99.5 363L124.5 363L124.5 388L99.5 388L99.5 363ZM149.5 363L174.5 363L174.5 388L149.5 388L149.5 363ZM599.5 513L624.5 513L624.5 538L599.5 538L599.5 513ZM649.5 513L674.5 513L674.5 538L649.5 538L649.5 513ZM699.5 513L724.5 513L724.5 538L699.5 538L699.5 513ZM599.5 438L624.5 438L624.5 463L599.5 463L599.5 438ZM649.5 438L674.5 438L674.5 463L649.5 463L649.5 438ZM699.5 438L724.5 438L724.5 463L699.5 463L699.5 438ZM599.5 363L624.5 363L624.5 388L599.5 388L599.5 363ZM649.5 363L674.5 363L674.5 388L649.5 388L649.5 363ZM699.5 363L724.5 363L724.5 388L699.5 388L699.5 363Z" />
		<path id="Path 2" fill-rule="evenodd" class="shp0" d="M774.5 315.73L774.5 750.5L474.5 750.5C474.5 764.29 463.29 775.5 449.5 775.5L324.5 775.5C310.71 775.5 299.5 764.29 299.5 750.5L-0.5 750.5L-0.5 259.48L74.5 278.23L74.5 225.5L99.5 225.5L99.5 284.48L124.5 290.73L124.5 175.5L149.5 175.5L149.5 296.98L174.5 303.23L174.5 153.23L324.5 115.73L324.5 50.5L349.5 50.5L349.5 109.48L374.5 103.23L374.5 0.5L399.5 0.5L399.5 96.98L424.5 90.73L424.5 25.5L449.5 25.5L449.5 84.48L599.5 46.98L599.5 271.98L624.5 278.23L624.5 225.5L649.5 225.5L649.5 284.48L674.5 290.73L674.5 175.5L699.5 175.5L699.5 296.98L774.5 315.73ZM749.5 335.27L574.5 291.52L574.5 600.5L749.5 600.5L749.5 335.27ZM421.77 600.52L548.82 600.52C544.48 557.56 518.06 520.14 480.15 501.27L456.38 584.5L419.74 555.2L412.98 565.34L421.77 600.5L421.77 600.52ZM449.5 750.5L449.5 625.5L417.55 625.5C421.85 632.89 424.5 641.35 424.5 650.5C424.5 678.07 402.07 700.5 374.5 700.5L324.5 700.5L324.5 750.5L449.5 750.5ZM199.48 172.77L199.48 309.48L224.48 315.73L224.48 530.54C245.95 498.15 279.7 474.22 319.85 466.19L327.42 464.68L330.86 454.37C315.68 445.55 304.37 430.74 300.76 413L299.5 413C271.93 413 249.5 390.57 249.5 363C249.5 352.1 253.1 342.08 259.05 333.85L250.3 281.36C249.76 278.15 249.5 274.9 249.5 271.64C249.5 246.12 265.76 223.57 289.95 215.5L290.97 215.16C301.46 198.28 319.77 188 339.95 188L422.96 188C478.95 188 524.5 233.55 524.5 289.54C524.5 297.85 523.47 306.14 521.46 314.17L516.15 335.44C521.4 343.35 524.5 352.81 524.5 363C524.5 390.57 502.07 413 474.5 413L473.22 413C469.61 430.75 458.32 445.56 443.13 454.37L446.56 464.66L454.14 466.17C494.28 474.21 528.04 498.14 549.5 530.52L549.5 259.48L574.5 265.73L574.5 79.02L199.5 172.77L199.48 172.77ZM342.59 286.69C331.43 292.26 324.5 303.48 324.5 315.95L324.5 400.5C324.5 421.18 341.32 438 362 438L412 438C432.68 438 449.5 421.18 449.5 400.5L449.5 288L474.5 288L474.5 313C481.78 313 488.64 314.64 494.88 317.44L497.21 308.1C498.73 302.04 499.5 295.8 499.5 289.54C499.5 247.33 465.17 213 422.96 213L339.95 213C327.48 213 316.26 219.93 310.69 231.09L308.36 235.72L297.86 239.23C283.89 243.87 274.5 256.91 274.5 271.64C274.5 273.51 274.66 275.4 274.96 277.27L281.5 316.49C287.1 314.31 293.14 313 299.5 313L299.7 313C300.75 292.2 312.61 273.71 331.41 264.31L342.59 286.69ZM474.5 388C488.29 388 499.5 376.79 499.5 363C499.5 349.21 488.29 338 474.5 338L474.5 388ZM395.98 600.5L389.73 575.5L384.27 575.5L378.02 600.5L395.98 600.5ZM400.14 539.51L387 529.02L373.86 539.51L381.19 550.5L392.81 550.5L400.14 539.51ZM442.64 541.5L456.64 492.52C454.17 491.87 451.74 491.2 449.22 490.7L440.03 488.85L407.41 513.31L442.64 541.5ZM354.6 462.26L351.71 470.91L387 497.38L422.29 470.9L419.4 462.25C416.95 462.55 414.54 463 412 463L362 463C359.46 463 357.05 462.55 354.6 462.26ZM324.78 490.7C322.25 491.2 319.81 491.87 317.36 492.52L331.36 541.5L366.59 513.31L333.97 488.85L324.78 490.7ZM224.5 613C224.5 647.46 252.54 675.5 287 675.5L324.5 675.5L324.5 625.5L249.5 625.5L249.5 600.5L352.23 600.5L361.04 565.33L354.28 555.19L317.64 584.48L293.86 501.26C252.3 521.94 224.5 564.9 224.5 613ZM299.5 338C285.71 338 274.5 349.21 274.5 363C274.5 376.79 285.71 388 299.5 388L299.5 338ZM24.5 291.52L24.5 600.5L199.5 600.5L199.5 335.27L24.5 291.52ZM299.5 725.5L299.5 700.5L287 700.5C243.01 700.5 206.6 667.83 200.5 625.5L24.5 625.5L24.5 725.5L299.5 725.5ZM374.5 625.5L349.5 625.5L349.5 675.5L374.5 675.5C388.29 675.5 399.5 664.29 399.5 650.5C399.5 636.71 388.29 625.5 374.5 625.5ZM749.5 725.5L749.5 625.5L474.5 625.5L474.5 725.5L749.5 725.5Z" />
	</g>
</svg>