<svg xmlns="http://www.w3.org/2000/svg" viewBox="0 0 1536 1536" width="42" height="42">
	<style>
		tspan { white-space:pre }
		.shp0 { fill: #fe6705 } 
	</style>
	<g id="Capa 1">
		<path id="&lt;Compound Path&gt;" fill-rule="evenodd" class="shp0" d="M1484.8 768C1484.8 1163.88 1163.88 1484.8 768 1484.8C372.12 1484.8 51.2 1163.88 51.2 768C51.2 372.12 372.12 51.2 768 51.2C1163.7 51.62 1484.38 372.3 1484.8 768ZM1046.89 813.82C1056.84 808.86 1064.91 800.79 1069.87 790.84C1082.49 765.53 1072.19 734.79 1046.89 722.18L637.29 517.38C630.17 513.82 622.33 511.97 614.38 511.98C586.1 511.99 563.19 534.92 563.2 563.2L563.2 972.8C563.16 980.84 565.01 988.78 568.6 995.97C581.24 1021.26 611.99 1031.52 637.29 1018.88L1046.89 814.08L1046.89 813.82Z" />
	</g>
</svg>