<svg xmlns="http://www.w3.org/2000/svg" viewBox="0 0 512 512" width="48" height="48">
	<style>
		tspan { white-space:pre }
		.shp0 { fill: #f1602e } 
	</style>
	<g id="Layer">
		<path id="Layer" fill-rule="evenodd" class="shp0" d="M56 352C54.95 352 53.91 351.79 52.94 351.39C51.97 350.99 51.09 350.4 50.34 349.66C49.6 348.91 49.01 348.03 48.61 347.06C48.21 346.09 48 345.05 48 344L48 296C48 294.95 48.21 293.91 48.61 292.94C49.01 291.97 49.6 291.09 50.34 290.34C51.09 289.6 51.97 289.01 52.94 288.61C53.91 288.21 54.95 288 56 288L128 288C129.05 288 130.09 288.21 131.06 288.61C132.03 289.01 132.91 289.6 133.66 290.34C134.4 291.09 134.99 291.97 135.39 292.94C135.79 293.91 136 294.95 136 296L136 344C136 345.05 135.79 346.09 135.39 347.06C134.99 348.03 134.4 348.91 133.66 349.66C132.91 350.4 132.03 350.99 131.06 351.39C130.09 351.79 129.05 352 128 352L56 352ZM64 336L120 336L120 304L64 304L64 336Z" />
		<path id="Layer" class="shp0" d="M152 296L184 296L184 312L152 312L152 296Z" />
		<path id="Layer" class="shp0" d="M152 328L192 328L192 344L152 344L152 328Z" />
		<path id="Layer" fill-rule="evenodd" class="shp0" d="M64 416C57.63 416 51.53 413.47 47.03 408.97C42.53 404.47 40 398.37 40 392C40 385.63 42.53 379.53 47.03 375.03C51.53 370.53 57.63 368 64 368L176 368C182.37 368 188.47 370.53 192.97 375.03C197.47 379.53 200 385.63 200 392C200 398.37 197.47 404.47 192.97 408.97C188.47 413.47 182.37 416 176 416L64 416ZM127.39 388.94C126.99 387.97 126.4 387.09 125.65 386.35C124.91 385.6 124.03 385.01 123.06 384.61C122.09 384.21 121.05 384 120 384C116.76 384 113.85 385.95 112.61 388.94C111.37 391.93 112.06 395.37 114.34 397.66C116.63 399.94 120.07 400.63 123.06 399.39C126.05 398.15 128 395.24 128 392C128 390.95 127.79 389.91 127.39 388.94ZM143.65 387.94C143.88 389.28 144 390.64 144 392C144 393.36 143.88 394.72 143.65 396.06C143.42 397.4 143.08 398.72 142.62 400L153.38 400C152.92 398.72 152.58 397.4 152.35 396.06C152.12 394.72 152 393.36 152 392C152 390.64 152.12 389.28 152.35 387.94C152.58 386.6 152.92 385.28 153.38 384L142.62 384C143.08 385.28 143.42 386.6 143.65 387.94ZM97.38 400C96.92 398.72 96.58 397.4 96.35 396.06C96.12 394.72 96 393.36 96 392C96 390.64 96.12 389.28 96.35 387.94C96.58 386.6 96.92 385.28 97.38 384L86.62 384C87.08 385.28 87.42 386.6 87.65 387.94C87.88 389.28 88 390.64 88 392C88 393.36 87.88 394.72 87.65 396.06C87.42 397.4 87.08 398.72 86.62 400L97.38 400ZM183.39 388.94C182.99 387.97 182.4 387.09 181.65 386.35C180.91 385.6 180.03 385.01 179.06 384.61C178.09 384.21 177.05 384 176 384C172.76 384 169.85 385.95 168.61 388.94C167.37 391.93 168.06 395.37 170.34 397.66C172.63 399.94 176.07 400.63 179.06 399.39C182.05 398.15 184 395.24 184 392C184 390.95 183.79 389.91 183.39 388.94ZM64 384C62.95 384 61.91 384.21 60.94 384.61C59.97 385.01 59.09 385.6 58.35 386.35C57.6 387.09 57.01 387.97 56.61 388.94C56.21 389.91 56 390.95 56 392C56 395.24 57.95 398.15 60.94 399.39C63.93 400.63 67.37 399.94 69.66 397.66C71.94 395.37 72.63 391.93 71.39 388.94C70.15 385.95 67.24 384 64 384Z" />
		<path id="Layer" class="shp0" d="M48 432L64 432L64 464L48 464L48 432Z" />
		<path id="Layer" class="shp0" d="M80 432L96 432L96 464L80 464L80 432Z" />
		<path id="Layer" class="shp0" d="M112 432L128 432L128 464L112 464L112 432Z" />
		<path id="Layer" class="shp0" d="M144 432L160 432L160 464L144 464L144 432Z" />
		<path id="Layer" class="shp0" d="M176 432L192 432L192 464L176 464L176 432Z" />
		<path id="Layer" fill-rule="evenodd" class="shp0" d="M16 16L496 16L496 32L491.31 32L435.31 88L496 88L496 104L324.81 104L319.47 108.27L316.54 128.79C316.94 128.6 317.36 128.44 317.78 128.32C318.21 128.19 318.65 128.11 319.09 128.05C319.53 128 319.97 127.99 320.42 128.01C320.86 128.03 321.3 128.09 321.74 128.19L384.1 142.05C387.86 138.7 392.59 136.63 397.6 136.12C402.62 135.61 407.66 136.7 412.03 139.22C416.39 141.75 419.85 145.58 421.91 150.18C423.97 154.78 424.53 159.91 423.51 164.84L438.66 187.56C438.87 187.89 439.07 188.23 439.23 188.59C439.4 188.94 439.54 189.31 439.66 189.68C439.77 190.06 439.86 190.44 439.91 190.83C439.97 191.22 440 191.61 440 192L440 224C440 225.05 439.79 226.09 439.39 227.06C438.99 228.03 438.4 228.91 437.66 229.66C436.91 230.4 436.03 230.99 435.06 231.39C434.09 231.79 433.05 232 432 232L416 232C415.17 232 414.34 231.87 413.54 231.61C412.75 231.36 412 230.98 411.32 230.49C410.65 230 410.05 229.41 409.55 228.74C409.06 228.07 408.67 227.32 408.41 226.53L402.23 208L397.77 208L391.59 226.53C391.33 227.32 390.94 228.07 390.45 228.74C389.95 229.41 389.35 230 388.68 230.49C388 230.98 387.25 231.36 386.46 231.61C385.66 231.87 384.83 232 384 232L368 232C366.95 232 365.91 231.79 364.94 231.39C363.97 230.99 363.09 230.4 362.34 229.66C361.6 228.91 361.01 228.03 360.61 227.06C360.21 226.09 360 225.05 360 224L360 192C360 191.61 360.03 191.22 360.09 190.83C360.14 190.44 360.23 190.06 360.34 189.68C360.46 189.31 360.6 188.94 360.77 188.59C360.93 188.23 361.13 187.89 361.34 187.56L363.72 184L288 184C284.91 184 281.85 183.4 278.98 182.23C276.12 181.07 273.5 179.36 271.29 177.2C269.07 175.05 267.29 172.49 266.04 169.66C264.8 166.82 264.11 163.78 264.02 160.69L256.53 108.27L251.19 104L168 104L168 184C168 187.15 167.37 190.27 166.17 193.18C164.96 196.09 163.19 198.73 160.96 200.96C158.73 203.19 156.09 204.96 153.18 206.17C150.27 207.37 147.15 208 144 208L112 208L112 256L216 256C217.05 256 218.09 256.21 219.06 256.61C220.03 257.01 220.91 257.6 221.66 258.34C222.4 259.09 222.99 259.97 223.39 260.94C223.79 261.91 224 262.95 224 264L224 320L240 320L240 256C240 254.95 240.21 253.91 240.61 252.94C241.01 251.97 241.6 251.09 242.34 250.34C243.09 249.6 243.97 249.01 244.94 248.61C245.91 248.21 246.95 248 248 248L328 248C329.05 248 330.09 248.21 331.06 248.61C332.03 249.01 332.91 249.6 333.66 250.34C334.4 251.09 334.99 251.97 335.39 252.94C335.79 253.91 336 254.95 336 256L336 320L352 320L352 256C352 254.95 352.21 253.91 352.61 252.94C353.01 251.97 353.6 251.09 354.34 250.34C355.09 249.6 355.97 249.01 356.94 248.61C357.91 248.21 358.95 248 360 248L440 248C441.05 248 442.09 248.21 443.06 248.61C444.03 249.01 444.91 249.6 445.66 250.34C446.4 251.09 446.99 251.97 447.39 252.94C447.79 253.91 448 254.95 448 256L448 320L464 320C472.1 320 479.89 323.07 485.82 328.59C491.74 334.11 495.35 341.67 495.92 349.74C496.49 357.82 493.98 365.81 488.89 372.11C483.8 378.41 476.51 382.54 468.5 383.68L456 402.42L456 461.58L470.66 483.56C471.46 484.77 471.92 486.17 471.99 487.61C472.06 489.06 471.74 490.5 471.05 491.77C470.37 493.05 469.35 494.12 468.11 494.86C466.87 495.61 465.45 496 464 496L384 496C382.55 496 381.13 495.61 379.89 494.86C378.65 494.12 377.63 493.05 376.95 491.77C376.26 490.5 375.94 489.06 376.01 487.61C376.08 486.17 376.54 484.77 377.34 483.56L392 461.58L392 402.42L379.72 384L332.28 384L320 402.42L320 461.58L334.66 483.56C335.46 484.77 335.92 486.17 335.99 487.61C336.06 489.06 335.74 490.5 335.05 491.77C334.37 493.05 333.35 494.12 332.11 494.86C330.87 495.61 329.45 496 328 496L248 496C246.55 496 245.13 495.61 243.89 494.86C242.65 494.12 241.63 493.05 240.95 491.77C240.26 490.5 239.94 489.06 240.01 487.61C240.08 486.17 240.54 484.77 241.34 483.56L256 461.58L256 402.42L243.72 384L224 384L224 488C224 489.05 223.79 490.09 223.39 491.06C222.99 492.03 222.4 492.91 221.66 493.66C220.91 494.4 220.03 494.99 219.06 495.39C218.09 495.79 217.05 496 216 496L24 496C22.95 496 21.91 495.79 20.94 495.39C19.97 494.99 19.09 494.4 18.34 493.66C17.6 492.91 17.01 492.03 16.61 491.06C16.21 490.09 16 489.05 16 488L16 264C16 262.95 16.21 261.91 16.61 260.94C17.01 259.97 17.6 259.09 18.34 258.34C19.09 257.6 19.97 257.01 20.94 256.61C21.91 256.21 22.95 256 24 256L72 256L72 192C72 188.85 72.63 185.73 73.83 182.82C75.04 179.91 76.81 177.27 79.04 175.04C81.27 172.81 83.91 171.04 86.82 169.83C89.73 168.63 92.85 168 96 168L128 168L128 104L16 104L16 88L20.69 88L76.69 32L16 32L16 16ZM304 408L272 408L272 456L280 456L280 424L296 424L296 456L304 456L304 408ZM313.05 480L307.72 472L268.28 472L262.95 480L313.05 480ZM313.05 384L262.95 384L268.28 392L307.72 392L313.05 384ZM432 424L432 456L440 456L440 408L408 408L408 456L416 456L416 424L432 424ZM443.72 392L449.05 384L398.95 384L404.28 392L443.72 392ZM449.05 480L443.72 472L404.28 472L398.95 480L449.05 480ZM368 320L432 320L432 264L408 264L408 280L392 280L392 264L368 264L368 320ZM256 320L320 320L320 264L296 264L296 280L280 280L280 264L256 264L256 320ZM224 336L224 368L464 368C468.24 368 472.31 366.31 475.31 363.31C478.31 360.31 480 356.24 480 352C480 347.76 478.31 343.69 475.31 340.69C472.31 337.69 468.24 336 464 336L224 336ZM277.03 138.66C278.72 137.79 280.51 137.12 282.36 136.68C284.2 136.23 286.1 136 288 136C289.9 136 291.8 136.23 293.64 136.68C295.49 137.12 297.28 137.79 298.97 138.66L302.78 112L273.22 112L277.03 138.66ZM309.19 96L344 68.15L344 56L232 56L232 68.15L266.81 96L309.19 96ZM356.85 88L408 88L408 41.96L356.85 88ZM395.15 32L344 32L344 40L352 40C353.05 40 354.09 40.21 355.06 40.61C356.03 41.01 356.91 41.6 357.66 42.34C358.4 43.09 358.99 43.97 359.39 44.94C359.79 45.91 360 46.95 360 48L360 63.64L395.15 32ZM328 32L264 32L264 40L328 40L328 32ZM235.15 32L184 32L184 78.04L216 49.24L216 48C216 46.95 216.21 45.91 216.61 44.94C217.01 43.97 217.6 43.09 218.34 42.34C219.09 41.6 219.97 41.01 220.94 40.61C221.91 40.21 222.95 40 224 40L226.26 40L235.15 32ZM168 41.96L116.85 88L168 88L168 41.96ZM155.15 32L104 32L104 78.04L155.15 32ZM43.31 88L88 88L88 43.31L43.31 88ZM208 272L32 272L32 480L208 480L208 272ZM96 256L96 224L88 224L88 256L96 256ZM112 192L112 184L96 184C94.95 184 93.91 184.21 92.94 184.61C91.97 185.01 91.09 185.6 90.35 186.35C89.6 187.09 89.01 187.97 88.61 188.94C88.21 189.91 88 190.95 88 192L88 208L96 208L96 200C96 198.95 96.21 197.91 96.61 196.94C97.01 195.97 97.6 195.09 98.34 194.34C99.09 193.6 99.97 193.01 100.94 192.61C101.91 192.21 102.95 192 104 192L112 192ZM144 192C145.05 192 146.09 191.79 147.06 191.39C148.03 190.99 148.91 190.4 149.65 189.65C150.4 188.91 150.99 188.03 151.39 187.06C151.79 186.09 152 185.05 152 184L152 168L144 168L144 176C144 177.05 143.79 178.09 143.39 179.06C142.99 180.03 142.4 180.91 141.66 181.66C140.91 182.4 140.03 182.99 139.06 183.39C138.09 183.79 137.05 184 136 184L128 184L128 192L144 192ZM152 104L144 104L144 152L152 152L152 104ZM231.19 88L219 78.25C218.54 77.87 218.11 77.45 217.74 76.98C217.37 76.51 217.05 76 216.79 75.47C216.53 74.93 216.33 74.36 216.2 73.78C216.07 73.19 216 72.6 216 72L216 70.76L196.85 88L231.19 88ZM280.61 163.06C281.01 164.03 281.6 164.91 282.35 165.65C283.09 166.4 283.97 166.99 284.94 167.39C285.91 167.79 286.95 168 288 168C291.24 168 294.15 166.05 295.39 163.06C296.63 160.07 295.94 156.63 293.66 154.34C291.37 152.06 287.93 151.37 284.94 152.61C281.95 153.85 280 156.76 280 160C280 161.05 280.21 162.09 280.61 163.06ZM424 194.42L414.02 179.46C412 180.93 409.75 182.07 407.37 182.84C404.99 183.61 402.5 184 400 184C397.5 184 395.01 183.61 392.63 182.84C390.25 182.07 388 180.93 385.98 179.46L376 194.42L376 216L378.23 216L384.41 197.47C384.67 196.68 385.06 195.93 385.55 195.26C386.05 194.59 386.65 194 387.32 193.51C388 193.02 388.75 192.64 389.54 192.39C390.34 192.13 391.17 192 392 192L408 192C408.83 192 409.66 192.13 410.46 192.39C411.25 192.64 412 193.02 412.68 193.51C413.35 194 413.95 194.59 414.45 195.26C414.94 195.93 415.33 196.68 415.59 197.47L421.77 216L424 216L424 194.42ZM400 152C398.95 152 397.91 152.21 396.94 152.61C395.97 153.01 395.09 153.6 394.35 154.35C393.6 155.09 393.01 155.97 392.61 156.94C392.21 157.91 392 158.95 392 160C392 163.24 393.95 166.15 396.94 167.39C399.93 168.63 403.37 167.94 405.66 165.66C407.94 163.37 408.63 159.93 407.39 156.94C406.15 153.95 403.24 152 400 152ZM309.82 150.03C310.46 151.43 310.97 152.89 311.33 154.38C311.69 155.88 311.91 157.4 311.98 158.94C312.04 160.47 311.96 162.01 311.74 163.53C311.51 165.06 311.14 166.55 310.62 168L374.39 168L376.49 164.84C376.35 164.17 376.24 163.5 376.16 162.82C376.08 162.14 376.03 161.46 376.01 160.78C375.99 160.1 376 159.41 376.04 158.73C376.07 158.05 376.14 157.37 376.23 156.69L321.04 144.43L309.82 150.03ZM468.69 32L424 32L424 76.69L468.69 32Z" />
	</g>
</svg>