<svg xmlns="http://www.w3.org/2000/svg" viewBox="0 0 750 750" width="48" height="48">
	<defs>
		<clipPath clipPathUnits="userSpaceOnUse" id="cp1">
			<path d="M0 0L750 0L750 750L0 750Z" />
		</clipPath>
	</defs>
	<style>
		tspan { white-space:pre }
		.shp0 { fill: #f1602e } 
	</style>
	<g id="Page 1" clip-path="url(#cp1)">
		<path id="Path 1" class="shp0" d="M75 675L100 675L100 700L75 700L75 675ZM150 637.5L175 637.5L175 662.5L150 662.5L150 637.5ZM125 487.5L150 487.5L150 512.5L125 512.5L125 487.5ZM50 525L75 525L75 550L50 550L50 525ZM225 662.5L250 662.5L250 687.5L225 687.5L225 662.5ZM325 612.5L350 612.5L350 637.5L325 637.5L325 612.5ZM662.5 662.5L687.5 662.5L687.5 687.5L662.5 687.5L662.5 662.5ZM400 650L425 650L425 675L400 675L400 650ZM625 587.5L650 587.5L650 612.5L625 612.5L625 587.5ZM100 350L125 350L125 375L100 375L100 350ZM150 350L175 350L175 375L150 375L150 350ZM250 337.5L275 337.5L275 375L250 375L250 337.5ZM300 337.5L325 337.5L325 375L300 375L300 337.5Z" />
		<path id="Path 2" fill-rule="evenodd" class="shp0" d="M750 178.91L750 737.5C750 744.4 744.4 750 737.5 750L12.5 750C5.6 750 0 744.4 0 737.5L0 500C0 495.73 2.18 491.75 5.79 489.45L50 461.32L50 250C50 243.1 55.6 237.5 62.5 237.5L262.5 237.5L262.5 50C262.53 22.4 284.9 0.03 312.5 0L560.34 0C572.91 -0.02 585.03 4.72 594.25 13.26L733.91 142.18C744.16 151.65 749.98 164.97 750 178.91ZM287.5 237.5C290.42 237.5 293.25 238.52 295.5 240.4L370.5 302.9C373.35 305.27 375 308.79 375 312.5L375 431.83C385.49 436.95 395.68 442.67 405.53 448.93L470.57 490.32C543.81 480.42 618.19 496.75 680.53 536.43L725 564.73L725 178.91C724.99 171.94 722.08 165.28 716.96 160.55L587.5 41.05L587.5 125C587.52 138.8 598.7 149.98 612.5 150L675 150L675 175L612.5 175C584.9 174.97 562.53 152.6 562.5 125L562.5 25.1C561.78 25.04 561.06 25 560.34 25L312.5 25C298.7 25.02 287.52 36.2 287.5 50L287.5 237.5ZM287.5 266.27L225 318.35L225 400.26C229.16 400.09 233.33 400 237.5 400C275.97 399.98 314.1 407.07 350 420.91L350 318.35L287.5 266.27ZM200 325L75 325L75 400L200 400L200 325ZM75 425L75 445.5C87.8 437.72 101.14 430.87 114.92 425L75 425ZM212.5 426.08L212.5 575L262.5 575L262.5 426.08C254.21 425.36 245.88 425 237.5 425C229.12 425.01 220.79 425.37 212.5 426.08ZM287.5 572.68L344.47 536.43C372.35 518.68 402.88 505.45 434.9 497.26L392.11 470.02C360.25 449.73 324.7 435.91 287.5 429.36L287.5 572.68ZM487.5 513.58L487.5 725L550 725L550 514.95C537.56 513.32 525.04 512.5 512.5 512.5C504.12 512.51 495.79 512.87 487.5 513.58ZM75 300L207.98 300L252.98 262.5L75 262.5L75 300ZM25 506.86L25 575L187.5 575L187.5 429.36C150.3 435.91 114.75 449.73 82.89 470.02L25 506.86ZM25 725L462.5 725L462.5 516.86C425.3 523.41 389.75 537.23 357.89 557.52L294.21 598.05C292.2 599.32 289.88 600 287.5 600L25 600L25 725ZM725 594.36L667.11 557.52C638.86 539.54 607.69 526.62 575 519.36L575 725L725 725L725 594.36ZM612.5 275L675 275L675 300L612.5 300L612.5 275ZM475 275L587.5 275L587.5 300L475 300L475 275ZM400 275L450 275L450 300L400 300L400 275ZM512.5 350L675 350L675 375L512.5 375L512.5 350ZM400 350L487.5 350L487.5 375L400 375L400 350ZM562.5 425L675 425L675 450L562.5 450L562.5 425ZM450 425L537.5 425L537.5 450L450 450L450 425ZM337.5 75L362.5 75L362.5 100L337.5 100L337.5 75ZM387.5 75L512.5 75L512.5 100L387.5 100L387.5 75ZM337.5 137.5L437.5 137.5L437.5 162.5L337.5 162.5L337.5 137.5ZM462.5 137.5L512.5 137.5L512.5 162.5L462.5 162.5L462.5 137.5Z" />
	</g>
</svg>