<svg xmlns="http://www.w3.org/2000/svg" viewBox="0 0 159 158" width="48" height="48">
	<style>
		tspan { white-space:pre }
		.shp0 { fill: #f1602f } 
	</style>
	<path id="Layer" fill-rule="evenodd" class="shp0" d="M105.19 42.02L105.19 47.26C114.19 47.26 123.06 47.76 131.84 47.1C138.5 46.6 142.64 48.59 145.37 54.68C146.98 58.29 149.49 61.51 151.64 64.88C157.93 74.72 155.97 82.76 145.94 88.6C145.73 88.75 145.54 88.92 145.37 89.11C145.2 89.3 145.05 89.51 144.92 89.74C144.8 89.96 144.69 90.2 144.62 90.44C144.55 90.69 144.5 90.94 144.48 91.2C144.41 107.56 144.48 123.93 144.48 140.3C144.5 140.43 144.53 140.55 144.55 140.67C144.58 140.8 144.61 140.92 144.65 141.04C144.68 141.17 144.72 141.29 144.75 141.41C144.79 141.53 144.84 141.65 144.88 141.77C146.15 141.77 147.48 141.77 148.82 141.77C155.72 141.9 160.56 149.91 157.11 155.84C156.52 156.84 154.39 157.42 152.96 157.44C141.21 157.57 129.47 157.52 117.72 157.52C80.86 157.52 44 157.5 7.14 157.45C4.32 157.45 0.14 159.2 0.02 153.62C-0.17 146.08 2.02 142.29 7.35 141.81C9.07 141.66 10.81 141.81 12.83 141.81C12.96 140.49 13.15 139.42 13.15 138.35C13.15 123.11 13.15 107.86 13.21 92.62C13.21 90.18 12.54 88.94 10.21 87.88C2.96 84.58 0.01 74.37 4.21 67.64C7.75 61.91 11.47 56.27 14.93 50.49C16.39 48.04 18.19 47.17 21.03 47.21C31.38 47.36 41.73 47.27 52.33 47.27L52.33 42.02C48.33 42.02 44.33 42.02 40.38 42.02C34.7 41.95 31.64 38.85 31.61 33.15C31.57 25.03 31.57 16.91 31.61 8.78C31.61 3.16 34.8 0.03 40.51 0.03C66.12 0.03 91.73 0.03 117.35 0.03C123.02 0.03 126.06 3.16 126.09 8.91C126.14 16.91 126.14 24.91 126.09 32.91C126.09 39.01 123 41.98 116.78 42.03C112.99 42.04 109.26 42.02 105.19 42.02ZM139.13 141.62C139.13 124.45 139.13 107.62 139.07 90.77C139.03 90.55 138.96 90.33 138.88 90.12C138.79 89.91 138.68 89.7 138.55 89.52C138.43 89.33 138.28 89.15 138.12 88.99C137.95 88.83 137.77 88.69 137.58 88.57C135.58 87.2 133.36 86.04 131.17 84.76C122.59 90.92 118.8 90.91 110.17 84.49C103.17 91.11 96.11 90.81 90.17 85.33C85.73 86.83 82.17 89.05 78.64 88.96C75.11 88.87 71.38 86.58 68.53 85.53C64.75 86.82 61.18 89.04 57.66 88.96C54.14 88.88 50.39 86.57 47.55 85.53C43.77 86.83 40.2 89.06 36.69 88.98C33.03 88.9 29.42 86.58 25.44 85.12C24.64 85.69 23.36 87.12 21.78 87.63C18.78 88.56 18.3 90.41 18.33 93.22C18.46 106.71 18.39 120.22 18.39 133.68L18.39 141.55L39.39 141.55C39.39 132.18 39.39 118.57 39.39 109.21C39.39 102.67 42.3 99.78 48.71 99.77C68.82 99.77 88.92 99.77 109.03 99.77C115.03 99.77 118.03 102.66 118.1 108.69C118.18 118.3 118.1 127.92 118.1 137.54C118.1 138.86 118.23 140.18 118.31 141.62L139.13 141.62ZM78.38 36.76C90.99 36.76 103.6 36.7 116.21 36.81C119.61 36.81 120.89 35.53 120.83 32.16C120.68 24.67 120.69 17.16 120.83 9.69C120.88 6.52 119.7 5.21 116.44 5.22C91.35 5.29 66.26 5.29 41.17 5.22C37.94 5.22 36.71 6.47 36.77 9.67C36.9 17.03 36.77 24.39 36.83 31.76C36.83 36.32 37.26 36.76 41.71 36.76L78.38 36.76ZM76 105.03C66.35 105.03 57 105.03 47.7 105.03C45.18 105.03 44.7 106.79 44.7 108.87C44.7 112.73 44.7 116.6 44.7 120.46C44.7 127.46 44.7 134.37 44.7 141.46L76.04 141.46L76 105.03ZM81.56 141.46L112.89 141.46C112.89 130.31 112.89 119.46 112.89 108.62C112.89 105.91 111.42 104.97 108.82 104.99C101.09 105.07 93.35 104.99 85.62 104.99C84.31 104.99 83 105.1 81.57 105.17L81.56 141.46ZM5.49 152.03L152.07 152.03C152.75 148.44 151.46 146.97 147.94 146.97C101.85 147.03 55.76 147.03 9.67 146.97C6.17 146.99 4.78 148.39 5.49 152.03ZM99.63 47.12L99.63 42.26L58.01 42.26L58.01 47.17L99.63 47.12ZM30.63 68.25C35.42 68.25 39.63 68.31 43.82 68.2C44.02 68.19 44.22 68.15 44.41 68.09C44.6 68.04 44.79 67.95 44.96 67.85C45.13 67.75 45.29 67.63 45.44 67.49C45.58 67.35 45.71 67.2 45.82 67.03C47.71 62.36 49.45 57.62 51.37 52.51C47.23 52.51 43.74 52.43 40.26 52.57C40.03 52.58 39.8 52.62 39.58 52.69C39.36 52.75 39.15 52.84 38.95 52.95C38.74 53.06 38.55 53.19 38.38 53.34C38.21 53.49 38.05 53.66 37.91 53.84C35.44 58.42 33.19 63.1 30.62 68.26L30.63 68.25ZM106.22 52.51C108.17 57.66 109.88 62.31 111.73 66.9C111.83 67.07 111.94 67.23 112.08 67.38C112.21 67.52 112.36 67.65 112.52 67.77C112.69 67.88 112.86 67.97 113.05 68.04C113.23 68.11 113.42 68.16 113.62 68.19C117.9 68.31 122.19 68.25 126.98 68.25C124.41 63.09 122.18 58.51 119.8 54.02C119.68 53.83 119.53 53.65 119.37 53.48C119.21 53.32 119.03 53.18 118.84 53.05C118.65 52.93 118.44 52.83 118.23 52.75C118.01 52.67 117.79 52.61 117.56 52.58C113.97 52.43 110.39 52.51 106.21 52.51L106.22 52.51ZM10.06 68.26C14.79 68.26 18.65 68.35 22.5 68.2C22.76 68.19 23.01 68.16 23.26 68.1C23.51 68.04 23.75 67.95 23.99 67.84C24.22 67.73 24.44 67.59 24.64 67.44C24.84 67.28 25.03 67.1 25.19 66.9C27.66 62.34 29.92 57.66 32.49 52.52C28.33 52.52 24.76 52.45 21.19 52.57C20.99 52.59 20.78 52.63 20.59 52.7C20.39 52.76 20.21 52.84 20.03 52.95C19.85 53.05 19.68 53.17 19.53 53.31C19.38 53.44 19.24 53.59 19.12 53.76C16.17 58.33 13.34 62.97 10.06 68.26ZM125.06 52.53C127.66 57.73 130.01 62.53 132.46 67.19C132.56 67.33 132.68 67.46 132.8 67.58C132.93 67.7 133.08 67.8 133.23 67.89C133.38 67.97 133.54 68.04 133.71 68.09C133.87 68.15 134.05 68.18 134.22 68.19C138.38 68.28 142.55 68.24 147.45 68.24C144.11 62.87 141.21 58.14 138.2 53.48C138.09 53.34 137.96 53.22 137.82 53.11C137.68 53 137.53 52.91 137.38 52.83C137.22 52.75 137.05 52.68 136.88 52.64C136.71 52.6 136.54 52.57 136.36 52.56C132.78 52.49 129.25 52.53 125.1 52.53L125.06 52.53ZM86.27 68.05C85.59 62.7 84.95 57.69 84.27 52.68L73.22 52.68C72.57 57.81 71.93 62.8 71.27 68.05L86.27 68.05ZM67.82 52.52C64.31 52.52 61.33 52.44 58.36 52.58C58.16 52.61 57.97 52.66 57.78 52.73C57.59 52.81 57.41 52.9 57.25 53.02C57.08 53.13 56.93 53.26 56.79 53.41C56.66 53.56 56.54 53.72 56.44 53.9C54.63 58.51 52.96 63.19 51.17 68.07L65.85 68.07C66.54 62.99 67.16 58.07 67.86 52.52L67.82 52.52ZM106.36 68.12C104.5 63.12 102.88 58.56 101.07 54.07C100.96 53.87 100.83 53.69 100.67 53.52C100.52 53.35 100.35 53.2 100.16 53.08C99.98 52.95 99.77 52.84 99.56 52.76C99.35 52.67 99.13 52.61 98.91 52.58C95.96 52.41 93 52.51 89.65 52.51C90.36 58.02 91 63.02 91.65 68.12L106.36 68.12ZM8.08 73.68C7.59 77.37 8.15 80.46 11.38 82.58C12.01 83.04 12.7 83.4 13.45 83.65C14.19 83.89 14.96 84.01 15.74 84.01C16.52 84.01 17.29 83.89 18.03 83.65C18.78 83.4 19.47 83.04 20.1 82.58C23.29 80.45 23.96 77.4 23.24 73.69L8.08 73.68ZM29.19 73.68C28.46 77.45 29.24 80.48 32.44 82.6C33.07 83.06 33.77 83.43 34.51 83.67C35.25 83.91 36.03 84.03 36.81 84.02C37.59 84.02 38.37 83.88 39.11 83.63C39.85 83.38 40.54 83 41.16 82.53C44.32 80.38 44.99 77.33 44.31 73.68L29.19 73.68ZM50.19 73.68C49.63 77.78 50.49 80.93 54 82.94C54.61 83.32 55.27 83.6 55.97 83.78C56.66 83.97 57.38 84.04 58.1 84.01C58.81 83.98 59.52 83.85 60.2 83.61C60.87 83.37 61.51 83.04 62.09 82.61C65.28 80.48 66.09 77.45 65.35 73.68L50.19 73.68ZM71.19 73.68C70.58 77.5 71.34 80.54 74.62 82.62C75.23 83.05 75.9 83.39 76.61 83.62C77.33 83.84 78.07 83.96 78.81 83.96C79.56 83.96 80.3 83.84 81.02 83.62C81.73 83.39 82.4 83.05 83.01 82.62C86.24 80.53 87.01 77.5 86.36 73.67L71.19 73.68ZM107.32 73.85L92.11 73.85C91.83 80.27 95.11 84.24 100.11 83.94C105.11 83.64 108.03 79.64 107.3 73.9L107.32 73.85ZM113.25 73.65C112.6 77.59 113.39 80.65 116.68 82.65C117.3 83.07 117.97 83.4 118.69 83.62C119.4 83.84 120.15 83.94 120.9 83.93C121.65 83.92 122.39 83.8 123.1 83.56C123.81 83.33 124.48 82.98 125.08 82.54C128.28 80.44 129.08 77.39 128.38 73.61L113.25 73.65ZM149.37 73.71L134.16 73.71C133.49 77.78 134.57 80.86 138 82.88C138.61 83.26 139.27 83.55 139.96 83.74C140.65 83.93 141.37 84.01 142.09 83.98C142.81 83.95 143.51 83.82 144.19 83.58C144.87 83.34 145.5 83 146.08 82.57C149.27 80.5 150.06 77.46 149.35 73.76L149.37 73.71Z" />
	<path id="Layer" fill-rule="evenodd" class="shp0" d="M97.11 21.03C97.11 22.9 97.22 24.78 97.11 26.64C97.04 28.63 96.21 30.51 94.79 31.91C93.38 33.3 91.48 34.1 89.5 34.15C87.51 34.19 85.58 33.47 84.1 32.14C82.63 30.81 81.72 28.96 81.56 26.98C81.49 26.01 81.44 25.05 81.4 24.08C81.37 23.12 81.35 22.15 81.34 21.18C81.34 20.21 81.34 19.25 81.37 18.28C81.39 17.31 81.43 16.35 81.49 15.38C81.56 13.36 82.42 11.44 83.87 10.04C85.33 8.63 87.27 7.85 89.29 7.85C91.32 7.85 93.26 8.63 94.72 10.04C96.17 11.44 97.03 13.36 97.1 15.38C97.23 17.26 97.11 19.15 97.11 21.03ZM91.83 21.03C91.83 19.29 92.14 17.46 91.71 15.84C91.6 15.55 91.46 15.28 91.28 15.03C91.11 14.78 90.91 14.55 90.68 14.34C90.46 14.13 90.21 13.95 89.94 13.8C89.68 13.65 89.39 13.54 89.1 13.45C88.51 13.32 86.92 14.86 86.85 15.74C86.78 16.61 86.72 17.48 86.69 18.35C86.65 19.21 86.63 20.08 86.63 20.96C86.63 21.83 86.65 22.7 86.69 23.56C86.72 24.43 86.78 25.3 86.85 26.17C86.93 27.08 88.42 28.3 89.46 28.53C90.04 28.66 91.46 27.18 91.7 26.23C91.76 25.8 91.8 25.37 91.84 24.94C91.87 24.51 91.89 24.08 91.9 23.64C91.91 23.21 91.91 22.78 91.9 22.35C91.89 21.91 91.87 21.48 91.83 21.05L91.83 21.03Z" />
	<path id="Layer" class="shp0" d="M68.26 18.16L73.54 18.16C73.54 15.92 73.24 13.66 73.65 11.54C73.89 10.26 75.22 9.19 76.07 8.03C76.97 9.14 78.61 10.21 78.65 11.34C78.9 17.83 78.88 24.34 78.65 30.83C78.65 31.91 77.1 32.93 76.27 33.98C75.36 32.89 73.9 31.92 73.65 30.69C73.22 28.57 73.53 26.29 73.53 23.87L68.28 23.87C68.32 24.46 68.35 25.05 68.36 25.64C68.38 26.23 68.38 26.82 68.37 27.41C68.36 28 68.34 28.59 68.31 29.18C68.27 29.76 68.23 30.35 68.17 30.94C67.97 32.08 66.56 33 65.7 34.03C64.81 33.03 63.2 32.03 63.17 31.03C62.94 24.29 62.95 17.54 63.17 10.79C63.17 9.85 64.7 8.95 65.52 8.02C66.44 9.02 67.95 9.83 68.15 10.92C68.55 13.2 68.26 15.6 68.26 18.16Z" />
	<path id="Layer" class="shp0" d="M60.35 24.97C60.35 30.38 57.35 33.69 53.25 34.04C49.15 34.39 45.25 31.61 44.93 27.7C44.82 26.46 46.07 25.11 46.7 23.81C47.76 24.6 48.84 25.36 49.88 26.17C50.12 26.4 50.36 26.62 50.62 26.84C50.87 27.05 51.12 27.26 51.39 27.46C51.65 27.66 51.92 27.86 52.19 28.04C52.47 28.23 52.75 28.41 53.03 28.58C53.29 28.7 54.33 27.14 55.03 26.36C53.93 25.42 52.97 23.97 51.71 23.63C46.56 22.25 43.84 18.52 44.97 13.82C45.23 12.82 45.68 11.88 46.29 11.06C46.91 10.24 47.69 9.54 48.57 9.02C49.46 8.49 50.44 8.15 51.46 8.01C52.48 7.86 53.52 7.92 54.52 8.18C57.78 8.98 60.52 12.03 60.22 15.18C60.17 15.48 60.08 15.78 59.96 16.07C59.84 16.35 59.69 16.62 59.51 16.88C59.33 17.13 59.12 17.36 58.89 17.56C58.66 17.77 58.41 17.95 58.14 18.1C57.59 18.37 56.23 17.1 55.35 16.4C55.03 16.14 55.18 15.27 54.86 15.05C54.65 14.86 54.42 14.69 54.19 14.54C53.95 14.38 53.71 14.24 53.46 14.11C53.2 13.99 52.94 13.88 52.68 13.79C52.41 13.69 52.14 13.62 51.86 13.56C51.31 13.56 50.08 15.01 50.21 15.56C50.29 15.83 50.39 16.1 50.52 16.35C50.65 16.6 50.79 16.84 50.97 17.07C51.14 17.3 51.33 17.51 51.54 17.7C51.74 17.89 51.97 18.06 52.21 18.21C53.91 19.21 56.21 19.27 57.56 20.5C59.08 21.83 59.78 24.07 60.35 24.97Z" />
	<path id="Layer" fill-rule="evenodd" class="shp0" d="M105.02 24.26C105.02 26.48 105.34 28.66 104.9 30.68C104.64 31.92 103.22 32.91 102.31 34.02C101.47 33.02 99.92 32.02 99.89 30.91C99.67 24.29 99.76 17.67 99.84 11.05C99.84 10.26 100.36 8.83 100.73 8.8C104.01 8.55 107.61 7.71 110.49 8.8C112.64 9.58 114.6 12.69 115.32 15.15C116.22 18.2 114.42 21.15 111.51 22.57C109.68 23.43 107.48 23.61 105.02 24.26ZM105.31 18.17L106.25 19.02C107.56 17.94 109.97 16.88 109.98 15.8C110.02 12.77 107.54 13.06 105.31 13.41L105.31 18.17Z" />
	<path id="Layer" class="shp0" d="M74.78 124.8L70.97 128.5C70.09 127.27 68.77 126.15 68.42 124.78C67.93 122.88 68.59 120.67 71.05 120.99C72.18 121.14 73.11 123.04 74.78 124.8Z" />
	<path id="Layer" class="shp0" d="M90.78 124.76L86.67 128.53C85.81 127.27 84.28 126.01 84.27 124.75C84.26 123.49 85.74 122.14 86.56 120.83L90.78 124.76Z" />
</svg>