<svg xmlns="http://www.w3.org/2000/svg" viewBox="0 0 512 512" width="48" height="48">
	<style>
		tspan { white-space:pre }
		.shp0 { fill: #f1602e } 
	</style>
	<g id="Layer">
		<g id="Layer">
			<path id="Layer" class="shp0" d="M389.73 212.54L350.07 307.05C348.5 310.8 350.26 315.12 354.01 316.69C357.66 318.25 362.07 316.54 363.65 312.75L403.31 218.23C404.88 214.48 403.12 210.17 399.37 208.6C395.62 207.02 391.31 208.79 389.73 212.54L389.73 212.54Z" />
			<path id="Layer" fill-rule="evenodd" class="shp0" d="M374.15 231.35C374.15 246.64 362.99 259.08 349.26 259.08C335.54 259.08 324.38 246.64 324.38 231.35C324.38 216.06 335.54 203.62 349.26 203.62C362.99 203.62 374.15 216.06 374.15 231.35ZM359.43 231.35C359.43 224.18 354.87 218.34 349.27 218.34C343.66 218.34 339.1 224.18 339.1 231.35C339.1 238.52 343.66 244.35 349.27 244.35C354.87 244.35 359.43 238.52 359.43 231.35Z" />
			<path id="Layer" fill-rule="evenodd" class="shp0" d="M402.84 268.24C416.56 268.24 427.73 280.68 427.73 295.97C427.73 311.26 416.56 323.7 402.84 323.7C389.11 323.7 377.95 311.26 377.95 295.97C377.95 280.68 389.11 268.24 402.84 268.24ZM402.84 282.96C397.23 282.96 392.67 288.8 392.67 295.97C392.67 303.14 397.23 308.97 402.84 308.97C408.44 308.97 413 303.14 413 295.97C413 288.8 408.44 282.96 402.84 282.96Z" />
			<path id="Layer" fill-rule="evenodd" class="shp0" d="M398.5 440.67C398.5 449.01 395.25 456.84 389.36 462.73L389.36 462.73L349.23 502.86C343.34 508.75 335.5 512 327.17 512C318.84 512 311 508.75 305.11 502.86L265.56 463.31C262.37 463.46 259.18 463.56 256 463.56C145.98 463.56 56.48 374.05 56.48 264.04C56.48 249.11 58.13 234.22 61.4 219.8C61.44 219.63 61.49 219.47 61.54 219.31C61.33 215.48 61.22 211.63 61.22 207.77C61.22 152.27 82.83 100.1 122.07 60.85C161.32 21.61 213.49 0 268.99 0C313.53 0 357.46 14.59 393.12 41.15L403.98 30.29C407.31 26.96 412.26 25.98 416.6 27.78C420.95 29.58 423.75 33.78 423.75 38.48L423.74 91.42C423.73 99.55 417.12 106.16 409 106.16L356.05 106.18L356.05 106.18C351.35 106.18 347.15 103.37 345.35 99.03C343.55 94.69 344.54 89.73 347.86 86.41L355.91 78.36C330.15 61.02 300.21 51.88 268.99 51.88C236.58 51.88 206.45 61.83 181.48 78.82C204.88 69.39 230 64.51 256 64.51C278.69 64.51 300.94 68.29 322.16 75.74C325.99 77.09 328.01 81.3 326.66 85.13C325.31 88.97 321.11 90.98 317.27 89.64C316.34 89.31 315.39 88.99 314.45 88.68L271.36 238.27L386.67 122.95C389.55 120.08 394.21 120.08 397.08 122.95C434.77 160.64 455.52 210.74 455.52 264.04C455.52 322.53 430.29 377.32 386.07 415.33L389.36 418.61C395.25 424.51 398.5 432.34 398.5 440.67ZM375.63 404.88C377.58 403.23 379.48 401.53 381.36 399.8L268.65 287.1C267.8 288.2 267.05 289.39 266.43 290.67C264.02 295.59 263.67 301.16 265.45 306.34L269.65 318.56C270.77 321.83 271.37 325.15 271.51 328.44L289.31 327.58C294.77 327.32 300.13 329.39 304.01 333.26L375.63 404.88ZM391.78 389.41C423.19 355.47 440.8 311.05 440.8 264.04C440.8 217.14 423.43 172.92 391.77 138.68L266.41 264.04L270.07 267.69C271.15 267.19 272.27 266.75 273.41 266.35L279.09 264.4C279.2 260.73 280.29 257.15 282.35 253.99C288.45 244.59 301.06 241.91 310.46 248.02C319.85 254.12 322.53 266.73 316.43 276.13C316.43 276.13 316.43 276.13 316.43 276.13C312.54 282.11 306.01 285.37 299.35 285.37C295.56 285.37 291.73 284.31 288.32 282.1C286.67 281.03 285.22 279.74 283.97 278.3L281.51 279.14L391.78 389.41ZM132.48 71.27C96.03 107.73 75.95 156.21 75.95 207.77C75.95 246.59 87.42 284.03 109.14 316.03C125.2 339.7 146.18 359.41 170.54 373.86L169.45 372.2C167.58 369.36 167.26 365.8 168.59 362.67C169.92 359.54 172.7 357.3 176.04 356.66L183.19 355.3C159.77 341.71 139.95 322.79 125.28 299.91C107.68 272.43 98.37 240.57 98.37 207.77C98.37 113.69 174.91 37.16 268.99 37.16C305.05 37.16 339.56 48.3 368.78 69.38C371.24 71.16 372.79 73.91 373.04 76.94C373.28 79.95 372.19 82.91 370.05 85.04L363.65 91.45L408.99 91.44L409.02 46.08L400.8 54.3C397.14 57.96 391.29 58.32 387.19 55.14C353.56 29.08 311.58 14.73 268.99 14.73C217.42 14.73 168.95 34.81 132.48 71.27ZM300.31 84.59C288.24 81.62 275.89 79.88 263.36 79.39L263.36 212.82L300.31 84.59ZM298.37 265.57C298.94 267.25 298.88 269 298.3 270.54C300.47 270.97 302.8 270.08 304.08 268.11C305.76 265.52 305.02 262.05 302.43 260.37C300.1 258.79 296.74 259.35 295.04 261.57C296.55 262.43 297.76 263.81 298.37 265.57ZM71.39 272.16C75.58 368.65 154.12 446.19 251.01 448.77L219.76 417.51C215.89 413.64 213.82 408.29 214.08 402.82L216.84 345.4C217.23 337.21 223.7 330.73 231.89 330.34L256.8 329.15C256.73 327.21 256.38 325.26 255.72 323.34L251.53 311.12C248.47 302.22 249.06 292.66 253.2 284.21C254.55 281.44 256.23 278.91 258.19 276.64L252.52 270.97C250.02 268.47 248.64 265.14 248.64 261.6L248.64 79.39C208.84 80.86 171.64 94.94 140.37 119.8C123.18 144.85 113.1 175.15 113.1 207.77C113.1 268.41 148.66 324 203.68 349.37C207.34 351.06 209.48 354.88 208.98 358.88C208.5 362.87 205.51 366.05 201.56 366.8L185.52 369.85L194.45 383.46C196.73 386.93 196.44 391.38 193.74 394.53C191.03 397.7 186.64 398.62 182.92 396.92C148.19 381.11 118.46 356 96.95 324.3C85.94 308.06 77.37 290.53 71.39 272.16ZM378.95 452.32C382.06 449.21 383.77 445.07 383.77 440.67C383.77 436.27 382.06 432.14 378.95 429.02L293.59 343.68C292.71 342.79 291.49 342.29 290.24 342.29C290.17 342.29 290.09 342.29 290.02 342.29L268.92 343.3C265.2 352.39 257.75 359.89 247.76 363.32C246.97 363.6 246.16 363.73 245.37 363.73C242.31 363.73 239.45 361.81 238.4 358.75C237.08 354.9 239.13 350.72 242.98 349.4C246.19 348.29 248.94 346.46 251.13 344.16L232.6 345.05C232.02 345.07 231.57 345.53 231.54 346.1L228.79 403.52C228.72 404.85 229.23 406.16 230.17 407.1L315.52 492.45C318.63 495.56 322.77 497.27 327.17 497.27C331.57 497.27 335.71 495.56 338.82 492.45L378.95 452.32Z" />
			<path id="Layer" fill-rule="evenodd" class="shp0" d="M302.66 442.78C301.43 445.5 298.75 447.11 295.95 447.11C294.93 447.11 293.9 446.9 292.92 446.45C289.21 444.78 287.57 440.41 289.24 436.71L291.77 431.12L280.71 420.06L275.09 422.58C271.38 424.25 267.02 422.59 265.36 418.88C263.69 415.17 265.35 410.81 269.06 409.15L310.24 390.68C310.29 390.66 310.34 390.64 310.4 390.61C313.53 389.3 317.1 390 319.51 392.4C321.91 394.8 322.62 398.37 321.31 401.5C321.28 401.57 321.26 401.64 321.23 401.7L302.66 442.78ZM298.25 416.78L300.85 411.03L295.09 413.61L298.25 416.78Z" />
			<path id="Layer" class="shp0" d="M358.31 434.66L344.68 437.02L347.05 423.39C347.75 419.39 345.06 415.57 341.06 414.88C337.04 414.18 333.24 416.86 332.54 420.87L329.26 439.69L306.76 443.59C302.76 444.29 300.07 448.1 300.77 452.11C301.44 456.13 305.37 458.81 309.28 458.1L326.58 455.1L323.57 472.39C321.8 481.76 336.54 484.38 338.08 474.91L341.99 452.43L360.83 449.16C364.84 448.47 367.52 444.66 366.83 440.65C366.13 436.64 362.32 433.96 358.32 434.66L358.31 434.66Z" />
			<path id="Layer" class="shp0" d="M290.07 382.82C291.5 384.25 293.39 384.97 295.27 384.97C297.16 384.97 299.04 384.25 300.48 382.82C303.35 379.94 303.35 375.28 300.48 372.4L283.78 355.7C280.9 352.83 276.24 352.83 273.36 355.7C270.49 358.58 270.49 363.24 273.36 366.11L276.48 369.23L251.44 394.26C248.56 397.14 248.56 401.8 251.44 404.68C252.88 406.11 254.76 406.83 256.64 406.83C258.53 406.83 260.41 406.11 261.85 404.68L286.89 379.64L290.07 382.82Z" />
			<path id="Layer" fill-rule="evenodd" class="shp0" d="M202.38 219.94C217.01 225.12 224.84 238.14 222.32 253.12C220.35 264.86 211.26 276.77 197.12 279.96L197.12 286.96C197.12 291.02 193.82 294.32 189.75 294.32C185.69 294.32 182.39 291.02 182.39 286.96L182.39 280.62C175.29 280.13 169.61 278.43 161.47 273.15C158.31 271.09 156.99 266.97 158.66 263.6C160.66 259.56 165.65 258.29 169.31 260.68C174.55 264.1 177.72 265.4 182.39 265.85L182.39 227.91C176.71 225.35 172.53 222.91 169.13 220.25C162.41 214.98 159.35 205.8 161.14 196.3C163.1 185.9 170.32 177.63 179.99 174.72C180.81 174.47 181.6 174.27 182.39 174.08L182.39 167.88C182.39 163.82 185.69 160.52 189.76 160.52C193.82 160.52 197.12 163.82 197.12 167.88L197.12 173.54C207.22 175.27 213.38 180.81 213.76 181.16C219.15 187.45 211.7 196.48 204.5 192.39L203.78 191.98L203.84 192.04C203.67 191.89 201.24 189.82 197.12 188.62L197.12 218.03C198.88 218.7 200.65 219.33 202.38 219.94ZM182.39 189.55C178.36 191.57 176.25 195.61 175.61 199.02C174.85 203.04 175.88 206.83 178.22 208.66C179.43 209.61 180.84 210.53 182.39 211.43L182.39 189.55ZM197.47 233.83C197.35 233.79 197.24 233.74 197.12 233.7L197.12 264.54C203.26 261.88 206.89 256.12 207.8 250.68C208.29 247.75 209 237.9 197.47 233.83Z" />
		</g>
	</g>
</svg>