<svg xmlns="http://www.w3.org/2000/svg" viewBox="0 0 163 163" width="48" height="48">
	<style>
		tspan { white-space:pre }
		.shp0 { fill: #f1602f } 
	</style>
	<path id="Layer" fill-rule="evenodd" class="shp0" d="M81.24 89.03C61.91 89.03 42.57 89.03 23.24 89.03C15.76 89.03 13.24 86.4 13.24 78.85L13.24 9.67C13.24 2.83 15.93 0.02 22.67 0.02C61.7 0.02 100.73 0.02 139.77 0.02C146.77 0.02 149.45 2.77 149.46 9.81C149.46 33.14 149.46 56.45 149.46 79.74C149.46 86.13 146.56 89.01 140.02 89.02C120.41 89.05 100.82 89.06 81.24 89.03ZM81.36 83.79L81.36 83.74L139.36 83.74C143.82 83.74 144.21 83.3 144.22 78.74C144.22 55.95 144.22 33.15 144.22 10.35C144.22 5.71 143.75 5.23 139.08 5.23L23.52 5.23C18.89 5.23 18.45 5.71 18.44 10.41L18.44 77.68C18.44 83.56 18.57 83.75 24.53 83.76C43.47 83.79 62.43 83.8 81.41 83.79L81.36 83.79Z" />
	<path id="Layer" fill-rule="evenodd" class="shp0" d="M92.68 120.66C87.58 109.44 88.53 102.43 95.68 97.21C97.15 96.15 98.8 95.36 100.54 94.86C102.29 94.36 104.1 94.17 105.91 94.29C107.72 94.41 109.49 94.85 111.16 95.57C112.82 96.3 114.34 97.31 115.66 98.55C121.66 104.26 122.13 111.9 116.82 120.55L121.14 122.97C132.84 113.27 144.92 112.69 154.69 121.24C156.74 123.08 158.44 125.26 159.74 127.68C161.04 130.11 161.9 132.74 162.29 135.46C162.68 138.18 162.59 140.95 162.03 143.64C161.47 146.33 160.44 148.9 158.99 151.24C152.19 162.15 140.78 164.92 126.8 160.24C124.88 160.97 122.97 162.3 121.03 162.33C110.19 162.54 99.34 162.33 88.5 162.49C85.09 162.49 83.83 161.21 83.9 157.84C84.03 150.37 84.12 142.84 83.85 135.42C83.6 128.38 85.75 123.12 92.68 120.66ZM126.22 140.99L125.86 140.99C125.83 141.67 125.81 142.36 125.79 143.04C125.78 143.73 125.78 144.41 125.79 145.1C125.8 145.78 125.82 146.47 125.84 147.15C125.87 147.83 125.91 148.52 125.96 149.2C126 149.58 126.08 149.95 126.19 150.32C126.3 150.68 126.44 151.04 126.61 151.38C126.78 151.72 126.98 152.04 127.2 152.35C127.43 152.65 127.68 152.94 127.96 153.2C135.33 159.2 146.52 157.99 152.81 150.63C154.36 148.83 155.54 146.75 156.28 144.49C157.03 142.24 157.34 139.87 157.17 137.5C157.01 135.13 156.39 132.82 155.34 130.69C154.3 128.56 152.85 126.65 151.07 125.08C144.07 118.71 132.87 118.9 126.35 125.6C126.15 125.81 125.97 126.04 125.81 126.28C125.65 126.52 125.52 126.78 125.41 127.04C125.29 127.31 125.21 127.59 125.15 127.87C125.09 128.15 125.06 128.44 125.05 128.73C125.31 132.86 125.82 136.93 126.22 140.99ZM98.96 126.36C92.59 124.82 89.36 127.21 89.25 133.43C89.16 137.78 89.19 142.15 89.18 146.5C89.18 149.93 89.18 153.36 89.18 156.82L120.41 156.82C120.41 148.46 120.68 140.38 120.31 132.33C120.07 127.13 116.55 125.17 110.82 126.43C111.05 128.21 110.95 130.17 111.61 131.82C114.11 138.1 111.18 142.82 107.53 147.41C105.65 149.79 104.02 149.78 102.18 147.41C98.61 142.76 95.62 138.07 98.18 131.79C98.84 130.11 98.72 128.15 98.96 126.36ZM96.75 116.34C97.46 117.33 98.36 118.19 99.39 118.85C100.42 119.52 101.56 119.98 102.77 120.23C103.97 120.47 105.2 120.49 106.41 120.28C110.77 119.69 114.09 116.44 114.25 112.9C111.44 111.65 108.76 110.4 106.03 109.27C105.87 109.2 105.7 109.15 105.53 109.11C105.36 109.07 105.18 109.05 105.01 109.04C104.83 109.03 104.66 109.04 104.48 109.06C104.31 109.08 104.14 109.12 103.97 109.17C101.04 110.38 98.14 111.73 95.2 113.04C95.51 114.23 96.03 115.35 96.75 116.34ZM95.34 107.59C97.97 106.14 100.34 105.28 102.07 103.76C104.24 101.89 105.72 102.03 107.84 103.82C109.54 105.25 111.84 106.03 113.84 107.09C112.6 101.67 109.01 99.29 104.28 99.58C99.83 99.84 96.48 102.55 95.34 107.55L95.34 107.59ZM104.93 141.67C109.25 136.14 105.24 131.36 104.77 126.52C104.88 131.36 100.41 136.14 104.93 141.67Z" />
	<path id="Layer" fill-rule="evenodd" class="shp0" d="M43.02 160.12C40.97 160.87 38.94 162.21 36.89 162.25C26.29 162.47 15.7 162.36 5.1 162.34C0.56 162.34 0.1 161.92 0.1 157.47C0.1 150.12 0.29 142.77 0.02 135.42C-0.24 128.48 1.75 123.14 9.28 120.6C5.71 115.98 4.19 110.91 6.07 105.74C6.37 104.94 6.73 104.15 7.13 103.39C7.53 102.64 7.98 101.9 8.47 101.2C8.96 100.5 9.5 99.82 10.08 99.19C10.65 98.55 11.27 97.95 11.92 97.39C17.36 92.79 25.72 93.39 31.22 98.03C37.67 103.51 38.29 110.7 33.1 120.71L37.27 122.9C49.27 113.26 61.61 112.75 71.1 121.44C73.12 123.3 74.79 125.5 76.05 127.94C77.31 130.38 78.13 133.02 78.48 135.74C78.83 138.46 78.7 141.22 78.1 143.9C77.5 146.58 76.44 149.13 74.96 151.44C68.07 162.2 56.41 164.94 43.02 160.12ZM55.02 120.5C53.87 120.48 52.72 120.57 51.58 120.78C50.45 120.99 49.34 121.32 48.27 121.75C47.21 122.18 46.18 122.72 45.22 123.36C44.26 124 43.37 124.73 42.56 125.55C42.36 125.73 42.18 125.92 42.01 126.13C41.85 126.34 41.7 126.57 41.58 126.8C41.46 127.04 41.36 127.29 41.28 127.54C41.2 127.79 41.14 128.06 41.11 128.32C41.33 135.14 41.58 141.97 42.18 148.76C42.23 149.22 42.33 149.68 42.47 150.13C42.6 150.58 42.78 151.01 43 151.42C43.22 151.84 43.47 152.23 43.76 152.6C44.05 152.96 44.38 153.3 44.73 153.61C46.26 154.74 47.96 155.62 49.77 156.2C51.58 156.79 53.47 157.08 55.37 157.07C57.28 157.05 59.16 156.73 60.96 156.11C62.76 155.5 64.45 154.59 65.96 153.44C67.5 152.32 68.85 150.96 69.96 149.42C71.08 147.88 71.95 146.17 72.54 144.36C73.12 142.55 73.43 140.66 73.43 138.76C73.43 136.85 73.14 134.96 72.56 133.15C71.95 131.32 71.05 129.6 69.91 128.05C68.77 126.5 67.39 125.14 65.82 124.02C64.26 122.89 62.53 122.02 60.7 121.43C58.86 120.84 56.95 120.55 55.02 120.55L55.02 120.5ZM15.15 126.38C10.15 124.97 5.92 126.61 5.71 130.7C5.27 139.34 5.58 148.01 5.58 156.81L36.78 156.81C36.78 149.81 36.78 143.14 36.78 136.45C36.79 136.08 36.8 135.71 36.79 135.33C36.79 134.96 36.78 134.59 36.76 134.22C36.74 133.84 36.72 133.47 36.68 133.1C36.65 132.73 36.61 132.36 36.56 131.99C35.74 126.93 31.94 124.81 27.03 126.66C27.24 128.24 27.14 129.97 27.72 131.42C30.28 137.76 27.54 142.64 23.72 147.42C21.83 149.79 20.22 149.81 18.36 147.42C14.75 142.8 11.84 138.09 14.36 131.83C15 130.14 14.9 128.18 15.15 126.38ZM22.14 109.26C21.98 109.2 21.81 109.15 21.63 109.12C21.46 109.09 21.29 109.08 21.11 109.08C20.93 109.08 20.76 109.09 20.59 109.12C20.41 109.15 20.24 109.2 20.08 109.26C17.13 110.48 14.22 111.82 11.29 113.12C12.92 117.73 16.29 120.35 20.83 120.45C25.55 120.55 28.99 117.99 30.89 113.04C27.8 111.69 25 110.41 22.14 109.26ZM30.65 107.46C29.16 101.9 25.17 99.19 20.15 99.6C15.67 99.97 12.15 103.01 11.86 107.4C13.96 106.3 16.09 105.67 17.55 104.32C20.02 102.04 21.9 101.72 24.49 104.19C25.97 105.61 28.22 106.22 30.65 107.46ZM20.88 141.28C23.69 138.28 23.56 131.39 20.6 126.73C20.97 131.49 16.48 136.33 20.88 141.28Z" />
	<path id="Layer" fill-rule="evenodd" class="shp0" d="M55.87 54.65C50.87 59.65 45.98 64.77 40.96 69.75C33.17 77.47 34.91 77.89 26.88 69.75C22.88 65.75 22.88 65.6 27.03 61.48C32.31 56.19 37.64 50.93 42.86 45.57C43.55 44.87 43.68 43.62 44.07 42.62C43.14 42.9 42.21 43.2 41.26 43.45C40.46 43.67 39.26 44.26 38.89 43.95C36.09 41.21 32.89 38.64 30.89 35.35C29.25 32.6 32.12 30.4 34.06 28.46C39.27 23.26 44.44 18.03 49.68 12.87C52.89 9.71 55.53 9.7 58.75 12.72C59.66 13.58 60.45 14.56 61.41 15.34C64.31 17.72 65.32 20.21 61.96 23L76.57 37C77.72 36.65 80.17 35.13 81.12 35.78C81.84 36.26 82.54 36.78 83.21 37.34C83.88 37.89 84.53 38.48 85.14 39.1C85.75 39.71 86.33 40.36 86.88 41.04C87.42 41.72 87.93 42.42 88.41 43.15C89.23 44.47 88.53 47.79 87.32 49.15C81.59 55.39 75.51 61.3 69.43 67.22C66.66 69.92 64.15 69.79 61.23 67.11C60.03 66.02 58.96 64.79 57.77 63.69C55.77 61.83 54.33 60 56.89 57.43C57.28 57.03 56.95 55.91 56.95 55.13L55.87 54.65ZM71.95 41.76L57.95 27.5L47.63 38.02C52.26 42.68 56.97 47.4 61.63 52.1L71.95 41.76ZM83.08 45.02L80.95 42.02L62.05 60.73L64.97 63.51L83.08 45.02ZM36.26 34.24L38.56 37.17L57.23 18.88L54.81 15.99L36.26 34.24ZM33.35 69.04L52.24 50.36C51.3 49.36 50.24 48.31 49.35 47.44L30.41 66.05L33.35 69.04Z" />
	<path id="Layer" fill-rule="evenodd" class="shp0" d="M117.96 62.81C121.2 62.81 124.44 62.81 127.68 62.81C134.62 62.94 139.3 70.89 135.9 76.94C135.72 77.17 135.51 77.38 135.28 77.57C135.04 77.75 134.79 77.91 134.53 78.05C134.26 78.18 133.99 78.28 133.7 78.35C133.41 78.42 133.12 78.46 132.82 78.47C122.97 78.58 113.12 78.47 103.26 78.55C100.75 78.55 99.6 77.36 99.66 74.88C99.66 73.64 99.66 72.39 99.66 71.14C99.88 65.96 102.66 63.06 107.84 62.88C111.2 62.76 114.57 62.88 117.94 62.88L117.96 62.81ZM130.75 73.13C131.42 69.9 130.66 68.13 127.38 68.13C121.15 68.13 114.91 68.13 108.67 68.13C105.17 68.13 104.6 70.07 105.25 73.13L130.75 73.13Z" />
	<path id="Layer" class="shp0" d="M115.58 42.08L120.41 42.08L120.41 52.08L115.58 52.08L115.58 42.08Z" />
	<path id="Layer" class="shp0" d="M97.89 51.25L101.29 48.02L108.53 55.78L105.53 59.04L97.89 51.25Z" />
	<path id="Layer" class="shp0" d="M135.08 48.62L138.41 51.55L130.3 58.47L127.19 55.55L135.08 48.62Z" />
	<path id="Layer" class="shp0" d="M140.22 154.42L137.22 154.42L130.68 144.93L131.84 143.49C133.59 144.2 135.32 144.97 137.11 145.59C137.34 145.69 137.58 145.78 137.83 145.86C138.08 145.93 138.33 145.99 138.58 146.03C138.83 146.07 139.09 146.09 139.34 146.1C139.6 146.11 139.85 146.1 140.11 146.08C140.29 145.98 140.45 145.86 140.6 145.72C140.75 145.58 140.87 145.42 140.98 145.24C141.08 145.07 141.16 144.88 141.22 144.68C141.28 144.49 141.31 144.28 141.31 144.08C141.22 143.84 141.11 143.6 140.99 143.37C140.87 143.15 140.72 142.93 140.57 142.72C140.41 142.52 140.24 142.32 140.05 142.14C139.86 141.96 139.66 141.8 139.45 141.65C138.93 141.24 138.01 141.38 137.29 141.2C136.58 141.06 135.9 140.82 135.26 140.49C134.63 140.16 134.04 139.74 133.52 139.24C133 138.74 132.56 138.17 132.2 137.55C131.84 136.92 131.58 136.25 131.41 135.55C131.21 134.83 131.12 134.08 131.13 133.33C131.15 132.58 131.27 131.84 131.5 131.12C131.73 130.41 132.06 129.73 132.49 129.11C132.91 128.49 133.43 127.94 134.01 127.47C134.33 127.14 134.64 126.8 134.95 126.45C135.26 126.11 135.56 125.76 135.86 125.4C136.16 125.05 136.45 124.69 136.74 124.33C137.02 123.97 137.3 123.6 137.58 123.23L140.75 123.23L147.25 132.67L146.06 134.1C144.31 133.37 142.59 132.56 140.81 131.94C140.58 131.84 140.33 131.75 140.09 131.68C139.84 131.61 139.59 131.56 139.34 131.52C139.09 131.48 138.83 131.46 138.58 131.45C138.32 131.45 138.06 131.46 137.81 131.49C137.63 131.59 137.47 131.71 137.32 131.85C137.18 132 137.05 132.16 136.94 132.33C136.84 132.51 136.76 132.69 136.7 132.89C136.65 133.08 136.61 133.29 136.61 133.49C136.7 133.73 136.81 133.97 136.93 134.19C137.05 134.42 137.19 134.64 137.34 134.84C137.49 135.05 137.66 135.25 137.84 135.43C138.02 135.62 138.21 135.79 138.41 135.95C138.8 136.3 139.59 136.21 140.21 136.31C140.96 136.4 141.68 136.61 142.37 136.92C143.05 137.23 143.68 137.65 144.23 138.16C144.79 138.66 145.26 139.25 145.64 139.9C146.02 140.55 146.29 141.26 146.45 141.99C146.66 142.71 146.76 143.46 146.75 144.21C146.74 144.96 146.62 145.7 146.39 146.42C146.16 147.13 145.83 147.81 145.41 148.43C144.99 149.05 144.47 149.6 143.89 150.07C143.56 150.42 143.24 150.77 142.93 151.12C142.61 151.47 142.3 151.83 142 152.19C141.69 152.56 141.39 152.92 141.09 153.3C140.8 153.67 140.51 154.04 140.22 154.42L140.22 154.42Z" />
	<path id="Layer" class="shp0" d="M53.03 123.17L56.8 123.17L63.41 132.55L62.24 134.09C60.43 133.31 58.65 132.46 56.81 131.77C55.95 131.44 54.81 131.06 54.1 131.39C53.9 131.51 53.72 131.66 53.56 131.83C53.4 132 53.26 132.18 53.14 132.38C53.03 132.58 52.93 132.8 52.87 133.02C52.81 133.25 52.77 133.48 52.76 133.71C52.82 134.47 53.76 135.2 54.46 135.86C54.68 136.08 55.16 136.06 55.53 136.11C59.26 136.58 61.82 138.51 62.68 142.21C63.5 145.74 62.14 148.47 59.28 150.68C58.28 151.41 57.84 152.79 56.91 154.25L53.34 154.25C51.1 151.04 48.96 147.99 46.81 144.93L47.98 143.4C49.79 144.2 51.57 145.06 53.42 145.76C54.28 146.08 55.42 146.45 56.13 146.11C56.33 145.99 56.51 145.84 56.67 145.67C56.83 145.5 56.97 145.32 57.09 145.11C57.2 144.91 57.29 144.7 57.36 144.48C57.42 144.25 57.46 144.02 57.47 143.79C57.42 143.56 57.34 143.34 57.24 143.12C57.14 142.91 57.01 142.71 56.87 142.53C56.72 142.34 56.55 142.17 56.37 142.02C56.19 141.87 55.99 141.75 55.78 141.64C45.36 137.02 44.85 135.02 51.84 126.21C51.98 125.97 52.1 125.73 52.22 125.49C52.34 125.24 52.45 124.99 52.55 124.73C52.65 124.48 52.74 124.22 52.82 123.96C52.9 123.7 52.97 123.44 53.03 123.17L53.03 123.17Z" />
</svg>