<svg xmlns="http://www.w3.org/2000/svg" viewBox="0 0 513 513" width="48" height="48">
	<style>
		tspan { white-space:pre }
		.shp0 { fill: #f1602e } 
	</style>
	<g id="Layer">
		<g id="Layer">
			<path id="Layer" class="shp0" d="M4.61 188.94L140.82 252.88C142.19 253.52 143.73 253.74 145.22 253.49L194.94 245.37C223.36 240.73 252.4 250.19 272.63 270.67L314.25 312.8C316.8 315.38 318.07 318.79 317.85 322.41C317.62 326.04 315.92 329.26 313.06 331.5C308.72 334.9 302.55 335.05 298.06 331.87L257.48 303.12C251.73 299.04 244.06 299.5 238.83 304.25L209.18 331.15C206.11 333.93 205.88 338.68 208.67 341.74C211.45 344.81 216.19 345.04 219.26 342.26L248.81 315.36L289.38 344.1C294.13 347.46 299.72 349.13 305.3 349.13C311.34 349.13 317.37 347.18 322.31 343.31C328.49 338.46 332.32 331.19 332.81 323.36C333.31 315.53 330.43 307.84 324.92 302.25L291.93 268.86C309.37 264.53 327.84 265.24 344.98 271.06L362.56 277.04C364.48 277.69 366.47 278.01 368.46 278.01C371.58 278.01 374.69 277.22 377.46 275.66C377.49 275.64 377.53 275.62 377.56 275.6L507.19 200C510.77 197.91 511.98 193.32 509.9 189.74C507.81 186.16 503.22 184.96 499.64 187.04L370.07 262.6C369.25 263.05 368.27 263.13 367.39 262.83L349.81 256.86C327.13 249.16 302.45 249.16 279.81 256.77C256.39 235.18 224.13 225.41 192.52 230.57L145.09 238.32L10.98 175.36C7.23 173.6 2.76 175.22 1 178.97C-0.76 182.72 0.85 187.18 4.6 188.94L4.61 188.94Z" />
			<path id="Layer" fill-rule="evenodd" class="shp0" d="M511.24 329.52C513.06 333.24 511.51 337.73 507.79 339.54L443.52 370.94L439.32 376.86C430.89 388.75 419.72 398.4 406.79 405.03C406.5 412.04 403.45 418.91 397.75 423.87L396.67 424.8C391.69 429.14 385.52 431.26 379.38 431.26C378.65 431.26 377.91 431.22 377.18 431.16C377.18 431.28 377.17 431.4 377.17 431.51C376.67 438.55 373.47 444.97 368.15 449.59L367.07 450.53C362.08 454.87 355.91 456.99 349.77 456.99C349.03 456.99 348.3 456.95 347.56 456.89C347.17 463.76 344.13 470.46 338.54 475.32L337.46 476.26C332.48 480.59 326.31 482.72 320.17 482.72C319.43 482.72 318.69 482.68 317.96 482.62C317.57 489.48 314.53 496.19 308.94 501.04L307.86 501.98C303.01 506.19 296.94 508.46 290.58 508.46C289.96 508.46 289.33 508.43 288.7 508.39C283.24 508.01 278.16 505.99 274 502.63L271.32 504.99C266.04 509.86 259.24 512.29 252.45 512.29C245.27 512.29 238.11 509.59 232.74 504.22C232.68 504.16 232.61 504.1 232.55 504.03C227.93 499.06 225.5 492.76 225.31 486.39C217.32 487.1 209.08 484.43 203.09 478.44C203.03 478.38 202.97 478.31 202.91 478.25C198.1 473.08 195.66 466.51 195.62 459.93C187.88 460.41 179.98 457.72 174.18 451.92C174.12 451.86 174.05 451.8 173.99 451.73C168.37 445.69 166 437.69 166.93 430C160.42 429.25 154.22 426.13 149.66 420.92C148.08 419.12 146.8 417.15 145.8 415.07L136.45 409.77C121.04 401.04 107.61 389.62 96.51 375.81L93.28 371.8L4.5 328.37C0.78 326.55 -0.77 322.05 1.05 318.33C2.87 314.61 7.37 313.07 11.09 314.89L101.37 359.06C102.36 359.54 103.23 360.24 103.92 361.1L108.2 366.42C118.1 378.73 130.1 388.93 143.85 396.72L143.9 396.76C145.14 391.6 147.84 386.73 151.98 382.88C152.02 382.84 152.07 382.8 152.11 382.76L160.19 375.61L185.28 352.84C188.34 350.06 193.09 350.29 195.87 353.35C198.65 356.42 198.42 361.16 195.36 363.95L170.2 386.78L162.13 393.92C157.24 398.53 156.7 406.19 160.94 411.04C164.59 415.21 170.59 416.38 175.52 413.88C178.71 412.27 182.59 413.12 184.8 415.93C187.01 418.74 186.94 422.72 184.62 425.43C180.67 430.07 180.79 436.91 184.88 441.41C189.65 446.07 197.74 446.18 202.62 441.64L202.84 441.43C205.77 438.72 210.3 438.76 213.17 441.53C216.04 444.31 216.23 448.84 213.61 451.85C209.57 456.49 209.66 463.38 213.8 467.93C218.56 472.59 226.65 472.7 231.53 468.16L232.34 467.41C235.25 464.71 239.76 464.74 242.63 467.48C245.5 470.22 245.74 474.73 243.17 477.75C239.23 482.39 239.36 489.22 243.45 493.71C248.21 498.37 256.3 498.49 261.18 493.94C261.23 493.9 261.27 493.86 261.32 493.82L263.85 491.58L257.51 484.29C252.89 478.97 250.61 472.17 251.11 465.13C251.6 458.1 254.8 451.68 260.13 447.06L261.2 446.12C266.79 441.26 273.86 439.18 280.71 439.75C281.1 432.89 284.14 426.18 289.73 421.33L290.81 420.39C296.4 415.53 303.46 413.46 310.31 414.03C310.71 407.16 313.75 400.46 319.34 395.6L320.42 394.66C325.74 390.04 332.55 387.76 339.58 388.26C339.69 388.27 339.81 388.28 339.92 388.29C340.32 381.43 343.36 374.73 348.94 369.88L350.02 368.94C361.01 359.39 377.71 360.56 387.26 371.55L400.37 386.63C401.32 387.73 402.16 388.89 402.9 390.09C412.44 384.65 420.7 377.19 427.08 368.19L432.39 360.7C433.12 359.68 434.09 358.85 435.22 358.3L501.21 326.07C504.93 324.25 509.42 325.79 511.24 329.52ZM300.23 473.65L287.12 458.57C284.87 455.98 281.7 454.65 278.51 454.65C275.86 454.65 273.2 455.57 271.05 457.44L269.97 458.38C267.67 460.38 266.29 463.15 266.07 466.18C265.86 469.22 266.84 472.16 268.84 474.45L281.95 489.54C283.94 491.83 286.71 493.22 289.75 493.43C292.79 493.64 295.72 492.66 298.02 490.66L299.1 489.72C303.84 485.6 304.35 478.39 300.23 473.65ZM328.7 464C333.45 459.88 333.95 452.67 329.83 447.92L316.73 432.84C312.6 428.1 305.39 427.59 300.65 431.71L299.57 432.65C294.83 436.77 294.32 443.98 298.44 448.73L311.55 463.81C315.67 468.55 322.88 469.06 327.63 464.94L328.7 464ZM362.2 430.47C362.42 427.43 361.44 424.49 359.44 422.19L346.33 407.11C344.34 404.81 341.56 403.43 338.53 403.22C338.25 403.2 337.98 403.19 337.71 403.19C334.97 403.19 332.35 404.17 330.25 405.98L329.17 406.92C324.43 411.05 323.93 418.26 328.05 423L341.16 438.08C345.28 442.83 352.49 443.33 357.23 439.21L358.31 438.27C360.61 436.28 361.99 433.5 362.2 430.47ZM387.92 412.55C392.66 408.42 393.17 401.21 389.04 396.47L375.94 381.39C371.81 376.64 364.6 376.14 359.86 380.26L358.78 381.2C356.48 383.19 355.1 385.97 354.89 389C354.67 392.04 355.66 394.98 357.65 397.27L370.76 412.36C374.88 417.1 382.09 417.61 386.84 413.48L387.92 412.55Z" />
			<path id="Layer" class="shp0" d="M229.02 209.88L249.78 217.49C251.69 218.19 253.69 218.54 255.69 218.54C257.69 218.54 259.7 218.19 261.61 217.49L282.36 209.88C301.15 202.99 317.93 191.3 330.89 176.07C343.71 161.01 352.53 142.82 356.41 123.47C357.22 119.41 354.59 115.46 350.52 114.64C346.46 113.83 342.51 116.46 341.7 120.53C334.82 154.88 310.11 183.72 277.2 195.79L256.44 203.4C255.96 203.58 255.43 203.58 254.94 203.4L234.18 195.79C194.42 181.21 167.71 142.96 167.71 100.61L167.71 35.42C167.71 33.65 168.97 32.12 170.71 31.78L256.15 15.14L340.68 31.77C342.41 32.11 343.67 33.64 343.67 35.41L343.67 90.03C343.67 94.17 347.03 97.53 351.17 97.53C355.32 97.53 358.67 94.17 358.67 90.03L358.67 35.4C358.67 26.49 352.32 18.77 343.58 17.05L257.61 0.14C256.66 -0.05 255.68 -0.05 254.73 0.14L167.84 17.06C159.07 18.77 152.71 26.49 152.71 35.42L152.71 100.61C152.71 149.23 183.38 193.14 229.02 209.88L229.02 209.88Z" />
			<path id="Layer" fill-rule="evenodd" class="shp0" d="M322.62 43.5C326.14 44.19 328.67 47.28 328.67 50.86L328.67 100.61C328.67 136.69 305.91 169.29 272.03 181.71L258.27 186.75C257.44 187.06 256.57 187.21 255.69 187.21C254.82 187.21 253.94 187.06 253.11 186.75L239.35 181.71C205.47 169.29 182.71 136.69 182.71 100.61L182.71 50.91C182.71 47.32 185.25 44.23 188.77 43.55L254.7 30.71C255.65 30.52 256.63 30.52 257.58 30.71L322.62 43.5ZM313.67 57.03L256.13 45.71L197.71 57.09L197.71 100.61C197.71 130.43 216.52 157.36 244.51 167.63L255.69 171.73L266.87 167.63C294.86 157.36 313.67 130.43 313.67 100.61L313.67 57.03Z" />
			<path id="Layer" class="shp0" d="M236.44 114.51C233.43 111.67 228.68 111.82 225.84 114.83C223.01 117.85 223.15 122.6 226.17 125.44L238.27 136.82C239.67 138.13 241.51 138.86 243.41 138.86C243.57 138.86 243.73 138.85 243.89 138.84C245.96 138.71 247.88 137.72 249.2 136.12L288.41 88.48C291.05 85.28 290.59 80.55 287.39 77.92C284.19 75.29 279.46 75.75 276.83 78.95L242.71 120.4L236.44 114.51Z" />
		</g>
	</g>
</svg>