<svg xmlns="http://www.w3.org/2000/svg" viewBox="0 0 512 512" width="48" height="48">
	<style>
		tspan { white-space:pre }
		.shp0 { fill: #f1602e } 
	</style>
	<g id="Layer">
		<g id="Layer">
			<path id="Layer" fill-rule="evenodd" class="shp0" d="M480 264L480 144L32 144L32 398C32 398.26 32.05 398.52 32.15 398.77C32.25 399.01 32.4 399.23 32.59 399.41C32.77 399.6 32.99 399.75 33.23 399.85C33.48 399.95 33.74 400 34 400L478 400C478.26 400 478.52 399.95 478.77 399.85C479.01 399.75 479.23 399.6 479.41 399.41C479.6 399.23 479.75 399.01 479.85 398.77C479.95 398.52 480 398.26 480 398L480 280L496 280L496 398C496 400.36 495.53 402.7 494.62 404.89C493.72 407.07 492.39 409.05 490.72 410.72C489.05 412.39 487.07 413.72 484.89 414.62C482.7 415.53 480.36 416 478 416L392 416L392 468C392 471.68 391.27 475.31 389.86 478.71C388.45 482.11 386.39 485.19 383.79 487.79C381.19 490.39 378.11 492.45 374.71 493.86C371.31 495.27 367.68 496 364 496L148 496C144.32 496 140.69 495.27 137.29 493.86C133.89 492.45 130.81 490.39 128.21 487.79C125.61 485.19 123.55 482.11 122.14 478.71C120.73 475.31 120 471.68 120 468L120 416L34 416C31.64 416 29.3 415.53 27.11 414.62C24.93 413.72 22.95 412.39 21.28 410.72C19.61 409.05 18.28 407.07 17.38 404.89C16.47 402.7 16 400.36 16 398L16 82C16 79.64 16.47 77.3 17.38 75.11C18.28 72.93 19.61 70.95 21.28 69.28C22.95 67.61 24.93 66.28 27.11 65.38C29.3 64.47 31.64 64 34 64L80 64L80 80L34 80C33.74 80 33.48 80.05 33.23 80.15C32.99 80.25 32.77 80.4 32.59 80.59C32.4 80.77 32.25 80.99 32.15 81.23C32.05 81.48 32 81.74 32 82L32 128L480 128L480 82C480 81.74 479.95 81.48 479.85 81.23C479.75 80.99 479.6 80.77 479.41 80.59C479.23 80.4 479.01 80.25 478.77 80.15C478.52 80.05 478.26 80 478 80L96 80L96 64L120 64L120 44C120 40.32 120.73 36.69 122.14 33.29C123.55 29.89 125.61 26.81 128.21 24.21C130.81 21.61 133.89 19.55 137.29 18.14C140.69 16.73 144.32 16 148 16L364 16C367.68 16 371.31 16.73 374.71 18.14C378.11 19.55 381.19 21.61 383.79 24.21C386.39 26.81 388.45 29.89 389.86 33.29C391.27 36.69 392 40.32 392 44L392 64L478 64C480.36 64 482.7 64.47 484.89 65.38C487.07 66.28 489.05 67.61 490.72 69.28C492.39 70.95 493.72 72.93 494.62 75.11C495.53 77.3 496 79.64 496 82L496 264L480 264ZM136 64L376 64L376 44C376 42.42 375.69 40.86 375.08 39.41C374.48 37.95 373.6 36.63 372.48 35.52C371.37 34.4 370.05 33.52 368.59 32.92C367.14 32.31 365.58 32 364 32L148 32C146.42 32 144.86 32.31 143.41 32.92C141.95 33.52 140.63 34.4 139.52 35.52C138.4 36.63 137.52 37.95 136.92 39.41C136.31 40.86 136 42.42 136 44L136 64ZM364 480C365.58 480 367.14 479.69 368.59 479.08C370.05 478.48 371.37 477.6 372.48 476.48C373.6 475.37 374.48 474.05 375.08 472.59C375.69 471.14 376 469.58 376 468L376 456L136 456L136 468C136 469.58 136.31 471.14 136.92 472.59C137.52 474.05 138.4 475.37 139.52 476.48C140.63 477.6 141.95 478.48 143.41 479.08C144.86 479.69 146.42 480 148 480L364 480ZM376 416L136 416L136 440L376 440L376 416Z" />
			<path id="Layer" fill-rule="evenodd" class="shp0" d="M316 384C312.32 384 308.69 383.27 305.29 381.86C301.89 380.45 298.81 378.39 296.21 375.79C293.61 373.19 291.55 370.11 290.14 366.71C288.73 363.31 288 359.68 288 356L288 348C288 344.32 288.73 340.69 290.14 337.29C291.55 333.89 293.61 330.81 296.21 328.21C298.81 325.61 301.89 323.55 305.29 322.14C308.69 320.73 312.32 320 316 320L420 320C423.68 320 427.31 320.73 430.71 322.14C434.11 323.55 437.19 325.61 439.79 328.21C442.39 330.81 444.45 333.89 445.86 337.29C447.27 340.69 448 344.32 448 348L448 356C448 359.68 447.27 363.31 445.86 366.71C444.45 370.11 442.39 373.19 439.79 375.79C437.19 378.39 434.11 380.45 430.71 381.86C427.31 383.27 423.68 384 420 384L316 384ZM304 356C304 357.58 304.31 359.14 304.92 360.59C305.52 362.05 306.4 363.37 307.52 364.48C308.63 365.6 309.95 366.48 311.41 367.08C312.86 367.69 314.42 368 316 368L420 368C421.58 368 423.14 367.69 424.59 367.08C426.05 366.48 427.37 365.6 428.48 364.48C429.6 363.37 430.48 362.05 431.08 360.59C431.69 359.14 432 357.58 432 356L432 348C432 346.42 431.69 344.86 431.08 343.41C430.48 341.95 429.6 340.63 428.48 339.52C427.37 338.4 426.05 337.52 424.59 336.92C423.14 336.31 421.58 336 420 336L316 336C314.42 336 312.86 336.31 311.41 336.92C309.95 337.52 308.63 338.4 307.52 339.52C306.4 340.63 305.52 341.95 304.92 343.41C304.31 344.86 304 346.42 304 348L304 356Z" />
			<path id="Layer" fill-rule="evenodd" class="shp0" d="M232 160C233.05 160 234.09 160.21 235.06 160.61C236.03 161.01 236.91 161.6 237.66 162.34C238.4 163.09 238.99 163.97 239.39 164.94C239.79 165.91 240 166.95 240 168L240 376C240 377.05 239.79 378.09 239.39 379.06C238.99 380.03 238.4 380.91 237.66 381.66C236.91 382.4 236.03 382.99 235.06 383.39C234.09 383.79 233.05 384 232 384L56 384C54.95 384 53.91 383.79 52.94 383.39C51.97 382.99 51.09 382.4 50.34 381.66C49.6 380.91 49.01 380.03 48.61 379.06C48.21 378.09 48 377.05 48 376L48 168C48 166.95 48.21 165.91 48.61 164.94C49.01 163.97 49.6 163.09 50.34 162.34C51.09 161.6 51.97 161.01 52.94 160.61C53.91 160.21 54.95 160 56 160L232 160ZM64 176L64 317.82C64.67 317.35 65.35 316.89 66.05 316.46C66.74 316.03 67.45 315.62 68.18 315.23C68.9 314.85 69.64 314.49 70.38 314.15C71.13 313.81 71.89 313.5 72.66 313.21L113.62 297.85L118.13 284.32C115.99 283.1 114.03 281.6 112.28 279.87C110.54 278.14 109.03 276.18 107.79 274.06C106.56 271.93 105.61 269.65 104.97 267.28C104.33 264.91 104 262.46 104 260L104 220C104 216.32 104.73 212.69 106.14 209.29C107.55 205.89 109.61 202.81 112.21 200.21C114.81 197.61 117.89 195.55 121.29 194.14C124.69 192.73 128.32 192 132 192L156 192C159.68 192 163.31 192.73 166.71 194.14C170.11 195.55 173.19 197.61 175.79 200.21C178.39 202.81 180.45 205.89 181.86 209.29C183.27 212.69 184 216.32 184 220L184 260C184 262.46 183.67 264.91 183.03 267.28C182.39 269.65 181.44 271.93 180.21 274.06C178.97 276.18 177.46 278.14 175.72 279.87C173.97 281.6 172.01 283.1 169.87 284.32L174.38 297.85L215.34 313.21C216.11 313.5 216.87 313.81 217.62 314.15C218.36 314.49 219.1 314.85 219.82 315.23C220.55 315.62 221.26 316.03 221.95 316.46C222.65 316.89 223.33 317.35 224 317.82L224 176L64 176ZM168 220C168 218.42 167.69 216.86 167.08 215.41C166.48 213.95 165.6 212.63 164.48 211.52C163.37 210.4 162.05 209.52 160.59 208.92C159.14 208.31 157.58 208 156 208L132 208C130.42 208 128.86 208.31 127.41 208.92C125.95 209.52 124.63 210.4 123.52 211.52C122.4 212.63 121.52 213.95 120.92 215.41C120.31 216.86 120 218.42 120 220L120 260C120 261.58 120.31 263.14 120.92 264.59C121.52 266.05 122.4 267.37 123.52 268.48C124.63 269.6 125.95 270.48 127.41 271.08C128.86 271.69 130.42 272 132 272L156 272C157.58 272 159.14 271.69 160.59 271.08C162.05 270.48 163.37 269.6 164.48 268.48C165.6 267.37 166.48 266.05 167.08 264.59C167.69 263.14 168 261.58 168 260L168 220ZM128.91 302.55L144 322.67L159.08 302.55L154.23 288L133.77 288L128.91 302.55ZM64 368L224 368L224 348.79C223.99 346.57 223.65 344.36 222.98 342.23C222.31 340.11 221.33 338.1 220.06 336.28C218.79 334.45 217.26 332.82 215.5 331.45C213.75 330.08 211.8 328.99 209.72 328.2L170.8 313.6L150.4 340.8C149.65 341.79 148.69 342.6 147.58 343.16C146.47 343.71 145.24 344 144 344C142.76 344 141.53 343.71 140.42 343.16C139.31 342.6 138.35 341.79 137.6 340.8L117.2 313.6L78.27 328.19C76.19 328.98 74.24 330.08 72.49 331.45C70.74 332.82 69.2 334.44 67.94 336.27C66.67 338.1 65.68 340.11 65.02 342.23C64.35 344.35 64.01 346.57 64 348.79L64 368Z" />
			<path id="Layer" fill-rule="evenodd" class="shp0" d="M288 224C283.8 224 279.64 223.16 275.76 221.55C271.88 219.94 268.35 217.59 265.38 214.62C262.41 211.65 260.06 208.12 258.45 204.24C256.84 200.36 256 196.2 256 192C256 179.06 263.8 167.39 275.75 162.44C287.71 157.48 301.48 160.22 310.63 169.37C319.78 178.52 322.52 192.29 317.56 204.25C312.61 216.2 300.94 224 288 224ZM288 176C285.9 176 283.82 176.42 281.88 177.22C279.94 178.03 278.18 179.21 276.69 180.69C275.21 182.18 274.03 183.94 273.22 185.88C272.42 187.82 272 189.9 272 192C272 198.47 275.9 204.31 281.88 206.78C287.86 209.26 294.74 207.89 299.31 203.31C303.89 198.74 305.26 191.86 302.78 185.88C300.31 179.9 294.47 176 288 176Z" />
			<path id="Layer" class="shp0" d="M432 168.53L464 168.53L464 184.53L432 184.53L432 168.53Z" />
			<path id="Layer" class="shp0" d="M336 168L416 168L416 184L336 184L336 168Z" />
			<path id="Layer" class="shp0" d="M400 200L464 200L464 216L400 216L400 200Z" />
			<path id="Layer" class="shp0" d="M336 200L384 200L384 216L336 216L336 200Z" />
			<path id="Layer" fill-rule="evenodd" class="shp0" d="M288 304C283.8 304 279.64 303.16 275.76 301.55C271.88 299.94 268.35 297.59 265.38 294.62C262.41 291.65 260.06 288.12 258.45 284.24C256.84 280.36 256 276.2 256 272C256 259.06 263.8 247.39 275.75 242.44C287.71 237.48 301.48 240.22 310.63 249.37C319.78 258.52 322.52 272.29 317.56 284.25C312.61 296.2 300.94 304 288 304ZM288 256C285.9 256 283.82 256.42 281.88 257.22C279.94 258.03 278.18 259.21 276.69 260.69C275.21 262.18 274.03 263.94 273.22 265.88C272.42 267.82 272 269.9 272 272C272 278.47 275.9 284.31 281.88 286.78C287.86 289.26 294.74 287.89 299.31 283.31C303.89 278.74 305.26 271.86 302.78 265.88C300.31 259.9 294.47 256 288 256Z" />
			<path id="Layer" class="shp0" d="M432 248L464 248L464 264L432 264L432 248Z" />
			<path id="Layer" class="shp0" d="M336 248L416 248L416 264L336 264L336 248Z" />
			<path id="Layer" class="shp0" d="M400 280L464 280L464 296L400 296L400 280Z" />
			<path id="Layer" class="shp0" d="M336 280L384 280L384 296L336 296L336 280Z" />
			<path id="Layer" class="shp0" d="M48 96L64 96L64 112L48 112L48 96Z" />
			<path id="Layer" class="shp0" d="M80 96L96 96L96 112L80 112L80 96Z" />
			<path id="Layer" class="shp0" d="M112 96L128 96L128 112L112 112L112 96Z" />
			<path id="Layer" class="shp0" d="M448 96L464 96L464 112L448 112L448 96Z" />
		</g>
	</g>
</svg>